<?xml version="1.0" encoding="utf-8"?>
<Project name="aula da saudade" themeId="0" version="65538" templateID="SimpleProjectTemplate">
  <MediaItems>
    <MediaItem id="3" filePath="C:\Users\aluno.UDICENTRO\Downloads\Photos\20170502_151821.jpg" arWidth="512" arHeight="288" duration="0" songTitle="" songArtist="" songAlbum="" />
    <MediaItem id="4" filePath="C:\Users\aluno.UDICENTRO\Downloads\Photos\20170515_120841.jpg" arWidth="160" arHeight="160" duration="0" songTitle="" songArtist="" songAlbum="" />
    <MediaItem id="5" filePath="C:\Users\aluno.UDICENTRO\Downloads\Photos\20170524_072824.jpg" arWidth="160" arHeight="160" duration="0" songTitle="" songArtist="" songAlbum="" />
    <MediaItem id="6" filePath="C:\Users\aluno.UDICENTRO\Downloads\Photos\20170524_072847.jpg" arWidth="512" arHeight="288" duration="0" songTitle="" songArtist="" songAlbum="" />
    <MediaItem id="7" filePath="C:\Users\aluno.UDICENTRO\Downloads\Photos\20170524_072908.jpg" arWidth="512" arHeight="288" duration="0" songTitle="" songArtist="" songAlbum="" />
    <MediaItem id="8" filePath="C:\Users\aluno.UDICENTRO\Downloads\Photos\20170622_164107.jpg" arWidth="512" arHeight="288" duration="0" songTitle="" songArtist="" songAlbum="" />
    <MediaItem id="11" filePath="C:\Users\aluno.UDICENTRO\Downloads\Photos\20170704_142544.jpg" arWidth="512" arHeight="288" duration="0" songTitle="" songArtist="" songAlbum="" />
    <MediaItem id="12" filePath="C:\Users\aluno.UDICENTRO\Downloads\Photos\20170725_132747.jpg" arWidth="1920" arHeight="1920" duration="0" songTitle="" songArtist="" songAlbum="" />
    <MediaItem id="13" filePath="C:\Users\aluno.UDICENTRO\Downloads\Photos\20170728_083800.jpg" arWidth="512" arHeight="288" duration="0" songTitle="" songArtist="" songAlbum="" />
    <MediaItem id="14" filePath="C:\Users\aluno.UDICENTRO\Downloads\Photos\20170803_170920.jpg" arWidth="512" arHeight="288" duration="0" songTitle="" songArtist="" songAlbum="" />
    <MediaItem id="17" filePath="C:\Users\aluno.UDICENTRO\Downloads\Photos\20170826_083743.jpg" arWidth="512" arHeight="288" duration="0" songTitle="" songArtist="" songAlbum="" />
    <MediaItem id="25" filePath="C:\Users\aluno.UDICENTRO\Downloads\Photos\20171002_120421.jpg" arWidth="2322" arHeight="4128" duration="0" songTitle="" songArtist="" songAlbum="" />
    <MediaItem id="26" filePath="C:\Users\aluno.UDICENTRO\Downloads\Photos\20171003_091704.jpg" arWidth="512" arHeight="288" duration="0" songTitle="" songArtist="" songAlbum="" />
    <MediaItem id="27" filePath="C:\Users\aluno.UDICENTRO\Downloads\Photos\20171004_121453.jpg" arWidth="512" arHeight="288" duration="0" songTitle="" songArtist="" songAlbum="" />
    <MediaItem id="28" filePath="C:\Users\aluno.UDICENTRO\Downloads\Photos\20171010_141122.jpg" arWidth="4128" arHeight="2322" duration="0" songTitle="" songArtist="" songAlbum="" />
    <MediaItem id="29" filePath="C:\Users\aluno.UDICENTRO\Downloads\Photos\20171016_140905.jpg" arWidth="160" arHeight="120" duration="0" songTitle="" songArtist="" songAlbum="" />
    <MediaItem id="30" filePath="C:\Users\aluno.UDICENTRO\Downloads\Photos\20171019_144105(0).jpg" arWidth="512" arHeight="288" duration="0" songTitle="" songArtist="" songAlbum="" />
    <MediaItem id="31" filePath="C:\Users\aluno.UDICENTRO\Downloads\Photos\20171025_133831.jpg" arWidth="160" arHeight="120" duration="0" songTitle="" songArtist="" songAlbum="" />
    <MediaItem id="36" filePath="C:\Users\aluno.UDICENTRO\Downloads\Photos\20171206_142549.jpg" arWidth="2576" arHeight="1932" duration="0" songTitle="" songArtist="" songAlbum="" />
    <MediaItem id="37" filePath="C:\Users\aluno.UDICENTRO\Downloads\Photos\20171206_142555.jpg" arWidth="2576" arHeight="1932" duration="0" songTitle="" songArtist="" songAlbum="" />
    <MediaItem id="38" filePath="C:\Users\aluno.UDICENTRO\Downloads\Photos\20171207_131843.jpg" arWidth="2576" arHeight="1932" duration="0" songTitle="" songArtist="" songAlbum="" />
    <MediaItem id="39" filePath="C:\Users\aluno.UDICENTRO\Downloads\Photos\20171211_170136.jpg" arWidth="2576" arHeight="1932" duration="0" songTitle="" songArtist="" songAlbum="" />
    <MediaItem id="40" filePath="C:\Users\aluno.UDICENTRO\Downloads\Photos\20171211_170152.jpg" arWidth="2576" arHeight="1932" duration="0" songTitle="" songArtist="" songAlbum="" />
    <MediaItem id="41" filePath="C:\Users\aluno.UDICENTRO\Downloads\Photos\20171215_112134(0).jpg" arWidth="512" arHeight="288" duration="0" songTitle="" songArtist="" songAlbum="" />
    <MediaItem id="42" filePath="C:\Users\aluno.UDICENTRO\Downloads\Photos\20171215_114236.jpg" arWidth="512" arHeight="288" duration="0" songTitle="" songArtist="" songAlbum="" />
    <MediaItem id="43" filePath="C:\Users\aluno.UDICENTRO\Downloads\Photos\20171215_114247.jpg" arWidth="512" arHeight="288" duration="0" songTitle="" songArtist="" songAlbum="" />
    <MediaItem id="44" filePath="C:\Users\aluno.UDICENTRO\Downloads\Photos\20171215_114256.jpg" arWidth="512" arHeight="288" duration="0" songTitle="" songArtist="" songAlbum="" />
    <MediaItem id="45" filePath="C:\Users\aluno.UDICENTRO\Downloads\Photos\20171215_114316.jpg" arWidth="2576" arHeight="1932" duration="0" songTitle="" songArtist="" songAlbum="" />
    <MediaItem id="47" filePath="C:\Users\aluno.UDICENTRO\Downloads\Photos\20171215_114411(0).jpg" arWidth="512" arHeight="288" duration="0" songTitle="" songArtist="" songAlbum="" />
    <MediaItem id="48" filePath="C:\Users\aluno.UDICENTRO\Downloads\Photos\20171215_115109.jpg" arWidth="512" arHeight="288" duration="0" songTitle="" songArtist="" songAlbum="" />
    <MediaItem id="49" filePath="C:\Users\aluno.UDICENTRO\Downloads\Photos\20171215_115126.jpg" arWidth="512" arHeight="288" duration="0" songTitle="" songArtist="" songAlbum="" />
    <MediaItem id="50" filePath="C:\Users\aluno.UDICENTRO\Downloads\Photos\20171215_115323.jpg" arWidth="2576" arHeight="1932" duration="0" songTitle="" songArtist="" songAlbum="" />
    <MediaItem id="51" filePath="C:\Users\aluno.UDICENTRO\Downloads\Photos\20171215_115535.jpg" arWidth="2576" arHeight="1932" duration="0" songTitle="" songArtist="" songAlbum="" />
    <MediaItem id="54" filePath="C:\Users\aluno.UDICENTRO\Downloads\Photos\20171219_081220.jpg" arWidth="2576" arHeight="1932" duration="0" songTitle="" songArtist="" songAlbum="" />
    <MediaItem id="55" filePath="C:\Users\aluno.UDICENTRO\Downloads\Photos\20171219_083609.jpg" arWidth="2576" arHeight="1932" duration="0" songTitle="" songArtist="" songAlbum="" />
    <MediaItem id="56" filePath="C:\Users\aluno.UDICENTRO\Downloads\Photos\20171219_083822.jpg" arWidth="512" arHeight="288" duration="0" songTitle="" songArtist="" songAlbum="" />
    <MediaItem id="71" filePath="C:\Users\aluno.UDICENTRO\Downloads\Photos\20171219_115603.jpg" arWidth="160" arHeight="120" duration="0" songTitle="" songArtist="" songAlbum="" />
    <MediaItem id="73" filePath="C:\Users\aluno.UDICENTRO\Downloads\Photos\20171220_222636.jpg" arWidth="512" arHeight="288" duration="0" songTitle="" songArtist="" songAlbum="" />
    <MediaItem id="75" filePath="C:\Users\aluno.UDICENTRO\Downloads\Photos\22859972_1833132116714412_7132191760965699443_o.jpg" arWidth="2048" arHeight="1365" duration="0" songTitle="" songArtist="" songAlbum="" />
    <MediaItem id="76" filePath="C:\Users\aluno.UDICENTRO\Downloads\Photos\22861507_1833132606714363_4829376262385479343_o.jpg" arWidth="2048" arHeight="1365" duration="0" songTitle="" songArtist="" songAlbum="" />
    <MediaItem id="77" filePath="C:\Users\aluno.UDICENTRO\Downloads\Photos\1490624464763s.jpg" arWidth="1280" arHeight="720" duration="0" songTitle="" songArtist="" songAlbum="" />
    <MediaItem id="78" filePath="C:\Users\aluno.UDICENTRO\Downloads\Photos\1490630433006s.jpg" arWidth="1280" arHeight="720" duration="0" songTitle="" songArtist="" songAlbum="" />
    <MediaItem id="79" filePath="C:\Users\aluno.UDICENTRO\Downloads\Photos\1490973289150s.jpg" arWidth="720" arHeight="1280" duration="0" songTitle="" songArtist="" songAlbum="" />
    <MediaItem id="80" filePath="C:\Users\aluno.UDICENTRO\Downloads\Photos\1492446105569s.jpg" arWidth="1280" arHeight="720" duration="0" songTitle="" songArtist="" songAlbum="" />
    <MediaItem id="81" filePath="C:\Users\aluno.UDICENTRO\Downloads\Photos\1492446124224s.jpg" arWidth="720" arHeight="1280" duration="0" songTitle="" songArtist="" songAlbum="" />
    <MediaItem id="82" filePath="C:\Users\aluno.UDICENTRO\Downloads\Photos\1493985176211s.jpg" arWidth="1280" arHeight="720" duration="0" songTitle="" songArtist="" songAlbum="" />
    <MediaItem id="83" filePath="C:\Users\aluno.UDICENTRO\Downloads\Photos\1493985278446s.jpg" arWidth="720" arHeight="1280" duration="0" songTitle="" songArtist="" songAlbum="" />
    <MediaItem id="84" filePath="C:\Users\aluno.UDICENTRO\Downloads\Photos\1495812647405s.jpg" arWidth="720" arHeight="1280" duration="0" songTitle="" songArtist="" songAlbum="" />
    <MediaItem id="85" filePath="C:\Users\aluno.UDICENTRO\Downloads\Photos\1496432650576s.jpg" arWidth="720" arHeight="1280" duration="0" songTitle="" songArtist="" songAlbum="" />
    <MediaItem id="86" filePath="C:\Users\aluno.UDICENTRO\Downloads\Photos\1498227796387s.jpg" arWidth="1280" arHeight="720" duration="0" songTitle="" songArtist="" songAlbum="" />
    <MediaItem id="87" filePath="C:\Users\aluno.UDICENTRO\Downloads\Photos\1498254865744s.jpg" arWidth="720" arHeight="1280" duration="0" songTitle="" songArtist="" songAlbum="" />
    <MediaItem id="88" filePath="C:\Users\aluno.UDICENTRO\Downloads\Photos\1502362153419s.jpg" arWidth="1280" arHeight="720" duration="0" songTitle="" songArtist="" songAlbum="" />
    <MediaItem id="89" filePath="C:\Users\aluno.UDICENTRO\Downloads\Photos\1502898994797s.jpg" arWidth="1280" arHeight="720" duration="0" songTitle="" songArtist="" songAlbum="" />
    <MediaItem id="90" filePath="C:\Users\aluno.UDICENTRO\Downloads\Photos\1503751024542s.jpg" arWidth="1280" arHeight="720" duration="0" songTitle="" songArtist="" songAlbum="" />
    <MediaItem id="91" filePath="C:\Users\aluno.UDICENTRO\Downloads\Photos\1506023116140.png" arWidth="1080" arHeight="1086" duration="0" songTitle="" songArtist="" songAlbum="" />
    <MediaItem id="92" filePath="C:\Users\aluno.UDICENTRO\Downloads\Photos\1506193737537s.jpg" arWidth="1280" arHeight="960" duration="0" songTitle="" songArtist="" songAlbum="" />
    <MediaItem id="93" filePath="C:\Users\aluno.UDICENTRO\Downloads\Photos\1506533446652s.jpg" arWidth="1280" arHeight="720" duration="0" songTitle="" songArtist="" songAlbum="" />
    <MediaItem id="94" filePath="C:\Users\aluno.UDICENTRO\Downloads\Photos\1508264354561s.jpg" arWidth="1280" arHeight="720" duration="0" songTitle="" songArtist="" songAlbum="" />
    <MediaItem id="95" filePath="C:\Users\aluno.UDICENTRO\Downloads\Photos\1513697508809s.jpg" arWidth="960" arHeight="1280" duration="0" songTitle="" songArtist="" songAlbum="" />
    <MediaItem id="99" filePath="C:\Users\aluno.UDICENTRO\Downloads\Photos\IMG_0505.jpg" arWidth="160" arHeight="120" duration="0" songTitle="" songArtist="" songAlbum="" />
    <MediaItem id="100" filePath="C:\Users\aluno.UDICENTRO\Downloads\Photos\IMG_1124.jpg" arWidth="160" arHeight="120" duration="0" songTitle="" songArtist="" songAlbum="" />
    <MediaItem id="101" filePath="C:\Users\aluno.UDICENTRO\Downloads\Photos\IMG_1159.jpg" arWidth="160" arHeight="160" duration="0" songTitle="" songArtist="" songAlbum="" />
    <MediaItem id="102" filePath="C:\Users\aluno.UDICENTRO\Downloads\Photos\IMG_1241.jpg" arWidth="3456" arHeight="2304" duration="0" songTitle="" songArtist="" songAlbum="" />
    <MediaItem id="103" filePath="C:\Users\aluno.UDICENTRO\Downloads\Photos\IMG_2077-ANIMATION.gif" arWidth="640" arHeight="360" duration="0" songTitle="" songArtist="" songAlbum="" />
    <MediaItem id="105" filePath="C:\Users\aluno.UDICENTRO\Downloads\Photos\IMG_2579.jpg" arWidth="1280" arHeight="959" duration="0" songTitle="" songArtist="" songAlbum="" />
    <MediaItem id="108" filePath="C:\Users\aluno.UDICENTRO\Downloads\Photos\IMG_2944.jpg" arWidth="3662" arHeight="2744" duration="0" songTitle="" songArtist="" songAlbum="" />
    <MediaItem id="110" filePath="C:\Users\aluno.UDICENTRO\Downloads\Photos\IMG_4915.jpg" arWidth="160" arHeight="120" duration="0" songTitle="" songArtist="" songAlbum="" />
    <MediaItem id="111" filePath="C:\Users\aluno.UDICENTRO\Downloads\Photos\IMG_4967.jpg" arWidth="160" arHeight="120" duration="0" songTitle="" songArtist="" songAlbum="" />
    <MediaItem id="112" filePath="C:\Users\aluno.UDICENTRO\Downloads\Photos\IMG_4970.jpg" arWidth="1280" arHeight="720" duration="0" songTitle="" songArtist="" songAlbum="" />
    <MediaItem id="113" filePath="C:\Users\aluno.UDICENTRO\Downloads\Photos\IMG_4976.jpg" arWidth="160" arHeight="160" duration="0" songTitle="" songArtist="" songAlbum="" />
    <MediaItem id="114" filePath="C:\Users\aluno.UDICENTRO\Downloads\Photos\IMG_5010.jpg" arWidth="160" arHeight="120" duration="0" songTitle="" songArtist="" songAlbum="" />
    <MediaItem id="115" filePath="C:\Users\aluno.UDICENTRO\Downloads\Photos\IMG_5013.jpg" arWidth="720" arHeight="1280" duration="0" songTitle="" songArtist="" songAlbum="" />
    <MediaItem id="116" filePath="C:\Users\aluno.UDICENTRO\Downloads\Photos\IMG_5021.jpg" arWidth="720" arHeight="1280" duration="0" songTitle="" songArtist="" songAlbum="" />
    <MediaItem id="117" filePath="C:\Users\aluno.UDICENTRO\Downloads\Photos\IMG_5022.jpg" arWidth="1280" arHeight="720" duration="0" songTitle="" songArtist="" songAlbum="" />
    <MediaItem id="118" filePath="C:\Users\aluno.UDICENTRO\Downloads\Photos\IMG_5042.jpg" arWidth="1280" arHeight="720" duration="0" songTitle="" songArtist="" songAlbum="" />
    <MediaItem id="119" filePath="C:\Users\aluno.UDICENTRO\Downloads\Photos\IMG_5043.jpg" arWidth="720" arHeight="1280" duration="0" songTitle="" songArtist="" songAlbum="" />
    <MediaItem id="120" filePath="C:\Users\aluno.UDICENTRO\Downloads\Photos\IMG_5081.jpg" arWidth="160" arHeight="120" duration="0" songTitle="" songArtist="" songAlbum="" />
    <MediaItem id="121" filePath="C:\Users\aluno.UDICENTRO\Downloads\Photos\IMG_5190.jpg" arWidth="160" arHeight="120" duration="0" songTitle="" songArtist="" songAlbum="" />
    <MediaItem id="122" filePath="C:\Users\aluno.UDICENTRO\Downloads\Photos\IMG_5307.jpg" arWidth="1280" arHeight="719" duration="0" songTitle="" songArtist="" songAlbum="" />
    <MediaItem id="123" filePath="C:\Users\aluno.UDICENTRO\Downloads\Photos\IMG_5314(1).jpg" arWidth="160" arHeight="120" duration="0" songTitle="" songArtist="" songAlbum="" />
    <MediaItem id="124" filePath="C:\Users\aluno.UDICENTRO\Downloads\Photos\IMG_5314.jpg" arWidth="1080" arHeight="608" duration="0" songTitle="" songArtist="" songAlbum="" />
    <MediaItem id="126" filePath="C:\Users\aluno.UDICENTRO\Downloads\Photos\IMG_5391.jpg" arWidth="160" arHeight="120" duration="0" songTitle="" songArtist="" songAlbum="" />
    <MediaItem id="127" filePath="C:\Users\aluno.UDICENTRO\Downloads\Photos\IMG_5419.jpg" arWidth="1261" arHeight="708" duration="0" songTitle="" songArtist="" songAlbum="" />
    <MediaItem id="128" filePath="C:\Users\aluno.UDICENTRO\Downloads\Photos\IMG_5437.jpg" arWidth="160" arHeight="120" duration="0" songTitle="" songArtist="" songAlbum="" />
    <MediaItem id="129" filePath="C:\Users\aluno.UDICENTRO\Downloads\Photos\IMG_5467.jpg" arWidth="160" arHeight="160" duration="0" songTitle="" songArtist="" songAlbum="" />
    <MediaItem id="130" filePath="C:\Users\aluno.UDICENTRO\Downloads\Photos\IMG_5524.jpg" arWidth="960" arHeight="540" duration="0" songTitle="" songArtist="" songAlbum="" />
    <MediaItem id="131" filePath="C:\Users\aluno.UDICENTRO\Downloads\Photos\IMG_5529.jpg" arWidth="160" arHeight="120" duration="0" songTitle="" songArtist="" songAlbum="" />
    <MediaItem id="132" filePath="C:\Users\aluno.UDICENTRO\Downloads\Photos\IMG_5610.jpg" arWidth="1280" arHeight="720" duration="0" songTitle="" songArtist="" songAlbum="" />
    <MediaItem id="133" filePath="C:\Users\aluno.UDICENTRO\Downloads\Photos\IMG_5614.jpg" arWidth="1280" arHeight="720" duration="0" songTitle="" songArtist="" songAlbum="" />
    <MediaItem id="134" filePath="C:\Users\aluno.UDICENTRO\Downloads\Photos\IMG_5754.jpg" arWidth="160" arHeight="120" duration="0" songTitle="" songArtist="" songAlbum="" />
    <MediaItem id="135" filePath="C:\Users\aluno.UDICENTRO\Downloads\Photos\IMG_5772.jpg" arWidth="160" arHeight="120" duration="0" songTitle="" songArtist="" songAlbum="" />
    <MediaItem id="136" filePath="C:\Users\aluno.UDICENTRO\Downloads\Photos\IMG_5799.jpg" arWidth="1334" arHeight="1000" duration="0" songTitle="" songArtist="" songAlbum="" />
    <MediaItem id="137" filePath="C:\Users\aluno.UDICENTRO\Downloads\Photos\IMG_5800.jpg" arWidth="1280" arHeight="720" duration="0" songTitle="" songArtist="" songAlbum="" />
    <MediaItem id="138" filePath="C:\Users\aluno.UDICENTRO\Downloads\Photos\IMG_5808.jpg" arWidth="750" arHeight="1334" duration="0" songTitle="" songArtist="" songAlbum="" />
    <MediaItem id="140" filePath="C:\Users\aluno.UDICENTRO\Downloads\Photos\IMG_5862.jpg" arWidth="3264" arHeight="2448" duration="0" songTitle="" songArtist="" songAlbum="" />
    <MediaItem id="141" filePath="C:\Users\aluno.UDICENTRO\Downloads\Photos\IMG_5863.jpg" arWidth="160" arHeight="120" duration="0" songTitle="" songArtist="" songAlbum="" />
    <MediaItem id="142" filePath="C:\Users\aluno.UDICENTRO\Downloads\Photos\IMG_5864.jpg" arWidth="160" arHeight="120" duration="0" songTitle="" songArtist="" songAlbum="" />
    <MediaItem id="143" filePath="C:\Users\aluno.UDICENTRO\Downloads\Photos\IMG_5900.jpg" arWidth="160" arHeight="120" duration="0" songTitle="" songArtist="" songAlbum="" />
    <MediaItem id="144" filePath="C:\Users\aluno.UDICENTRO\Downloads\Photos\IMG_5907.jpg" arWidth="720" arHeight="479" duration="0" songTitle="" songArtist="" songAlbum="" />
    <MediaItem id="145" filePath="C:\Users\aluno.UDICENTRO\Downloads\Photos\IMG_5950.jpg" arWidth="720" arHeight="1280" duration="0" songTitle="" songArtist="" songAlbum="" />
    <MediaItem id="146" filePath="C:\Users\aluno.UDICENTRO\Downloads\Photos\IMG_6007.jpg" arWidth="160" arHeight="120" duration="0" songTitle="" songArtist="" songAlbum="" />
    <MediaItem id="147" filePath="C:\Users\aluno.UDICENTRO\Downloads\Photos\IMG_6448.jpg" arWidth="160" arHeight="120" duration="0" songTitle="" songArtist="" songAlbum="" />
    <MediaItem id="148" filePath="C:\Users\aluno.UDICENTRO\Downloads\Photos\IMG_6571.jpg" arWidth="160" arHeight="120" duration="0" songTitle="" songArtist="" songAlbum="" />
    <MediaItem id="149" filePath="C:\Users\aluno.UDICENTRO\Downloads\Photos\IMG_6650.jpg" arWidth="1280" arHeight="960" duration="0" songTitle="" songArtist="" songAlbum="" />
    <MediaItem id="150" filePath="C:\Users\aluno.UDICENTRO\Downloads\Photos\IMG_6652.jpg" arWidth="160" arHeight="120" duration="0" songTitle="" songArtist="" songAlbum="" />
    <MediaItem id="151" filePath="C:\Users\aluno.UDICENTRO\Downloads\Photos\IMG_6766.jpg" arWidth="160" arHeight="120" duration="0" songTitle="" songArtist="" songAlbum="" />
    <MediaItem id="152" filePath="C:\Users\aluno.UDICENTRO\Downloads\Photos\IMG_6767.jpg" arWidth="160" arHeight="120" duration="0" songTitle="" songArtist="" songAlbum="" />
    <MediaItem id="153" filePath="C:\Users\aluno.UDICENTRO\Downloads\Photos\IMG_6768.jpg" arWidth="160" arHeight="120" duration="0" songTitle="" songArtist="" songAlbum="" />
    <MediaItem id="154" filePath="C:\Users\aluno.UDICENTRO\Downloads\Photos\IMG_6774.jpg" arWidth="2968" arHeight="1668" duration="0" songTitle="" songArtist="" songAlbum="" />
    <MediaItem id="155" filePath="C:\Users\aluno.UDICENTRO\Downloads\Photos\IMG_6800.jpg" arWidth="1280" arHeight="960" duration="0" songTitle="" songArtist="" songAlbum="" />
    <MediaItem id="156" filePath="C:\Users\aluno.UDICENTRO\Downloads\Photos\IMG_6861.jpg" arWidth="160" arHeight="120" duration="0" songTitle="" songArtist="" songAlbum="" />
    <MediaItem id="157" filePath="C:\Users\aluno.UDICENTRO\Downloads\Photos\IMG_6877.jpg" arWidth="160" arHeight="160" duration="0" songTitle="" songArtist="" songAlbum="" />
    <MediaItem id="158" filePath="C:\Users\aluno.UDICENTRO\Downloads\Photos\IMG_6964.jpg" arWidth="576" arHeight="1024" duration="0" songTitle="" songArtist="" songAlbum="" />
    <MediaItem id="159" filePath="C:\Users\aluno.UDICENTRO\Downloads\Photos\IMG_6970.jpg" arWidth="768" arHeight="1024" duration="0" songTitle="" songArtist="" songAlbum="" />
    <MediaItem id="160" filePath="C:\Users\aluno.UDICENTRO\Downloads\Photos\IMG_6973.jpg" arWidth="1024" arHeight="575" duration="0" songTitle="" songArtist="" songAlbum="" />
    <MediaItem id="161" filePath="C:\Users\aluno.UDICENTRO\Downloads\Photos\IMG_7067.jpg" arWidth="160" arHeight="120" duration="0" songTitle="" songArtist="" songAlbum="" />
    <MediaItem id="162" filePath="C:\Users\aluno.UDICENTRO\Downloads\Photos\IMG_7105.jpg" arWidth="581" arHeight="1032" duration="0" songTitle="" songArtist="" songAlbum="" />
    <MediaItem id="163" filePath="C:\Users\aluno.UDICENTRO\Downloads\Photos\IMG_7304.jpg" arWidth="160" arHeight="120" duration="0" songTitle="" songArtist="" songAlbum="" />
    <MediaItem id="164" filePath="C:\Users\aluno.UDICENTRO\Downloads\Photos\IMG_7307.jpg" arWidth="160" arHeight="120" duration="0" songTitle="" songArtist="" songAlbum="" />
    <MediaItem id="165" filePath="C:\Users\aluno.UDICENTRO\Downloads\Photos\IMG_7317.jpg" arWidth="160" arHeight="120" duration="0" songTitle="" songArtist="" songAlbum="" />
    <MediaItem id="166" filePath="C:\Users\aluno.UDICENTRO\Downloads\Photos\IMG_7628.jpg" arWidth="1032" arHeight="581" duration="0" songTitle="" songArtist="" songAlbum="" />
    <MediaItem id="167" filePath="C:\Users\aluno.UDICENTRO\Downloads\Photos\IMG_7808.jpg" arWidth="1032" arHeight="581" duration="0" songTitle="" songArtist="" songAlbum="" />
    <MediaItem id="168" filePath="C:\Users\aluno.UDICENTRO\Downloads\Photos\IMG_20170327_173554224.jpg" arWidth="288" arHeight="512" duration="0" songTitle="" songArtist="" songAlbum="" />
    <MediaItem id="169" filePath="C:\Users\aluno.UDICENTRO\Downloads\Photos\IMG_20170424_110646094_BURST000_COVER_TOP.jpg" arWidth="384" arHeight="512" duration="0" songTitle="" songArtist="" songAlbum="" />
    <MediaItem id="170" filePath="C:\Users\aluno.UDICENTRO\Downloads\Photos\IMG_20170613_152325959.jpg" arWidth="288" arHeight="512" duration="0" songTitle="" songArtist="" songAlbum="" />
    <MediaItem id="171" filePath="C:\Users\aluno.UDICENTRO\Downloads\Photos\IMG_20170623_091429147.jpg" arWidth="2340" arHeight="4160" duration="0" songTitle="" songArtist="" songAlbum="" />
    <MediaItem id="172" filePath="C:\Users\aluno.UDICENTRO\Downloads\Photos\IMG_20170630_083813671.jpg" arWidth="4160" arHeight="2340" duration="0" songTitle="" songArtist="" songAlbum="" />
    <MediaItem id="173" filePath="C:\Users\aluno.UDICENTRO\Downloads\Photos\IMG_20170722_231556_897.jpg" arWidth="1280" arHeight="720" duration="0" songTitle="" songArtist="" songAlbum="" />
    <MediaItem id="174" filePath="C:\Users\aluno.UDICENTRO\Downloads\Photos\IMG_20170731_144735_201.jpg" arWidth="1600" arHeight="900" duration="0" songTitle="" songArtist="" songAlbum="" />
    <MediaItem id="175" filePath="C:\Users\aluno.UDICENTRO\Downloads\Photos\IMG_20170802_161402_588.jpg" arWidth="1600" arHeight="900" duration="0" songTitle="" songArtist="" songAlbum="" />
    <MediaItem id="176" filePath="C:\Users\aluno.UDICENTRO\Downloads\Photos\IMG_20170803_092738486.jpg" arWidth="2340" arHeight="4160" duration="0" songTitle="" songArtist="" songAlbum="" />
    <MediaItem id="177" filePath="C:\Users\aluno.UDICENTRO\Downloads\Photos\IMG_20170808_111642570.jpg" arWidth="288" arHeight="512" duration="0" songTitle="" songArtist="" songAlbum="" />
    <MediaItem id="178" filePath="C:\Users\aluno.UDICENTRO\Downloads\Photos\IMG_20170808_111703715.jpg" arWidth="288" arHeight="512" duration="0" songTitle="" songArtist="" songAlbum="" />
    <MediaItem id="179" filePath="C:\Users\aluno.UDICENTRO\Downloads\Photos\IMG_20170808_111944155.jpg" arWidth="512" arHeight="384" duration="0" songTitle="" songArtist="" songAlbum="" />
    <MediaItem id="180" filePath="C:\Users\aluno.UDICENTRO\Downloads\Photos\IMG_20170823_130904350.jpg" arWidth="512" arHeight="288" duration="0" songTitle="" songArtist="" songAlbum="" />
    <MediaItem id="181" filePath="C:\Users\aluno.UDICENTRO\Downloads\Photos\IMG_20170826_082046004_HDR.jpg" arWidth="288" arHeight="512" duration="0" songTitle="" songArtist="" songAlbum="" />
    <MediaItem id="182" filePath="C:\Users\aluno.UDICENTRO\Downloads\Photos\IMG_20170905_111715964.jpg" arWidth="288" arHeight="512" duration="0" songTitle="" songArtist="" songAlbum="" />
    <MediaItem id="183" filePath="C:\Users\aluno.UDICENTRO\Downloads\Photos\IMG_20170908_165349751.jpg" arWidth="512" arHeight="384" duration="0" songTitle="" songArtist="" songAlbum="" />
    <MediaItem id="184" filePath="C:\Users\aluno.UDICENTRO\Downloads\Photos\IMG_20170927_163834512.jpg" arWidth="640" arHeight="480" duration="0" songTitle="" songArtist="" songAlbum="" />
    <MediaItem id="185" filePath="C:\Users\aluno.UDICENTRO\Downloads\Photos\IMG_20171003_093551576.jpg" arWidth="4160" arHeight="2340" duration="0" songTitle="" songArtist="" songAlbum="" />
    <MediaItem id="186" filePath="C:\Users\aluno.UDICENTRO\Downloads\Photos\IMG_20171003_160143409_HDR.jpg" arWidth="384" arHeight="512" duration="0" songTitle="" songArtist="" songAlbum="" />
    <MediaItem id="187" filePath="C:\Users\aluno.UDICENTRO\Downloads\Photos\IMG_20171005_095314795.jpg" arWidth="288" arHeight="512" duration="0" songTitle="" songArtist="" songAlbum="" />
    <MediaItem id="188" filePath="C:\Users\aluno.UDICENTRO\Downloads\Photos\IMG_20171119_155356270.jpg" arWidth="512" arHeight="384" duration="0" songTitle="" songArtist="" songAlbum="" />
    <MediaItem id="189" filePath="C:\Users\aluno.UDICENTRO\Downloads\Photos\IMG_20171213_120619703.jpg" arWidth="288" arHeight="512" duration="0" songTitle="" songArtist="" songAlbum="" />
    <MediaItem id="190" filePath="C:\Users\aluno.UDICENTRO\Downloads\Photos\IMG_20171213_120622303.jpg" arWidth="1440" arHeight="2560" duration="0" songTitle="" songArtist="" songAlbum="" />
    <MediaItem id="191" filePath="C:\Users\aluno.UDICENTRO\Downloads\Photos\IMG-20170323-WA0017.jpg" arWidth="1032" arHeight="581" duration="0" songTitle="" songArtist="" songAlbum="" />
    <MediaItem id="192" filePath="C:\Users\aluno.UDICENTRO\Downloads\Photos\IMG-20170323-WA0019.jpg" arWidth="1032" arHeight="581" duration="0" songTitle="" songArtist="" songAlbum="" />
    <MediaItem id="193" filePath="C:\Users\aluno.UDICENTRO\Downloads\Photos\IMG-20170324-WA0010.jpg" arWidth="1032" arHeight="581" duration="0" songTitle="" songArtist="" songAlbum="" />
    <MediaItem id="194" filePath="C:\Users\aluno.UDICENTRO\Downloads\Photos\IMG-20170324-WA0022.jpg" arWidth="1280" arHeight="720" duration="0" songTitle="" songArtist="" songAlbum="" />
    <MediaItem id="195" filePath="C:\Users\aluno.UDICENTRO\Downloads\Photos\IMG-20170331-WA0089.jpg" arWidth="160" arHeight="160" duration="0" songTitle="" songArtist="" songAlbum="" />
    <MediaItem id="196" filePath="C:\Users\aluno.UDICENTRO\Downloads\Photos\IMG-20170331-WA0181.jpg" arWidth="552" arHeight="414" duration="0" songTitle="" songArtist="" songAlbum="" />
    <MediaItem id="197" filePath="C:\Users\aluno.UDICENTRO\Downloads\Photos\IMG-20170401-WA0008.jpg" arWidth="720" arHeight="1280" duration="0" songTitle="" songArtist="" songAlbum="" />
    <MediaItem id="198" filePath="C:\Users\aluno.UDICENTRO\Downloads\Photos\IMG-20170427-WA0009.jpg" arWidth="720" arHeight="1280" duration="0" songTitle="" songArtist="" songAlbum="" />
    <MediaItem id="199" filePath="C:\Users\aluno.UDICENTRO\Downloads\Photos\IMG-20170502-WA0002.jpg" arWidth="581" arHeight="1032" duration="0" songTitle="" songArtist="" songAlbum="" />
    <MediaItem id="200" filePath="C:\Users\aluno.UDICENTRO\Downloads\Photos\IMG-20170502-WA0005.jpg" arWidth="160" arHeight="120" duration="0" songTitle="" songArtist="" songAlbum="" />
    <MediaItem id="201" filePath="C:\Users\aluno.UDICENTRO\Downloads\Photos\IMG-20170508-WA0000.jpg" arWidth="1280" arHeight="720" duration="0" songTitle="" songArtist="" songAlbum="" />
    <MediaItem id="202" filePath="C:\Users\aluno.UDICENTRO\Downloads\Photos\IMG-20170508-WA0001.jpg" arWidth="1280" arHeight="720" duration="0" songTitle="" songArtist="" songAlbum="" />
    <MediaItem id="203" filePath="C:\Users\aluno.UDICENTRO\Downloads\Photos\IMG-20170508-WA0003.jpg" arWidth="1280" arHeight="720" duration="0" songTitle="" songArtist="" songAlbum="" />
    <MediaItem id="204" filePath="C:\Users\aluno.UDICENTRO\Downloads\Photos\IMG-20170512-WA0003.jpg" arWidth="160" arHeight="120" duration="0" songTitle="" songArtist="" songAlbum="" />
    <MediaItem id="205" filePath="C:\Users\aluno.UDICENTRO\Downloads\Photos\IMG-20170525-WA0019.jpg" arWidth="1280" arHeight="720" duration="0" songTitle="" songArtist="" songAlbum="" />
    <MediaItem id="206" filePath="C:\Users\aluno.UDICENTRO\Downloads\Photos\IMG-20170525-WA0021.jpg" arWidth="720" arHeight="1280" duration="0" songTitle="" songArtist="" songAlbum="" />
    <MediaItem id="207" filePath="C:\Users\aluno.UDICENTRO\Downloads\Photos\IMG-20170525-WA0022.jpg" arWidth="720" arHeight="1280" duration="0" songTitle="" songArtist="" songAlbum="" />
    <MediaItem id="208" filePath="C:\Users\aluno.UDICENTRO\Downloads\Photos\IMG-20170525-WA0023.jpg" arWidth="720" arHeight="1280" duration="0" songTitle="" songArtist="" songAlbum="" />
    <MediaItem id="209" filePath="C:\Users\aluno.UDICENTRO\Downloads\Photos\IMG-20170525-WA0025.jpg" arWidth="720" arHeight="1280" duration="0" songTitle="" songArtist="" songAlbum="" />
    <MediaItem id="210" filePath="C:\Users\aluno.UDICENTRO\Downloads\Photos\IMG-20170527-WA0008(1).jpg" arWidth="552" arHeight="414" duration="0" songTitle="" songArtist="" songAlbum="" />
    <MediaItem id="211" filePath="C:\Users\aluno.UDICENTRO\Downloads\Photos\IMG-20170527-WA0008.jpg" arWidth="552" arHeight="414" duration="0" songTitle="" songArtist="" songAlbum="" />
    <MediaItem id="212" filePath="C:\Users\aluno.UDICENTRO\Downloads\Photos\IMG-20170530-WA0006.jpg" arWidth="120" arHeight="160" duration="0" songTitle="" songArtist="" songAlbum="" />
    <MediaItem id="213" filePath="C:\Users\aluno.UDICENTRO\Downloads\Photos\IMG-20170601-WA0005.jpg" arWidth="581" arHeight="1032" duration="0" songTitle="" songArtist="" songAlbum="" />
    <MediaItem id="214" filePath="C:\Users\aluno.UDICENTRO\Downloads\Photos\IMG-20170601-WA0006.jpg" arWidth="581" arHeight="1032" duration="0" songTitle="" songArtist="" songAlbum="" />
    <MediaItem id="215" filePath="C:\Users\aluno.UDICENTRO\Downloads\Photos\IMG-20170601-WA0008.jpg" arWidth="581" arHeight="1032" duration="0" songTitle="" songArtist="" songAlbum="" />
    <MediaItem id="216" filePath="C:\Users\aluno.UDICENTRO\Downloads\Photos\IMG-20170601-WA0009.jpg" arWidth="160" arHeight="120" duration="0" songTitle="" songArtist="" songAlbum="" />
    <MediaItem id="217" filePath="C:\Users\aluno.UDICENTRO\Downloads\Photos\IMG-20170601-WA0026.jpg" arWidth="581" arHeight="1032" duration="0" songTitle="" songArtist="" songAlbum="" />
    <MediaItem id="218" filePath="C:\Users\aluno.UDICENTRO\Downloads\Photos\IMG-20170603-WA0032.jpg" arWidth="160" arHeight="120" duration="0" songTitle="" songArtist="" songAlbum="" />
    <MediaItem id="219" filePath="C:\Users\aluno.UDICENTRO\Downloads\Photos\IMG-20170607-WA0010.jpg" arWidth="1032" arHeight="581" duration="0" songTitle="" songArtist="" songAlbum="" />
    <MediaItem id="220" filePath="C:\Users\aluno.UDICENTRO\Downloads\Photos\IMG-20170608-WA0065.jpg" arWidth="648" arHeight="1152" duration="0" songTitle="" songArtist="" songAlbum="" />
    <MediaItem id="221" filePath="C:\Users\aluno.UDICENTRO\Downloads\Photos\IMG-20170614-WA0017.jpg" arWidth="720" arHeight="1280" duration="0" songTitle="" songArtist="" songAlbum="" />
    <MediaItem id="222" filePath="C:\Users\aluno.UDICENTRO\Downloads\Photos\IMG-20170614-WA0018.jpg" arWidth="720" arHeight="1280" duration="0" songTitle="" songArtist="" songAlbum="" />
    <MediaItem id="223" filePath="C:\Users\aluno.UDICENTRO\Downloads\Photos\IMG-20170619-WA0016.jpg" arWidth="160" arHeight="120" duration="0" songTitle="" songArtist="" songAlbum="" />
    <MediaItem id="224" filePath="C:\Users\aluno.UDICENTRO\Downloads\Photos\IMG-20170622-WA0014.jpg" arWidth="160" arHeight="120" duration="0" songTitle="" songArtist="" songAlbum="" />
    <MediaItem id="225" filePath="C:\Users\aluno.UDICENTRO\Downloads\Photos\IMG-20170622-WA0016.jpg" arWidth="160" arHeight="120" duration="0" songTitle="" songArtist="" songAlbum="" />
    <MediaItem id="226" filePath="C:\Users\aluno.UDICENTRO\Downloads\Photos\IMG-20170622-WA0018.jpg" arWidth="160" arHeight="120" duration="0" songTitle="" songArtist="" songAlbum="" />
    <MediaItem id="227" filePath="C:\Users\aluno.UDICENTRO\Downloads\Photos\IMG-20170622-WA0020.jpg" arWidth="160" arHeight="120" duration="0" songTitle="" songArtist="" songAlbum="" />
    <MediaItem id="228" filePath="C:\Users\aluno.UDICENTRO\Downloads\Photos\IMG-20170622-WA0023.jpg" arWidth="960" arHeight="1280" duration="0" songTitle="" songArtist="" songAlbum="" />
    <MediaItem id="229" filePath="C:\Users\aluno.UDICENTRO\Downloads\Photos\IMG-20170622-WA0033.jpg" arWidth="581" arHeight="1032" duration="0" songTitle="" songArtist="" songAlbum="" />
    <MediaItem id="230" filePath="C:\Users\aluno.UDICENTRO\Downloads\Photos\IMG-20170622-WA0037.jpg" arWidth="581" arHeight="1032" duration="0" songTitle="" songArtist="" songAlbum="" />
    <MediaItem id="231" filePath="C:\Users\aluno.UDICENTRO\Downloads\Photos\IMG-20170624-WA0030.jpg" arWidth="720" arHeight="1280" duration="0" songTitle="" songArtist="" songAlbum="" />
    <MediaItem id="232" filePath="C:\Users\aluno.UDICENTRO\Downloads\Photos\IMG-20170624-WA0036.jpg" arWidth="720" arHeight="1280" duration="0" songTitle="" songArtist="" songAlbum="" />
    <MediaItem id="233" filePath="C:\Users\aluno.UDICENTRO\Downloads\Photos\IMG-20170626-WA0007.jpg" arWidth="720" arHeight="1280" duration="0" songTitle="" songArtist="" songAlbum="" />
    <MediaItem id="234" filePath="C:\Users\aluno.UDICENTRO\Downloads\Photos\IMG-20170626-WA0016.jpg" arWidth="1280" arHeight="720" duration="0" songTitle="" songArtist="" songAlbum="" />
    <MediaItem id="235" filePath="C:\Users\aluno.UDICENTRO\Downloads\Photos\IMG-20170627-WA0004.jpg" arWidth="720" arHeight="1280" duration="0" songTitle="" songArtist="" songAlbum="" />
    <MediaItem id="236" filePath="C:\Users\aluno.UDICENTRO\Downloads\Photos\IMG-20170627-WA0005.jpg" arWidth="720" arHeight="1280" duration="0" songTitle="" songArtist="" songAlbum="" />
    <MediaItem id="237" filePath="C:\Users\aluno.UDICENTRO\Downloads\Photos\IMG-20170701-WA0010.jpg" arWidth="581" arHeight="1032" duration="0" songTitle="" songArtist="" songAlbum="" />
    <MediaItem id="238" filePath="C:\Users\aluno.UDICENTRO\Downloads\Photos\IMG-20170701-WA0011.jpg" arWidth="581" arHeight="1032" duration="0" songTitle="" songArtist="" songAlbum="" />
    <MediaItem id="239" filePath="C:\Users\aluno.UDICENTRO\Downloads\Photos\IMG-20170701-WA0022.jpg" arWidth="1032" arHeight="581" duration="0" songTitle="" songArtist="" songAlbum="" />
    <MediaItem id="240" filePath="C:\Users\aluno.UDICENTRO\Downloads\Photos\IMG-20170703-WA0038.jpg" arWidth="160" arHeight="120" duration="0" songTitle="" songArtist="" songAlbum="" />
    <MediaItem id="241" filePath="C:\Users\aluno.UDICENTRO\Downloads\Photos\IMG-20170704-WA0000.jpg" arWidth="1280" arHeight="720" duration="0" songTitle="" songArtist="" songAlbum="" />
    <MediaItem id="242" filePath="C:\Users\aluno.UDICENTRO\Downloads\Photos\IMG-20170704-WA0007.jpg" arWidth="581" arHeight="1032" duration="0" songTitle="" songArtist="" songAlbum="" />
    <MediaItem id="243" filePath="C:\Users\aluno.UDICENTRO\Downloads\Photos\IMG-20170704-WA0019.jpg" arWidth="1280" arHeight="959" duration="0" songTitle="" songArtist="" songAlbum="" />
    <MediaItem id="244" filePath="C:\Users\aluno.UDICENTRO\Downloads\Photos\IMG-20170704-WA0020.jpg" arWidth="581" arHeight="1032" duration="0" songTitle="" songArtist="" songAlbum="" />
    <MediaItem id="245" filePath="C:\Users\aluno.UDICENTRO\Downloads\Photos\IMG-20170704-WA0022.jpg" arWidth="581" arHeight="1032" duration="0" songTitle="" songArtist="" songAlbum="" />
    <MediaItem id="246" filePath="C:\Users\aluno.UDICENTRO\Downloads\Photos\IMG-20170704-WA0028.jpg" arWidth="160" arHeight="120" duration="0" songTitle="" songArtist="" songAlbum="" />
    <MediaItem id="247" filePath="C:\Users\aluno.UDICENTRO\Downloads\Photos\IMG-20170704-WA0102.jpg" arWidth="1280" arHeight="866" duration="0" songTitle="" songArtist="" songAlbum="" />
    <MediaItem id="248" filePath="C:\Users\aluno.UDICENTRO\Downloads\Photos\IMG-20170705-WA0003.jpg" arWidth="648" arHeight="1152" duration="0" songTitle="" songArtist="" songAlbum="" />
    <MediaItem id="249" filePath="C:\Users\aluno.UDICENTRO\Downloads\Photos\IMG-20170705-WA0006.jpg" arWidth="1280" arHeight="959" duration="0" songTitle="" songArtist="" songAlbum="" />
    <MediaItem id="250" filePath="C:\Users\aluno.UDICENTRO\Downloads\Photos\IMG-20170705-WA0008.jpg" arWidth="648" arHeight="1152" duration="0" songTitle="" songArtist="" songAlbum="" />
    <MediaItem id="251" filePath="C:\Users\aluno.UDICENTRO\Downloads\Photos\IMG-20170705-WA0027.jpg" arWidth="655" arHeight="1164" duration="0" songTitle="" songArtist="" songAlbum="" />
    <MediaItem id="252" filePath="C:\Users\aluno.UDICENTRO\Downloads\Photos\IMG-20170707-WA0003.jpg" arWidth="160" arHeight="120" duration="0" songTitle="" songArtist="" songAlbum="" />
    <MediaItem id="253" filePath="C:\Users\aluno.UDICENTRO\Downloads\Photos\IMG-20170707-WA0008.jpg" arWidth="1032" arHeight="581" duration="0" songTitle="" songArtist="" songAlbum="" />
    <MediaItem id="254" filePath="C:\Users\aluno.UDICENTRO\Downloads\Photos\IMG-20170710-WA0017.jpg" arWidth="1280" arHeight="720" duration="0" songTitle="" songArtist="" songAlbum="" />
    <MediaItem id="255" filePath="C:\Users\aluno.UDICENTRO\Downloads\Photos\IMG-20170710-WA0028.jpg" arWidth="720" arHeight="1280" duration="0" songTitle="" songArtist="" songAlbum="" />
    <MediaItem id="256" filePath="C:\Users\aluno.UDICENTRO\Downloads\Photos\IMG-20170725-WA0006.jpg" arWidth="720" arHeight="1280" duration="0" songTitle="" songArtist="" songAlbum="" />
    <MediaItem id="257" filePath="C:\Users\aluno.UDICENTRO\Downloads\Photos\IMG-20170726-WA0001.jpg" arWidth="160" arHeight="120" duration="0" songTitle="" songArtist="" songAlbum="" />
    <MediaItem id="258" filePath="C:\Users\aluno.UDICENTRO\Downloads\Photos\IMG-20170726-WA0005.jpg" arWidth="1280" arHeight="720" duration="0" songTitle="" songArtist="" songAlbum="" />
    <MediaItem id="259" filePath="C:\Users\aluno.UDICENTRO\Downloads\Photos\IMG-20170726-WA0010.jpg" arWidth="720" arHeight="1280" duration="0" songTitle="" songArtist="" songAlbum="" />
    <MediaItem id="260" filePath="C:\Users\aluno.UDICENTRO\Downloads\Photos\IMG-20170726-WA0042.jpg" arWidth="720" arHeight="1280" duration="0" songTitle="" songArtist="" songAlbum="" />
    <MediaItem id="261" filePath="C:\Users\aluno.UDICENTRO\Downloads\Photos\IMG-20170726-WA0075.jpg" arWidth="160" arHeight="160" duration="0" songTitle="" songArtist="" songAlbum="" />
    <MediaItem id="262" filePath="C:\Users\aluno.UDICENTRO\Downloads\Photos\IMG-20170801-WA0002.jpg" arWidth="1152" arHeight="648" duration="0" songTitle="" songArtist="" songAlbum="" />
    <MediaItem id="263" filePath="C:\Users\aluno.UDICENTRO\Downloads\Photos\IMG-20170801-WA0005.jpg" arWidth="648" arHeight="1152" duration="0" songTitle="" songArtist="" songAlbum="" />
    <MediaItem id="264" filePath="C:\Users\aluno.UDICENTRO\Downloads\Photos\IMG-20170801-WA0026.jpg" arWidth="1152" arHeight="648" duration="0" songTitle="" songArtist="" songAlbum="" />
    <MediaItem id="265" filePath="C:\Users\aluno.UDICENTRO\Downloads\Photos\IMG-20170804-WA0019.jpg" arWidth="1152" arHeight="648" duration="0" songTitle="" songArtist="" songAlbum="" />
    <MediaItem id="266" filePath="C:\Users\aluno.UDICENTRO\Downloads\Photos\IMG-20170807-WA0002.jpg" arWidth="520" arHeight="924" duration="0" songTitle="" songArtist="" songAlbum="" />
    <MediaItem id="267" filePath="C:\Users\aluno.UDICENTRO\Downloads\Photos\IMG-20170807-WA0004(1).jpg" arWidth="1032" arHeight="581" duration="0" songTitle="" songArtist="" songAlbum="" />
    <MediaItem id="268" filePath="C:\Users\aluno.UDICENTRO\Downloads\Photos\IMG-20170807-WA0004.jpg" arWidth="520" arHeight="924" duration="0" songTitle="" songArtist="" songAlbum="" />
    <MediaItem id="269" filePath="C:\Users\aluno.UDICENTRO\Downloads\Photos\IMG-20170808-WA0002.jpg" arWidth="648" arHeight="1152" duration="0" songTitle="" songArtist="" songAlbum="" />
    <MediaItem id="270" filePath="C:\Users\aluno.UDICENTRO\Downloads\Photos\IMG-20170810-WA0020.jpg" arWidth="655" arHeight="1164" duration="0" songTitle="" songArtist="" songAlbum="" />
    <MediaItem id="271" filePath="C:\Users\aluno.UDICENTRO\Downloads\Photos\IMG-20170816-WA0000.jpg" arWidth="720" arHeight="479" duration="0" songTitle="" songArtist="" songAlbum="" />
    <MediaItem id="272" filePath="C:\Users\aluno.UDICENTRO\Downloads\Photos\IMG-20170818-WA0014.jpg" arWidth="920" arHeight="517" duration="0" songTitle="" songArtist="" songAlbum="" />
    <MediaItem id="273" filePath="C:\Users\aluno.UDICENTRO\Downloads\Photos\IMG-20170821-WA0011.jpg" arWidth="720" arHeight="1280" duration="0" songTitle="" songArtist="" songAlbum="" />
    <MediaItem id="274" filePath="C:\Users\aluno.UDICENTRO\Downloads\Photos\IMG-20170821-WA0013.jpg" arWidth="719" arHeight="1280" duration="0" songTitle="" songArtist="" songAlbum="" />
    <MediaItem id="275" filePath="C:\Users\aluno.UDICENTRO\Downloads\Photos\IMG-20170822-WA0002.jpg" arWidth="1280" arHeight="719" duration="0" songTitle="" songArtist="" songAlbum="" />
    <MediaItem id="276" filePath="C:\Users\aluno.UDICENTRO\Downloads\Photos\IMG-20170822-WA0003.jpg" arWidth="1280" arHeight="719" duration="0" songTitle="" songArtist="" songAlbum="" />
    <MediaItem id="277" filePath="C:\Users\aluno.UDICENTRO\Downloads\Photos\IMG-20170822-WA0008.jpg" arWidth="720" arHeight="1280" duration="0" songTitle="" songArtist="" songAlbum="" />
    <MediaItem id="278" filePath="C:\Users\aluno.UDICENTRO\Downloads\Photos\IMG-20170822-WA0010.jpg" arWidth="720" arHeight="1280" duration="0" songTitle="" songArtist="" songAlbum="" />
    <MediaItem id="279" filePath="C:\Users\aluno.UDICENTRO\Downloads\Photos\IMG-20170822-WA0015.jpg" arWidth="720" arHeight="1280" duration="0" songTitle="" songArtist="" songAlbum="" />
    <MediaItem id="280" filePath="C:\Users\aluno.UDICENTRO\Downloads\Photos\IMG-20170823-WA0013.jpg" arWidth="655" arHeight="1164" duration="0" songTitle="" songArtist="" songAlbum="" />
    <MediaItem id="281" filePath="C:\Users\aluno.UDICENTRO\Downloads\Photos\IMG-20170824-WA0009.jpg" arWidth="1164" arHeight="655" duration="0" songTitle="" songArtist="" songAlbum="" />
    <MediaItem id="282" filePath="C:\Users\aluno.UDICENTRO\Downloads\Photos\IMG-20170826-WA0003.jpg" arWidth="160" arHeight="120" duration="0" songTitle="" songArtist="" songAlbum="" />
    <MediaItem id="283" filePath="C:\Users\aluno.UDICENTRO\Downloads\Photos\IMG-20170826-WA0006.jpg" arWidth="120" arHeight="160" duration="0" songTitle="" songArtist="" songAlbum="" />
    <MediaItem id="284" filePath="C:\Users\aluno.UDICENTRO\Downloads\Photos\IMG-20170826-WA0010.jpg" arWidth="720" arHeight="1280" duration="0" songTitle="" songArtist="" songAlbum="" />
    <MediaItem id="285" filePath="C:\Users\aluno.UDICENTRO\Downloads\Photos\IMG-20170829-WA0000.jpg" arWidth="719" arHeight="1280" duration="0" songTitle="" songArtist="" songAlbum="" />
    <MediaItem id="286" filePath="C:\Users\aluno.UDICENTRO\Downloads\Photos\IMG-20170829-WA0006.jpg" arWidth="1280" arHeight="719" duration="0" songTitle="" songArtist="" songAlbum="" />
    <MediaItem id="287" filePath="C:\Users\aluno.UDICENTRO\Downloads\Photos\IMG-20170829-WA0009.jpg" arWidth="719" arHeight="1280" duration="0" songTitle="" songArtist="" songAlbum="" />
    <MediaItem id="288" filePath="C:\Users\aluno.UDICENTRO\Downloads\Photos\IMG-20170829-WA0012.jpg" arWidth="719" arHeight="1280" duration="0" songTitle="" songArtist="" songAlbum="" />
    <MediaItem id="289" filePath="C:\Users\aluno.UDICENTRO\Downloads\Photos\IMG-20170829-WA0013.jpg" arWidth="719" arHeight="1280" duration="0" songTitle="" songArtist="" songAlbum="" />
    <MediaItem id="290" filePath="C:\Users\aluno.UDICENTRO\Downloads\Photos\IMG-20170829-WA0015.jpg" arWidth="719" arHeight="1280" duration="0" songTitle="" songArtist="" songAlbum="" />
    <MediaItem id="291" filePath="C:\Users\aluno.UDICENTRO\Downloads\Photos\IMG-20170829-WA0016.jpg" arWidth="719" arHeight="1280" duration="0" songTitle="" songArtist="" songAlbum="" />
    <MediaItem id="292" filePath="C:\Users\aluno.UDICENTRO\Downloads\Photos\IMG-20170914-WA0015.jpg" arWidth="1152" arHeight="648" duration="0" songTitle="" songArtist="" songAlbum="" />
    <MediaItem id="293" filePath="C:\Users\aluno.UDICENTRO\Downloads\Photos\IMG-20170914-WA0030.jpg" arWidth="648" arHeight="1152" duration="0" songTitle="" songArtist="" songAlbum="" />
    <MediaItem id="294" filePath="C:\Users\aluno.UDICENTRO\Downloads\Photos\IMG-20170915-WA0039.jpg" arWidth="1164" arHeight="655" duration="0" songTitle="" songArtist="" songAlbum="" />
    <MediaItem id="295" filePath="C:\Users\aluno.UDICENTRO\Downloads\Photos\IMG-20170921-WA0010(1).jpg" arWidth="1152" arHeight="648" duration="0" songTitle="" songArtist="" songAlbum="" />
    <MediaItem id="296" filePath="C:\Users\aluno.UDICENTRO\Downloads\Photos\IMG-20170921-WA0010.jpg" arWidth="1280" arHeight="720" duration="0" songTitle="" songArtist="" songAlbum="" />
    <MediaItem id="297" filePath="C:\Users\aluno.UDICENTRO\Downloads\Photos\IMG-20170921-WA0011.jpg" arWidth="1152" arHeight="648" duration="0" songTitle="" songArtist="" songAlbum="" />
    <MediaItem id="298" filePath="C:\Users\aluno.UDICENTRO\Downloads\Photos\IMG-20170921-WA0012.jpg" arWidth="1152" arHeight="648" duration="0" songTitle="" songArtist="" songAlbum="" />
    <MediaItem id="299" filePath="C:\Users\aluno.UDICENTRO\Downloads\Photos\IMG-20170921-WA0020.jpg" arWidth="1152" arHeight="648" duration="0" songTitle="" songArtist="" songAlbum="" />
    <MediaItem id="300" filePath="C:\Users\aluno.UDICENTRO\Downloads\Photos\IMG-20170923-WA0010.jpg" arWidth="648" arHeight="1152" duration="0" songTitle="" songArtist="" songAlbum="" />
    <MediaItem id="301" filePath="C:\Users\aluno.UDICENTRO\Downloads\Photos\IMG-20170925-WA0002.jpg" arWidth="160" arHeight="120" duration="0" songTitle="" songArtist="" songAlbum="" />
    <MediaItem id="302" filePath="C:\Users\aluno.UDICENTRO\Downloads\Photos\IMG-20170927-WA0004.jpg" arWidth="1152" arHeight="648" duration="0" songTitle="" songArtist="" songAlbum="" />
    <MediaItem id="303" filePath="C:\Users\aluno.UDICENTRO\Downloads\Photos\IMG-20170927-WA0008.jpg" arWidth="1152" arHeight="648" duration="0" songTitle="" songArtist="" songAlbum="" />
    <MediaItem id="304" filePath="C:\Users\aluno.UDICENTRO\Downloads\Photos\IMG-20170927-WA0009.jpg" arWidth="1024" arHeight="576" duration="0" songTitle="" songArtist="" songAlbum="" />
    <MediaItem id="305" filePath="C:\Users\aluno.UDICENTRO\Downloads\Photos\IMG-20171002-WA0026.jpg" arWidth="720" arHeight="1280" duration="0" songTitle="" songArtist="" songAlbum="" />
    <MediaItem id="306" filePath="C:\Users\aluno.UDICENTRO\Downloads\Photos\IMG-20171004-WA0000.jpg" arWidth="160" arHeight="120" duration="0" songTitle="" songArtist="" songAlbum="" />
    <MediaItem id="307" filePath="C:\Users\aluno.UDICENTRO\Downloads\Photos\IMG-20171004-WA0009.jpg" arWidth="720" arHeight="1280" duration="0" songTitle="" songArtist="" songAlbum="" />
    <MediaItem id="308" filePath="C:\Users\aluno.UDICENTRO\Downloads\Photos\IMG-20171011-WA0001.jpg" arWidth="720" arHeight="1280" duration="0" songTitle="" songArtist="" songAlbum="" />
    <MediaItem id="309" filePath="C:\Users\aluno.UDICENTRO\Downloads\Photos\IMG-20171011-WA0010.jpg" arWidth="774" arHeight="1032" duration="0" songTitle="" songArtist="" songAlbum="" />
    <MediaItem id="310" filePath="C:\Users\aluno.UDICENTRO\Downloads\Photos\IMG-20171019-WA0003.jpg" arWidth="1280" arHeight="1280" duration="0" songTitle="" songArtist="" songAlbum="" />
    <MediaItem id="311" filePath="C:\Users\aluno.UDICENTRO\Downloads\Photos\IMG-20171019-WA0008.jpg" arWidth="1280" arHeight="1280" duration="0" songTitle="" songArtist="" songAlbum="" />
    <MediaItem id="312" filePath="C:\Users\aluno.UDICENTRO\Downloads\Photos\IMG-20171023-WA0008.jpg" arWidth="120" arHeight="160" duration="0" songTitle="" songArtist="" songAlbum="" />
    <MediaItem id="313" filePath="C:\Users\aluno.UDICENTRO\Downloads\Photos\IMG-20171023-WA0009.jpg" arWidth="120" arHeight="160" duration="0" songTitle="" songArtist="" songAlbum="" />
    <MediaItem id="314" filePath="C:\Users\aluno.UDICENTRO\Downloads\Photos\IMG-20171024-WA0004.jpg" arWidth="1164" arHeight="655" duration="0" songTitle="" songArtist="" songAlbum="" />
    <MediaItem id="315" filePath="C:\Users\aluno.UDICENTRO\Downloads\Photos\IMG-20171025-WA0019.jpg" arWidth="1032" arHeight="581" duration="0" songTitle="" songArtist="" songAlbum="" />
    <MediaItem id="316" filePath="C:\Users\aluno.UDICENTRO\Downloads\Photos\IMG-20171025-WA0020.jpg" arWidth="720" arHeight="1280" duration="0" songTitle="" songArtist="" songAlbum="" />
    <MediaItem id="317" filePath="C:\Users\aluno.UDICENTRO\Downloads\Photos\IMG-20171027-WA0020.jpg" arWidth="1280" arHeight="960" duration="0" songTitle="" songArtist="" songAlbum="" />
    <MediaItem id="318" filePath="C:\Users\aluno.UDICENTRO\Downloads\Photos\IMG-20171027-WA0029.jpg" arWidth="1164" arHeight="655" duration="0" songTitle="" songArtist="" songAlbum="" />
    <MediaItem id="319" filePath="C:\Users\aluno.UDICENTRO\Downloads\Photos\IMG-20171027-WA0037.jpg" arWidth="1280" arHeight="959" duration="0" songTitle="" songArtist="" songAlbum="" />
    <MediaItem id="320" filePath="C:\Users\aluno.UDICENTRO\Downloads\Photos\IMG-20171030-WA0019.jpg" arWidth="1032" arHeight="581" duration="0" songTitle="" songArtist="" songAlbum="" />
    <MediaItem id="321" filePath="C:\Users\aluno.UDICENTRO\Downloads\Photos\IMG-20171031-WA0004.jpg" arWidth="1024" arHeight="576" duration="0" songTitle="" songArtist="" songAlbum="" />
    <MediaItem id="322" filePath="C:\Users\aluno.UDICENTRO\Downloads\Photos\IMG-20171031-WA0007.jpg" arWidth="1024" arHeight="576" duration="0" songTitle="" songArtist="" songAlbum="" />
    <MediaItem id="323" filePath="C:\Users\aluno.UDICENTRO\Downloads\Photos\IMG-20171031-WA0032.jpg" arWidth="160" arHeight="120" duration="0" songTitle="" songArtist="" songAlbum="" />
    <MediaItem id="324" filePath="C:\Users\aluno.UDICENTRO\Downloads\Photos\IMG-20171031-WA0067.jpg" arWidth="720" arHeight="1280" duration="0" songTitle="" songArtist="" songAlbum="" />
    <MediaItem id="325" filePath="C:\Users\aluno.UDICENTRO\Downloads\Photos\IMG-20171110-WA0002.jpg" arWidth="160" arHeight="120" duration="0" songTitle="" songArtist="" songAlbum="" />
    <MediaItem id="326" filePath="C:\Users\aluno.UDICENTRO\Downloads\Photos\IMG-20171118-WA0018.jpg" arWidth="160" arHeight="120" duration="0" songTitle="" songArtist="" songAlbum="" />
    <MediaItem id="327" filePath="C:\Users\aluno.UDICENTRO\Downloads\Photos\IMG-20171204-WA0011.jpg" arWidth="1152" arHeight="648" duration="0" songTitle="" songArtist="" songAlbum="" />
    <MediaItem id="328" filePath="C:\Users\aluno.UDICENTRO\Downloads\Photos\IMG-20171205-WA0007.jpg" arWidth="1024" arHeight="576" duration="0" songTitle="" songArtist="" songAlbum="" />
    <MediaItem id="329" filePath="C:\Users\aluno.UDICENTRO\Downloads\Photos\IMG-20171206-WA0063.jpg" arWidth="655" arHeight="1164" duration="0" songTitle="" songArtist="" songAlbum="" />
    <MediaItem id="330" filePath="C:\Users\aluno.UDICENTRO\Downloads\Photos\IMG-20171206-WA0117.jpg" arWidth="998" arHeight="750" duration="0" songTitle="" songArtist="" songAlbum="" />
    <MediaItem id="331" filePath="C:\Users\aluno.UDICENTRO\Downloads\Photos\IMG-20171207-WA0008.jpg" arWidth="160" arHeight="120" duration="0" songTitle="" songArtist="" songAlbum="" />
    <MediaItem id="332" filePath="C:\Users\aluno.UDICENTRO\Downloads\Photos\IMG-20171207-WA0023.jpg" arWidth="1280" arHeight="959" duration="0" songTitle="" songArtist="" songAlbum="" />
    <MediaItem id="333" filePath="C:\Users\aluno.UDICENTRO\Downloads\Photos\IMG-20171207-WA0063.jpg" arWidth="719" arHeight="1280" duration="0" songTitle="" songArtist="" songAlbum="" />
    <MediaItem id="334" filePath="C:\Users\aluno.UDICENTRO\Downloads\Photos\IMG-20171207-WA0102.jpg" arWidth="1280" arHeight="959" duration="0" songTitle="" songArtist="" songAlbum="" />
    <MediaItem id="335" filePath="C:\Users\aluno.UDICENTRO\Downloads\Photos\IMG-20171207-WA0108.jpg" arWidth="1280" arHeight="959" duration="0" songTitle="" songArtist="" songAlbum="" />
    <MediaItem id="336" filePath="C:\Users\aluno.UDICENTRO\Downloads\Photos\IMG-20171215-WA0013.jpg" arWidth="1000" arHeight="750" duration="0" songTitle="" songArtist="" songAlbum="" />
    <MediaItem id="337" filePath="C:\Users\aluno.UDICENTRO\Downloads\Photos\IMG-20171215-WA0037.jpg" arWidth="1032" arHeight="581" duration="0" songTitle="" songArtist="" songAlbum="" />
    <MediaItem id="338" filePath="C:\Users\aluno.UDICENTRO\Downloads\Photos\IMG-20171215-WA0135.jpg" arWidth="1280" arHeight="720" duration="0" songTitle="" songArtist="" songAlbum="" />
    <MediaItem id="339" filePath="C:\Users\aluno.UDICENTRO\Downloads\Photos\IMG-20171215-WA0141.jpg" arWidth="163" arHeight="210" duration="0" songTitle="" songArtist="" songAlbum="" />
    <MediaItem id="340" filePath="C:\Users\aluno.UDICENTRO\Downloads\Photos\IMG-20171218-WA0004.jpg" arWidth="1280" arHeight="720" duration="0" songTitle="" songArtist="" songAlbum="" />
    <MediaItem id="341" filePath="C:\Users\aluno.UDICENTRO\Downloads\Photos\IMG-20171219-WA0005.jpg" arWidth="920" arHeight="517" duration="0" songTitle="" songArtist="" songAlbum="" />
    <MediaItem id="342" filePath="C:\Users\aluno.UDICENTRO\Downloads\Photos\IMG-20171219-WA0022.jpg" arWidth="1032" arHeight="581" duration="0" songTitle="" songArtist="" songAlbum="" />
    <MediaItem id="343" filePath="C:\Users\aluno.UDICENTRO\Downloads\Photos\IMG-20171219-WA0048.jpg" arWidth="720" arHeight="1280" duration="0" songTitle="" songArtist="" songAlbum="" />
    <MediaItem id="344" filePath="C:\Users\aluno.UDICENTRO\Downloads\Photos\IMG-20171219-WA0051.jpg" arWidth="1032" arHeight="581" duration="0" songTitle="" songArtist="" songAlbum="" />
    <MediaItem id="345" filePath="C:\Users\aluno.UDICENTRO\Downloads\Photos\IMG-20171219-WA0061.jpg" arWidth="655" arHeight="1164" duration="0" songTitle="" songArtist="" songAlbum="" />
    <MediaItem id="346" filePath="C:\Users\aluno.UDICENTRO\Downloads\Photos\IMG-20171219-WA0064.jpg" arWidth="1164" arHeight="655" duration="0" songTitle="" songArtist="" songAlbum="" />
    <MediaItem id="347" filePath="C:\Users\aluno.UDICENTRO\Downloads\Photos\IMG-20171219-WA0074.jpg" arWidth="1164" arHeight="655" duration="0" songTitle="" songArtist="" songAlbum="" />
    <MediaItem id="348" filePath="C:\Users\aluno.UDICENTRO\Downloads\Photos\IMG-20171219-WA0079.jpg" arWidth="1032" arHeight="581" duration="0" songTitle="" songArtist="" songAlbum="" />
    <MediaItem id="349" filePath="C:\Users\aluno.UDICENTRO\Downloads\Photos\IMG-20171219-WA0118.jpg" arWidth="1032" arHeight="581" duration="0" songTitle="" songArtist="" songAlbum="" />
    <MediaItem id="350" filePath="C:\Users\aluno.UDICENTRO\Downloads\Photos\IMG-20171220-WA0193.jpg" arWidth="1000" arHeight="748" duration="0" songTitle="" songArtist="" songAlbum="" />
    <MediaItem id="351" filePath="C:\Users\aluno.UDICENTRO\Downloads\Photos\IMG-20171220-WA0206.jpg" arWidth="1164" arHeight="655" duration="0" songTitle="" songArtist="" songAlbum="" />
    <MediaItem id="352" filePath="C:\Users\aluno.UDICENTRO\Downloads\Photos\IMG-20171221-WA0017.jpg" arWidth="1164" arHeight="655" duration="0" songTitle="" songArtist="" songAlbum="" />
    <MediaItem id="353" filePath="C:\Users\aluno.UDICENTRO\Downloads\Photos\IMG-20171222-WA0021.jpg" arWidth="784" arHeight="924" duration="0" songTitle="" songArtist="" songAlbum="" />
    <MediaItem id="354" filePath="C:\Users\aluno.UDICENTRO\Downloads\Photos\IMG-20171223-WA0007.jpg" arWidth="1280" arHeight="719" duration="0" songTitle="" songArtist="" songAlbum="" />
    <MediaItem id="355" filePath="C:\Users\aluno.UDICENTRO\Downloads\Photos\IMG-20171223-WA0012.jpg" arWidth="160" arHeight="120" duration="0" songTitle="" songArtist="" songAlbum="" />
    <MediaItem id="356" filePath="C:\Users\aluno.UDICENTRO\Downloads\Photos\IMG-20171224-WA0002.jpg" arWidth="747" arHeight="1161" duration="0" songTitle="" songArtist="" songAlbum="" />
    <MediaItem id="357" filePath="C:\Users\aluno.UDICENTRO\Downloads\Photos\IMG-20171224-WA0017.jpg" arWidth="720" arHeight="1280" duration="0" songTitle="" songArtist="" songAlbum="" />
    <MediaItem id="358" filePath="C:\Users\aluno.UDICENTRO\Downloads\Photos\IMG-20171226-WA0013.jpg" arWidth="1164" arHeight="655" duration="0" songTitle="" songArtist="" songAlbum="" />
    <MediaItem id="359" filePath="C:\Users\aluno.UDICENTRO\Downloads\Photos\IMG-20171226-WA0016.jpg" arWidth="1164" arHeight="655" duration="0" songTitle="" songArtist="" songAlbum="" />
    <MediaItem id="360" filePath="C:\Users\aluno.UDICENTRO\Downloads\Photos\Oi 20170630_192233.jpg" arWidth="640" arHeight="640" duration="0" songTitle="" songArtist="" songAlbum="" />
    <MediaItem id="361" filePath="C:\Users\aluno.UDICENTRO\Downloads\Photos\P_20170626_151834_1.jpg" arWidth="4656" arHeight="2620" duration="0" songTitle="" songArtist="" songAlbum="" />
    <MediaItem id="362" filePath="C:\Users\aluno.UDICENTRO\Downloads\Photos\P_20170626_152158.jpg" arWidth="2448" arHeight="3264" duration="0" songTitle="" songArtist="" songAlbum="" />
    <MediaItem id="363" filePath="C:\Users\aluno.UDICENTRO\Downloads\Photos\P_20170703_092258.jpg" arWidth="4656" arHeight="2620" duration="0" songTitle="" songArtist="" songAlbum="" />
    <MediaItem id="364" filePath="C:\Users\aluno.UDICENTRO\Downloads\Photos\P_20170705_102217.jpg" arWidth="3264" arHeight="1836" duration="0" songTitle="" songArtist="" songAlbum="" />
    <MediaItem id="365" filePath="C:\Users\aluno.UDICENTRO\Downloads\Photos\P_20170807_163422.jpg" arWidth="3264" arHeight="1836" duration="0" songTitle="" songArtist="" songAlbum="" />
    <MediaItem id="366" filePath="C:\Users\aluno.UDICENTRO\Downloads\Photos\P_20170808_121210_009.jpg" arWidth="4656" arHeight="2620" duration="0" songTitle="" songArtist="" songAlbum="" />
    <MediaItem id="367" filePath="C:\Users\aluno.UDICENTRO\Downloads\Photos\P_20170808_153603_p.jpg" arWidth="3264" arHeight="2448" duration="0" songTitle="" songArtist="" songAlbum="" />
    <MediaItem id="368" filePath="C:\Users\aluno.UDICENTRO\Downloads\Photos\P_20170810_111548.jpg" arWidth="2620" arHeight="4656" duration="0" songTitle="" songArtist="" songAlbum="" />
    <MediaItem id="369" filePath="C:\Users\aluno.UDICENTRO\Downloads\Photos\P_20170824_134843_2.jpg" arWidth="4656" arHeight="2620" duration="0" songTitle="" songArtist="" songAlbum="" />
    <MediaItem id="370" filePath="C:\Users\aluno.UDICENTRO\Downloads\Photos\P_20170826_081959.jpg" arWidth="3264" arHeight="1836" duration="0" songTitle="" songArtist="" songAlbum="" />
    <MediaItem id="371" filePath="C:\Users\aluno.UDICENTRO\Downloads\Photos\P_20170830_130002_2.jpg" arWidth="4656" arHeight="2620" duration="0" songTitle="" songArtist="" songAlbum="" />
    <MediaItem id="372" filePath="C:\Users\aluno.UDICENTRO\Downloads\Photos\P_20170830_130003_1.jpg" arWidth="4656" arHeight="2620" duration="0" songTitle="" songArtist="" songAlbum="" />
    <MediaItem id="373" filePath="C:\Users\aluno.UDICENTRO\Downloads\Photos\P_20170909_143540_p.jpg" arWidth="3264" arHeight="2448" duration="0" songTitle="" songArtist="" songAlbum="" />
    <MediaItem id="374" filePath="C:\Users\aluno.UDICENTRO\Downloads\Photos\P_20170909_180009.jpg" arWidth="4656" arHeight="2620" duration="0" songTitle="" songArtist="" songAlbum="" />
    <MediaItem id="375" filePath="C:\Users\aluno.UDICENTRO\Downloads\Photos\P_20170916_174633_p.jpg" arWidth="3264" arHeight="2448" duration="0" songTitle="" songArtist="" songAlbum="" />
    <MediaItem id="376" filePath="C:\Users\aluno.UDICENTRO\Downloads\Photos\P_20170920_183841_vHDR_Auto.jpg" arWidth="2620" arHeight="4656" duration="0" songTitle="" songArtist="" songAlbum="" />
    <MediaItem id="377" filePath="C:\Users\aluno.UDICENTRO\Downloads\Photos\P_20170920_190723_vHDR_Auto.jpg" arWidth="4656" arHeight="2620" duration="0" songTitle="" songArtist="" songAlbum="" />
    <MediaItem id="378" filePath="C:\Users\aluno.UDICENTRO\Downloads\Photos\P_20170920_191100_vHDR_Auto.jpg" arWidth="4656" arHeight="2620" duration="0" songTitle="" songArtist="" songAlbum="" />
    <MediaItem id="379" filePath="C:\Users\aluno.UDICENTRO\Downloads\Photos\P_20171019_091306.jpg" arWidth="3264" arHeight="2448" duration="0" songTitle="" songArtist="" songAlbum="" />
    <MediaItem id="380" filePath="C:\Users\aluno.UDICENTRO\Downloads\Photos\P_20171024_140822_vHDR_Auto.jpg" arWidth="4656" arHeight="2620" duration="0" songTitle="" songArtist="" songAlbum="" />
    <MediaItem id="381" filePath="C:\Users\aluno.UDICENTRO\Downloads\Photos\P_20171025_171337_vHDR_Auto.jpg" arWidth="4656" arHeight="2620" duration="0" songTitle="" songArtist="" songAlbum="" />
    <MediaItem id="382" filePath="C:\Users\aluno.UDICENTRO\Downloads\Photos\P_20171027_115203_vHDR_Auto.jpg" arWidth="4656" arHeight="2620" duration="0" songTitle="" songArtist="" songAlbum="" />
    <MediaItem id="383" filePath="C:\Users\aluno.UDICENTRO\Downloads\Photos\P_20171027_174149_p.jpg" arWidth="3264" arHeight="2448" duration="0" songTitle="" songArtist="" songAlbum="" />
    <MediaItem id="384" filePath="C:\Users\aluno.UDICENTRO\Downloads\Photos\P_20171027_202322_vHDR_Auto.jpg" arWidth="4656" arHeight="2620" duration="0" songTitle="" songArtist="" songAlbum="" />
    <MediaItem id="385" filePath="C:\Users\aluno.UDICENTRO\Downloads\Photos\P_20171027_202526_vHDR_Auto.jpg" arWidth="4656" arHeight="2620" duration="0" songTitle="" songArtist="" songAlbum="" />
    <MediaItem id="386" filePath="C:\Users\aluno.UDICENTRO\Downloads\Photos\P_20171027_203430_DF.jpg" arWidth="4656" arHeight="2620" duration="0" songTitle="" songArtist="" songAlbum="" />
    <MediaItem id="387" filePath="C:\Users\aluno.UDICENTRO\Downloads\Photos\P_20171031_075447.jpg" arWidth="320" arHeight="240" duration="0" songTitle="" songArtist="" songAlbum="" />
    <MediaItem id="388" filePath="C:\Users\aluno.UDICENTRO\Downloads\Photos\P_20171101_162135_vHDR_Auto.jpg" arWidth="4656" arHeight="2620" duration="0" songTitle="" songArtist="" songAlbum="" />
    <MediaItem id="389" filePath="C:\Users\aluno.UDICENTRO\Downloads\Photos\P_20171109_124519_p.jpg" arWidth="2448" arHeight="3264" duration="0" songTitle="" songArtist="" songAlbum="" />
    <MediaItem id="390" filePath="C:\Users\aluno.UDICENTRO\Downloads\Photos\P_20171110_101640_p.jpg" arWidth="3264" arHeight="2448" duration="0" songTitle="" songArtist="" songAlbum="" />
    <MediaItem id="391" filePath="C:\Users\aluno.UDICENTRO\Downloads\Photos\P_20171110_143808_vHDR_Auto.jpg" arWidth="4656" arHeight="2620" duration="0" songTitle="" songArtist="" songAlbum="" />
    <MediaItem id="392" filePath="C:\Users\aluno.UDICENTRO\Downloads\Photos\P_20171110_170616_p.jpg" arWidth="3264" arHeight="2448" duration="0" songTitle="" songArtist="" songAlbum="" />
    <MediaItem id="393" filePath="C:\Users\aluno.UDICENTRO\Downloads\Photos\P_20171114_104837_vHDR_Auto.jpg" arWidth="4656" arHeight="2620" duration="0" songTitle="" songArtist="" songAlbum="" />
    <MediaItem id="394" filePath="C:\Users\aluno.UDICENTRO\Downloads\Photos\P_20171114_104915_1_p.jpg" arWidth="3264" arHeight="2448" duration="0" songTitle="" songArtist="" songAlbum="" />
    <MediaItem id="395" filePath="C:\Users\aluno.UDICENTRO\Downloads\Photos\P_20171114_105030_p.jpg" arWidth="3264" arHeight="2448" duration="0" songTitle="" songArtist="" songAlbum="" />
    <MediaItem id="396" filePath="C:\Users\aluno.UDICENTRO\Downloads\Photos\P_20171114_164446_vHDR_Auto.jpg" arWidth="4656" arHeight="2620" duration="0" songTitle="" songArtist="" songAlbum="" />
    <MediaItem id="397" filePath="C:\Users\aluno.UDICENTRO\Downloads\Photos\P_20171121_124547_vHDR_Auto.jpg" arWidth="4656" arHeight="2620" duration="0" songTitle="" songArtist="" songAlbum="" />
    <MediaItem id="398" filePath="C:\Users\aluno.UDICENTRO\Downloads\Photos\P_20171121_125151_1_vHDR_Auto.jpg" arWidth="2620" arHeight="4656" duration="0" songTitle="" songArtist="" songAlbum="" />
    <MediaItem id="399" filePath="C:\Users\aluno.UDICENTRO\Downloads\Photos\P_20171121_153829_vHDR_Auto.jpg" arWidth="4656" arHeight="2620" duration="0" songTitle="" songArtist="" songAlbum="" />
    <MediaItem id="400" filePath="C:\Users\aluno.UDICENTRO\Downloads\Photos\P_20171204_132518.jpg" arWidth="4656" arHeight="2620" duration="0" songTitle="" songArtist="" songAlbum="" />
    <MediaItem id="401" filePath="C:\Users\aluno.UDICENTRO\Downloads\Photos\P_20171219_090826.jpg" arWidth="4656" arHeight="2620" duration="0" songTitle="" songArtist="" songAlbum="" />
    <MediaItem id="402" filePath="C:\Users\aluno.UDICENTRO\Downloads\Photos\P_20171219_155017.jpg" arWidth="4656" arHeight="2620" duration="0" songTitle="" songArtist="" songAlbum="" />
    <MediaItem id="403" filePath="C:\Users\aluno.UDICENTRO\Downloads\Photos\P_20171220_222541.jpg" arWidth="4656" arHeight="2620" duration="0" songTitle="" songArtist="" songAlbum="" />
    <MediaItem id="404" filePath="C:\Users\aluno.UDICENTRO\Downloads\Photos\received_154345318442486.jpg" arWidth="720" arHeight="1280" duration="0" songTitle="" songArtist="" songAlbum="" />
    <MediaItem id="405" filePath="C:\Users\aluno.UDICENTRO\Downloads\Photos\received_154345638442454.jpg" arWidth="1280" arHeight="720" duration="0" songTitle="" songArtist="" songAlbum="" />
    <MediaItem id="406" filePath="C:\Users\aluno.UDICENTRO\Downloads\Photos\received_154345765109108.jpg" arWidth="1280" arHeight="720" duration="0" songTitle="" songArtist="" songAlbum="" />
    <MediaItem id="407" filePath="C:\Users\aluno.UDICENTRO\Downloads\Photos\received_154345868442431.jpg" arWidth="1280" arHeight="720" duration="0" songTitle="" songArtist="" songAlbum="" />
    <MediaItem id="408" filePath="C:\Users\aluno.UDICENTRO\Downloads\Photos\received_154346028442415.jpg" arWidth="1280" arHeight="720" duration="0" songTitle="" songArtist="" songAlbum="" />
    <MediaItem id="409" filePath="C:\Users\aluno.UDICENTRO\Downloads\Photos\received_154346761775675.jpg" arWidth="1280" arHeight="720" duration="0" songTitle="" songArtist="" songAlbum="" />
    <MediaItem id="410" filePath="C:\Users\aluno.UDICENTRO\Downloads\Photos\received_690434957802789.jpg" arWidth="540" arHeight="960" duration="0" songTitle="" songArtist="" songAlbum="" />
    <MediaItem id="411" filePath="C:\Users\aluno.UDICENTRO\Downloads\Photos\received_737364846443133.jpg" arWidth="160" arHeight="120" duration="0" songTitle="" songArtist="" songAlbum="" />
    <MediaItem id="412" filePath="C:\Users\aluno.UDICENTRO\Downloads\Photos\received_791496141030003.jpg" arWidth="720" arHeight="1280" duration="0" songTitle="" songArtist="" songAlbum="" />
    <MediaItem id="413" filePath="C:\Users\aluno.UDICENTRO\Downloads\Photos\received_916809111786856.jpg" arWidth="640" arHeight="1138" duration="0" songTitle="" songArtist="" songAlbum="" />
    <MediaItem id="414" filePath="C:\Users\aluno.UDICENTRO\Downloads\Photos\received_1013640762103690.jpg" arWidth="1280" arHeight="720" duration="0" songTitle="" songArtist="" songAlbum="" />
    <MediaItem id="415" filePath="C:\Users\aluno.UDICENTRO\Downloads\Photos\received_1013640778770355.jpg" arWidth="1280" arHeight="720" duration="0" songTitle="" songArtist="" songAlbum="" />
    <MediaItem id="416" filePath="C:\Users\aluno.UDICENTRO\Downloads\Photos\received_1013640795437020.jpg" arWidth="1280" arHeight="720" duration="0" songTitle="" songArtist="" songAlbum="" />
    <MediaItem id="417" filePath="C:\Users\aluno.UDICENTRO\Downloads\Photos\Screenshot_2017-10-24-22-49-32.png" arWidth="540" arHeight="960" duration="0" songTitle="" songArtist="" songAlbum="" />
    <MediaItem id="418" filePath="C:\Users\aluno.UDICENTRO\Downloads\Photos\Screenshot_20171026-104117.png" arWidth="720" arHeight="1280" duration="0" songTitle="" songArtist="" songAlbum="" />
    <MediaItem id="419" filePath="C:\Users\aluno.UDICENTRO\Downloads\Photos\Screenshot_20171031-183318.png" arWidth="1280" arHeight="720" duration="0" songTitle="" songArtist="" songAlbum="" />
    <MediaItem id="420" filePath="C:\Users\aluno.UDICENTRO\Downloads\Photos\Screenshot_20171117-220345.png" arWidth="1080" arHeight="1920" duration="0" songTitle="" songArtist="" songAlbum="" />
    <MediaItem id="421" filePath="C:\Users\aluno.UDICENTRO\Downloads\Photos\Screenshot_20171130-190552.png" arWidth="1080" arHeight="1920" duration="0" songTitle="" songArtist="" songAlbum="" />
    <MediaItem id="422" filePath="C:\Users\aluno.UDICENTRO\Downloads\Photos\Screenshot_20171130-215246.png" arWidth="720" arHeight="1280" duration="0" songTitle="" songArtist="" songAlbum="" />
    <MediaItem id="423" filePath="C:\Users\aluno.UDICENTRO\Downloads\Photos\Snapchat-1250003981.jpg" arWidth="720" arHeight="1280" duration="0" songTitle="" songArtist="" songAlbum="" />
    <MediaItem id="424" filePath="C:\Users\aluno.UDICENTRO\Downloads\Photos\Snapchat-1407218066.jpg" arWidth="1156" arHeight="648" duration="0" songTitle="" songArtist="" songAlbum="" />
    <MediaItem id="425" filePath="C:\Users\aluno.UDICENTRO\Downloads\Photos\Snapchat-1637600042.jpg" arWidth="1280" arHeight="720" duration="0" songTitle="" songArtist="" songAlbum="" />
    <MediaItem id="426" filePath="C:\Users\aluno.UDICENTRO\Downloads\Photos\Snapchat-1855091596.jpg" arWidth="720" arHeight="1280" duration="0" songTitle="" songArtist="" songAlbum="" />
    <MediaItem id="427" filePath="C:\Users\aluno.UDICENTRO\Downloads\Photos\Snapchat-1883620084.jpg" arWidth="720" arHeight="1280" duration="0" songTitle="" songArtist="" songAlbum="" />
    <MediaItem id="428" filePath="C:\Users\aluno.UDICENTRO\Downloads\Photos\Snapchat-1885773758.jpg" arWidth="720" arHeight="1280" duration="0" songTitle="" songArtist="" songAlbum="" />
    <MediaItem id="437" filePath="C:\Users\aluno.UDICENTRO\Downloads\2 ano\2a7ebd56-3390-4563-bb6e-973130dd9645.jpg" arWidth="1152" arHeight="560" duration="0" songTitle="" songArtist="" songAlbum="" />
    <MediaItem id="438" filePath="C:\Users\aluno.UDICENTRO\Downloads\2 ano\3a48a6f6-a1de-45f8-891c-37d58640a4b5.jpg" arWidth="160" arHeight="120" duration="0" songTitle="" songArtist="" songAlbum="" />
    <MediaItem id="439" filePath="C:\Users\aluno.UDICENTRO\Downloads\2 ano\4eeb01eb-f3c0-4a57-ad70-de829c02ccd2.jpg" arWidth="160" arHeight="80" duration="0" songTitle="" songArtist="" songAlbum="" />
    <MediaItem id="440" filePath="C:\Users\aluno.UDICENTRO\Downloads\2 ano\5bdd6ae6-1db6-4fee-a495-61490f349e1c.jpg" arWidth="120" arHeight="160" duration="0" songTitle="" songArtist="" songAlbum="" />
    <MediaItem id="441" filePath="C:\Users\aluno.UDICENTRO\Downloads\2 ano\8edcb6a0-2198-43af-b6be-bcb452a40102.jpg" arWidth="120" arHeight="160" duration="0" songTitle="" songArtist="" songAlbum="" />
    <MediaItem id="442" filePath="C:\Users\aluno.UDICENTRO\Downloads\2 ano\9ec46a61-ddf3-4d7e-8cd8-f7096827f280.jpg" arWidth="1280" arHeight="962" duration="0" songTitle="" songArtist="" songAlbum="" />
    <MediaItem id="443" filePath="C:\Users\aluno.UDICENTRO\Downloads\2 ano\71fba76c-d2f4-4202-911c-5286f0def897.jpg" arWidth="720" arHeight="738" duration="0" songTitle="" songArtist="" songAlbum="" />
    <MediaItem id="444" filePath="C:\Users\aluno.UDICENTRO\Downloads\2 ano\99ab2c13-46d0-42f9-ab7a-edd04ef584a6.jpg" arWidth="160" arHeight="120" duration="0" songTitle="" songArtist="" songAlbum="" />
    <MediaItem id="445" filePath="C:\Users\aluno.UDICENTRO\Downloads\2 ano\2018-12-16 11.07.46 2.jpg" arWidth="3096" arHeight="4128" duration="0" songTitle="" songArtist="" songAlbum="" />
    <MediaItem id="446" filePath="C:\Users\aluno.UDICENTRO\Downloads\2 ano\2018-12-16 11.08.00 1.jpg" arWidth="3096" arHeight="4128" duration="0" songTitle="" songArtist="" songAlbum="" />
    <MediaItem id="447" filePath="C:\Users\aluno.UDICENTRO\Downloads\2 ano\942090ca-f0f1-4603-aea4-4d322459e9c0.jpg" arWidth="120" arHeight="160" duration="0" songTitle="" songArtist="" songAlbum="" />
    <MediaItem id="448" filePath="C:\Users\aluno.UDICENTRO\Downloads\2 ano\4244984d-856d-4e8e-809a-bebffc78175f.jpg" arWidth="1280" arHeight="959" duration="0" songTitle="" songArtist="" songAlbum="" />
    <MediaItem id="449" filePath="C:\Users\aluno.UDICENTRO\Downloads\2 ano\20180609_202402-COLLAGE.jpg" arWidth="160" arHeight="160" duration="0" songTitle="" songArtist="" songAlbum="" />
    <MediaItem id="450" filePath="C:\Users\aluno.UDICENTRO\Downloads\2 ano\20181030_094340.jpg" arWidth="512" arHeight="384" duration="0" songTitle="" songArtist="" songAlbum="" />
    <MediaItem id="451" filePath="C:\Users\aluno.UDICENTRO\Downloads\2 ano\20181030_094344.jpg" arWidth="3264" arHeight="2448" duration="0" songTitle="" songArtist="" songAlbum="" />
    <MediaItem id="452" filePath="C:\Users\aluno.UDICENTRO\Downloads\2 ano\20181030_172658_capture.jpg" arWidth="1920" arHeight="1080" duration="0" songTitle="" songArtist="" songAlbum="" />
    <MediaItem id="453" filePath="C:\Users\aluno.UDICENTRO\Downloads\2 ano\20181106_155715.jpg" arWidth="2592" arHeight="1458" duration="0" songTitle="" songArtist="" songAlbum="" />
    <MediaItem id="454" filePath="C:\Users\aluno.UDICENTRO\Downloads\2 ano\20181107_134222.jpg" arWidth="2592" arHeight="1458" duration="0" songTitle="" songArtist="" songAlbum="" />
    <MediaItem id="455" filePath="C:\Users\aluno.UDICENTRO\Downloads\2 ano\20181107_144743.jpg" arWidth="512" arHeight="288" duration="0" songTitle="" songArtist="" songAlbum="" />
    <MediaItem id="456" filePath="C:\Users\aluno.UDICENTRO\Downloads\2 ano\20181107_144855.jpg" arWidth="512" arHeight="288" duration="0" songTitle="" songArtist="" songAlbum="" />
    <MediaItem id="457" filePath="C:\Users\aluno.UDICENTRO\Downloads\2 ano\20181107_144856.jpg" arWidth="512" arHeight="288" duration="0" songTitle="" songArtist="" songAlbum="" />
    <MediaItem id="458" filePath="C:\Users\aluno.UDICENTRO\Downloads\2 ano\20181107_144857.jpg" arWidth="512" arHeight="288" duration="0" songTitle="" songArtist="" songAlbum="" />
    <MediaItem id="459" filePath="C:\Users\aluno.UDICENTRO\Downloads\2 ano\20181126_171319.jpg" arWidth="2592" arHeight="1458" duration="0" songTitle="" songArtist="" songAlbum="" />
    <MediaItem id="460" filePath="C:\Users\aluno.UDICENTRO\Downloads\2 ano\20181127_063554(0).jpg" arWidth="512" arHeight="288" duration="0" songTitle="" songArtist="" songAlbum="" />
    <MediaItem id="461" filePath="C:\Users\aluno.UDICENTRO\Downloads\2 ano\20181127_063554.jpg" arWidth="512" arHeight="288" duration="0" songTitle="" songArtist="" songAlbum="" />
    <MediaItem id="462" filePath="C:\Users\aluno.UDICENTRO\Downloads\2 ano\20181127_063621.jpg" arWidth="512" arHeight="288" duration="0" songTitle="" songArtist="" songAlbum="" />
    <MediaItem id="463" filePath="C:\Users\aluno.UDICENTRO\Downloads\2 ano\20181127_064332.jpg" arWidth="3936" arHeight="2322" duration="0" songTitle="" songArtist="" songAlbum="" />
    <MediaItem id="464" filePath="C:\Users\aluno.UDICENTRO\Downloads\2 ano\20181127_072259.jpg" arWidth="512" arHeight="288" duration="0" songTitle="" songArtist="" songAlbum="" />
    <MediaItem id="465" filePath="C:\Users\aluno.UDICENTRO\Downloads\2 ano\20181127_141613.jpg" arWidth="512" arHeight="384" duration="0" songTitle="" songArtist="" songAlbum="" />
    <MediaItem id="466" filePath="C:\Users\aluno.UDICENTRO\Downloads\2 ano\20181130_124317.jpg" arWidth="2268" arHeight="4032" duration="0" songTitle="" songArtist="" songAlbum="" />
    <MediaItem id="467" filePath="C:\Users\aluno.UDICENTRO\Downloads\2 ano\20181130_160114.jpg" arWidth="960" arHeight="720" duration="0" songTitle="" songArtist="" songAlbum="" />
    <MediaItem id="468" filePath="C:\Users\aluno.UDICENTRO\Downloads\2 ano\20181201_153529.jpg" arWidth="512" arHeight="384" duration="0" songTitle="" songArtist="" songAlbum="" />
    <MediaItem id="469" filePath="C:\Users\aluno.UDICENTRO\Downloads\2 ano\20181209_161657.jpg" arWidth="512" arHeight="384" duration="0" songTitle="" songArtist="" songAlbum="" />
    <MediaItem id="470" filePath="C:\Users\aluno.UDICENTRO\Downloads\2 ano\20181209_161704.jpg" arWidth="512" arHeight="384" duration="0" songTitle="" songArtist="" songAlbum="" />
    <MediaItem id="471" filePath="C:\Users\aluno.UDICENTRO\Downloads\2 ano\20181209_163530.jpg" arWidth="2592" arHeight="1458" duration="0" songTitle="" songArtist="" songAlbum="" />
    <MediaItem id="472" filePath="C:\Users\aluno.UDICENTRO\Downloads\2 ano\20181213_100400.jpg" arWidth="512" arHeight="384" duration="0" songTitle="" songArtist="" songAlbum="" />
    <MediaItem id="473" filePath="C:\Users\aluno.UDICENTRO\Downloads\2 ano\20181213_104843.jpg" arWidth="512" arHeight="384" duration="0" songTitle="" songArtist="" songAlbum="" />
    <MediaItem id="474" filePath="C:\Users\aluno.UDICENTRO\Downloads\2 ano\20181213_105107.jpg" arWidth="512" arHeight="384" duration="0" songTitle="" songArtist="" songAlbum="" />
    <MediaItem id="475" filePath="C:\Users\aluno.UDICENTRO\Downloads\2 ano\20181213_105822.jpg" arWidth="512" arHeight="384" duration="0" songTitle="" songArtist="" songAlbum="" />
    <MediaItem id="476" filePath="C:\Users\aluno.UDICENTRO\Downloads\2 ano\20181213_114312.jpg" arWidth="1056" arHeight="5968" duration="0" songTitle="" songArtist="" songAlbum="" />
    <MediaItem id="477" filePath="C:\Users\aluno.UDICENTRO\Downloads\2 ano\20181213_133255.jpg" arWidth="2592" arHeight="1458" duration="0" songTitle="" songArtist="" songAlbum="" />
    <MediaItem id="478" filePath="C:\Users\aluno.UDICENTRO\Downloads\2 ano\20181213_151651.jpg" arWidth="2592" arHeight="1458" duration="0" songTitle="" songArtist="" songAlbum="" />
    <MediaItem id="479" filePath="C:\Users\aluno.UDICENTRO\Downloads\2 ano\20181213_193413(0).jpg" arWidth="512" arHeight="384" duration="0" songTitle="" songArtist="" songAlbum="" />
    <MediaItem id="480" filePath="C:\Users\aluno.UDICENTRO\Downloads\2 ano\20181213_193430.jpg" arWidth="512" arHeight="384" duration="0" songTitle="" songArtist="" songAlbum="" />
    <MediaItem id="481" filePath="C:\Users\aluno.UDICENTRO\Downloads\2 ano\20181213_193502.jpg" arWidth="4032" arHeight="2268" duration="0" songTitle="" songArtist="" songAlbum="" />
    <MediaItem id="482" filePath="C:\Users\aluno.UDICENTRO\Downloads\2 ano\20181213_212744.jpg" arWidth="512" arHeight="384" duration="0" songTitle="" songArtist="" songAlbum="" />
    <MediaItem id="483" filePath="C:\Users\aluno.UDICENTRO\Downloads\2 ano\20181213_212822.jpg" arWidth="512" arHeight="384" duration="0" songTitle="" songArtist="" songAlbum="" />
    <MediaItem id="484" filePath="C:\Users\aluno.UDICENTRO\Downloads\2 ano\20181213_212824.jpg" arWidth="512" arHeight="384" duration="0" songTitle="" songArtist="" songAlbum="" />
    <MediaItem id="485" filePath="C:\Users\aluno.UDICENTRO\Downloads\2 ano\20181213_212833.jpg" arWidth="512" arHeight="384" duration="0" songTitle="" songArtist="" songAlbum="" />
    <MediaItem id="486" filePath="C:\Users\aluno.UDICENTRO\Downloads\2 ano\20181213_212938.jpg" arWidth="512" arHeight="384" duration="0" songTitle="" songArtist="" songAlbum="" />
    <MediaItem id="487" filePath="C:\Users\aluno.UDICENTRO\Downloads\2 ano\20181213_213001.jpg" arWidth="512" arHeight="384" duration="0" songTitle="" songArtist="" songAlbum="" />
    <MediaItem id="488" filePath="C:\Users\aluno.UDICENTRO\Downloads\2 ano\20181213_213004.jpg" arWidth="512" arHeight="384" duration="0" songTitle="" songArtist="" songAlbum="" />
    <MediaItem id="489" filePath="C:\Users\aluno.UDICENTRO\Downloads\2 ano\20181214_082454.jpg" arWidth="512" arHeight="384" duration="0" songTitle="" songArtist="" songAlbum="" />
    <MediaItem id="490" filePath="C:\Users\aluno.UDICENTRO\Downloads\2 ano\20181214_082510.jpg" arWidth="512" arHeight="384" duration="0" songTitle="" songArtist="" songAlbum="" />
    <MediaItem id="491" filePath="C:\Users\aluno.UDICENTRO\Downloads\2 ano\20181214_094447(0).jpg" arWidth="512" arHeight="384" duration="0" songTitle="" songArtist="" songAlbum="" />
    <MediaItem id="492" filePath="C:\Users\aluno.UDICENTRO\Downloads\2 ano\20181214_094548.jpg" arWidth="512" arHeight="384" duration="0" songTitle="" songArtist="" songAlbum="" />
    <MediaItem id="493" filePath="C:\Users\aluno.UDICENTRO\Downloads\2 ano\20181214_141832.jpg" arWidth="512" arHeight="384" duration="0" songTitle="" songArtist="" songAlbum="" />
    <MediaItem id="494" filePath="C:\Users\aluno.UDICENTRO\Downloads\2 ano\20181214_142439.jpg" arWidth="512" arHeight="384" duration="0" songTitle="" songArtist="" songAlbum="" />
    <MediaItem id="495" filePath="C:\Users\aluno.UDICENTRO\Downloads\2 ano\20181214_143431(1).jpg" arWidth="512" arHeight="384" duration="0" songTitle="" songArtist="" songAlbum="" />
    <MediaItem id="496" filePath="C:\Users\aluno.UDICENTRO\Downloads\2 ano\20181214_143920.jpg" arWidth="512" arHeight="384" duration="0" songTitle="" songArtist="" songAlbum="" />
    <MediaItem id="497" filePath="C:\Users\aluno.UDICENTRO\Downloads\2 ano\20181214_173042.jpg" arWidth="160" arHeight="120" duration="0" songTitle="" songArtist="" songAlbum="" />
    <MediaItem id="498" filePath="C:\Users\aluno.UDICENTRO\Downloads\2 ano\20181214_181850.jpg" arWidth="512" arHeight="384" duration="0" songTitle="" songArtist="" songAlbum="" />
    <MediaItem id="499" filePath="C:\Users\aluno.UDICENTRO\Downloads\2 ano\20181214_181912.jpg" arWidth="512" arHeight="384" duration="0" songTitle="" songArtist="" songAlbum="" />
    <MediaItem id="500" filePath="C:\Users\aluno.UDICENTRO\Downloads\2 ano\20181214_182013.jpg" arWidth="512" arHeight="384" duration="0" songTitle="" songArtist="" songAlbum="" />
    <MediaItem id="501" filePath="C:\Users\aluno.UDICENTRO\Downloads\2 ano\20181214_182507.jpg" arWidth="512" arHeight="384" duration="0" songTitle="" songArtist="" songAlbum="" />
    <MediaItem id="502" filePath="C:\Users\aluno.UDICENTRO\Downloads\2 ano\20181214_183203.jpg" arWidth="512" arHeight="384" duration="0" songTitle="" songArtist="" songAlbum="" />
    <MediaItem id="503" filePath="C:\Users\aluno.UDICENTRO\Downloads\2 ano\20181214_183331.jpg" arWidth="512" arHeight="384" duration="0" songTitle="" songArtist="" songAlbum="" />
    <MediaItem id="504" filePath="C:\Users\aluno.UDICENTRO\Downloads\2 ano\20181214_183334.jpg" arWidth="512" arHeight="384" duration="0" songTitle="" songArtist="" songAlbum="" />
    <MediaItem id="505" filePath="C:\Users\aluno.UDICENTRO\Downloads\2 ano\20181218_081331.jpg" arWidth="3072" arHeight="3072" duration="0" songTitle="" songArtist="" songAlbum="" />
    <MediaItem id="506" filePath="C:\Users\aluno.UDICENTRO\Downloads\2 ano\32808429-2526-49db-8ae3-847b4a317ba3.jpg" arWidth="160" arHeight="120" duration="0" songTitle="" songArtist="" songAlbum="" />
    <MediaItem id="507" filePath="C:\Users\aluno.UDICENTRO\Downloads\2 ano\a8f58355-cd8b-4870-8ebd-4e9b250e9c6a.jpg" arWidth="1152" arHeight="560" duration="0" songTitle="" songArtist="" songAlbum="" />
    <MediaItem id="508" filePath="C:\Users\aluno.UDICENTRO\Downloads\2 ano\b3648cdd-2a0c-4421-a13a-ca9615c68ee1.jpg" arWidth="120" arHeight="160" duration="0" songTitle="" songArtist="" songAlbum="" />
    <MediaItem id="509" filePath="C:\Users\aluno.UDICENTRO\Downloads\2 ano\c318bb6a-55a8-4198-b1d2-e0ff4e4e551c.jpg" arWidth="1152" arHeight="560" duration="0" songTitle="" songArtist="" songAlbum="" />
    <MediaItem id="510" filePath="C:\Users\aluno.UDICENTRO\Downloads\2 ano\caac7385-6741-4ca8-9e34-6d08e5087f0f.jpg" arWidth="160" arHeight="120" duration="0" songTitle="" songArtist="" songAlbum="" />
    <MediaItem id="511" filePath="C:\Users\aluno.UDICENTRO\Downloads\2 ano\d5a04b54-b5ac-4f3f-9db2-2dda66d3270a.jpg" arWidth="1280" arHeight="720" duration="0" songTitle="" songArtist="" songAlbum="" />
    <MediaItem id="512" filePath="C:\Users\aluno.UDICENTRO\Downloads\2 ano\D66D87E4-20AA-4F9B-A9CE-D24CAB1D1D17.jpg" arWidth="2968" arHeight="1668" duration="0" songTitle="" songArtist="" songAlbum="" />
    <MediaItem id="513" filePath="C:\Users\aluno.UDICENTRO\Downloads\2 ano\d8494ef4-7040-41f9-85b1-72e7aa07b665.jpg" arWidth="720" arHeight="1280" duration="0" songTitle="" songArtist="" songAlbum="" />
    <MediaItem id="514" filePath="C:\Users\aluno.UDICENTRO\Downloads\2 ano\e28b2c20-94fa-406c-8fa7-a4b04af109ae.jpg" arWidth="1280" arHeight="958" duration="0" songTitle="" songArtist="" songAlbum="" />
    <MediaItem id="515" filePath="C:\Users\aluno.UDICENTRO\Downloads\2 ano\e985f857-e9f7-47de-91e3-dc2598494266.jpg" arWidth="1280" arHeight="853" duration="0" songTitle="" songArtist="" songAlbum="" />
    <MediaItem id="516" filePath="C:\Users\aluno.UDICENTRO\Downloads\2 ano\f3b5a44c-43c3-4fef-8bbc-5c837b10e564.jpg" arWidth="1280" arHeight="853" duration="0" songTitle="" songArtist="" songAlbum="" />
    <MediaItem id="517" filePath="C:\Users\aluno.UDICENTRO\Downloads\2 ano\FB_IMG_1540850687973.jpg" arWidth="1728" arHeight="1152" duration="0" songTitle="" songArtist="" songAlbum="" />
    <MediaItem id="518" filePath="C:\Users\aluno.UDICENTRO\Downloads\2 ano\FB_IMG_1543088495545.jpg" arWidth="160" arHeight="120" duration="0" songTitle="" songArtist="" songAlbum="" />
    <MediaItem id="519" filePath="C:\Users\aluno.UDICENTRO\Downloads\2 ano\IMG_0594.jpg" arWidth="1728" arHeight="1152" duration="0" songTitle="" songArtist="" songAlbum="" />
    <MediaItem id="520" filePath="C:\Users\aluno.UDICENTRO\Downloads\2 ano\IMG_0721.jpg" arWidth="160" arHeight="120" duration="0" songTitle="" songArtist="" songAlbum="" />
    <MediaItem id="521" filePath="C:\Users\aluno.UDICENTRO\Downloads\2 ano\IMG_0735.jpg" arWidth="3480" arHeight="2783" duration="0" songTitle="" songArtist="" songAlbum="" />
    <MediaItem id="522" filePath="C:\Users\aluno.UDICENTRO\Downloads\2 ano\IMG_1094.jpg" arWidth="160" arHeight="120" duration="0" songTitle="" songArtist="" songAlbum="" />
    <MediaItem id="523" filePath="C:\Users\aluno.UDICENTRO\Downloads\2 ano\IMG_1105.jpg" arWidth="160" arHeight="120" duration="0" songTitle="" songArtist="" songAlbum="" />
    <MediaItem id="524" filePath="C:\Users\aluno.UDICENTRO\Downloads\2 ano\IMG_1111.png" arWidth="750" arHeight="1334" duration="0" songTitle="" songArtist="" songAlbum="" />
    <MediaItem id="525" filePath="C:\Users\aluno.UDICENTRO\Downloads\2 ano\IMG_1149.jpg" arWidth="160" arHeight="120" duration="0" songTitle="" songArtist="" songAlbum="" />
    <MediaItem id="526" filePath="C:\Users\aluno.UDICENTRO\Downloads\2 ano\IMG_1163.jpg" arWidth="160" arHeight="120" duration="0" songTitle="" songArtist="" songAlbum="" />
    <MediaItem id="527" filePath="C:\Users\aluno.UDICENTRO\Downloads\2 ano\IMG_1164.jpg" arWidth="160" arHeight="120" duration="0" songTitle="" songArtist="" songAlbum="" />
    <MediaItem id="528" filePath="C:\Users\aluno.UDICENTRO\Downloads\2 ano\IMG_1189.jpg" arWidth="3721" arHeight="2092" duration="0" songTitle="" songArtist="" songAlbum="" />
    <MediaItem id="529" filePath="C:\Users\aluno.UDICENTRO\Downloads\2 ano\IMG_1363.jpg" arWidth="160" arHeight="120" duration="0" songTitle="" songArtist="" songAlbum="" />
    <MediaItem id="530" filePath="C:\Users\aluno.UDICENTRO\Downloads\2 ano\IMG_1429.jpg" arWidth="160" arHeight="120" duration="0" songTitle="" songArtist="" songAlbum="" />
    <MediaItem id="531" filePath="C:\Users\aluno.UDICENTRO\Downloads\2 ano\IMG_1472.jpg" arWidth="3088" arHeight="2320" duration="0" songTitle="" songArtist="" songAlbum="" />
    <MediaItem id="532" filePath="C:\Users\aluno.UDICENTRO\Downloads\2 ano\IMG_1619.jpg" arWidth="1280" arHeight="960" duration="0" songTitle="" songArtist="" songAlbum="" />
    <MediaItem id="533" filePath="C:\Users\aluno.UDICENTRO\Downloads\2 ano\IMG_1655.jpg" arWidth="1280" arHeight="960" duration="0" songTitle="" songArtist="" songAlbum="" />
    <MediaItem id="534" filePath="C:\Users\aluno.UDICENTRO\Downloads\2 ano\IMG_1677.jpg" arWidth="750" arHeight="552" duration="0" songTitle="" songArtist="" songAlbum="" />
    <MediaItem id="535" filePath="C:\Users\aluno.UDICENTRO\Downloads\2 ano\IMG_1678.jpg" arWidth="2159" arHeight="3840" duration="0" songTitle="" songArtist="" songAlbum="" />
    <MediaItem id="536" filePath="C:\Users\aluno.UDICENTRO\Downloads\2 ano\IMG_1696.jpg" arWidth="3264" arHeight="2448" duration="0" songTitle="" songArtist="" songAlbum="" />
    <MediaItem id="537" filePath="C:\Users\aluno.UDICENTRO\Downloads\2 ano\IMG_1710.jpg" arWidth="3264" arHeight="2448" duration="0" songTitle="" songArtist="" songAlbum="" />
    <MediaItem id="538" filePath="C:\Users\aluno.UDICENTRO\Downloads\2 ano\IMG_1715.jpg" arWidth="1280" arHeight="960" duration="0" songTitle="" songArtist="" songAlbum="" />
    <MediaItem id="539" filePath="C:\Users\aluno.UDICENTRO\Downloads\2 ano\IMG_1725.jpg" arWidth="1280" arHeight="960" duration="0" songTitle="" songArtist="" songAlbum="" />
    <MediaItem id="540" filePath="C:\Users\aluno.UDICENTRO\Downloads\2 ano\IMG_1757.jpg" arWidth="1280" arHeight="960" duration="0" songTitle="" songArtist="" songAlbum="" />
    <MediaItem id="541" filePath="C:\Users\aluno.UDICENTRO\Downloads\2 ano\IMG_1774.jpg" arWidth="3840" arHeight="2159" duration="0" songTitle="" songArtist="" songAlbum="" />
    <MediaItem id="542" filePath="C:\Users\aluno.UDICENTRO\Downloads\2 ano\IMG_1880.jpg" arWidth="3264" arHeight="2448" duration="0" songTitle="" songArtist="" songAlbum="" />
    <MediaItem id="543" filePath="C:\Users\aluno.UDICENTRO\Downloads\2 ano\IMG_1919.jpg" arWidth="750" arHeight="546" duration="0" songTitle="" songArtist="" songAlbum="" />
    <MediaItem id="544" filePath="C:\Users\aluno.UDICENTRO\Downloads\2 ano\IMG_2416.jpg" arWidth="1944" arHeight="1296" duration="0" songTitle="" songArtist="" songAlbum="" />
    <MediaItem id="545" filePath="C:\Users\aluno.UDICENTRO\Downloads\2 ano\IMG_2421.jpg" arWidth="960" arHeight="640" duration="0" songTitle="" songArtist="" songAlbum="" />
    <MediaItem id="546" filePath="C:\Users\aluno.UDICENTRO\Downloads\2 ano\IMG_2425.jpg" arWidth="960" arHeight="640" duration="0" songTitle="" songArtist="" songAlbum="" />
    <MediaItem id="547" filePath="C:\Users\aluno.UDICENTRO\Downloads\2 ano\IMG_20181024_113200053.jpg" arWidth="512" arHeight="384" duration="0" songTitle="" songArtist="" songAlbum="" />
    <MediaItem id="548" filePath="C:\Users\aluno.UDICENTRO\Downloads\2 ano\IMG_20181024_162744575.jpg" arWidth="512" arHeight="384" duration="0" songTitle="" songArtist="" songAlbum="" />
    <MediaItem id="549" filePath="C:\Users\aluno.UDICENTRO\Downloads\2 ano\IMG_20181030_090848666.jpg" arWidth="384" arHeight="512" duration="0" songTitle="" songArtist="" songAlbum="" />
    <MediaItem id="550" filePath="C:\Users\aluno.UDICENTRO\Downloads\2 ano\IMG_20181030_090949502_HDR.jpg" arWidth="384" arHeight="512" duration="0" songTitle="" songArtist="" songAlbum="" />
    <MediaItem id="551" filePath="C:\Users\aluno.UDICENTRO\Downloads\2 ano\IMG_20181030_092306753.jpg" arWidth="512" arHeight="384" duration="0" songTitle="" songArtist="" songAlbum="" />
    <MediaItem id="552" filePath="C:\Users\aluno.UDICENTRO\Downloads\2 ano\IMG_20181030_092535792.jpg" arWidth="512" arHeight="384" duration="0" songTitle="" songArtist="" songAlbum="" />
    <MediaItem id="553" filePath="C:\Users\aluno.UDICENTRO\Downloads\2 ano\IMG_20181030_092638790.jpg" arWidth="384" arHeight="512" duration="0" songTitle="" songArtist="" songAlbum="" />
    <MediaItem id="554" filePath="C:\Users\aluno.UDICENTRO\Downloads\2 ano\IMG_20181030_093233117_BURST000_COVER_TOP.jpg" arWidth="512" arHeight="384" duration="0" songTitle="" songArtist="" songAlbum="" />
    <MediaItem id="555" filePath="C:\Users\aluno.UDICENTRO\Downloads\2 ano\IMG_20181030_151139094.jpg" arWidth="1440" arHeight="2560" duration="0" songTitle="" songArtist="" songAlbum="" />
    <MediaItem id="556" filePath="C:\Users\aluno.UDICENTRO\Downloads\2 ano\IMG_20181030_151141652.jpg" arWidth="1440" arHeight="2560" duration="0" songTitle="" songArtist="" songAlbum="" />
    <MediaItem id="557" filePath="C:\Users\aluno.UDICENTRO\Downloads\2 ano\IMG_20181101_132035130.jpg" arWidth="1440" arHeight="2560" duration="0" songTitle="" songArtist="" songAlbum="" />
    <MediaItem id="558" filePath="C:\Users\aluno.UDICENTRO\Downloads\2 ano\IMG_20181101_145758902.jpg" arWidth="1440" arHeight="2560" duration="0" songTitle="" songArtist="" songAlbum="" />
    <MediaItem id="559" filePath="C:\Users\aluno.UDICENTRO\Downloads\2 ano\IMG_20181101_145811018.jpg" arWidth="1440" arHeight="2560" duration="0" songTitle="" songArtist="" songAlbum="" />
    <MediaItem id="560" filePath="C:\Users\aluno.UDICENTRO\Downloads\2 ano\IMG_20181106_142755529.jpg" arWidth="1440" arHeight="2560" duration="0" songTitle="" songArtist="" songAlbum="" />
    <MediaItem id="561" filePath="C:\Users\aluno.UDICENTRO\Downloads\2 ano\IMG_20181107_155646208.jpg" arWidth="384" arHeight="512" duration="0" songTitle="" songArtist="" songAlbum="" />
    <MediaItem id="562" filePath="C:\Users\aluno.UDICENTRO\Downloads\2 ano\IMG_20181108_151108727.jpg" arWidth="288" arHeight="512" duration="0" songTitle="" songArtist="" songAlbum="" />
    <MediaItem id="563" filePath="C:\Users\aluno.UDICENTRO\Downloads\2 ano\IMG_20181122_143842969.jpg" arWidth="384" arHeight="512" duration="0" songTitle="" songArtist="" songAlbum="" />
    <MediaItem id="564" filePath="C:\Users\aluno.UDICENTRO\Downloads\2 ano\IMG_20181122_155451926.jpg" arWidth="384" arHeight="512" duration="0" songTitle="" songArtist="" songAlbum="" />
    <MediaItem id="565" filePath="C:\Users\aluno.UDICENTRO\Downloads\2 ano\IMG_20181122_213519820.jpg" arWidth="512" arHeight="384" duration="0" songTitle="" songArtist="" songAlbum="" />
    <MediaItem id="566" filePath="C:\Users\aluno.UDICENTRO\Downloads\2 ano\IMG_20181123_110705980.jpg" arWidth="512" arHeight="384" duration="0" songTitle="" songArtist="" songAlbum="" />
    <MediaItem id="567" filePath="C:\Users\aluno.UDICENTRO\Downloads\2 ano\IMG_20181126_132245624.jpg" arWidth="384" arHeight="512" duration="0" songTitle="" songArtist="" songAlbum="" />
    <MediaItem id="568" filePath="C:\Users\aluno.UDICENTRO\Downloads\2 ano\IMG_20181126_132314420.jpg" arWidth="384" arHeight="512" duration="0" songTitle="" songArtist="" songAlbum="" />
    <MediaItem id="569" filePath="C:\Users\aluno.UDICENTRO\Downloads\2 ano\IMG_20181126_132541141.jpg" arWidth="384" arHeight="512" duration="0" songTitle="" songArtist="" songAlbum="" />
    <MediaItem id="570" filePath="C:\Users\aluno.UDICENTRO\Downloads\2 ano\IMG_20181127_075445.jpg" arWidth="5184" arHeight="3880" duration="0" songTitle="" songArtist="" songAlbum="" />
    <MediaItem id="571" filePath="C:\Users\aluno.UDICENTRO\Downloads\2 ano\IMG_20181203_090414693.jpg" arWidth="512" arHeight="384" duration="0" songTitle="" songArtist="" songAlbum="" />
    <MediaItem id="572" filePath="C:\Users\aluno.UDICENTRO\Downloads\2 ano\IMG_20181203_090425997.jpg" arWidth="512" arHeight="384" duration="0" songTitle="" songArtist="" songAlbum="" />
    <MediaItem id="573" filePath="C:\Users\aluno.UDICENTRO\Downloads\2 ano\IMG_20181203_132500446.jpg" arWidth="384" arHeight="512" duration="0" songTitle="" songArtist="" songAlbum="" />
    <MediaItem id="574" filePath="C:\Users\aluno.UDICENTRO\Downloads\2 ano\IMG_20181203_132557861.jpg" arWidth="384" arHeight="512" duration="0" songTitle="" songArtist="" songAlbum="" />
    <MediaItem id="575" filePath="C:\Users\aluno.UDICENTRO\Downloads\2 ano\IMG_20181203_132723208.jpg" arWidth="384" arHeight="512" duration="0" songTitle="" songArtist="" songAlbum="" />
    <MediaItem id="576" filePath="C:\Users\aluno.UDICENTRO\Downloads\2 ano\IMG_20181203_133113300.jpg" arWidth="384" arHeight="512" duration="0" songTitle="" songArtist="" songAlbum="" />
    <MediaItem id="577" filePath="C:\Users\aluno.UDICENTRO\Downloads\2 ano\IMG_20181203_140130200.jpg" arWidth="384" arHeight="512" duration="0" songTitle="" songArtist="" songAlbum="" />
    <MediaItem id="578" filePath="C:\Users\aluno.UDICENTRO\Downloads\2 ano\IMG_20181204_133719275_BURST001.jpg" arWidth="384" arHeight="512" duration="0" songTitle="" songArtist="" songAlbum="" />
    <MediaItem id="579" filePath="C:\Users\aluno.UDICENTRO\Downloads\2 ano\IMG_20181204_143726044.jpg" arWidth="384" arHeight="512" duration="0" songTitle="" songArtist="" songAlbum="" />
    <MediaItem id="580" filePath="C:\Users\aluno.UDICENTRO\Downloads\2 ano\IMG_20181204_143919358.jpg" arWidth="384" arHeight="512" duration="0" songTitle="" songArtist="" songAlbum="" />
    <MediaItem id="581" filePath="C:\Users\aluno.UDICENTRO\Downloads\2 ano\IMG_20181204_144150286.jpg" arWidth="384" arHeight="512" duration="0" songTitle="" songArtist="" songAlbum="" />
    <MediaItem id="582" filePath="C:\Users\aluno.UDICENTRO\Downloads\2 ano\IMG_20181204_144535718.jpg" arWidth="384" arHeight="512" duration="0" songTitle="" songArtist="" songAlbum="" />
    <MediaItem id="583" filePath="C:\Users\aluno.UDICENTRO\Downloads\2 ano\IMG_20181206_151611493_BURST000_COVER_TOP.jpg" arWidth="384" arHeight="512" duration="0" songTitle="" songArtist="" songAlbum="" />
    <MediaItem id="584" filePath="C:\Users\aluno.UDICENTRO\Downloads\2 ano\IMG_20181206_151614890_BURST000_COVER_TOP.jpg" arWidth="384" arHeight="512" duration="0" songTitle="" songArtist="" songAlbum="" />
    <MediaItem id="585" filePath="C:\Users\aluno.UDICENTRO\Downloads\2 ano\IMG_20181207_125219948.jpg" arWidth="384" arHeight="512" duration="0" songTitle="" songArtist="" songAlbum="" />
    <MediaItem id="586" filePath="C:\Users\aluno.UDICENTRO\Downloads\2 ano\IMG_20181207_125221994.jpg" arWidth="384" arHeight="512" duration="0" songTitle="" songArtist="" songAlbum="" />
    <MediaItem id="587" filePath="C:\Users\aluno.UDICENTRO\Downloads\2 ano\IMG_20181207_125227167.jpg" arWidth="384" arHeight="512" duration="0" songTitle="" songArtist="" songAlbum="" />
    <MediaItem id="588" filePath="C:\Users\aluno.UDICENTRO\Downloads\2 ano\IMG_20181207_125440796.jpg" arWidth="384" arHeight="512" duration="0" songTitle="" songArtist="" songAlbum="" />
    <MediaItem id="589" filePath="C:\Users\aluno.UDICENTRO\Downloads\2 ano\IMG_20181207_125456575.jpg" arWidth="384" arHeight="512" duration="0" songTitle="" songArtist="" songAlbum="" />
    <MediaItem id="590" filePath="C:\Users\aluno.UDICENTRO\Downloads\2 ano\IMG_20181207_155157738.jpg" arWidth="384" arHeight="512" duration="0" songTitle="" songArtist="" songAlbum="" />
    <MediaItem id="591" filePath="C:\Users\aluno.UDICENTRO\Downloads\2 ano\IMG_20181212_103322550.jpg" arWidth="512" arHeight="384" duration="0" songTitle="" songArtist="" songAlbum="" />
    <MediaItem id="592" filePath="C:\Users\aluno.UDICENTRO\Downloads\2 ano\IMG_20181212_211822437.jpg" arWidth="320" arHeight="240" duration="0" songTitle="" songArtist="" songAlbum="" />
    <MediaItem id="593" filePath="C:\Users\aluno.UDICENTRO\Downloads\2 ano\IMG_20181213_103113.jpg" arWidth="320" arHeight="240" duration="0" songTitle="" songArtist="" songAlbum="" />
    <MediaItem id="594" filePath="C:\Users\aluno.UDICENTRO\Downloads\2 ano\IMG_20181213_105859.jpg" arWidth="5184" arHeight="3880" duration="0" songTitle="" songArtist="" songAlbum="" />
    <MediaItem id="595" filePath="C:\Users\aluno.UDICENTRO\Downloads\2 ano\IMG_20181213_160901.jpg" arWidth="320" arHeight="240" duration="0" songTitle="" songArtist="" songAlbum="" />
    <MediaItem id="596" filePath="C:\Users\aluno.UDICENTRO\Downloads\2 ano\IMG_20181213_213301.jpg" arWidth="5184" arHeight="3880" duration="0" songTitle="" songArtist="" songAlbum="" />
    <MediaItem id="597" filePath="C:\Users\aluno.UDICENTRO\Downloads\2 ano\IMG_20181213_005747135.jpg" arWidth="240" arHeight="320" duration="0" songTitle="" songArtist="" songAlbum="" />
    <MediaItem id="598" filePath="C:\Users\aluno.UDICENTRO\Downloads\2 ano\IMG_20181213_005757030.jpg" arWidth="240" arHeight="320" duration="0" songTitle="" songArtist="" songAlbum="" />
    <MediaItem id="599" filePath="C:\Users\aluno.UDICENTRO\Downloads\2 ano\IMG_20181213_063052763.jpg" arWidth="384" arHeight="512" duration="0" songTitle="" songArtist="" songAlbum="" />
    <MediaItem id="600" filePath="C:\Users\aluno.UDICENTRO\Downloads\2 ano\IMG_20181213_101410772.jpg" arWidth="240" arHeight="320" duration="0" songTitle="" songArtist="" songAlbum="" />
    <MediaItem id="601" filePath="C:\Users\aluno.UDICENTRO\Downloads\2 ano\IMG_20181213_103755537.jpg" arWidth="240" arHeight="320" duration="0" songTitle="" songArtist="" songAlbum="" />
    <MediaItem id="602" filePath="C:\Users\aluno.UDICENTRO\Downloads\2 ano\IMG_20181213_120053779.jpg" arWidth="320" arHeight="240" duration="0" songTitle="" songArtist="" songAlbum="" />
    <MediaItem id="603" filePath="C:\Users\aluno.UDICENTRO\Downloads\2 ano\IMG_20181213_120211920.jpg" arWidth="320" arHeight="240" duration="0" songTitle="" songArtist="" songAlbum="" />
    <MediaItem id="604" filePath="C:\Users\aluno.UDICENTRO\Downloads\2 ano\IMG_20181213_120213798.jpg" arWidth="320" arHeight="240" duration="0" songTitle="" songArtist="" songAlbum="" />
    <MediaItem id="605" filePath="C:\Users\aluno.UDICENTRO\Downloads\2 ano\IMG_20181213_120603188.jpg" arWidth="320" arHeight="240" duration="0" songTitle="" songArtist="" songAlbum="" />
    <MediaItem id="606" filePath="C:\Users\aluno.UDICENTRO\Downloads\2 ano\IMG_20181213_120604070.jpg" arWidth="320" arHeight="240" duration="0" songTitle="" songArtist="" songAlbum="" />
    <MediaItem id="607" filePath="C:\Users\aluno.UDICENTRO\Downloads\2 ano\IMG_20181213_120718374.jpg" arWidth="240" arHeight="320" duration="0" songTitle="" songArtist="" songAlbum="" />
    <MediaItem id="608" filePath="C:\Users\aluno.UDICENTRO\Downloads\2 ano\IMG_20181213_122611536.jpg" arWidth="320" arHeight="240" duration="0" songTitle="" songArtist="" songAlbum="" />
    <MediaItem id="609" filePath="C:\Users\aluno.UDICENTRO\Downloads\2 ano\IMG_20181213_123615925.jpg" arWidth="320" arHeight="240" duration="0" songTitle="" songArtist="" songAlbum="" />
    <MediaItem id="610" filePath="C:\Users\aluno.UDICENTRO\Downloads\2 ano\IMG_20181213_123641433.jpg" arWidth="320" arHeight="240" duration="0" songTitle="" songArtist="" songAlbum="" />
    <MediaItem id="611" filePath="C:\Users\aluno.UDICENTRO\Downloads\2 ano\IMG_20181213_133508050.jpg" arWidth="320" arHeight="240" duration="0" songTitle="" songArtist="" songAlbum="" />
    <MediaItem id="612" filePath="C:\Users\aluno.UDICENTRO\Downloads\2 ano\IMG_20181213_144111750.jpg" arWidth="320" arHeight="240" duration="0" songTitle="" songArtist="" songAlbum="" />
    <MediaItem id="613" filePath="C:\Users\aluno.UDICENTRO\Downloads\2 ano\IMG_20181213_145635850.jpg" arWidth="240" arHeight="320" duration="0" songTitle="" songArtist="" songAlbum="" />
    <MediaItem id="614" filePath="C:\Users\aluno.UDICENTRO\Downloads\2 ano\IMG_20181213_152736709.jpg" arWidth="320" arHeight="240" duration="0" songTitle="" songArtist="" songAlbum="" />
    <MediaItem id="615" filePath="C:\Users\aluno.UDICENTRO\Downloads\2 ano\IMG_20181213_154659575.jpg" arWidth="512" arHeight="384" duration="0" songTitle="" songArtist="" songAlbum="" />
    <MediaItem id="616" filePath="C:\Users\aluno.UDICENTRO\Downloads\2 ano\IMG_20181213_195419553.jpg" arWidth="384" arHeight="512" duration="0" songTitle="" songArtist="" songAlbum="" />
    <MediaItem id="617" filePath="C:\Users\aluno.UDICENTRO\Downloads\2 ano\IMG_20181213_212030494.jpg" arWidth="240" arHeight="320" duration="0" songTitle="" songArtist="" songAlbum="" />
    <MediaItem id="618" filePath="C:\Users\aluno.UDICENTRO\Downloads\2 ano\IMG_20181213_212046447.jpg" arWidth="240" arHeight="320" duration="0" songTitle="" songArtist="" songAlbum="" />
    <MediaItem id="619" filePath="C:\Users\aluno.UDICENTRO\Downloads\2 ano\IMG_20181213_213136974.jpg" arWidth="320" arHeight="240" duration="0" songTitle="" songArtist="" songAlbum="" />
    <MediaItem id="620" filePath="C:\Users\aluno.UDICENTRO\Downloads\2 ano\IMG_20181213_214106346.jpg" arWidth="512" arHeight="384" duration="0" songTitle="" songArtist="" songAlbum="" />
    <MediaItem id="621" filePath="C:\Users\aluno.UDICENTRO\Downloads\2 ano\IMG_20181213_225930416.jpg" arWidth="512" arHeight="384" duration="0" songTitle="" songArtist="" songAlbum="" />
    <MediaItem id="622" filePath="C:\Users\aluno.UDICENTRO\Downloads\2 ano\IMG_20181214_093221_891.jpg" arWidth="1920" arHeight="1080" duration="0" songTitle="" songArtist="" songAlbum="" />
    <MediaItem id="623" filePath="C:\Users\aluno.UDICENTRO\Downloads\2 ano\IMG_20181214_104135.jpg" arWidth="5184" arHeight="3880" duration="0" songTitle="" songArtist="" songAlbum="" />
    <MediaItem id="624" filePath="C:\Users\aluno.UDICENTRO\Downloads\2 ano\IMG_20181214_142954_526.jpg" arWidth="1458" arHeight="2592" duration="0" songTitle="" songArtist="" songAlbum="" />
    <MediaItem id="625" filePath="C:\Users\aluno.UDICENTRO\Downloads\2 ano\IMG_20181214_143200_300.jpg" arWidth="1080" arHeight="1920" duration="0" songTitle="" songArtist="" songAlbum="" />
    <MediaItem id="626" filePath="C:\Users\aluno.UDICENTRO\Downloads\2 ano\IMG_20181214_143212_537.jpg" arWidth="1080" arHeight="1920" duration="0" songTitle="" songArtist="" songAlbum="" />
    <MediaItem id="627" filePath="C:\Users\aluno.UDICENTRO\Downloads\2 ano\IMG_20181214_172800_229.jpg" arWidth="1920" arHeight="1080" duration="0" songTitle="" songArtist="" songAlbum="" />
    <MediaItem id="628" filePath="C:\Users\aluno.UDICENTRO\Downloads\2 ano\IMG_20181214_173104.jpg" arWidth="320" arHeight="240" duration="0" songTitle="" songArtist="" songAlbum="" />
    <MediaItem id="629" filePath="C:\Users\aluno.UDICENTRO\Downloads\2 ano\IMG_20181214_173521_101.jpg" arWidth="1920" arHeight="1080" duration="0" songTitle="" songArtist="" songAlbum="" />
    <MediaItem id="630" filePath="C:\Users\aluno.UDICENTRO\Downloads\2 ano\IMG_20181214_082004865.jpg" arWidth="384" arHeight="512" duration="0" songTitle="" songArtist="" songAlbum="" />
    <MediaItem id="631" filePath="C:\Users\aluno.UDICENTRO\Downloads\2 ano\IMG_20181214_101357292.jpg" arWidth="384" arHeight="512" duration="0" songTitle="" songArtist="" songAlbum="" />
    <MediaItem id="632" filePath="C:\Users\aluno.UDICENTRO\Downloads\2 ano\IMG_20181214_102712693.jpg" arWidth="512" arHeight="384" duration="0" songTitle="" songArtist="" songAlbum="" />
    <MediaItem id="633" filePath="C:\Users\aluno.UDICENTRO\Downloads\2 ano\IMG_20181214_102733860.jpg" arWidth="320" arHeight="240" duration="0" songTitle="" songArtist="" songAlbum="" />
    <MediaItem id="634" filePath="C:\Users\aluno.UDICENTRO\Downloads\2 ano\IMG_20181214_102735124.jpg" arWidth="320" arHeight="240" duration="0" songTitle="" songArtist="" songAlbum="" />
    <MediaItem id="635" filePath="C:\Users\aluno.UDICENTRO\Downloads\2 ano\IMG_20181214_103824504.jpg" arWidth="240" arHeight="320" duration="0" songTitle="" songArtist="" songAlbum="" />
    <MediaItem id="636" filePath="C:\Users\aluno.UDICENTRO\Downloads\2 ano\IMG_20181214_104550265.jpg" arWidth="320" arHeight="240" duration="0" songTitle="" songArtist="" songAlbum="" />
    <MediaItem id="637" filePath="C:\Users\aluno.UDICENTRO\Downloads\2 ano\IMG_20181214_104719483.jpg" arWidth="3072" arHeight="4096" duration="0" songTitle="" songArtist="" songAlbum="" />
    <MediaItem id="638" filePath="C:\Users\aluno.UDICENTRO\Downloads\2 ano\IMG_20181214_104804675.jpg" arWidth="320" arHeight="240" duration="0" songTitle="" songArtist="" songAlbum="" />
    <MediaItem id="639" filePath="C:\Users\aluno.UDICENTRO\Downloads\2 ano\IMG_20181214_104811821.jpg" arWidth="320" arHeight="240" duration="0" songTitle="" songArtist="" songAlbum="" />
    <MediaItem id="640" filePath="C:\Users\aluno.UDICENTRO\Downloads\2 ano\IMG_20181214_105446160.jpg" arWidth="320" arHeight="240" duration="0" songTitle="" songArtist="" songAlbum="" />
    <MediaItem id="641" filePath="C:\Users\aluno.UDICENTRO\Downloads\2 ano\IMG_20181214_123456313.jpg" arWidth="320" arHeight="240" duration="0" songTitle="" songArtist="" songAlbum="" />
    <MediaItem id="642" filePath="C:\Users\aluno.UDICENTRO\Downloads\2 ano\IMG_20181214_123729676.jpg" arWidth="320" arHeight="240" duration="0" songTitle="" songArtist="" songAlbum="" />
    <MediaItem id="643" filePath="C:\Users\aluno.UDICENTRO\Downloads\2 ano\IMG_20181214_123736581.jpg" arWidth="320" arHeight="240" duration="0" songTitle="" songArtist="" songAlbum="" />
    <MediaItem id="644" filePath="C:\Users\aluno.UDICENTRO\Downloads\2 ano\IMG_20181214_124632960.jpg" arWidth="320" arHeight="240" duration="0" songTitle="" songArtist="" songAlbum="" />
    <MediaItem id="645" filePath="C:\Users\aluno.UDICENTRO\Downloads\2 ano\IMG_20181214_124651912.jpg" arWidth="3264" arHeight="2448" duration="0" songTitle="" songArtist="" songAlbum="" />
    <MediaItem id="646" filePath="C:\Users\aluno.UDICENTRO\Downloads\2 ano\IMG_20181214_124841103.jpg" arWidth="384" arHeight="512" duration="0" songTitle="" songArtist="" songAlbum="" />
    <MediaItem id="647" filePath="C:\Users\aluno.UDICENTRO\Downloads\2 ano\IMG_20181214_125947177.jpg" arWidth="240" arHeight="320" duration="0" songTitle="" songArtist="" songAlbum="" />
    <MediaItem id="648" filePath="C:\Users\aluno.UDICENTRO\Downloads\2 ano\IMG_20181214_132311751.jpg" arWidth="320" arHeight="240" duration="0" songTitle="" songArtist="" songAlbum="" />
    <MediaItem id="649" filePath="C:\Users\aluno.UDICENTRO\Downloads\2 ano\IMG_20181214_132608133.jpg" arWidth="320" arHeight="240" duration="0" songTitle="" songArtist="" songAlbum="" />
    <MediaItem id="650" filePath="C:\Users\aluno.UDICENTRO\Downloads\2 ano\IMG_20181214_132612227.jpg" arWidth="320" arHeight="240" duration="0" songTitle="" songArtist="" songAlbum="" />
    <MediaItem id="651" filePath="C:\Users\aluno.UDICENTRO\Downloads\2 ano\IMG_20181214_141101872_BURST000_COVER_TOP.jpg" arWidth="320" arHeight="240" duration="0" songTitle="" songArtist="" songAlbum="" />
    <MediaItem id="652" filePath="C:\Users\aluno.UDICENTRO\Downloads\2 ano\IMG_20181214_141658613.jpg" arWidth="240" arHeight="320" duration="0" songTitle="" songArtist="" songAlbum="" />
    <MediaItem id="653" filePath="C:\Users\aluno.UDICENTRO\Downloads\2 ano\IMG_20181214_141940145.jpg" arWidth="240" arHeight="320" duration="0" songTitle="" songArtist="" songAlbum="" />
    <MediaItem id="654" filePath="C:\Users\aluno.UDICENTRO\Downloads\2 ano\IMG_20181214_142014735.jpg" arWidth="320" arHeight="240" duration="0" songTitle="" songArtist="" songAlbum="" />
    <MediaItem id="655" filePath="C:\Users\aluno.UDICENTRO\Downloads\2 ano\IMG_20181214_152656398.jpg" arWidth="320" arHeight="240" duration="0" songTitle="" songArtist="" songAlbum="" />
    <MediaItem id="656" filePath="C:\Users\aluno.UDICENTRO\Downloads\2 ano\IMG_20181214_152812418.jpg" arWidth="320" arHeight="240" duration="0" songTitle="" songArtist="" songAlbum="" />
    <MediaItem id="657" filePath="C:\Users\aluno.UDICENTRO\Downloads\2 ano\IMG_20181214_152824649.jpg" arWidth="512" arHeight="384" duration="0" songTitle="" songArtist="" songAlbum="" />
    <MediaItem id="658" filePath="C:\Users\aluno.UDICENTRO\Downloads\2 ano\IMG_20181214_173520126.jpg" arWidth="3264" arHeight="2448" duration="0" songTitle="" songArtist="" songAlbum="" />
    <MediaItem id="659" filePath="C:\Users\aluno.UDICENTRO\Downloads\2 ano\IMG_20181214_175121216.jpg" arWidth="3264" arHeight="2448" duration="0" songTitle="" songArtist="" songAlbum="" />
    <MediaItem id="660" filePath="C:\Users\aluno.UDICENTRO\Downloads\2 ano\IMG_20181214_175729592.jpg" arWidth="320" arHeight="240" duration="0" songTitle="" songArtist="" songAlbum="" />
    <MediaItem id="661" filePath="C:\Users\aluno.UDICENTRO\Downloads\2 ano\IMG_20181214_175735529.jpg" arWidth="320" arHeight="240" duration="0" songTitle="" songArtist="" songAlbum="" />
    <MediaItem id="662" filePath="C:\Users\aluno.UDICENTRO\Downloads\2 ano\IMG_20181214_180039106.jpg" arWidth="240" arHeight="320" duration="0" songTitle="" songArtist="" songAlbum="" />
    <MediaItem id="663" filePath="C:\Users\aluno.UDICENTRO\Downloads\2 ano\IMG_20181214_180044610.jpg" arWidth="240" arHeight="320" duration="0" songTitle="" songArtist="" songAlbum="" />
    <MediaItem id="664" filePath="C:\Users\aluno.UDICENTRO\Downloads\2 ano\IMG_20181214_181544208.jpg" arWidth="240" arHeight="320" duration="0" songTitle="" songArtist="" songAlbum="" />
    <MediaItem id="665" filePath="C:\Users\aluno.UDICENTRO\Downloads\2 ano\IMG_20181214_182148445.jpg" arWidth="240" arHeight="320" duration="0" songTitle="" songArtist="" songAlbum="" />
    <MediaItem id="666" filePath="C:\Users\aluno.UDICENTRO\Downloads\2 ano\IMG_20181214_182157733.jpg" arWidth="320" arHeight="240" duration="0" songTitle="" songArtist="" songAlbum="" />
    <MediaItem id="667" filePath="C:\Users\aluno.UDICENTRO\Downloads\2 ano\IMG_20181214_182500593.jpg" arWidth="320" arHeight="240" duration="0" songTitle="" songArtist="" songAlbum="" />
    <MediaItem id="668" filePath="C:\Users\aluno.UDICENTRO\Downloads\2 ano\IMG_20181214_182507199.jpg" arWidth="320" arHeight="240" duration="0" songTitle="" songArtist="" songAlbum="" />
    <MediaItem id="669" filePath="C:\Users\aluno.UDICENTRO\Downloads\2 ano\IMG_20181214_182612562.jpg" arWidth="240" arHeight="320" duration="0" songTitle="" songArtist="" songAlbum="" />
    <MediaItem id="670" filePath="C:\Users\aluno.UDICENTRO\Downloads\2 ano\IMG_20181214_182623656.jpg" arWidth="240" arHeight="320" duration="0" songTitle="" songArtist="" songAlbum="" />
    <MediaItem id="671" filePath="C:\Users\aluno.UDICENTRO\Downloads\2 ano\IMG_20181214_183017194.jpg" arWidth="320" arHeight="240" duration="0" songTitle="" songArtist="" songAlbum="" />
    <MediaItem id="672" filePath="C:\Users\aluno.UDICENTRO\Downloads\2 ano\IMG_20181214_183031485.jpg" arWidth="240" arHeight="320" duration="0" songTitle="" songArtist="" songAlbum="" />
    <MediaItem id="673" filePath="C:\Users\aluno.UDICENTRO\Downloads\2 ano\IMG_20181214_183039097.jpg" arWidth="320" arHeight="240" duration="0" songTitle="" songArtist="" songAlbum="" />
    <MediaItem id="674" filePath="C:\Users\aluno.UDICENTRO\Downloads\2 ano\IMG_20181214_192329895.jpg" arWidth="320" arHeight="240" duration="0" songTitle="" songArtist="" songAlbum="" />
    <MediaItem id="675" filePath="C:\Users\aluno.UDICENTRO\Downloads\2 ano\IMG_20181219_121312158.jpg" arWidth="2592" arHeight="1944" duration="0" songTitle="" songArtist="" songAlbum="" />
    <MediaItem id="676" filePath="C:\Users\aluno.UDICENTRO\Downloads\2 ano\IMG-20181026-WA0000.jpg" arWidth="1152" arHeight="648" duration="0" songTitle="" songArtist="" songAlbum="" />
    <MediaItem id="677" filePath="C:\Users\aluno.UDICENTRO\Downloads\2 ano\IMG-20181030-WA0007.jpg" arWidth="1152" arHeight="648" duration="0" songTitle="" songArtist="" songAlbum="" />
    <MediaItem id="678" filePath="C:\Users\aluno.UDICENTRO\Downloads\2 ano\IMG-20181030-WA0021.jpg" arWidth="648" arHeight="1152" duration="0" songTitle="" songArtist="" songAlbum="" />
    <MediaItem id="679" filePath="C:\Users\aluno.UDICENTRO\Downloads\2 ano\IMG-20181030-WA0036.jpg" arWidth="160" arHeight="120" duration="0" songTitle="" songArtist="" songAlbum="" />
    <MediaItem id="680" filePath="C:\Users\aluno.UDICENTRO\Downloads\2 ano\IMG-20181030-WA0054.jpg" arWidth="1280" arHeight="959" duration="0" songTitle="" songArtist="" songAlbum="" />
    <MediaItem id="681" filePath="C:\Users\aluno.UDICENTRO\Downloads\2 ano\IMG-20181031-WA0028.jpg" arWidth="959" arHeight="1280" duration="0" songTitle="" songArtist="" songAlbum="" />
    <MediaItem id="682" filePath="C:\Users\aluno.UDICENTRO\Downloads\2 ano\IMG-20181102-WA0006.jpg" arWidth="1280" arHeight="960" duration="0" songTitle="" songArtist="" songAlbum="" />
    <MediaItem id="683" filePath="C:\Users\aluno.UDICENTRO\Downloads\2 ano\IMG-20181103-WA0028.jpg" arWidth="720" arHeight="1280" duration="0" songTitle="" songArtist="" songAlbum="" />
    <MediaItem id="684" filePath="C:\Users\aluno.UDICENTRO\Downloads\2 ano\IMG-20181103-WA0029.jpg" arWidth="720" arHeight="1280" duration="0" songTitle="" songArtist="" songAlbum="" />
    <MediaItem id="685" filePath="C:\Users\aluno.UDICENTRO\Downloads\2 ano\IMG-20181103-WA0030.jpg" arWidth="720" arHeight="1280" duration="0" songTitle="" songArtist="" songAlbum="" />
    <MediaItem id="686" filePath="C:\Users\aluno.UDICENTRO\Downloads\2 ano\IMG-20181106-WA0023.jpg" arWidth="1152" arHeight="648" duration="0" songTitle="" songArtist="" songAlbum="" />
    <MediaItem id="687" filePath="C:\Users\aluno.UDICENTRO\Downloads\2 ano\IMG-20181106-WA0034.jpg" arWidth="1152" arHeight="648" duration="0" songTitle="" songArtist="" songAlbum="" />
    <MediaItem id="688" filePath="C:\Users\aluno.UDICENTRO\Downloads\2 ano\IMG-20181106-WA0036.jpg" arWidth="1152" arHeight="648" duration="0" songTitle="" songArtist="" songAlbum="" />
    <MediaItem id="689" filePath="C:\Users\aluno.UDICENTRO\Downloads\2 ano\IMG-20181106-WA0037.jpg" arWidth="1152" arHeight="648" duration="0" songTitle="" songArtist="" songAlbum="" />
    <MediaItem id="690" filePath="C:\Users\aluno.UDICENTRO\Downloads\2 ano\IMG-20181106-WA0038.jpg" arWidth="1152" arHeight="648" duration="0" songTitle="" songArtist="" songAlbum="" />
    <MediaItem id="691" filePath="C:\Users\aluno.UDICENTRO\Downloads\2 ano\IMG-20181106-WA0039.jpg" arWidth="1152" arHeight="648" duration="0" songTitle="" songArtist="" songAlbum="" />
    <MediaItem id="692" filePath="C:\Users\aluno.UDICENTRO\Downloads\2 ano\IMG-20181106-WA0040.jpg" arWidth="1152" arHeight="648" duration="0" songTitle="" songArtist="" songAlbum="" />
    <MediaItem id="693" filePath="C:\Users\aluno.UDICENTRO\Downloads\2 ano\IMG-20181107-WA0012.jpg" arWidth="960" arHeight="1280" duration="0" songTitle="" songArtist="" songAlbum="" />
    <MediaItem id="694" filePath="C:\Users\aluno.UDICENTRO\Downloads\2 ano\IMG-20181107-WA0017.jpg" arWidth="120" arHeight="160" duration="0" songTitle="" songArtist="" songAlbum="" />
    <MediaItem id="695" filePath="C:\Users\aluno.UDICENTRO\Downloads\2 ano\IMG-20181107-WA0019.jpg" arWidth="959" arHeight="1280" duration="0" songTitle="" songArtist="" songAlbum="" />
    <MediaItem id="696" filePath="C:\Users\aluno.UDICENTRO\Downloads\2 ano\IMG-20181107-WA0029.jpg" arWidth="581" arHeight="1032" duration="0" songTitle="" songArtist="" songAlbum="" />
    <MediaItem id="697" filePath="C:\Users\aluno.UDICENTRO\Downloads\2 ano\IMG-20181107-WA0032.jpg" arWidth="1032" arHeight="581" duration="0" songTitle="" songArtist="" songAlbum="" />
    <MediaItem id="698" filePath="C:\Users\aluno.UDICENTRO\Downloads\2 ano\IMG-20181107-WA0039.jpg" arWidth="120" arHeight="160" duration="0" songTitle="" songArtist="" songAlbum="" />
    <MediaItem id="699" filePath="C:\Users\aluno.UDICENTRO\Downloads\2 ano\IMG-20181109-WA0006.jpg" arWidth="4128" arHeight="2322" duration="0" songTitle="" songArtist="" songAlbum="" />
    <MediaItem id="700" filePath="C:\Users\aluno.UDICENTRO\Downloads\2 ano\IMG-20181110-WA0065.jpg" arWidth="960" arHeight="1280" duration="0" songTitle="" songArtist="" songAlbum="" />
    <MediaItem id="701" filePath="C:\Users\aluno.UDICENTRO\Downloads\2 ano\IMG-20181110-WA0072.jpg" arWidth="960" arHeight="1280" duration="0" songTitle="" songArtist="" songAlbum="" />
    <MediaItem id="702" filePath="C:\Users\aluno.UDICENTRO\Downloads\2 ano\IMG-20181112-WA0053.jpg" arWidth="907" arHeight="1280" duration="0" songTitle="" songArtist="" songAlbum="" />
    <MediaItem id="703" filePath="C:\Users\aluno.UDICENTRO\Downloads\2 ano\IMG-20181114-WA0002.jpg" arWidth="160" arHeight="120" duration="0" songTitle="" songArtist="" songAlbum="" />
    <MediaItem id="704" filePath="C:\Users\aluno.UDICENTRO\Downloads\2 ano\IMG-20181115-WA0000.jpg" arWidth="640" arHeight="485" duration="0" songTitle="" songArtist="" songAlbum="" />
    <MediaItem id="705" filePath="C:\Users\aluno.UDICENTRO\Downloads\2 ano\IMG-20181121-WA0044.jpg" arWidth="160" arHeight="120" duration="0" songTitle="" songArtist="" songAlbum="" />
    <MediaItem id="706" filePath="C:\Users\aluno.UDICENTRO\Downloads\2 ano\IMG-20181122-WA0009.jpg" arWidth="648" arHeight="1152" duration="0" songTitle="" songArtist="" songAlbum="" />
    <MediaItem id="707" filePath="C:\Users\aluno.UDICENTRO\Downloads\2 ano\IMG-20181122-WA0033.jpg" arWidth="1280" arHeight="720" duration="0" songTitle="" songArtist="" songAlbum="" />
    <MediaItem id="708" filePath="C:\Users\aluno.UDICENTRO\Downloads\2 ano\IMG-20181124-WA0022.jpg" arWidth="1280" arHeight="959" duration="0" songTitle="" songArtist="" songAlbum="" />
    <MediaItem id="709" filePath="C:\Users\aluno.UDICENTRO\Downloads\2 ano\IMG-20181124-WA0032.jpg" arWidth="1280" arHeight="960" duration="0" songTitle="" songArtist="" songAlbum="" />
    <MediaItem id="710" filePath="C:\Users\aluno.UDICENTRO\Downloads\2 ano\IMG-20181126-WA0016.jpg" arWidth="1280" arHeight="720" duration="0" songTitle="" songArtist="" songAlbum="" />
    <MediaItem id="711" filePath="C:\Users\aluno.UDICENTRO\Downloads\2 ano\IMG-20181126-WA0023.jpg" arWidth="1152" arHeight="560" duration="0" songTitle="" songArtist="" songAlbum="" />
    <MediaItem id="712" filePath="C:\Users\aluno.UDICENTRO\Downloads\2 ano\IMG-20181126-WA0066.jpg" arWidth="1152" arHeight="560" duration="0" songTitle="" songArtist="" songAlbum="" />
    <MediaItem id="713" filePath="C:\Users\aluno.UDICENTRO\Downloads\2 ano\IMG-20181126-WA0068.jpg" arWidth="1152" arHeight="560" duration="0" songTitle="" songArtist="" songAlbum="" />
    <MediaItem id="714" filePath="C:\Users\aluno.UDICENTRO\Downloads\2 ano\IMG-20181126-WA0080.jpg" arWidth="1152" arHeight="648" duration="0" songTitle="" songArtist="" songAlbum="" />
    <MediaItem id="715" filePath="C:\Users\aluno.UDICENTRO\Downloads\2 ano\IMG-20181126-WA0081.jpg" arWidth="1152" arHeight="648" duration="0" songTitle="" songArtist="" songAlbum="" />
    <MediaItem id="716" filePath="C:\Users\aluno.UDICENTRO\Downloads\2 ano\IMG-20181127-WA0020.jpg" arWidth="1152" arHeight="560" duration="0" songTitle="" songArtist="" songAlbum="" />
    <MediaItem id="717" filePath="C:\Users\aluno.UDICENTRO\Downloads\2 ano\IMG-20181127-WA0036.jpg" arWidth="1152" arHeight="560" duration="0" songTitle="" songArtist="" songAlbum="" />
    <MediaItem id="718" filePath="C:\Users\aluno.UDICENTRO\Downloads\2 ano\IMG-20181127-WA0039.jpg" arWidth="1152" arHeight="560" duration="0" songTitle="" songArtist="" songAlbum="" />
    <MediaItem id="719" filePath="C:\Users\aluno.UDICENTRO\Downloads\2 ano\IMG-20181127-WA0041.jpg" arWidth="1280" arHeight="958" duration="0" songTitle="" songArtist="" songAlbum="" />
    <MediaItem id="720" filePath="C:\Users\aluno.UDICENTRO\Downloads\2 ano\IMG-20181127-WA0045.jpg" arWidth="1152" arHeight="648" duration="0" songTitle="" songArtist="" songAlbum="" />
    <MediaItem id="721" filePath="C:\Users\aluno.UDICENTRO\Downloads\2 ano\IMG-20181128-WA0008.jpg" arWidth="1152" arHeight="560" duration="0" songTitle="" songArtist="" songAlbum="" />
    <MediaItem id="722" filePath="C:\Users\aluno.UDICENTRO\Downloads\2 ano\IMG-20181201-WA0014.jpg" arWidth="1836" arHeight="3264" duration="0" songTitle="" songArtist="" songAlbum="" />
    <MediaItem id="723" filePath="C:\Users\aluno.UDICENTRO\Downloads\2 ano\IMG-20181211-WA0035.jpg" arWidth="1280" arHeight="1036" duration="0" songTitle="" songArtist="" songAlbum="" />
    <MediaItem id="724" filePath="C:\Users\aluno.UDICENTRO\Downloads\2 ano\IMG-20181211-WA0062.jpg" arWidth="160" arHeight="120" duration="0" songTitle="" songArtist="" songAlbum="" />
    <MediaItem id="725" filePath="C:\Users\aluno.UDICENTRO\Downloads\2 ano\IMG-20181212-WA0002.jpg" arWidth="1280" arHeight="959" duration="0" songTitle="" songArtist="" songAlbum="" />
    <MediaItem id="726" filePath="C:\Users\aluno.UDICENTRO\Downloads\2 ano\IMG-20181212-WA0008.jpg" arWidth="1280" arHeight="959" duration="0" songTitle="" songArtist="" songAlbum="" />
    <MediaItem id="727" filePath="C:\Users\aluno.UDICENTRO\Downloads\2 ano\IMG-20181212-WA0039.jpg" arWidth="1632" arHeight="3264" duration="0" songTitle="" songArtist="" songAlbum="" />
    <MediaItem id="728" filePath="C:\Users\aluno.UDICENTRO\Downloads\2 ano\IMG-20181212-WA0041.jpg" arWidth="1632" arHeight="3264" duration="0" songTitle="" songArtist="" songAlbum="" />
    <MediaItem id="729" filePath="C:\Users\aluno.UDICENTRO\Downloads\2 ano\IMG-20181213-WA0034.jpg" arWidth="1280" arHeight="960" duration="0" songTitle="" songArtist="" songAlbum="" />
    <MediaItem id="730" filePath="C:\Users\aluno.UDICENTRO\Downloads\2 ano\IMG-20181213-WA0035.jpg" arWidth="1280" arHeight="962" duration="0" songTitle="" songArtist="" songAlbum="" />
    <MediaItem id="731" filePath="C:\Users\aluno.UDICENTRO\Downloads\2 ano\IMG-20181213-WA0045.jpg" arWidth="962" arHeight="1280" duration="0" songTitle="" songArtist="" songAlbum="" />
    <MediaItem id="732" filePath="C:\Users\aluno.UDICENTRO\Downloads\2 ano\IMG-20181213-WA0053.jpg" arWidth="1280" arHeight="958" duration="0" songTitle="" songArtist="" songAlbum="" />
    <MediaItem id="733" filePath="C:\Users\aluno.UDICENTRO\Downloads\2 ano\IMG-20181214-WA0012.jpg" arWidth="1280" arHeight="960" duration="0" songTitle="" songArtist="" songAlbum="" />
    <MediaItem id="734" filePath="C:\Users\aluno.UDICENTRO\Downloads\2 ano\IMG-20181214-WA0018.jpg" arWidth="1280" arHeight="960" duration="0" songTitle="" songArtist="" songAlbum="" />
    <MediaItem id="735" filePath="C:\Users\aluno.UDICENTRO\Downloads\2 ano\IMG-20181214-WA0028.jpg" arWidth="960" arHeight="1280" duration="0" songTitle="" songArtist="" songAlbum="" />
    <MediaItem id="736" filePath="C:\Users\aluno.UDICENTRO\Downloads\2 ano\IMG-20181215-WA0002.jpg" arWidth="1280" arHeight="960" duration="0" songTitle="" songArtist="" songAlbum="" />
    <MediaItem id="737" filePath="C:\Users\aluno.UDICENTRO\Downloads\2 ano\IMG-20181215-WA0015.jpg" arWidth="1280" arHeight="719" duration="0" songTitle="" songArtist="" songAlbum="" />
    <MediaItem id="738" filePath="C:\Users\aluno.UDICENTRO\Downloads\2 ano\IMG-20181215-WA0018.jpg" arWidth="960" arHeight="1280" duration="0" songTitle="" songArtist="" songAlbum="" />
    <MediaItem id="739" filePath="C:\Users\aluno.UDICENTRO\Downloads\2 ano\IMG-20181215-WA0024.jpg" arWidth="160" arHeight="120" duration="0" songTitle="" songArtist="" songAlbum="" />
    <MediaItem id="740" filePath="C:\Users\aluno.UDICENTRO\Downloads\2 ano\IMG-20181215-WA0035.jpg" arWidth="120" arHeight="160" duration="0" songTitle="" songArtist="" songAlbum="" />
    <MediaItem id="741" filePath="C:\Users\aluno.UDICENTRO\Downloads\2 ano\IMG-20181215-WA0058.jpg" arWidth="160" arHeight="120" duration="0" songTitle="" songArtist="" songAlbum="" />
    <MediaItem id="742" filePath="C:\Users\aluno.UDICENTRO\Downloads\2 ano\IMG-20181215-WA0070.jpg" arWidth="1280" arHeight="719" duration="0" songTitle="" songArtist="" songAlbum="" />
    <MediaItem id="743" filePath="C:\Users\aluno.UDICENTRO\Downloads\2 ano\IMG-20181215-WA0074.jpg" arWidth="1280" arHeight="719" duration="0" songTitle="" songArtist="" songAlbum="" />
    <MediaItem id="744" filePath="C:\Users\aluno.UDICENTRO\Downloads\2 ano\IMG-20181215-WA0077.jpg" arWidth="120" arHeight="160" duration="0" songTitle="" songArtist="" songAlbum="" />
    <MediaItem id="745" filePath="C:\Users\aluno.UDICENTRO\Downloads\2 ano\IMG-20181215-WA0110.jpg" arWidth="1280" arHeight="720" duration="0" songTitle="" songArtist="" songAlbum="" />
    <MediaItem id="746" filePath="C:\Users\aluno.UDICENTRO\Downloads\2 ano\IMG-20181215-WA0118.jpg" arWidth="1280" arHeight="960" duration="0" songTitle="" songArtist="" songAlbum="" />
    <MediaItem id="747" filePath="C:\Users\aluno.UDICENTRO\Downloads\2 ano\IMG-20181215-WA0153.jpg" arWidth="1280" arHeight="960" duration="0" songTitle="" songArtist="" songAlbum="" />
    <MediaItem id="748" filePath="C:\Users\aluno.UDICENTRO\Downloads\2 ano\IMG-20181215-WA0178.jpg" arWidth="1280" arHeight="960" duration="0" songTitle="" songArtist="" songAlbum="" />
    <MediaItem id="749" filePath="C:\Users\aluno.UDICENTRO\Downloads\2 ano\IMG-20181215-WA0215.jpg" arWidth="1280" arHeight="960" duration="0" songTitle="" songArtist="" songAlbum="" />
    <MediaItem id="750" filePath="C:\Users\aluno.UDICENTRO\Downloads\2 ano\IMG-20181215-WA0346.jpg" arWidth="1280" arHeight="958" duration="0" songTitle="" songArtist="" songAlbum="" />
    <MediaItem id="751" filePath="C:\Users\aluno.UDICENTRO\Downloads\2 ano\IMG-20181215-WA0352.jpg" arWidth="160" arHeight="120" duration="0" songTitle="" songArtist="" songAlbum="" />
    <MediaItem id="752" filePath="C:\Users\aluno.UDICENTRO\Downloads\2 ano\IMG-20181215-WA0355.jpg" arWidth="120" arHeight="160" duration="0" songTitle="" songArtist="" songAlbum="" />
    <MediaItem id="753" filePath="C:\Users\aluno.UDICENTRO\Downloads\2 ano\IMG-20181215-WA0367.jpg" arWidth="120" arHeight="160" duration="0" songTitle="" songArtist="" songAlbum="" />
    <MediaItem id="754" filePath="C:\Users\aluno.UDICENTRO\Downloads\2 ano\IMG-20181215-WA0387.jpg" arWidth="120" arHeight="160" duration="0" songTitle="" songArtist="" songAlbum="" />
    <MediaItem id="755" filePath="C:\Users\aluno.UDICENTRO\Downloads\2 ano\IMG-20181215-WA0389.jpg" arWidth="160" arHeight="120" duration="0" songTitle="" songArtist="" songAlbum="" />
    <MediaItem id="756" filePath="C:\Users\aluno.UDICENTRO\Downloads\2 ano\IMG-20181215-WA0391.jpg" arWidth="160" arHeight="120" duration="0" songTitle="" songArtist="" songAlbum="" />
    <MediaItem id="757" filePath="C:\Users\aluno.UDICENTRO\Downloads\2 ano\IMG-20181215-WA0394.jpg" arWidth="160" arHeight="120" duration="0" songTitle="" songArtist="" songAlbum="" />
    <MediaItem id="758" filePath="C:\Users\aluno.UDICENTRO\Downloads\2 ano\IMG-20181216-WA0001.jpg" arWidth="1024" arHeight="768" duration="0" songTitle="" songArtist="" songAlbum="" />
    <MediaItem id="759" filePath="C:\Users\aluno.UDICENTRO\Downloads\2 ano\IMG-20181216-WA0003.jpg" arWidth="1024" arHeight="768" duration="0" songTitle="" songArtist="" songAlbum="" />
    <MediaItem id="760" filePath="C:\Users\aluno.UDICENTRO\Downloads\2 ano\IMG-20181216-WA0004(1).jpg" arWidth="1024" arHeight="768" duration="0" songTitle="" songArtist="" songAlbum="" />
    <MediaItem id="761" filePath="C:\Users\aluno.UDICENTRO\Downloads\2 ano\IMG-20181216-WA0004.jpg" arWidth="160" arHeight="120" duration="0" songTitle="" songArtist="" songAlbum="" />
    <MediaItem id="762" filePath="C:\Users\aluno.UDICENTRO\Downloads\2 ano\IMG-20181216-WA0006.jpg" arWidth="768" arHeight="1024" duration="0" songTitle="" songArtist="" songAlbum="" />
    <MediaItem id="763" filePath="C:\Users\aluno.UDICENTRO\Downloads\2 ano\IMG-20181216-WA0011.jpg" arWidth="120" arHeight="160" duration="0" songTitle="" songArtist="" songAlbum="" />
    <MediaItem id="764" filePath="C:\Users\aluno.UDICENTRO\Downloads\2 ano\IMG-20181216-WA0032.jpg" arWidth="160" arHeight="120" duration="0" songTitle="" songArtist="" songAlbum="" />
    <MediaItem id="765" filePath="C:\Users\aluno.UDICENTRO\Downloads\2 ano\IMG-20181218-WA0012.jpg" arWidth="1032" arHeight="774" duration="0" songTitle="" songArtist="" songAlbum="" />
    <MediaItem id="766" filePath="C:\Users\aluno.UDICENTRO\Downloads\2 ano\IMG-20181218-WA0016.jpg" arWidth="1280" arHeight="720" duration="0" songTitle="" songArtist="" songAlbum="" />
    <MediaItem id="767" filePath="C:\Users\aluno.UDICENTRO\Downloads\2 ano\IMG-20181222-WA0000.jpg" arWidth="720" arHeight="1280" duration="0" songTitle="" songArtist="" songAlbum="" />
    <MediaItem id="768" filePath="C:\Users\aluno.UDICENTRO\Downloads\2 ano\IMG-20190103-WA0034.jpg" arWidth="720" arHeight="1280" duration="0" songTitle="" songArtist="" songAlbum="" />
    <MediaItem id="769" filePath="C:\Users\aluno.UDICENTRO\Downloads\2 ano\P_20181029_095012.jpg" arWidth="4608" arHeight="2592" duration="0" songTitle="" songArtist="" songAlbum="" />
    <MediaItem id="770" filePath="C:\Users\aluno.UDICENTRO\Downloads\2 ano\P_20181031_121123.jpg" arWidth="3456" arHeight="4608" duration="0" songTitle="" songArtist="" songAlbum="" />
    <MediaItem id="771" filePath="C:\Users\aluno.UDICENTRO\Downloads\2 ano\P_20181031_121128.jpg" arWidth="2592" arHeight="4608" duration="0" songTitle="" songArtist="" songAlbum="" />
    <MediaItem id="772" filePath="C:\Users\aluno.UDICENTRO\Downloads\2 ano\P_20181101_172110.jpg" arWidth="2592" arHeight="4608" duration="0" songTitle="" songArtist="" songAlbum="" />
    <MediaItem id="773" filePath="C:\Users\aluno.UDICENTRO\Downloads\2 ano\P_20181101_172113_1.jpg" arWidth="4608" arHeight="2592" duration="0" songTitle="" songArtist="" songAlbum="" />
    <MediaItem id="774" filePath="C:\Users\aluno.UDICENTRO\Downloads\2 ano\P_20181106_155158.jpg" arWidth="2448" arHeight="3264" duration="0" songTitle="" songArtist="" songAlbum="" />
    <MediaItem id="775" filePath="C:\Users\aluno.UDICENTRO\Downloads\2 ano\P_20181107_095025.jpg" arWidth="5184" arHeight="2916" duration="0" songTitle="" songArtist="" songAlbum="" />
    <MediaItem id="776" filePath="C:\Users\aluno.UDICENTRO\Downloads\2 ano\P_20181107_095029.jpg" arWidth="5184" arHeight="2916" duration="0" songTitle="" songArtist="" songAlbum="" />
    <MediaItem id="777" filePath="C:\Users\aluno.UDICENTRO\Downloads\2 ano\P_20181107_152705.jpg" arWidth="4608" arHeight="2592" duration="0" songTitle="" songArtist="" songAlbum="" />
    <MediaItem id="778" filePath="C:\Users\aluno.UDICENTRO\Downloads\2 ano\P_20181107_152723.jpg" arWidth="3456" arHeight="4608" duration="0" songTitle="" songArtist="" songAlbum="" />
    <MediaItem id="779" filePath="C:\Users\aluno.UDICENTRO\Downloads\2 ano\P_20181114_160909.jpg" arWidth="5184" arHeight="2916" duration="0" songTitle="" songArtist="" songAlbum="" />
    <MediaItem id="780" filePath="C:\Users\aluno.UDICENTRO\Downloads\2 ano\P_20181121_185636.jpg" arWidth="5184" arHeight="2916" duration="0" songTitle="" songArtist="" songAlbum="" />
    <MediaItem id="781" filePath="C:\Users\aluno.UDICENTRO\Downloads\2 ano\P_20181121_185659.jpg" arWidth="5184" arHeight="2916" duration="0" songTitle="" songArtist="" songAlbum="" />
    <MediaItem id="782" filePath="C:\Users\aluno.UDICENTRO\Downloads\2 ano\P_20181126_184039.jpg" arWidth="5184" arHeight="2916" duration="0" songTitle="" songArtist="" songAlbum="" />
    <MediaItem id="783" filePath="C:\Users\aluno.UDICENTRO\Downloads\2 ano\P_20181126_223850.jpg" arWidth="5184" arHeight="2916" duration="0" songTitle="" songArtist="" songAlbum="" />
    <MediaItem id="784" filePath="C:\Users\aluno.UDICENTRO\Downloads\2 ano\P_20181126_233610.jpg" arWidth="4608" arHeight="2592" duration="0" songTitle="" songArtist="" songAlbum="" />
    <MediaItem id="785" filePath="C:\Users\aluno.UDICENTRO\Downloads\2 ano\P_20181129_115718.jpg" arWidth="5184" arHeight="2916" duration="0" songTitle="" songArtist="" songAlbum="" />
    <MediaItem id="786" filePath="C:\Users\aluno.UDICENTRO\Downloads\2 ano\P_20181130_155549.jpg" arWidth="5184" arHeight="2916" duration="0" songTitle="" songArtist="" songAlbum="" />
    <MediaItem id="787" filePath="C:\Users\aluno.UDICENTRO\Downloads\2 ano\P_20181203_143056.jpg" arWidth="2592" arHeight="4608" duration="0" songTitle="" songArtist="" songAlbum="" />
    <MediaItem id="788" filePath="C:\Users\aluno.UDICENTRO\Downloads\2 ano\P_20181203_143141.jpg" arWidth="5184" arHeight="2916" duration="0" songTitle="" songArtist="" songAlbum="" />
    <MediaItem id="789" filePath="C:\Users\aluno.UDICENTRO\Downloads\2 ano\P_20181203_154603.jpg" arWidth="4608" arHeight="2592" duration="0" songTitle="" songArtist="" songAlbum="" />
    <MediaItem id="790" filePath="C:\Users\aluno.UDICENTRO\Downloads\2 ano\P_20181204_170129.jpg" arWidth="4608" arHeight="2592" duration="0" songTitle="" songArtist="" songAlbum="" />
    <MediaItem id="791" filePath="C:\Users\aluno.UDICENTRO\Downloads\2 ano\P_20181206_115811.jpg" arWidth="3264" arHeight="2448" duration="0" songTitle="" songArtist="" songAlbum="" />
    <MediaItem id="792" filePath="C:\Users\aluno.UDICENTRO\Downloads\2 ano\P_20181211_141052.jpg" arWidth="4608" arHeight="2592" duration="0" songTitle="" songArtist="" songAlbum="" />
    <MediaItem id="793" filePath="C:\Users\aluno.UDICENTRO\Downloads\2 ano\P_20181211_141055.jpg" arWidth="4608" arHeight="2592" duration="0" songTitle="" songArtist="" songAlbum="" />
    <MediaItem id="794" filePath="C:\Users\aluno.UDICENTRO\Downloads\2 ano\P_20181213_095521_1.jpg" arWidth="5184" arHeight="2916" duration="0" songTitle="" songArtist="" songAlbum="" />
    <MediaItem id="795" filePath="C:\Users\aluno.UDICENTRO\Downloads\2 ano\P_20181213_095524.jpg" arWidth="5184" arHeight="2916" duration="0" songTitle="" songArtist="" songAlbum="" />
    <MediaItem id="796" filePath="C:\Users\aluno.UDICENTRO\Downloads\2 ano\P_20181213_101037.jpg" arWidth="4608" arHeight="2592" duration="0" songTitle="" songArtist="" songAlbum="" />
    <MediaItem id="797" filePath="C:\Users\aluno.UDICENTRO\Downloads\2 ano\P_20181213_101109.jpg" arWidth="5184" arHeight="2916" duration="0" songTitle="" songArtist="" songAlbum="" />
    <MediaItem id="798" filePath="C:\Users\aluno.UDICENTRO\Downloads\2 ano\P_20181213_102227.jpg" arWidth="2592" arHeight="4608" duration="0" songTitle="" songArtist="" songAlbum="" />
    <MediaItem id="799" filePath="C:\Users\aluno.UDICENTRO\Downloads\2 ano\P_20181213_154357_SRES.jpg" arWidth="9216" arHeight="5184" duration="0" songTitle="" songArtist="" songAlbum="" />
    <MediaItem id="800" filePath="C:\Users\aluno.UDICENTRO\Downloads\2 ano\P_20181213_202228.jpg" arWidth="4608" arHeight="2592" duration="0" songTitle="" songArtist="" songAlbum="" />
    <MediaItem id="801" filePath="C:\Users\aluno.UDICENTRO\Downloads\2 ano\P_20181214_102903.jpg" arWidth="5184" arHeight="2916" duration="0" songTitle="" songArtist="" songAlbum="" />
    <MediaItem id="802" filePath="C:\Users\aluno.UDICENTRO\Downloads\2 ano\P_20181214_142254.jpg" arWidth="5184" arHeight="2916" duration="0" songTitle="" songArtist="" songAlbum="" />
    <MediaItem id="803" filePath="C:\Users\aluno.UDICENTRO\Downloads\2 ano\P_20181214_173810.jpg" arWidth="4608" arHeight="2592" duration="0" songTitle="" songArtist="" songAlbum="" />
    <MediaItem id="804" filePath="C:\Users\aluno.UDICENTRO\Downloads\2 ano\P_20181214_180854.jpg" arWidth="4608" arHeight="2592" duration="0" songTitle="" songArtist="" songAlbum="" />
    <MediaItem id="805" filePath="C:\Users\aluno.UDICENTRO\Downloads\2 ano\P_20181214_181716.jpg" arWidth="4608" arHeight="2592" duration="0" songTitle="" songArtist="" songAlbum="" />
    <MediaItem id="806" filePath="C:\Users\aluno.UDICENTRO\Downloads\2 ano\Screenshot_20181113-185102.png" arWidth="1080" arHeight="1920" duration="0" songTitle="" songArtist="" songAlbum="" />
    <MediaItem id="807" filePath="C:\Users\aluno.UDICENTRO\Downloads\2 ano\Screenshot_20181128-122110.png" arWidth="1080" arHeight="1920" duration="0" songTitle="" songArtist="" songAlbum="" />
    <MediaItem id="808" filePath="C:\Users\aluno.UDICENTRO\Downloads\2 ano\Screenshot_20181213-234310.png" arWidth="1080" arHeight="2160" duration="0" songTitle="" songArtist="" songAlbum="" />
    <MediaItem id="809" filePath="C:\Users\aluno.UDICENTRO\Downloads\2 ano\22\0ca572bb-b0ed-43c3-a0d9-d78b92eb9938.jpg" arWidth="1280" arHeight="959" duration="0" songTitle="" songArtist="" songAlbum="" />
    <MediaItem id="810" filePath="C:\Users\aluno.UDICENTRO\Downloads\2 ano\22\4c7103d4-73b8-4993-9132-6b56621beefb.jpg" arWidth="1600" arHeight="900" duration="0" songTitle="" songArtist="" songAlbum="" />
    <MediaItem id="811" filePath="C:\Users\aluno.UDICENTRO\Downloads\2 ano\22\5a7c6585-c10e-41f1-b61e-95c67a07b750.jpg" arWidth="160" arHeight="120" duration="0" songTitle="" songArtist="" songAlbum="" />
    <MediaItem id="812" filePath="C:\Users\aluno.UDICENTRO\Downloads\2 ano\22\5bc163c2-63c4-45a1-bdc7-d3a2ad72fa7f.jpg" arWidth="160" arHeight="120" duration="0" songTitle="" songArtist="" songAlbum="" />
    <MediaItem id="813" filePath="C:\Users\aluno.UDICENTRO\Downloads\2 ano\22\5ca6b763-8573-44d4-b9e7-7f5d493226b2.jpg" arWidth="160" arHeight="120" duration="0" songTitle="" songArtist="" songAlbum="" />
    <MediaItem id="815" filePath="C:\Users\aluno.UDICENTRO\Downloads\2 ano\22\8a28c0f4-b0bd-42d8-88e6-b392d183f269.jpg" arWidth="160" arHeight="120" duration="0" songTitle="" songArtist="" songAlbum="" />
    <MediaItem id="816" filePath="C:\Users\aluno.UDICENTRO\Downloads\2 ano\22\8b393de4-8906-4ee6-91af-078e442bb03a.jpg" arWidth="160" arHeight="120" duration="0" songTitle="" songArtist="" songAlbum="" />
    <MediaItem id="817" filePath="C:\Users\aluno.UDICENTRO\Downloads\2 ano\22\9f9a1aac-ba3c-4f1c-b267-179a82ad9ef4.jpg" arWidth="1164" arHeight="655" duration="0" songTitle="" songArtist="" songAlbum="" />
    <MediaItem id="818" filePath="C:\Users\aluno.UDICENTRO\Downloads\2 ano\22\12.jpg" arWidth="3456" arHeight="2304" duration="0" songTitle="" songArtist="" songAlbum="" />
    <MediaItem id="819" filePath="C:\Users\aluno.UDICENTRO\Downloads\2 ano\22\089f4dfe-9470-4569-8eda-dc7c15673c20.jpg" arWidth="160" arHeight="120" duration="0" songTitle="" songArtist="" songAlbum="" />
    <MediaItem id="821" filePath="C:\Users\aluno.UDICENTRO\Downloads\2 ano\22\123.jpg" arWidth="4898" arHeight="3265" duration="0" songTitle="" songArtist="" songAlbum="" />
    <MediaItem id="822" filePath="C:\Users\aluno.UDICENTRO\Downloads\2 ano\22\481d24a2-9195-437f-b889-33f8fd2cc53c.jpg" arWidth="160" arHeight="120" duration="0" songTitle="" songArtist="" songAlbum="" />
    <MediaItem id="823" filePath="C:\Users\aluno.UDICENTRO\Downloads\2 ano\22\1576debb-16d7-4eb4-a22e-a5da792d5f4b.jpg" arWidth="160" arHeight="120" duration="0" songTitle="" songArtist="" songAlbum="" />
    <MediaItem id="824" filePath="C:\Users\aluno.UDICENTRO\Downloads\2 ano\22\20180404_125455.jpg" arWidth="4032" arHeight="3024" duration="0" songTitle="" songArtist="" songAlbum="" />
    <MediaItem id="825" filePath="C:\Users\aluno.UDICENTRO\Downloads\2 ano\22\20180406_143834.jpg" arWidth="512" arHeight="384" duration="0" songTitle="" songArtist="" songAlbum="" />
    <MediaItem id="826" filePath="C:\Users\aluno.UDICENTRO\Downloads\2 ano\22\20180407_190751.jpg" arWidth="160" arHeight="120" duration="0" songTitle="" songArtist="" songAlbum="" />
    <MediaItem id="828" filePath="C:\Users\aluno.UDICENTRO\Downloads\2 ano\22\20180409_154359.jpg" arWidth="120" arHeight="160" duration="0" songTitle="" songArtist="" songAlbum="" />
    <MediaItem id="830" filePath="C:\Users\aluno.UDICENTRO\Downloads\2 ano\22\20180412_101310.jpg" arWidth="160" arHeight="120" duration="0" songTitle="" songArtist="" songAlbum="" />
    <MediaItem id="835" filePath="C:\Users\aluno.UDICENTRO\Downloads\2 ano\22\20180412_142607.jpg" arWidth="512" arHeight="288" duration="0" songTitle="" songArtist="" songAlbum="" />
    <MediaItem id="837" filePath="C:\Users\aluno.UDICENTRO\Downloads\2 ano\22\20180413_092313.jpg" arWidth="2576" arHeight="1932" duration="0" songTitle="" songArtist="" songAlbum="" />
    <MediaItem id="838" filePath="C:\Users\aluno.UDICENTRO\Downloads\2 ano\22\20180413_092343.jpg" arWidth="2576" arHeight="1932" duration="0" songTitle="" songArtist="" songAlbum="" />
    <MediaItem id="839" filePath="C:\Users\aluno.UDICENTRO\Downloads\2 ano\22\20180416_110758.jpg" arWidth="3264" arHeight="2448" duration="0" songTitle="" songArtist="" songAlbum="" />
    <MediaItem id="840" filePath="C:\Users\aluno.UDICENTRO\Downloads\2 ano\22\20180416_110857.jpg" arWidth="512" arHeight="288" duration="0" songTitle="" songArtist="" songAlbum="" />
    <MediaItem id="841" filePath="C:\Users\aluno.UDICENTRO\Downloads\2 ano\22\20180416_110945.jpg" arWidth="512" arHeight="288" duration="0" songTitle="" songArtist="" songAlbum="" />
    <MediaItem id="842" filePath="C:\Users\aluno.UDICENTRO\Downloads\2 ano\22\20180416_111137.jpg" arWidth="512" arHeight="288" duration="0" songTitle="" songArtist="" songAlbum="" />
    <MediaItem id="845" filePath="C:\Users\aluno.UDICENTRO\Downloads\2 ano\22\20180416_111338.jpg" arWidth="512" arHeight="288" duration="0" songTitle="" songArtist="" songAlbum="" />
    <MediaItem id="846" filePath="C:\Users\aluno.UDICENTRO\Downloads\2 ano\22\20180416_112245.jpg" arWidth="512" arHeight="288" duration="0" songTitle="" songArtist="" songAlbum="" />
    <MediaItem id="851" filePath="C:\Users\aluno.UDICENTRO\Downloads\2 ano\22\20180426_194612.jpg" arWidth="3264" arHeight="2448" duration="0" songTitle="" songArtist="" songAlbum="" />
    <MediaItem id="852" filePath="C:\Users\aluno.UDICENTRO\Downloads\2 ano\22\20180427_131723.jpg" arWidth="512" arHeight="288" duration="0" songTitle="" songArtist="" songAlbum="" />
    <MediaItem id="853" filePath="C:\Users\aluno.UDICENTRO\Downloads\2 ano\22\20180430_170842.jpg" arWidth="160" arHeight="120" duration="0" songTitle="" songArtist="" songAlbum="" />
    <MediaItem id="854" filePath="C:\Users\aluno.UDICENTRO\Downloads\2 ano\22\20180430_170844.jpg" arWidth="160" arHeight="120" duration="0" songTitle="" songArtist="" songAlbum="" />
    <MediaItem id="855" filePath="C:\Users\aluno.UDICENTRO\Downloads\2 ano\22\20180430_170857.jpg" arWidth="160" arHeight="120" duration="0" songTitle="" songArtist="" songAlbum="" />
    <MediaItem id="856" filePath="C:\Users\aluno.UDICENTRO\Downloads\2 ano\22\20180502_112050.jpg" arWidth="160" arHeight="120" duration="0" songTitle="" songArtist="" songAlbum="" />
    <MediaItem id="857" filePath="C:\Users\aluno.UDICENTRO\Downloads\2 ano\22\20180502_152612.jpg" arWidth="3264" arHeight="2448" duration="0" songTitle="" songArtist="" songAlbum="" />
    <MediaItem id="858" filePath="C:\Users\aluno.UDICENTRO\Downloads\2 ano\22\20180502_152648.jpg" arWidth="512" arHeight="288" duration="0" songTitle="" songArtist="" songAlbum="" />
    <MediaItem id="859" filePath="C:\Users\aluno.UDICENTRO\Downloads\2 ano\22\20180502_153946.jpg" arWidth="512" arHeight="288" duration="0" songTitle="" songArtist="" songAlbum="" />
    <MediaItem id="860" filePath="C:\Users\aluno.UDICENTRO\Downloads\2 ano\22\20180503_153600.jpg" arWidth="512" arHeight="288" duration="0" songTitle="" songArtist="" songAlbum="" />
    <MediaItem id="861" filePath="C:\Users\aluno.UDICENTRO\Downloads\2 ano\22\20180508_143722.jpg" arWidth="4128" arHeight="2322" duration="0" songTitle="" songArtist="" songAlbum="" />
    <MediaItem id="862" filePath="C:\Users\aluno.UDICENTRO\Downloads\2 ano\22\20180508_143723.jpg" arWidth="512" arHeight="288" duration="0" songTitle="" songArtist="" songAlbum="" />
    <MediaItem id="863" filePath="C:\Users\aluno.UDICENTRO\Downloads\2 ano\22\20180508_143724(0).jpg" arWidth="512" arHeight="288" duration="0" songTitle="" songArtist="" songAlbum="" />
    <MediaItem id="864" filePath="C:\Users\aluno.UDICENTRO\Downloads\2 ano\22\20180511_143633.jpg" arWidth="512" arHeight="384" duration="0" songTitle="" songArtist="" songAlbum="" />
    <MediaItem id="865" filePath="C:\Users\aluno.UDICENTRO\Downloads\2 ano\22\20180511_144742.jpg" arWidth="1932" arHeight="2576" duration="0" songTitle="" songArtist="" songAlbum="" />
    <MediaItem id="866" filePath="C:\Users\aluno.UDICENTRO\Downloads\2 ano\22\20180511_154002.jpg" arWidth="512" arHeight="384" duration="0" songTitle="" songArtist="" songAlbum="" />
    <MediaItem id="867" filePath="C:\Users\aluno.UDICENTRO\Downloads\2 ano\22\20180511_154004.jpg" arWidth="512" arHeight="384" duration="0" songTitle="" songArtist="" songAlbum="" />
    <MediaItem id="868" filePath="C:\Users\aluno.UDICENTRO\Downloads\2 ano\22\20180511_161827.jpg" arWidth="512" arHeight="384" duration="0" songTitle="" songArtist="" songAlbum="" />
    <MediaItem id="869" filePath="C:\Users\aluno.UDICENTRO\Downloads\2 ano\22\20180511_161858.jpg" arWidth="512" arHeight="384" duration="0" songTitle="" songArtist="" songAlbum="" />
    <MediaItem id="870" filePath="C:\Users\aluno.UDICENTRO\Downloads\2 ano\22\20180608_153624.jpg" arWidth="4032" arHeight="3024" duration="0" songTitle="" songArtist="" songAlbum="" />
    <MediaItem id="871" filePath="C:\Users\aluno.UDICENTRO\Downloads\2 ano\22\20180613_115707.jpg" arWidth="4032" arHeight="3024" duration="0" songTitle="" songArtist="" songAlbum="" />
    <MediaItem id="872" filePath="C:\Users\aluno.UDICENTRO\Downloads\2 ano\22\20180613_124428.jpg" arWidth="512" arHeight="384" duration="0" songTitle="" songArtist="" songAlbum="" />
    <MediaItem id="873" filePath="C:\Users\aluno.UDICENTRO\Downloads\2 ano\22\20180613_124508(0).jpg" arWidth="512" arHeight="384" duration="0" songTitle="" songArtist="" songAlbum="" />
    <MediaItem id="874" filePath="C:\Users\aluno.UDICENTRO\Downloads\2 ano\22\20180618_152807.jpg" arWidth="1341" arHeight="2576" duration="0" songTitle="" songArtist="" songAlbum="" />
    <MediaItem id="875" filePath="C:\Users\aluno.UDICENTRO\Downloads\2 ano\22\20180619_091309.jpg" arWidth="120" arHeight="160" duration="0" songTitle="" songArtist="" songAlbum="" />
    <MediaItem id="876" filePath="C:\Users\aluno.UDICENTRO\Downloads\2 ano\22\20180622_084314.jpg" arWidth="512" arHeight="384" duration="0" songTitle="" songArtist="" songAlbum="" />
    <MediaItem id="877" filePath="C:\Users\aluno.UDICENTRO\Downloads\2 ano\22\20180626_090720.jpg" arWidth="512" arHeight="288" duration="0" songTitle="" songArtist="" songAlbum="" />
    <MediaItem id="878" filePath="C:\Users\aluno.UDICENTRO\Downloads\2 ano\22\20180630_105919.jpg" arWidth="160" arHeight="120" duration="0" songTitle="" songArtist="" songAlbum="" />
    <MediaItem id="879" filePath="C:\Users\aluno.UDICENTRO\Downloads\2 ano\22\20180630_105934.jpg" arWidth="4128" arHeight="2322" duration="0" songTitle="" songArtist="" songAlbum="" />
    <MediaItem id="880" filePath="C:\Users\aluno.UDICENTRO\Downloads\2 ano\22\20180630_105936.jpg" arWidth="512" arHeight="288" duration="0" songTitle="" songArtist="" songAlbum="" />
    <MediaItem id="881" filePath="C:\Users\aluno.UDICENTRO\Downloads\2 ano\22\20180630_144338.jpg" arWidth="512" arHeight="384" duration="0" songTitle="" songArtist="" songAlbum="" />
    <MediaItem id="882" filePath="C:\Users\aluno.UDICENTRO\Downloads\2 ano\22\20180630_150457.jpg" arWidth="512" arHeight="384" duration="0" songTitle="" songArtist="" songAlbum="" />
    <MediaItem id="883" filePath="C:\Users\aluno.UDICENTRO\Downloads\2 ano\22\20180630_155834.jpg" arWidth="512" arHeight="288" duration="0" songTitle="" songArtist="" songAlbum="" />
    <MediaItem id="884" filePath="C:\Users\aluno.UDICENTRO\Downloads\2 ano\22\20180630_161110.jpg" arWidth="512" arHeight="384" duration="0" songTitle="" songArtist="" songAlbum="" />
    <MediaItem id="885" filePath="C:\Users\aluno.UDICENTRO\Downloads\2 ano\22\20180630_181414.jpg" arWidth="160" arHeight="120" duration="0" songTitle="" songArtist="" songAlbum="" />
    <MediaItem id="886" filePath="C:\Users\aluno.UDICENTRO\Downloads\2 ano\22\20180630_184445.jpg" arWidth="2592" arHeight="1944" duration="0" songTitle="" songArtist="" songAlbum="" />
    <MediaItem id="887" filePath="C:\Users\aluno.UDICENTRO\Downloads\2 ano\22\20180726_102246.jpg" arWidth="120" arHeight="160" duration="0" songTitle="" songArtist="" songAlbum="" />
    <MediaItem id="888" filePath="C:\Users\aluno.UDICENTRO\Downloads\2 ano\22\20180726_165428.jpg" arWidth="512" arHeight="288" duration="0" songTitle="" songArtist="" songAlbum="" />
    <MediaItem id="889" filePath="C:\Users\aluno.UDICENTRO\Downloads\2 ano\22\20180726_165429.jpg" arWidth="4128" arHeight="2322" duration="0" songTitle="" songArtist="" songAlbum="" />
    <MediaItem id="890" filePath="C:\Users\aluno.UDICENTRO\Downloads\2 ano\22\20180726_165437.jpg" arWidth="512" arHeight="384" duration="0" songTitle="" songArtist="" songAlbum="" />
    <MediaItem id="891" filePath="C:\Users\aluno.UDICENTRO\Downloads\2 ano\22\20180726_165449.jpg" arWidth="512" arHeight="384" duration="0" songTitle="" songArtist="" songAlbum="" />
    <MediaItem id="892" filePath="C:\Users\aluno.UDICENTRO\Downloads\2 ano\22\20180814_101109.jpg" arWidth="512" arHeight="384" duration="0" songTitle="" songArtist="" songAlbum="" />
    <MediaItem id="893" filePath="C:\Users\aluno.UDICENTRO\Downloads\2 ano\22\20180827_090956.jpg" arWidth="512" arHeight="288" duration="0" songTitle="" songArtist="" songAlbum="" />
    <MediaItem id="894" filePath="C:\Users\aluno.UDICENTRO\Downloads\2 ano\22\20180827_090959(0).jpg" arWidth="512" arHeight="288" duration="0" songTitle="" songArtist="" songAlbum="" />
    <MediaItem id="895" filePath="C:\Users\aluno.UDICENTRO\Downloads\2 ano\22\20180903_142655.jpg" arWidth="512" arHeight="288" duration="0" songTitle="" songArtist="" songAlbum="" />
    <MediaItem id="896" filePath="C:\Users\aluno.UDICENTRO\Downloads\2 ano\22\20180903_180750.jpg" arWidth="512" arHeight="288" duration="0" songTitle="" songArtist="" songAlbum="" />
    <MediaItem id="897" filePath="C:\Users\aluno.UDICENTRO\Downloads\2 ano\22\20180903_180751.jpg" arWidth="512" arHeight="288" duration="0" songTitle="" songArtist="" songAlbum="" />
    <MediaItem id="898" filePath="C:\Users\aluno.UDICENTRO\Downloads\2 ano\22\20180903_180921(0).jpg" arWidth="512" arHeight="288" duration="0" songTitle="" songArtist="" songAlbum="" />
    <MediaItem id="899" filePath="C:\Users\aluno.UDICENTRO\Downloads\2 ano\22\20180910_153831.jpg" arWidth="4128" arHeight="2322" duration="0" songTitle="" songArtist="" songAlbum="" />
    <MediaItem id="900" filePath="C:\Users\aluno.UDICENTRO\Downloads\2 ano\22\20180910_153835.jpg" arWidth="512" arHeight="288" duration="0" songTitle="" songArtist="" songAlbum="" />
    <MediaItem id="901" filePath="C:\Users\aluno.UDICENTRO\Downloads\2 ano\22\20180910_153837.jpg" arWidth="512" arHeight="288" duration="0" songTitle="" songArtist="" songAlbum="" />
    <MediaItem id="902" filePath="C:\Users\aluno.UDICENTRO\Downloads\2 ano\22\20180910_153852.jpg" arWidth="512" arHeight="384" duration="0" songTitle="" songArtist="" songAlbum="" />
    <MediaItem id="903" filePath="C:\Users\aluno.UDICENTRO\Downloads\2 ano\22\20180910_153858.jpg" arWidth="512" arHeight="384" duration="0" songTitle="" songArtist="" songAlbum="" />
    <MediaItem id="904" filePath="C:\Users\aluno.UDICENTRO\Downloads\2 ano\22\20180912_130710.jpg" arWidth="4032" arHeight="3024" duration="0" songTitle="" songArtist="" songAlbum="" />
    <MediaItem id="905" filePath="C:\Users\aluno.UDICENTRO\Downloads\2 ano\22\20180913_114923.jpg" arWidth="1920" arHeight="1080" duration="0" songTitle="" songArtist="" songAlbum="" />
    <MediaItem id="906" filePath="C:\Users\aluno.UDICENTRO\Downloads\2 ano\22\20180913_155137.jpg" arWidth="160" arHeight="120" duration="0" songTitle="" songArtist="" songAlbum="" />
    <MediaItem id="907" filePath="C:\Users\aluno.UDICENTRO\Downloads\2 ano\22\20180913_160122.jpg" arWidth="4128" arHeight="2322" duration="0" songTitle="" songArtist="" songAlbum="" />
    <MediaItem id="908" filePath="C:\Users\aluno.UDICENTRO\Downloads\2 ano\22\20180913_160125.jpg" arWidth="4128" arHeight="2322" duration="0" songTitle="" songArtist="" songAlbum="" />
    <MediaItem id="909" filePath="C:\Users\aluno.UDICENTRO\Downloads\2 ano\22\20180914_111707.jpg" arWidth="3264" arHeight="2448" duration="0" songTitle="" songArtist="" songAlbum="" />
    <MediaItem id="910" filePath="C:\Users\aluno.UDICENTRO\Downloads\2 ano\22\20180926_093700.jpg" arWidth="2592" arHeight="1458" duration="0" songTitle="" songArtist="" songAlbum="" />
    <MediaItem id="911" filePath="C:\Users\aluno.UDICENTRO\Downloads\2 ano\22\20180926_100158.jpg" arWidth="512" arHeight="288" duration="0" songTitle="" songArtist="" songAlbum="" />
    <MediaItem id="912" filePath="C:\Users\aluno.UDICENTRO\Downloads\2 ano\22\20180926_100201.jpg" arWidth="4128" arHeight="2322" duration="0" songTitle="" songArtist="" songAlbum="" />
    <MediaItem id="913" filePath="C:\Users\aluno.UDICENTRO\Downloads\2 ano\22\20180926_100309.jpg" arWidth="512" arHeight="288" duration="0" songTitle="" songArtist="" songAlbum="" />
    <MediaItem id="914" filePath="C:\Users\aluno.UDICENTRO\Downloads\2 ano\22\20180927_134453.jpg" arWidth="512" arHeight="288" duration="0" songTitle="" songArtist="" songAlbum="" />
    <MediaItem id="915" filePath="C:\Users\aluno.UDICENTRO\Downloads\2 ano\22\20181006_191054.jpg" arWidth="1197" arHeight="1390" duration="0" songTitle="" songArtist="" songAlbum="" />
    <MediaItem id="916" filePath="C:\Users\aluno.UDICENTRO\Downloads\2 ano\22\20181008_154605.jpg" arWidth="2592" arHeight="1458" duration="0" songTitle="" songArtist="" songAlbum="" />
    <MediaItem id="917" filePath="C:\Users\aluno.UDICENTRO\Downloads\2 ano\22\20181017_125951.jpg" arWidth="512" arHeight="288" duration="0" songTitle="" songArtist="" songAlbum="" />
    <MediaItem id="918" filePath="C:\Users\aluno.UDICENTRO\Downloads\2 ano\22\20181017_132904.jpg" arWidth="4032" arHeight="3024" duration="0" songTitle="" songArtist="" songAlbum="" />
    <MediaItem id="919" filePath="C:\Users\aluno.UDICENTRO\Downloads\2 ano\22\20181019_211635.jpg" arWidth="512" arHeight="384" duration="0" songTitle="" songArtist="" songAlbum="" />
    <MediaItem id="920" filePath="C:\Users\aluno.UDICENTRO\Downloads\2 ano\22\20181019_212041.jpg" arWidth="4128" arHeight="3096" duration="0" songTitle="" songArtist="" songAlbum="" />
    <MediaItem id="921" filePath="C:\Users\aluno.UDICENTRO\Downloads\2 ano\22\90242229-7ca7-4756-86ed-6bebbc6f2c38.jpg" arWidth="160" arHeight="120" duration="0" songTitle="" songArtist="" songAlbum="" />
    <MediaItem id="922" filePath="C:\Users\aluno.UDICENTRO\Downloads\2 ano\22\b805be9b-c964-4fc3-ac39-bf9fcf372bd8.jpg" arWidth="160" arHeight="120" duration="0" songTitle="" songArtist="" songAlbum="" />
    <MediaItem id="923" filePath="C:\Users\aluno.UDICENTRO\Downloads\2 ano\22\c16f2102-c522-4805-8659-a5ffa41ef05f.jpg" arWidth="160" arHeight="120" duration="0" songTitle="" songArtist="" songAlbum="" />
    <MediaItem id="924" filePath="C:\Users\aluno.UDICENTRO\Downloads\2 ano\22\d6768ce3-e8d9-4792-a97b-2508d76eb3c3.jpg" arWidth="1032" arHeight="774" duration="0" songTitle="" songArtist="" songAlbum="" />
    <MediaItem id="925" filePath="C:\Users\aluno.UDICENTRO\Downloads\2 ano\22\EB8AAB2F-121A-4CAF-9410-6A1BD16B5A74.jpg" arWidth="1280" arHeight="720" duration="0" songTitle="" songArtist="" songAlbum="" />
    <MediaItem id="926" filePath="C:\Users\aluno.UDICENTRO\Downloads\2 ano\22\ECEDF9FB-C0F9-4961-91BA-CD614BF82DE7.jpg" arWidth="1280" arHeight="720" duration="0" songTitle="" songArtist="" songAlbum="" />
    <MediaItem id="927" filePath="C:\Users\aluno.UDICENTRO\Downloads\2 ano\22\FB_IMG_1524614767041.jpg" arWidth="720" arHeight="540" duration="0" songTitle="" songArtist="" songAlbum="" />
    <MediaItem id="928" filePath="C:\Users\aluno.UDICENTRO\Downloads\2 ano\22\FB_IMG_1530797428476.jpg" arWidth="160" arHeight="160" duration="0" songTitle="" songArtist="" songAlbum="" />
    <MediaItem id="929" filePath="C:\Users\aluno.UDICENTRO\Downloads\2 ano\22\FB_IMG_1539910963237.jpg" arWidth="1080" arHeight="720" duration="0" songTitle="" songArtist="" songAlbum="" />
    <MediaItem id="930" filePath="C:\Users\aluno.UDICENTRO\Downloads\2 ano\22\IMG_0015.jpg" arWidth="160" arHeight="120" duration="0" songTitle="" songArtist="" songAlbum="" />
    <MediaItem id="931" filePath="C:\Users\aluno.UDICENTRO\Downloads\2 ano\22\IMG_0070.jpg" arWidth="160" arHeight="120" duration="0" songTitle="" songArtist="" songAlbum="" />
    <MediaItem id="932" filePath="C:\Users\aluno.UDICENTRO\Downloads\2 ano\22\IMG_0094.jpg" arWidth="160" arHeight="120" duration="0" songTitle="" songArtist="" songAlbum="" />
    <MediaItem id="933" filePath="C:\Users\aluno.UDICENTRO\Downloads\2 ano\22\IMG_0095.jpg" arWidth="160" arHeight="120" duration="0" songTitle="" songArtist="" songAlbum="" />
    <MediaItem id="934" filePath="C:\Users\aluno.UDICENTRO\Downloads\2 ano\22\IMG_0108.jpg" arWidth="3264" arHeight="1836" duration="0" songTitle="" songArtist="" songAlbum="" />
    <MediaItem id="935" filePath="C:\Users\aluno.UDICENTRO\Downloads\2 ano\22\IMG_0109.jpg" arWidth="750" arHeight="1334" duration="0" songTitle="" songArtist="" songAlbum="" />
    <MediaItem id="936" filePath="C:\Users\aluno.UDICENTRO\Downloads\2 ano\22\IMG_0390.jpg" arWidth="160" arHeight="120" duration="0" songTitle="" songArtist="" songAlbum="" />
    <MediaItem id="937" filePath="C:\Users\aluno.UDICENTRO\Downloads\2 ano\22\IMG_0392.jpg" arWidth="160" arHeight="120" duration="0" songTitle="" songArtist="" songAlbum="" />
    <MediaItem id="938" filePath="C:\Users\aluno.UDICENTRO\Downloads\2 ano\22\IMG_0416.jpg" arWidth="160" arHeight="120" duration="0" songTitle="" songArtist="" songAlbum="" />
    <MediaItem id="939" filePath="C:\Users\aluno.UDICENTRO\Downloads\2 ano\22\IMG_0465.jpg" arWidth="750" arHeight="1334" duration="0" songTitle="" songArtist="" songAlbum="" />
    <MediaItem id="940" filePath="C:\Users\aluno.UDICENTRO\Downloads\2 ano\22\IMG_0506.jpg" arWidth="160" arHeight="120" duration="0" songTitle="" songArtist="" songAlbum="" />
    <MediaItem id="941" filePath="C:\Users\aluno.UDICENTRO\Downloads\2 ano\22\IMG_0507.jpg" arWidth="160" arHeight="120" duration="0" songTitle="" songArtist="" songAlbum="" />
    <MediaItem id="942" filePath="C:\Users\aluno.UDICENTRO\Downloads\2 ano\22\IMG_4595.jpg" arWidth="3456" arHeight="2304" duration="0" songTitle="" songArtist="" songAlbum="" />
    <MediaItem id="943" filePath="C:\Users\aluno.UDICENTRO\Downloads\2 ano\22\IMG_6351.jpg" arWidth="3412" arHeight="1920" duration="0" songTitle="" songArtist="" songAlbum="" />
    <MediaItem id="944" filePath="C:\Users\aluno.UDICENTRO\Downloads\2 ano\22\IMG_7179.jpg" arWidth="160" arHeight="120" duration="0" songTitle="" songArtist="" songAlbum="" />
    <MediaItem id="945" filePath="C:\Users\aluno.UDICENTRO\Downloads\2 ano\22\IMG_7602.jpg" arWidth="3840" arHeight="2159" duration="0" songTitle="" songArtist="" songAlbum="" />
    <MediaItem id="946" filePath="C:\Users\aluno.UDICENTRO\Downloads\2 ano\22\IMG_7686.jpg" arWidth="1030" arHeight="750" duration="0" songTitle="" songArtist="" songAlbum="" />
    <MediaItem id="947" filePath="C:\Users\aluno.UDICENTRO\Downloads\2 ano\22\IMG_8646.jpg" arWidth="160" arHeight="120" duration="0" songTitle="" songArtist="" songAlbum="" />
    <MediaItem id="948" filePath="C:\Users\aluno.UDICENTRO\Downloads\2 ano\22\IMG_8685.jpg" arWidth="160" arHeight="120" duration="0" songTitle="" songArtist="" songAlbum="" />
    <MediaItem id="949" filePath="C:\Users\aluno.UDICENTRO\Downloads\2 ano\22\IMG_8687.jpg" arWidth="160" arHeight="120" duration="0" songTitle="" songArtist="" songAlbum="" />
    <MediaItem id="950" filePath="C:\Users\aluno.UDICENTRO\Downloads\2 ano\22\IMG_8704.jpg" arWidth="1334" arHeight="750" duration="0" songTitle="" songArtist="" songAlbum="" />
    <MediaItem id="951" filePath="C:\Users\aluno.UDICENTRO\Downloads\2 ano\22\IMG_8760.jpg" arWidth="160" arHeight="120" duration="0" songTitle="" songArtist="" songAlbum="" />
    <MediaItem id="952" filePath="C:\Users\aluno.UDICENTRO\Downloads\2 ano\22\IMG_8761.jpg" arWidth="160" arHeight="120" duration="0" songTitle="" songArtist="" songAlbum="" />
    <MediaItem id="953" filePath="C:\Users\aluno.UDICENTRO\Downloads\2 ano\22\IMG_8764.jpg" arWidth="160" arHeight="120" duration="0" songTitle="" songArtist="" songAlbum="" />
    <MediaItem id="954" filePath="C:\Users\aluno.UDICENTRO\Downloads\2 ano\22\IMG_8792.jpg" arWidth="3264" arHeight="2448" duration="0" songTitle="" songArtist="" songAlbum="" />
    <MediaItem id="955" filePath="C:\Users\aluno.UDICENTRO\Downloads\2 ano\22\IMG_8793.jpg" arWidth="160" arHeight="120" duration="0" songTitle="" songArtist="" songAlbum="" />
    <MediaItem id="956" filePath="C:\Users\aluno.UDICENTRO\Downloads\2 ano\22\IMG_9025.jpg" arWidth="160" arHeight="120" duration="0" songTitle="" songArtist="" songAlbum="" />
    <MediaItem id="957" filePath="C:\Users\aluno.UDICENTRO\Downloads\2 ano\22\IMG_9052.jpg" arWidth="160" arHeight="120" duration="0" songTitle="" songArtist="" songAlbum="" />
    <MediaItem id="958" filePath="C:\Users\aluno.UDICENTRO\Downloads\2 ano\22\IMG_9106.jpg" arWidth="1280" arHeight="960" duration="0" songTitle="" songArtist="" songAlbum="" />
    <MediaItem id="959" filePath="C:\Users\aluno.UDICENTRO\Downloads\2 ano\22\IMG_9216.jpg" arWidth="160" arHeight="120" duration="0" songTitle="" songArtist="" songAlbum="" />
    <MediaItem id="960" filePath="C:\Users\aluno.UDICENTRO\Downloads\2 ano\22\IMG_9273.jpg" arWidth="160" arHeight="120" duration="0" songTitle="" songArtist="" songAlbum="" />
    <MediaItem id="961" filePath="C:\Users\aluno.UDICENTRO\Downloads\2 ano\22\IMG_9329.jpg" arWidth="2159" arHeight="3840" duration="0" songTitle="" songArtist="" songAlbum="" />
    <MediaItem id="962" filePath="C:\Users\aluno.UDICENTRO\Downloads\2 ano\22\IMG_9372.jpg" arWidth="160" arHeight="120" duration="0" songTitle="" songArtist="" songAlbum="" />
    <MediaItem id="963" filePath="C:\Users\aluno.UDICENTRO\Downloads\2 ano\22\IMG_9380.jpg" arWidth="160" arHeight="120" duration="0" songTitle="" songArtist="" songAlbum="" />
    <MediaItem id="964" filePath="C:\Users\aluno.UDICENTRO\Downloads\2 ano\22\IMG_9382.jpg" arWidth="160" arHeight="120" duration="0" songTitle="" songArtist="" songAlbum="" />
    <MediaItem id="965" filePath="C:\Users\aluno.UDICENTRO\Downloads\2 ano\22\IMG_9385.jpg" arWidth="160" arHeight="120" duration="0" songTitle="" songArtist="" songAlbum="" />
    <MediaItem id="966" filePath="C:\Users\aluno.UDICENTRO\Downloads\2 ano\22\IMG_9390.jpg" arWidth="160" arHeight="120" duration="0" songTitle="" songArtist="" songAlbum="" />
    <MediaItem id="967" filePath="C:\Users\aluno.UDICENTRO\Downloads\2 ano\22\IMG_9394.jpg" arWidth="160" arHeight="120" duration="0" songTitle="" songArtist="" songAlbum="" />
    <MediaItem id="968" filePath="C:\Users\aluno.UDICENTRO\Downloads\2 ano\22\IMG_9425.jpg" arWidth="160" arHeight="120" duration="0" songTitle="" songArtist="" songAlbum="" />
    <MediaItem id="969" filePath="C:\Users\aluno.UDICENTRO\Downloads\2 ano\22\IMG_9841.jpg" arWidth="160" arHeight="120" duration="0" songTitle="" songArtist="" songAlbum="" />
    <MediaItem id="970" filePath="C:\Users\aluno.UDICENTRO\Downloads\2 ano\22\IMG_9897.jpg" arWidth="1334" arHeight="750" duration="0" songTitle="" songArtist="" songAlbum="" />
    <MediaItem id="971" filePath="C:\Users\aluno.UDICENTRO\Downloads\2 ano\22\IMG_20180403_103558352_HDR.jpg" arWidth="288" arHeight="512" duration="0" songTitle="" songArtist="" songAlbum="" />
    <MediaItem id="972" filePath="C:\Users\aluno.UDICENTRO\Downloads\2 ano\22\IMG_20180403_103728107.jpg" arWidth="288" arHeight="512" duration="0" songTitle="" songArtist="" songAlbum="" />
    <MediaItem id="973" filePath="C:\Users\aluno.UDICENTRO\Downloads\2 ano\22\IMG_20180409_150649450.jpg" arWidth="288" arHeight="512" duration="0" songTitle="" songArtist="" songAlbum="" />
    <MediaItem id="974" filePath="C:\Users\aluno.UDICENTRO\Downloads\2 ano\22\IMG_20180416_114302474.jpg" arWidth="512" arHeight="384" duration="0" songTitle="" songArtist="" songAlbum="" />
    <MediaItem id="975" filePath="C:\Users\aluno.UDICENTRO\Downloads\2 ano\22\IMG_20180418_140645380.jpg" arWidth="640" arHeight="480" duration="0" songTitle="" songArtist="" songAlbum="" />
    <MediaItem id="976" filePath="C:\Users\aluno.UDICENTRO\Downloads\2 ano\22\IMG_20180418_140825097.jpg" arWidth="640" arHeight="480" duration="0" songTitle="" songArtist="" songAlbum="" />
    <MediaItem id="977" filePath="C:\Users\aluno.UDICENTRO\Downloads\2 ano\22\IMG_20180418_140956772.jpg" arWidth="512" arHeight="288" duration="0" songTitle="" songArtist="" songAlbum="" />
    <MediaItem id="978" filePath="C:\Users\aluno.UDICENTRO\Downloads\2 ano\22\IMG_20180418_141235119_HDR.jpg" arWidth="512" arHeight="288" duration="0" songTitle="" songArtist="" songAlbum="" />
    <MediaItem id="979" filePath="C:\Users\aluno.UDICENTRO\Downloads\2 ano\22\IMG_20180418_141358802.jpg" arWidth="288" arHeight="512" duration="0" songTitle="" songArtist="" songAlbum="" />
    <MediaItem id="980" filePath="C:\Users\aluno.UDICENTRO\Downloads\2 ano\22\IMG_20180420_152008973.jpg" arWidth="640" arHeight="480" duration="0" songTitle="" songArtist="" songAlbum="" />
    <MediaItem id="981" filePath="C:\Users\aluno.UDICENTRO\Downloads\2 ano\22\IMG_20180426_184106200.jpg" arWidth="512" arHeight="384" duration="0" songTitle="" songArtist="" songAlbum="" />
    <MediaItem id="982" filePath="C:\Users\aluno.UDICENTRO\Downloads\2 ano\22\IMG_20180426_184210755.jpg" arWidth="384" arHeight="512" duration="0" songTitle="" songArtist="" songAlbum="" />
    <MediaItem id="983" filePath="C:\Users\aluno.UDICENTRO\Downloads\2 ano\22\IMG_20180502_152412371.jpg" arWidth="288" arHeight="512" duration="0" songTitle="" songArtist="" songAlbum="" />
    <MediaItem id="984" filePath="C:\Users\aluno.UDICENTRO\Downloads\2 ano\22\IMG_20180502_152536604.jpg" arWidth="288" arHeight="512" duration="0" songTitle="" songArtist="" songAlbum="" />
    <MediaItem id="985" filePath="C:\Users\aluno.UDICENTRO\Downloads\2 ano\22\IMG_20180502_152555040.jpg" arWidth="288" arHeight="512" duration="0" songTitle="" songArtist="" songAlbum="" />
    <MediaItem id="986" filePath="C:\Users\aluno.UDICENTRO\Downloads\2 ano\22\IMG_20180502_154046304.jpg" arWidth="288" arHeight="512" duration="0" songTitle="" songArtist="" songAlbum="" />
    <MediaItem id="987" filePath="C:\Users\aluno.UDICENTRO\Downloads\2 ano\22\IMG_20180502_154140461.jpg" arWidth="288" arHeight="512" duration="0" songTitle="" songArtist="" songAlbum="" />
    <MediaItem id="988" filePath="C:\Users\aluno.UDICENTRO\Downloads\2 ano\22\IMG_20180502_154336031.jpg" arWidth="1440" arHeight="2560" duration="0" songTitle="" songArtist="" songAlbum="" />
    <MediaItem id="989" filePath="C:\Users\aluno.UDICENTRO\Downloads\2 ano\22\IMG_20180502_155408192_HDR.jpg" arWidth="1440" arHeight="2560" duration="0" songTitle="" songArtist="" songAlbum="" />
    <MediaItem id="990" filePath="C:\Users\aluno.UDICENTRO\Downloads\2 ano\22\IMG_20180502_155643207.jpg" arWidth="1440" arHeight="2560" duration="0" songTitle="" songArtist="" songAlbum="" />
    <MediaItem id="991" filePath="C:\Users\aluno.UDICENTRO\Downloads\2 ano\22\IMG_20180505_213950_718.jpg" arWidth="2560" arHeight="1440" duration="0" songTitle="" songArtist="" songAlbum="" />
    <MediaItem id="992" filePath="C:\Users\aluno.UDICENTRO\Downloads\2 ano\22\IMG_20180507_141819221.jpg" arWidth="1440" arHeight="2560" duration="0" songTitle="" songArtist="" songAlbum="" />
    <MediaItem id="993" filePath="C:\Users\aluno.UDICENTRO\Downloads\2 ano\22\IMG_20180507_141836139.jpg" arWidth="1440" arHeight="2560" duration="0" songTitle="" songArtist="" songAlbum="" />
    <MediaItem id="994" filePath="C:\Users\aluno.UDICENTRO\Downloads\2 ano\22\IMG_20180507_141854350_HDR.jpg" arWidth="1440" arHeight="2560" duration="0" songTitle="" songArtist="" songAlbum="" />
    <MediaItem id="995" filePath="C:\Users\aluno.UDICENTRO\Downloads\2 ano\22\IMG_20180507_141938543.jpg" arWidth="288" arHeight="512" duration="0" songTitle="" songArtist="" songAlbum="" />
    <MediaItem id="996" filePath="C:\Users\aluno.UDICENTRO\Downloads\2 ano\22\IMG_20180507_142344500.jpg" arWidth="1440" arHeight="2560" duration="0" songTitle="" songArtist="" songAlbum="" />
    <MediaItem id="997" filePath="C:\Users\aluno.UDICENTRO\Downloads\2 ano\22\IMG_20180507_143141580.jpg" arWidth="288" arHeight="512" duration="0" songTitle="" songArtist="" songAlbum="" />
    <MediaItem id="998" filePath="C:\Users\aluno.UDICENTRO\Downloads\2 ano\22\IMG_20180509_133522925.jpg" arWidth="1440" arHeight="2560" duration="0" songTitle="" songArtist="" songAlbum="" />
    <MediaItem id="999" filePath="C:\Users\aluno.UDICENTRO\Downloads\2 ano\22\IMG_20180509_133525964.jpg" arWidth="1440" arHeight="2560" duration="0" songTitle="" songArtist="" songAlbum="" />
    <MediaItem id="1000" filePath="C:\Users\aluno.UDICENTRO\Downloads\2 ano\22\IMG_20180510_131315218_HDR.jpg" arWidth="288" arHeight="512" duration="0" songTitle="" songArtist="" songAlbum="" />
    <MediaItem id="1001" filePath="C:\Users\aluno.UDICENTRO\Downloads\2 ano\22\IMG_20180510_131325289.jpg" arWidth="1440" arHeight="2560" duration="0" songTitle="" songArtist="" songAlbum="" />
    <MediaItem id="1002" filePath="C:\Users\aluno.UDICENTRO\Downloads\2 ano\22\IMG_20180511_143728863.jpg" arWidth="2340" arHeight="4160" duration="0" songTitle="" songArtist="" songAlbum="" />
    <MediaItem id="1003" filePath="C:\Users\aluno.UDICENTRO\Downloads\2 ano\22\IMG_20180518_143447679.jpg" arWidth="384" arHeight="512" duration="0" songTitle="" songArtist="" songAlbum="" />
    <MediaItem id="1004" filePath="C:\Users\aluno.UDICENTRO\Downloads\2 ano\22\IMG_20180518_152223862.jpg" arWidth="2340" arHeight="4160" duration="0" songTitle="" songArtist="" songAlbum="" />
    <MediaItem id="1005" filePath="C:\Users\aluno.UDICENTRO\Downloads\2 ano\22\IMG_20180518_152729346_HDR.jpg" arWidth="512" arHeight="384" duration="0" songTitle="" songArtist="" songAlbum="" />
    <MediaItem id="1006" filePath="C:\Users\aluno.UDICENTRO\Downloads\2 ano\22\IMG_20180521_075333428_HDR.jpg" arWidth="512" arHeight="384" duration="0" songTitle="" songArtist="" songAlbum="" />
    <MediaItem id="1007" filePath="C:\Users\aluno.UDICENTRO\Downloads\2 ano\22\IMG_20180522_121722707_HDR.jpg" arWidth="512" arHeight="384" duration="0" songTitle="" songArtist="" songAlbum="" />
    <MediaItem id="1008" filePath="C:\Users\aluno.UDICENTRO\Downloads\2 ano\22\IMG_20180522_130702291.jpg" arWidth="288" arHeight="512" duration="0" songTitle="" songArtist="" songAlbum="" />
    <MediaItem id="1009" filePath="C:\Users\aluno.UDICENTRO\Downloads\2 ano\22\IMG_20180522_132116807.jpg" arWidth="288" arHeight="512" duration="0" songTitle="" songArtist="" songAlbum="" />
    <MediaItem id="1010" filePath="C:\Users\aluno.UDICENTRO\Downloads\2 ano\22\IMG_20180608_153518286.jpg" arWidth="512" arHeight="384" duration="0" songTitle="" songArtist="" songAlbum="" />
    <MediaItem id="1011" filePath="C:\Users\aluno.UDICENTRO\Downloads\2 ano\22\IMG_20180608_165236401.jpg" arWidth="640" arHeight="480" duration="0" songTitle="" songArtist="" songAlbum="" />
    <MediaItem id="1012" filePath="C:\Users\aluno.UDICENTRO\Downloads\2 ano\22\IMG_20180608_165246590.jpg" arWidth="480" arHeight="640" duration="0" songTitle="" songArtist="" songAlbum="" />
    <MediaItem id="1013" filePath="C:\Users\aluno.UDICENTRO\Downloads\2 ano\22\IMG_20180608_165409130.jpg" arWidth="288" arHeight="512" duration="0" songTitle="" songArtist="" songAlbum="" />
    <MediaItem id="1014" filePath="C:\Users\aluno.UDICENTRO\Downloads\2 ano\22\IMG_20180608_165410609.jpg" arWidth="288" arHeight="512" duration="0" songTitle="" songArtist="" songAlbum="" />
    <MediaItem id="1015" filePath="C:\Users\aluno.UDICENTRO\Downloads\2 ano\22\IMG_20180609_203010775_LL.jpg" arWidth="512" arHeight="384" duration="0" songTitle="" songArtist="" songAlbum="" />
    <MediaItem id="1016" filePath="C:\Users\aluno.UDICENTRO\Downloads\2 ano\22\IMG_20180611_140344624.jpg" arWidth="480" arHeight="640" duration="0" songTitle="" songArtist="" songAlbum="" />
    <MediaItem id="1017" filePath="C:\Users\aluno.UDICENTRO\Downloads\2 ano\22\IMG_20180613_094926112.jpg" arWidth="384" arHeight="512" duration="0" songTitle="" songArtist="" songAlbum="" />
    <MediaItem id="1018" filePath="C:\Users\aluno.UDICENTRO\Downloads\2 ano\22\IMG_20180615_172938711_HDR.jpg" arWidth="288" arHeight="512" duration="0" songTitle="" songArtist="" songAlbum="" />
    <MediaItem id="1019" filePath="C:\Users\aluno.UDICENTRO\Downloads\2 ano\22\IMG_20180618_101500450.jpg" arWidth="288" arHeight="512" duration="0" songTitle="" songArtist="" songAlbum="" />
    <MediaItem id="1020" filePath="C:\Users\aluno.UDICENTRO\Downloads\2 ano\22\IMG_20180618_101502123.jpg" arWidth="288" arHeight="512" duration="0" songTitle="" songArtist="" songAlbum="" />
    <MediaItem id="1021" filePath="C:\Users\aluno.UDICENTRO\Downloads\2 ano\22\IMG_20180618_101503311.jpg" arWidth="1440" arHeight="2560" duration="0" songTitle="" songArtist="" songAlbum="" />
    <MediaItem id="1022" filePath="C:\Users\aluno.UDICENTRO\Downloads\2 ano\22\IMG_20180620_132210895.jpg" arWidth="1440" arHeight="2560" duration="0" songTitle="" songArtist="" songAlbum="" />
    <MediaItem id="1023" filePath="C:\Users\aluno.UDICENTRO\Downloads\2 ano\22\IMG_20180621_085956938.jpg" arWidth="1440" arHeight="2560" duration="0" songTitle="" songArtist="" songAlbum="" />
    <MediaItem id="1024" filePath="C:\Users\aluno.UDICENTRO\Downloads\2 ano\22\IMG_20180621_092008291.jpg" arWidth="288" arHeight="512" duration="0" songTitle="" songArtist="" songAlbum="" />
    <MediaItem id="1025" filePath="C:\Users\aluno.UDICENTRO\Downloads\2 ano\22\IMG_20180622_095611915.jpg" arWidth="1944" arHeight="2592" duration="0" songTitle="" songArtist="" songAlbum="" />
    <MediaItem id="1026" filePath="C:\Users\aluno.UDICENTRO\Downloads\2 ano\22\IMG_20180626_133723638.jpg" arWidth="512" arHeight="384" duration="0" songTitle="" songArtist="" songAlbum="" />
    <MediaItem id="1027" filePath="C:\Users\aluno.UDICENTRO\Downloads\2 ano\22\IMG_20180626_145326266.jpg" arWidth="384" arHeight="512" duration="0" songTitle="" songArtist="" songAlbum="" />
    <MediaItem id="1028" filePath="C:\Users\aluno.UDICENTRO\Downloads\2 ano\22\IMG_20180629_113519519.jpg" arWidth="288" arHeight="512" duration="0" songTitle="" songArtist="" songAlbum="" />
    <MediaItem id="1029" filePath="C:\Users\aluno.UDICENTRO\Downloads\2 ano\22\IMG_20180629_120004606.jpg" arWidth="640" arHeight="480" duration="0" songTitle="" songArtist="" songAlbum="" />
    <MediaItem id="1030" filePath="C:\Users\aluno.UDICENTRO\Downloads\2 ano\22\IMG_20180629_120015036.jpg" arWidth="512" arHeight="288" duration="0" songTitle="" songArtist="" songAlbum="" />
    <MediaItem id="1031" filePath="C:\Users\aluno.UDICENTRO\Downloads\2 ano\22\IMG_20180630_101635143.jpg" arWidth="384" arHeight="512" duration="0" songTitle="" songArtist="" songAlbum="" />
    <MediaItem id="1032" filePath="C:\Users\aluno.UDICENTRO\Downloads\2 ano\22\IMG_20180630_112717129.jpg" arWidth="384" arHeight="512" duration="0" songTitle="" songArtist="" songAlbum="" />
    <MediaItem id="1033" filePath="C:\Users\aluno.UDICENTRO\Downloads\2 ano\22\IMG_20180630_144346986_HDR.jpg" arWidth="384" arHeight="512" duration="0" songTitle="" songArtist="" songAlbum="" />
    <MediaItem id="1034" filePath="C:\Users\aluno.UDICENTRO\Downloads\2 ano\22\IMG_20180630_171539039_LL.jpg" arWidth="512" arHeight="384" duration="0" songTitle="" songArtist="" songAlbum="" />
    <MediaItem id="1035" filePath="C:\Users\aluno.UDICENTRO\Downloads\2 ano\22\IMG_20180630_171604716_LL.jpg" arWidth="512" arHeight="384" duration="0" songTitle="" songArtist="" songAlbum="" />
    <MediaItem id="1036" filePath="C:\Users\aluno.UDICENTRO\Downloads\2 ano\22\IMG_20180630_181111047_LL.jpg" arWidth="512" arHeight="384" duration="0" songTitle="" songArtist="" songAlbum="" />
    <MediaItem id="1037" filePath="C:\Users\aluno.UDICENTRO\Downloads\2 ano\22\IMG_20180630_181123081_LL.jpg" arWidth="512" arHeight="384" duration="0" songTitle="" songArtist="" songAlbum="" />
    <MediaItem id="1038" filePath="C:\Users\aluno.UDICENTRO\Downloads\2 ano\22\IMG_20180630_181137474_LL.jpg" arWidth="2592" arHeight="1944" duration="0" songTitle="" songArtist="" songAlbum="" />
    <MediaItem id="1039" filePath="C:\Users\aluno.UDICENTRO\Downloads\2 ano\22\IMG_20180702_120759_276.jpg" arWidth="1836" arHeight="3264" duration="0" songTitle="" songArtist="" songAlbum="" />
    <MediaItem id="1040" filePath="C:\Users\aluno.UDICENTRO\Downloads\2 ano\22\IMG_20180704_150601811_BURST000_COVER_TOP.jpg" arWidth="512" arHeight="384" duration="0" songTitle="" songArtist="" songAlbum="" />
    <MediaItem id="1041" filePath="C:\Users\aluno.UDICENTRO\Downloads\2 ano\22\IMG_20180706_213834174.jpg" arWidth="384" arHeight="512" duration="0" songTitle="" songArtist="" songAlbum="" />
    <MediaItem id="1042" filePath="C:\Users\aluno.UDICENTRO\Downloads\2 ano\22\IMG_20180730_114124101.jpg" arWidth="288" arHeight="512" duration="0" songTitle="" songArtist="" songAlbum="" />
    <MediaItem id="1043" filePath="C:\Users\aluno.UDICENTRO\Downloads\2 ano\22\IMG_20180806_120421203.jpg" arWidth="4032" arHeight="3024" duration="0" songTitle="" songArtist="" songAlbum="" />
    <MediaItem id="1044" filePath="C:\Users\aluno.UDICENTRO\Downloads\2 ano\22\IMG_20180813_140636834.jpg" arWidth="1440" arHeight="2560" duration="0" songTitle="" songArtist="" songAlbum="" />
    <MediaItem id="1045" filePath="C:\Users\aluno.UDICENTRO\Downloads\2 ano\22\IMG_20180823_141243324.jpg" arWidth="480" arHeight="640" duration="0" songTitle="" songArtist="" songAlbum="" />
    <MediaItem id="1046" filePath="C:\Users\aluno.UDICENTRO\Downloads\2 ano\22\IMG_20180823_141405233.jpg" arWidth="480" arHeight="640" duration="0" songTitle="" songArtist="" songAlbum="" />
    <MediaItem id="1047" filePath="C:\Users\aluno.UDICENTRO\Downloads\2 ano\22\IMG_20180829_091540021_LL.jpg" arWidth="512" arHeight="384" duration="0" songTitle="" songArtist="" songAlbum="" />
    <MediaItem id="1048" filePath="C:\Users\aluno.UDICENTRO\Downloads\2 ano\22\IMG_20180906_125003431.jpg" arWidth="480" arHeight="640" duration="0" songTitle="" songArtist="" songAlbum="" />
    <MediaItem id="1049" filePath="C:\Users\aluno.UDICENTRO\Downloads\2 ano\22\IMG_20180919_120246.jpg" arWidth="4864" arHeight="2736" duration="0" songTitle="" songArtist="" songAlbum="" />
    <MediaItem id="1050" filePath="C:\Users\aluno.UDICENTRO\Downloads\2 ano\22\IMG_20180925_143736.jpg" arWidth="4208" arHeight="3120" duration="0" songTitle="" songArtist="" songAlbum="" />
    <MediaItem id="1051" filePath="C:\Users\aluno.UDICENTRO\Downloads\2 ano\22\IMG_20180925_152051499.jpg" arWidth="1440" arHeight="2560" duration="0" songTitle="" songArtist="" songAlbum="" />
    <MediaItem id="1052" filePath="C:\Users\aluno.UDICENTRO\Downloads\2 ano\22\IMG_20180925_152054737.jpg" arWidth="1440" arHeight="2560" duration="0" songTitle="" songArtist="" songAlbum="" />
    <MediaItem id="1053" filePath="C:\Users\aluno.UDICENTRO\Downloads\2 ano\22\IMG_20180925_152308955.jpg" arWidth="288" arHeight="512" duration="0" songTitle="" songArtist="" songAlbum="" />
    <MediaItem id="1054" filePath="C:\Users\aluno.UDICENTRO\Downloads\2 ano\22\IMG_20180925_152607663.jpg" arWidth="1440" arHeight="2560" duration="0" songTitle="" songArtist="" songAlbum="" />
    <MediaItem id="1055" filePath="C:\Users\aluno.UDICENTRO\Downloads\2 ano\22\IMG_20180928_071100.jpg" arWidth="4864" arHeight="2736" duration="0" songTitle="" songArtist="" songAlbum="" />
    <MediaItem id="1056" filePath="C:\Users\aluno.UDICENTRO\Downloads\2 ano\22\IMG_20181001_133536042_HDR.jpg" arWidth="288" arHeight="512" duration="0" songTitle="" songArtist="" songAlbum="" />
    <MediaItem id="1057" filePath="C:\Users\aluno.UDICENTRO\Downloads\2 ano\22\IMG_20181001_140518676.jpg" arWidth="1440" arHeight="2560" duration="0" songTitle="" songArtist="" songAlbum="" />
    <MediaItem id="1058" filePath="C:\Users\aluno.UDICENTRO\Downloads\2 ano\22\IMG_20181005_125028664.jpg" arWidth="3024" arHeight="4032" duration="0" songTitle="" songArtist="" songAlbum="" />
    <MediaItem id="1059" filePath="C:\Users\aluno.UDICENTRO\Downloads\2 ano\22\IMG_20181018_121024563.jpg" arWidth="2592" arHeight="1944" duration="0" songTitle="" songArtist="" songAlbum="" />
    <MediaItem id="1060" filePath="C:\Users\aluno.UDICENTRO\Downloads\2 ano\22\IMG_20181024_113200053.jpg" arWidth="4032" arHeight="3024" duration="0" songTitle="" songArtist="" songAlbum="" />
    <MediaItem id="1061" filePath="C:\Users\aluno.UDICENTRO\Downloads\2 ano\22\IMG_20181024_162744575.jpg" arWidth="4032" arHeight="3024" duration="0" songTitle="" songArtist="" songAlbum="" />
    <MediaItem id="1062" filePath="C:\Users\aluno.UDICENTRO\Downloads\2 ano\22\IMG-20170328-WA0007.jpg" arWidth="1280" arHeight="720" duration="0" songTitle="" songArtist="" songAlbum="" />
    <MediaItem id="1063" filePath="C:\Users\aluno.UDICENTRO\Downloads\2 ano\22\IMG-20170328-WA0008.jpg" arWidth="1280" arHeight="720" duration="0" songTitle="" songArtist="" songAlbum="" />
    <MediaItem id="1064" filePath="C:\Users\aluno.UDICENTRO\Downloads\2 ano\22\IMG-20170328-WA0011.jpg" arWidth="1280" arHeight="720" duration="0" songTitle="" songArtist="" songAlbum="" />
    <MediaItem id="1065" filePath="C:\Users\aluno.UDICENTRO\Downloads\2 ano\22\IMG-20180403-WA0012.jpg" arWidth="1152" arHeight="864" duration="0" songTitle="" songArtist="" songAlbum="" />
    <MediaItem id="1066" filePath="C:\Users\aluno.UDICENTRO\Downloads\2 ano\22\IMG-20180404-WA0002.jpg" arWidth="720" arHeight="1280" duration="0" songTitle="" songArtist="" songAlbum="" />
    <MediaItem id="1067" filePath="C:\Users\aluno.UDICENTRO\Downloads\2 ano\22\IMG-20180410-WA0003.jpg" arWidth="1280" arHeight="720" duration="0" songTitle="" songArtist="" songAlbum="" />
    <MediaItem id="1068" filePath="C:\Users\aluno.UDICENTRO\Downloads\2 ano\22\IMG-20180410-WA0009.jpg" arWidth="1280" arHeight="720" duration="0" songTitle="" songArtist="" songAlbum="" />
    <MediaItem id="1069" filePath="C:\Users\aluno.UDICENTRO\Downloads\2 ano\22\IMG-20180410-WA0011.jpg" arWidth="721" arHeight="1280" duration="0" songTitle="" songArtist="" songAlbum="" />
    <MediaItem id="1070" filePath="C:\Users\aluno.UDICENTRO\Downloads\2 ano\22\IMG-20180410-WA0053.jpg" arWidth="1280" arHeight="720" duration="0" songTitle="" songArtist="" songAlbum="" />
    <MediaItem id="1071" filePath="C:\Users\aluno.UDICENTRO\Downloads\2 ano\22\IMG-20180410-WA0054.jpg" arWidth="1280" arHeight="720" duration="0" songTitle="" songArtist="" songAlbum="" />
    <MediaItem id="1072" filePath="C:\Users\aluno.UDICENTRO\Downloads\2 ano\22\IMG-20180411-WA0017.jpg" arWidth="120" arHeight="160" duration="0" songTitle="" songArtist="" songAlbum="" />
    <MediaItem id="1073" filePath="C:\Users\aluno.UDICENTRO\Downloads\2 ano\22\IMG-20180411-WA0018.jpg" arWidth="120" arHeight="160" duration="0" songTitle="" songArtist="" songAlbum="" />
    <MediaItem id="1074" filePath="C:\Users\aluno.UDICENTRO\Downloads\2 ano\22\IMG-20180411-WA0022.jpg" arWidth="120" arHeight="160" duration="0" songTitle="" songArtist="" songAlbum="" />
    <MediaItem id="1075" filePath="C:\Users\aluno.UDICENTRO\Downloads\2 ano\22\IMG-20180411-WA0033.jpg" arWidth="720" arHeight="1280" duration="0" songTitle="" songArtist="" songAlbum="" />
    <MediaItem id="1076" filePath="C:\Users\aluno.UDICENTRO\Downloads\2 ano\22\IMG-20180412-WA0009.jpg" arWidth="1280" arHeight="960" duration="0" songTitle="" songArtist="" songAlbum="" />
    <MediaItem id="1077" filePath="C:\Users\aluno.UDICENTRO\Downloads\2 ano\22\IMG-20180412-WA0024.jpg" arWidth="581" arHeight="1032" duration="0" songTitle="" songArtist="" songAlbum="" />
    <MediaItem id="1078" filePath="C:\Users\aluno.UDICENTRO\Downloads\2 ano\22\IMG-20180412-WA0104.jpg" arWidth="720" arHeight="1280" duration="0" songTitle="" songArtist="" songAlbum="" />
    <MediaItem id="1079" filePath="C:\Users\aluno.UDICENTRO\Downloads\2 ano\22\IMG-20180413-WA0000.jpg" arWidth="720" arHeight="1280" duration="0" songTitle="" songArtist="" songAlbum="" />
    <MediaItem id="1080" filePath="C:\Users\aluno.UDICENTRO\Downloads\2 ano\22\IMG-20180413-WA0004.jpg" arWidth="960" arHeight="1280" duration="0" songTitle="" songArtist="" songAlbum="" />
    <MediaItem id="1081" filePath="C:\Users\aluno.UDICENTRO\Downloads\2 ano\22\IMG-20180423-WA0011.jpg" arWidth="655" arHeight="1164" duration="0" songTitle="" songArtist="" songAlbum="" />
    <MediaItem id="1082" filePath="C:\Users\aluno.UDICENTRO\Downloads\2 ano\22\IMG-20180423-WA0015.jpg" arWidth="720" arHeight="1280" duration="0" songTitle="" songArtist="" songAlbum="" />
    <MediaItem id="1083" filePath="C:\Users\aluno.UDICENTRO\Downloads\2 ano\22\IMG-20180426-WA0019.jpg" arWidth="1032" arHeight="581" duration="0" songTitle="" songArtist="" songAlbum="" />
    <MediaItem id="1084" filePath="C:\Users\aluno.UDICENTRO\Downloads\2 ano\22\IMG-20180426-WA0023.jpg" arWidth="120" arHeight="160" duration="0" songTitle="" songArtist="" songAlbum="" />
    <MediaItem id="1085" filePath="C:\Users\aluno.UDICENTRO\Downloads\2 ano\22\IMG-20180426-WA0024.jpg" arWidth="160" arHeight="120" duration="0" songTitle="" songArtist="" songAlbum="" />
    <MediaItem id="1086" filePath="C:\Users\aluno.UDICENTRO\Downloads\2 ano\22\IMG-20180426-WA0038.jpg" arWidth="1280" arHeight="960" duration="0" songTitle="" songArtist="" songAlbum="" />
    <MediaItem id="1087" filePath="C:\Users\aluno.UDICENTRO\Downloads\2 ano\22\IMG-20180427-WA0033.jpg" arWidth="960" arHeight="1280" duration="0" songTitle="" songArtist="" songAlbum="" />
    <MediaItem id="1088" filePath="C:\Users\aluno.UDICENTRO\Downloads\2 ano\22\IMG-20180427-WA0034.jpg" arWidth="120" arHeight="160" duration="0" songTitle="" songArtist="" songAlbum="" />
    <MediaItem id="1089" filePath="C:\Users\aluno.UDICENTRO\Downloads\2 ano\22\IMG-20180427-WA0037.jpg" arWidth="120" arHeight="160" duration="0" songTitle="" songArtist="" songAlbum="" />
    <MediaItem id="1090" filePath="C:\Users\aluno.UDICENTRO\Downloads\2 ano\22\IMG-20180429-WA0031.jpg" arWidth="720" arHeight="1280" duration="0" songTitle="" songArtist="" songAlbum="" />
    <MediaItem id="1091" filePath="C:\Users\aluno.UDICENTRO\Downloads\2 ano\22\IMG-20180429-WA0032.jpg" arWidth="720" arHeight="1280" duration="0" songTitle="" songArtist="" songAlbum="" />
    <MediaItem id="1092" filePath="C:\Users\aluno.UDICENTRO\Downloads\2 ano\22\IMG-20180503-WA0038.jpg" arWidth="655" arHeight="1164" duration="0" songTitle="" songArtist="" songAlbum="" />
    <MediaItem id="1093" filePath="C:\Users\aluno.UDICENTRO\Downloads\2 ano\22\IMG-20180503-WA0039.jpg" arWidth="655" arHeight="1164" duration="0" songTitle="" songArtist="" songAlbum="" />
    <MediaItem id="1094" filePath="C:\Users\aluno.UDICENTRO\Downloads\2 ano\22\IMG-20180503-WA0068.jpg" arWidth="160" arHeight="120" duration="0" songTitle="" songArtist="" songAlbum="" />
    <MediaItem id="1095" filePath="C:\Users\aluno.UDICENTRO\Downloads\2 ano\22\IMG-20180505-WA0018.jpg" arWidth="1280" arHeight="960" duration="0" songTitle="" songArtist="" songAlbum="" />
    <MediaItem id="1096" filePath="C:\Users\aluno.UDICENTRO\Downloads\2 ano\22\IMG-20180505-WA0021.jpg" arWidth="1164" arHeight="655" duration="0" songTitle="" songArtist="" songAlbum="" />
    <MediaItem id="1097" filePath="C:\Users\aluno.UDICENTRO\Downloads\2 ano\22\IMG-20180506-WA0006.jpg" arWidth="648" arHeight="1152" duration="0" songTitle="" songArtist="" songAlbum="" />
    <MediaItem id="1098" filePath="C:\Users\aluno.UDICENTRO\Downloads\2 ano\22\IMG-20180506-WA0008.jpg" arWidth="1280" arHeight="962" duration="0" songTitle="" songArtist="" songAlbum="" />
    <MediaItem id="1099" filePath="C:\Users\aluno.UDICENTRO\Downloads\2 ano\22\IMG-20180506-WA0011.jpg" arWidth="1280" arHeight="960" duration="0" songTitle="" songArtist="" songAlbum="" />
    <MediaItem id="1100" filePath="C:\Users\aluno.UDICENTRO\Downloads\2 ano\22\IMG-20180506-WA0021.jpg" arWidth="1164" arHeight="655" duration="0" songTitle="" songArtist="" songAlbum="" />
    <MediaItem id="1101" filePath="C:\Users\aluno.UDICENTRO\Downloads\2 ano\22\IMG-20180506-WA0035.jpg" arWidth="1164" arHeight="655" duration="0" songTitle="" songArtist="" songAlbum="" />
    <MediaItem id="1102" filePath="C:\Users\aluno.UDICENTRO\Downloads\2 ano\22\IMG-20180510-WA0022.jpg" arWidth="1280" arHeight="962" duration="0" songTitle="" songArtist="" songAlbum="" />
    <MediaItem id="1103" filePath="C:\Users\aluno.UDICENTRO\Downloads\2 ano\22\IMG-20180511-WA0018.jpg" arWidth="1280" arHeight="959" duration="0" songTitle="" songArtist="" songAlbum="" />
    <MediaItem id="1104" filePath="C:\Users\aluno.UDICENTRO\Downloads\2 ano\22\IMG-20180511-WA0022.jpg" arWidth="1280" arHeight="959" duration="0" songTitle="" songArtist="" songAlbum="" />
    <MediaItem id="1105" filePath="C:\Users\aluno.UDICENTRO\Downloads\2 ano\22\IMG-20180517-WA0008.jpg" arWidth="655" arHeight="1164" duration="0" songTitle="" songArtist="" songAlbum="" />
    <MediaItem id="1106" filePath="C:\Users\aluno.UDICENTRO\Downloads\2 ano\22\IMG-20180517-WA0009.jpg" arWidth="1164" arHeight="655" duration="0" songTitle="" songArtist="" songAlbum="" />
    <MediaItem id="1107" filePath="C:\Users\aluno.UDICENTRO\Downloads\2 ano\22\IMG-20180517-WA0013.jpg" arWidth="655" arHeight="1164" duration="0" songTitle="" songArtist="" songAlbum="" />
    <MediaItem id="1108" filePath="C:\Users\aluno.UDICENTRO\Downloads\2 ano\22\IMG-20180517-WA0015.jpg" arWidth="720" arHeight="1280" duration="0" songTitle="" songArtist="" songAlbum="" />
    <MediaItem id="1109" filePath="C:\Users\aluno.UDICENTRO\Downloads\2 ano\22\IMG-20180517-WA0039.jpg" arWidth="1280" arHeight="720" duration="0" songTitle="" songArtist="" songAlbum="" />
    <MediaItem id="1110" filePath="C:\Users\aluno.UDICENTRO\Downloads\2 ano\22\IMG-20180518-WA0008(1).jpg" arWidth="160" arHeight="120" duration="0" songTitle="" songArtist="" songAlbum="" />
    <MediaItem id="1111" filePath="C:\Users\aluno.UDICENTRO\Downloads\2 ano\22\IMG-20180518-WA0008.jpg" arWidth="1280" arHeight="720" duration="0" songTitle="" songArtist="" songAlbum="" />
    <MediaItem id="1112" filePath="C:\Users\aluno.UDICENTRO\Downloads\2 ano\22\IMG-20180518-WA0029.jpg" arWidth="160" arHeight="120" duration="0" songTitle="" songArtist="" songAlbum="" />
    <MediaItem id="1113" filePath="C:\Users\aluno.UDICENTRO\Downloads\2 ano\22\IMG-20180518-WA0033.jpg" arWidth="160" arHeight="120" duration="0" songTitle="" songArtist="" songAlbum="" />
    <MediaItem id="1114" filePath="C:\Users\aluno.UDICENTRO\Downloads\2 ano\22\IMG-20180518-WA0039.jpg" arWidth="160" arHeight="120" duration="0" songTitle="" songArtist="" songAlbum="" />
    <MediaItem id="1115" filePath="C:\Users\aluno.UDICENTRO\Downloads\2 ano\22\IMG-20180518-WA0040.jpg" arWidth="160" arHeight="120" duration="0" songTitle="" songArtist="" songAlbum="" />
    <MediaItem id="1116" filePath="C:\Users\aluno.UDICENTRO\Downloads\2 ano\22\IMG-20180518-WA0047.jpg" arWidth="960" arHeight="1280" duration="0" songTitle="" songArtist="" songAlbum="" />
    <MediaItem id="1117" filePath="C:\Users\aluno.UDICENTRO\Downloads\2 ano\22\IMG-20180518-WA0049.jpg" arWidth="1152" arHeight="864" duration="0" songTitle="" songArtist="" songAlbum="" />
    <MediaItem id="1118" filePath="C:\Users\aluno.UDICENTRO\Downloads\2 ano\22\IMG-20180519-WA0009.jpg" arWidth="1280" arHeight="960" duration="0" songTitle="" songArtist="" songAlbum="" />
    <MediaItem id="1119" filePath="C:\Users\aluno.UDICENTRO\Downloads\2 ano\22\IMG-20180521-WA0036.jpg" arWidth="1280" arHeight="720" duration="0" songTitle="" songArtist="" songAlbum="" />
    <MediaItem id="1120" filePath="C:\Users\aluno.UDICENTRO\Downloads\2 ano\22\IMG-20180521-WA0056.jpg" arWidth="852" arHeight="1280" duration="0" songTitle="" songArtist="" songAlbum="" />
    <MediaItem id="1121" filePath="C:\Users\aluno.UDICENTRO\Downloads\2 ano\22\IMG-20180522-WA0038.jpg" arWidth="2560" arHeight="1440" duration="0" songTitle="" songArtist="" songAlbum="" />
    <MediaItem id="1122" filePath="C:\Users\aluno.UDICENTRO\Downloads\2 ano\22\IMG-20180604-WA0019.jpg" arWidth="721" arHeight="1280" duration="0" songTitle="" songArtist="" songAlbum="" />
    <MediaItem id="1123" filePath="C:\Users\aluno.UDICENTRO\Downloads\2 ano\22\IMG-20180604-WA0021.jpg" arWidth="1280" arHeight="720" duration="0" songTitle="" songArtist="" songAlbum="" />
    <MediaItem id="1124" filePath="C:\Users\aluno.UDICENTRO\Downloads\2 ano\22\IMG-20180606-WA0003.jpg" arWidth="1032" arHeight="774" duration="0" songTitle="" songArtist="" songAlbum="" />
    <MediaItem id="1125" filePath="C:\Users\aluno.UDICENTRO\Downloads\2 ano\22\IMG-20180606-WA0009.jpg" arWidth="1032" arHeight="774" duration="0" songTitle="" songArtist="" songAlbum="" />
    <MediaItem id="1126" filePath="C:\Users\aluno.UDICENTRO\Downloads\2 ano\22\IMG-20180608-WA0032.jpg" arWidth="1280" arHeight="960" duration="0" songTitle="" songArtist="" songAlbum="" />
    <MediaItem id="1127" filePath="C:\Users\aluno.UDICENTRO\Downloads\2 ano\22\IMG-20180608-WA0040.jpg" arWidth="1280" arHeight="959" duration="0" songTitle="" songArtist="" songAlbum="" />
    <MediaItem id="1128" filePath="C:\Users\aluno.UDICENTRO\Downloads\2 ano\22\IMG-20180608-WA0059.jpg" arWidth="160" arHeight="120" duration="0" songTitle="" songArtist="" songAlbum="" />
    <MediaItem id="1129" filePath="C:\Users\aluno.UDICENTRO\Downloads\2 ano\22\IMG-20180608-WA0061.jpg" arWidth="1280" arHeight="960" duration="0" songTitle="" songArtist="" songAlbum="" />
    <MediaItem id="1130" filePath="C:\Users\aluno.UDICENTRO\Downloads\2 ano\22\IMG-20180608-WA0072.jpg" arWidth="1280" arHeight="960" duration="0" songTitle="" songArtist="" songAlbum="" />
    <MediaItem id="1131" filePath="C:\Users\aluno.UDICENTRO\Downloads\2 ano\22\IMG-20180609-WA0037.jpg" arWidth="1280" arHeight="960" duration="0" songTitle="" songArtist="" songAlbum="" />
    <MediaItem id="1132" filePath="C:\Users\aluno.UDICENTRO\Downloads\2 ano\22\IMG-20180609-WA0040.jpg" arWidth="960" arHeight="1280" duration="0" songTitle="" songArtist="" songAlbum="" />
    <MediaItem id="1133" filePath="C:\Users\aluno.UDICENTRO\Downloads\2 ano\22\IMG-20180610-WA0007.jpg" arWidth="1032" arHeight="581" duration="0" songTitle="" songArtist="" songAlbum="" />
    <MediaItem id="1134" filePath="C:\Users\aluno.UDICENTRO\Downloads\2 ano\22\IMG-20180610-WA0027.jpg" arWidth="160" arHeight="120" duration="0" songTitle="" songArtist="" songAlbum="" />
    <MediaItem id="1135" filePath="C:\Users\aluno.UDICENTRO\Downloads\2 ano\22\IMG-20180610-WA0029.jpg" arWidth="160" arHeight="120" duration="0" songTitle="" songArtist="" songAlbum="" />
    <MediaItem id="1136" filePath="C:\Users\aluno.UDICENTRO\Downloads\2 ano\22\IMG-20180610-WA0036.jpg" arWidth="160" arHeight="120" duration="0" songTitle="" songArtist="" songAlbum="" />
    <MediaItem id="1137" filePath="C:\Users\aluno.UDICENTRO\Downloads\2 ano\22\IMG-20180610-WA0132.jpg" arWidth="1280" arHeight="720" duration="0" songTitle="" songArtist="" songAlbum="" />
    <MediaItem id="1138" filePath="C:\Users\aluno.UDICENTRO\Downloads\2 ano\22\IMG-20180613-WA0021.jpg" arWidth="160" arHeight="120" duration="0" songTitle="" songArtist="" songAlbum="" />
    <MediaItem id="1139" filePath="C:\Users\aluno.UDICENTRO\Downloads\2 ano\22\IMG-20180613-WA0025.jpg" arWidth="160" arHeight="120" duration="0" songTitle="" songArtist="" songAlbum="" />
    <MediaItem id="1140" filePath="C:\Users\aluno.UDICENTRO\Downloads\2 ano\22\IMG-20180622-WA0031.jpg" arWidth="160" arHeight="120" duration="0" songTitle="" songArtist="" songAlbum="" />
    <MediaItem id="1141" filePath="C:\Users\aluno.UDICENTRO\Downloads\2 ano\22\IMG-20180629-WA0041.jpg" arWidth="1280" arHeight="959" duration="0" songTitle="" songArtist="" songAlbum="" />
    <MediaItem id="1142" filePath="C:\Users\aluno.UDICENTRO\Downloads\2 ano\22\IMG-20180629-WA0044.jpg" arWidth="1152" arHeight="648" duration="0" songTitle="" songArtist="" songAlbum="" />
    <MediaItem id="1143" filePath="C:\Users\aluno.UDICENTRO\Downloads\2 ano\22\IMG-20180630-WA0017.jpg" arWidth="1164" arHeight="655" duration="0" songTitle="" songArtist="" songAlbum="" />
    <MediaItem id="1144" filePath="C:\Users\aluno.UDICENTRO\Downloads\2 ano\22\IMG-20180630-WA0031.jpg" arWidth="1280" arHeight="960" duration="0" songTitle="" songArtist="" songAlbum="" />
    <MediaItem id="1145" filePath="C:\Users\aluno.UDICENTRO\Downloads\2 ano\22\IMG-20180630-WA0041.jpg" arWidth="1280" arHeight="960" duration="0" songTitle="" songArtist="" songAlbum="" />
    <MediaItem id="1146" filePath="C:\Users\aluno.UDICENTRO\Downloads\2 ano\22\IMG-20180630-WA0043.jpg" arWidth="655" arHeight="1164" duration="0" songTitle="" songArtist="" songAlbum="" />
    <MediaItem id="1147" filePath="C:\Users\aluno.UDICENTRO\Downloads\2 ano\22\IMG-20180630-WA0053(1).jpg" arWidth="1164" arHeight="655" duration="0" songTitle="" songArtist="" songAlbum="" />
    <MediaItem id="1148" filePath="C:\Users\aluno.UDICENTRO\Downloads\2 ano\22\IMG-20180630-WA0053.jpg" arWidth="1280" arHeight="960" duration="0" songTitle="" songArtist="" songAlbum="" />
    <MediaItem id="1149" filePath="C:\Users\aluno.UDICENTRO\Downloads\2 ano\22\IMG-20180630-WA0065.jpg" arWidth="655" arHeight="1164" duration="0" songTitle="" songArtist="" songAlbum="" />
    <MediaItem id="1150" filePath="C:\Users\aluno.UDICENTRO\Downloads\2 ano\22\IMG-20180630-WA0066.jpg" arWidth="1280" arHeight="960" duration="0" songTitle="" songArtist="" songAlbum="" />
    <MediaItem id="1151" filePath="C:\Users\aluno.UDICENTRO\Downloads\2 ano\22\IMG-20180630-WA0069.jpg" arWidth="655" arHeight="1164" duration="0" songTitle="" songArtist="" songAlbum="" />
    <MediaItem id="1152" filePath="C:\Users\aluno.UDICENTRO\Downloads\2 ano\22\IMG-20180630-WA0070.jpg" arWidth="655" arHeight="1164" duration="0" songTitle="" songArtist="" songAlbum="" />
    <MediaItem id="1153" filePath="C:\Users\aluno.UDICENTRO\Downloads\2 ano\22\IMG-20180630-WA0074.jpg" arWidth="209" arHeight="223" duration="0" songTitle="" songArtist="" songAlbum="" />
    <MediaItem id="1154" filePath="C:\Users\aluno.UDICENTRO\Downloads\2 ano\22\IMG-20180630-WA0076.jpg" arWidth="655" arHeight="1164" duration="0" songTitle="" songArtist="" songAlbum="" />
    <MediaItem id="1155" filePath="C:\Users\aluno.UDICENTRO\Downloads\2 ano\22\IMG-20180630-WA0173.jpg" arWidth="160" arHeight="120" duration="0" songTitle="" songArtist="" songAlbum="" />
    <MediaItem id="1156" filePath="C:\Users\aluno.UDICENTRO\Downloads\2 ano\22\IMG-20180701-WA0031.jpg" arWidth="1164" arHeight="655" duration="0" songTitle="" songArtist="" songAlbum="" />
    <MediaItem id="1157" filePath="C:\Users\aluno.UDICENTRO\Downloads\2 ano\22\IMG-20180701-WA0035.jpg" arWidth="1164" arHeight="655" duration="0" songTitle="" songArtist="" songAlbum="" />
    <MediaItem id="1158" filePath="C:\Users\aluno.UDICENTRO\Downloads\2 ano\22\IMG-20180701-WA0037.jpg" arWidth="1164" arHeight="655" duration="0" songTitle="" songArtist="" songAlbum="" />
    <MediaItem id="1159" filePath="C:\Users\aluno.UDICENTRO\Downloads\2 ano\22\IMG-20180701-WA0038.jpg" arWidth="655" arHeight="1164" duration="0" songTitle="" songArtist="" songAlbum="" />
    <MediaItem id="1160" filePath="C:\Users\aluno.UDICENTRO\Downloads\2 ano\22\IMG-20180701-WA0065.jpg" arWidth="1280" arHeight="960" duration="0" songTitle="" songArtist="" songAlbum="" />
    <MediaItem id="1161" filePath="C:\Users\aluno.UDICENTRO\Downloads\2 ano\22\IMG-20180701-WA0066(1).jpg" arWidth="160" arHeight="120" duration="0" songTitle="" songArtist="" songAlbum="" />
    <MediaItem id="1162" filePath="C:\Users\aluno.UDICENTRO\Downloads\2 ano\22\IMG-20180701-WA0066.jpg" arWidth="1164" arHeight="655" duration="0" songTitle="" songArtist="" songAlbum="" />
    <MediaItem id="1163" filePath="C:\Users\aluno.UDICENTRO\Downloads\2 ano\22\IMG-20180701-WA0074.jpg" arWidth="160" arHeight="120" duration="0" songTitle="" songArtist="" songAlbum="" />
    <MediaItem id="1164" filePath="C:\Users\aluno.UDICENTRO\Downloads\2 ano\22\IMG-20180701-WA0075.jpg" arWidth="160" arHeight="120" duration="0" songTitle="" songArtist="" songAlbum="" />
    <MediaItem id="1165" filePath="C:\Users\aluno.UDICENTRO\Downloads\2 ano\22\IMG-20180701-WA0086.jpg" arWidth="1164" arHeight="655" duration="0" songTitle="" songArtist="" songAlbum="" />
    <MediaItem id="1166" filePath="C:\Users\aluno.UDICENTRO\Downloads\2 ano\22\IMG-20180701-WA0109.jpg" arWidth="655" arHeight="1164" duration="0" songTitle="" songArtist="" songAlbum="" />
    <MediaItem id="1167" filePath="C:\Users\aluno.UDICENTRO\Downloads\2 ano\22\IMG-20180701-WA0110.jpg" arWidth="655" arHeight="1164" duration="0" songTitle="" songArtist="" songAlbum="" />
    <MediaItem id="1168" filePath="C:\Users\aluno.UDICENTRO\Downloads\2 ano\22\IMG-20180701-WA0125.jpg" arWidth="1164" arHeight="655" duration="0" songTitle="" songArtist="" songAlbum="" />
    <MediaItem id="1169" filePath="C:\Users\aluno.UDICENTRO\Downloads\2 ano\22\IMG-20180703-WA0008.jpg" arWidth="721" arHeight="1280" duration="0" songTitle="" songArtist="" songAlbum="" />
    <MediaItem id="1170" filePath="C:\Users\aluno.UDICENTRO\Downloads\2 ano\22\IMG-20180703-WA0009.jpg" arWidth="720" arHeight="1280" duration="0" songTitle="" songArtist="" songAlbum="" />
    <MediaItem id="1171" filePath="C:\Users\aluno.UDICENTRO\Downloads\2 ano\22\IMG-20180708-WA0002.jpg" arWidth="1032" arHeight="774" duration="0" songTitle="" songArtist="" songAlbum="" />
    <MediaItem id="1172" filePath="C:\Users\aluno.UDICENTRO\Downloads\2 ano\22\IMG-20180708-WA0012.jpg" arWidth="1032" arHeight="774" duration="0" songTitle="" songArtist="" songAlbum="" />
    <MediaItem id="1173" filePath="C:\Users\aluno.UDICENTRO\Downloads\2 ano\22\IMG-20180717-WA0102.jpg" arWidth="1040" arHeight="585" duration="0" songTitle="" songArtist="" songAlbum="" />
    <MediaItem id="1174" filePath="C:\Users\aluno.UDICENTRO\Downloads\2 ano\22\IMG-20180801-WA0001.jpg" arWidth="1080" arHeight="610" duration="0" songTitle="" songArtist="" songAlbum="" />
    <MediaItem id="1175" filePath="C:\Users\aluno.UDICENTRO\Downloads\2 ano\22\IMG-20180801-WA0002.jpg" arWidth="1080" arHeight="619" duration="0" songTitle="" songArtist="" songAlbum="" />
    <MediaItem id="1176" filePath="C:\Users\aluno.UDICENTRO\Downloads\2 ano\22\IMG-20180802-WA0004.jpg" arWidth="160" arHeight="120" duration="0" songTitle="" songArtist="" songAlbum="" />
    <MediaItem id="1177" filePath="C:\Users\aluno.UDICENTRO\Downloads\2 ano\22\IMG-20180808-WA0005.jpg" arWidth="719" arHeight="1280" duration="0" songTitle="" songArtist="" songAlbum="" />
    <MediaItem id="1178" filePath="C:\Users\aluno.UDICENTRO\Downloads\2 ano\22\IMG-20180808-WA0015.jpg" arWidth="1836" arHeight="3264" duration="0" songTitle="" songArtist="" songAlbum="" />
    <MediaItem id="1179" filePath="C:\Users\aluno.UDICENTRO\Downloads\2 ano\22\IMG-20180815-WA0046.jpg" arWidth="160" arHeight="120" duration="0" songTitle="" songArtist="" songAlbum="" />
    <MediaItem id="1180" filePath="C:\Users\aluno.UDICENTRO\Downloads\2 ano\22\IMG-20180828-WA0005.jpg" arWidth="120" arHeight="160" duration="0" songTitle="" songArtist="" songAlbum="" />
    <MediaItem id="1181" filePath="C:\Users\aluno.UDICENTRO\Downloads\2 ano\22\IMG-20180828-WA0045.jpg" arWidth="1280" arHeight="960" duration="0" songTitle="" songArtist="" songAlbum="" />
    <MediaItem id="1182" filePath="C:\Users\aluno.UDICENTRO\Downloads\2 ano\22\IMG-20180828-WA0046.jpg" arWidth="1280" arHeight="960" duration="0" songTitle="" songArtist="" songAlbum="" />
    <MediaItem id="1183" filePath="C:\Users\aluno.UDICENTRO\Downloads\2 ano\22\IMG-20180828-WA0100.jpg" arWidth="1280" arHeight="960" duration="0" songTitle="" songArtist="" songAlbum="" />
    <MediaItem id="1184" filePath="C:\Users\aluno.UDICENTRO\Downloads\2 ano\22\IMG-20180828-WA0107.jpg" arWidth="160" arHeight="120" duration="0" songTitle="" songArtist="" songAlbum="" />
    <MediaItem id="1185" filePath="C:\Users\aluno.UDICENTRO\Downloads\2 ano\22\IMG-20180911-WA0029.jpg" arWidth="120" arHeight="160" duration="0" songTitle="" songArtist="" songAlbum="" />
    <MediaItem id="1186" filePath="C:\Users\aluno.UDICENTRO\Downloads\2 ano\22\IMG-20180911-WA0032.jpg" arWidth="160" arHeight="120" duration="0" songTitle="" songArtist="" songAlbum="" />
    <MediaItem id="1187" filePath="C:\Users\aluno.UDICENTRO\Downloads\2 ano\22\IMG-20180911-WA0033.jpg" arWidth="1152" arHeight="648" duration="0" songTitle="" songArtist="" songAlbum="" />
    <MediaItem id="1188" filePath="C:\Users\aluno.UDICENTRO\Downloads\2 ano\22\IMG-20180911-WA0036.jpg" arWidth="720" arHeight="1280" duration="0" songTitle="" songArtist="" songAlbum="" />
    <MediaItem id="1189" filePath="C:\Users\aluno.UDICENTRO\Downloads\2 ano\22\IMG-20180911-WA0044.jpg" arWidth="720" arHeight="418" duration="0" songTitle="" songArtist="" songAlbum="" />
    <MediaItem id="1190" filePath="C:\Users\aluno.UDICENTRO\Downloads\2 ano\22\IMG-20180913-WA0005(1).jpg" arWidth="1280" arHeight="959" duration="0" songTitle="" songArtist="" songAlbum="" />
    <MediaItem id="1191" filePath="C:\Users\aluno.UDICENTRO\Downloads\2 ano\22\IMG-20180913-WA0005.jpg" arWidth="160" arHeight="120" duration="0" songTitle="" songArtist="" songAlbum="" />
    <MediaItem id="1192" filePath="C:\Users\aluno.UDICENTRO\Downloads\2 ano\22\IMG-20180913-WA0006.jpg" arWidth="1280" arHeight="959" duration="0" songTitle="" songArtist="" songAlbum="" />
    <MediaItem id="1193" filePath="C:\Users\aluno.UDICENTRO\Downloads\2 ano\22\IMG-20180914-WA0006.jpg" arWidth="1280" arHeight="960" duration="0" songTitle="" songArtist="" songAlbum="" />
    <MediaItem id="1194" filePath="C:\Users\aluno.UDICENTRO\Downloads\2 ano\22\IMG-20180914-WA0038.jpg" arWidth="1032" arHeight="774" duration="0" songTitle="" songArtist="" songAlbum="" />
    <MediaItem id="1195" filePath="C:\Users\aluno.UDICENTRO\Downloads\2 ano\22\IMG-20180918-WA0006.jpg" arWidth="1280" arHeight="719" duration="0" songTitle="" songArtist="" songAlbum="" />
    <MediaItem id="1196" filePath="C:\Users\aluno.UDICENTRO\Downloads\2 ano\22\IMG-20180921-WA0017.jpg" arWidth="1280" arHeight="720" duration="0" songTitle="" songArtist="" songAlbum="" />
    <MediaItem id="1197" filePath="C:\Users\aluno.UDICENTRO\Downloads\2 ano\22\IMG-20180921-WA0026.jpg" arWidth="1280" arHeight="720" duration="0" songTitle="" songArtist="" songAlbum="" />
    <MediaItem id="1198" filePath="C:\Users\aluno.UDICENTRO\Downloads\2 ano\22\IMG-20180921-WA0045.jpg" arWidth="1280" arHeight="720" duration="0" songTitle="" songArtist="" songAlbum="" />
    <MediaItem id="1199" filePath="C:\Users\aluno.UDICENTRO\Downloads\2 ano\22\IMG-20180921-WA0046.jpg" arWidth="1280" arHeight="720" duration="0" songTitle="" songArtist="" songAlbum="" />
    <MediaItem id="1200" filePath="C:\Users\aluno.UDICENTRO\Downloads\2 ano\22\IMG-20180921-WA0048.jpg" arWidth="1280" arHeight="720" duration="0" songTitle="" songArtist="" songAlbum="" />
    <MediaItem id="1201" filePath="C:\Users\aluno.UDICENTRO\Downloads\2 ano\22\IMG-20180925-WA0017.jpg" arWidth="4096" arHeight="2304" duration="0" songTitle="" songArtist="" songAlbum="" />
    <MediaItem id="1202" filePath="C:\Users\aluno.UDICENTRO\Downloads\2 ano\22\IMG-20180926-WA0057.jpg" arWidth="1216" arHeight="684" duration="0" songTitle="" songArtist="" songAlbum="" />
    <MediaItem id="1203" filePath="C:\Users\aluno.UDICENTRO\Downloads\2 ano\22\IMG-20180926-WA0058.jpg" arWidth="1216" arHeight="684" duration="0" songTitle="" songArtist="" songAlbum="" />
    <MediaItem id="1204" filePath="C:\Users\aluno.UDICENTRO\Downloads\2 ano\22\IMG-20180926-WA0065.jpg" arWidth="1280" arHeight="959" duration="0" songTitle="" songArtist="" songAlbum="" />
    <MediaItem id="1205" filePath="C:\Users\aluno.UDICENTRO\Downloads\2 ano\22\IMG-20180926-WA0071.jpg" arWidth="1216" arHeight="684" duration="0" songTitle="" songArtist="" songAlbum="" />
    <MediaItem id="1206" filePath="C:\Users\aluno.UDICENTRO\Downloads\2 ano\22\IMG-20180926-WA0073.jpg" arWidth="1216" arHeight="684" duration="0" songTitle="" songArtist="" songAlbum="" />
    <MediaItem id="1207" filePath="C:\Users\aluno.UDICENTRO\Downloads\2 ano\22\IMG-20180928-WA0019.jpg" arWidth="160" arHeight="120" duration="0" songTitle="" songArtist="" songAlbum="" />
    <MediaItem id="1208" filePath="C:\Users\aluno.UDICENTRO\Downloads\2 ano\22\IMG-20181008-WA0013.jpg" arWidth="160" arHeight="120" duration="0" songTitle="" songArtist="" songAlbum="" />
    <MediaItem id="1209" filePath="C:\Users\aluno.UDICENTRO\Downloads\2 ano\22\IMG-20181009-WA0018.jpg" arWidth="1280" arHeight="720" duration="0" songTitle="" songArtist="" songAlbum="" />
    <MediaItem id="1210" filePath="C:\Users\aluno.UDICENTRO\Downloads\2 ano\22\IMG-20181010-WA0010.jpg" arWidth="720" arHeight="1280" duration="0" songTitle="" songArtist="" songAlbum="" />
    <MediaItem id="1211" filePath="C:\Users\aluno.UDICENTRO\Downloads\2 ano\22\IMG-20181010-WA0011.jpg" arWidth="720" arHeight="1280" duration="0" songTitle="" songArtist="" songAlbum="" />
    <MediaItem id="1212" filePath="C:\Users\aluno.UDICENTRO\Downloads\2 ano\22\IMG-20181010-WA0012.jpg" arWidth="1280" arHeight="719" duration="0" songTitle="" songArtist="" songAlbum="" />
    <MediaItem id="1213" filePath="C:\Users\aluno.UDICENTRO\Downloads\2 ano\22\IMG-20181023-WA0003.jpg" arWidth="720" arHeight="1280" duration="0" songTitle="" songArtist="" songAlbum="" />
    <MediaItem id="1214" filePath="C:\Users\aluno.UDICENTRO\Downloads\2 ano\22\Neabi 21-09 (203).jpg" arWidth="4898" arHeight="3265" duration="0" songTitle="" songArtist="" songAlbum="" />
    <MediaItem id="1215" filePath="C:\Users\aluno.UDICENTRO\Downloads\2 ano\22\P_20180426_174933_p.jpg" arWidth="3264" arHeight="2448" duration="0" songTitle="" songArtist="" songAlbum="" />
    <MediaItem id="1216" filePath="C:\Users\aluno.UDICENTRO\Downloads\2 ano\22\P_20180509_113306_p.jpg" arWidth="3264" arHeight="2448" duration="0" songTitle="" songArtist="" songAlbum="" />
    <MediaItem id="1217" filePath="C:\Users\aluno.UDICENTRO\Downloads\2 ano\22\P_20180514_164029_p.jpg" arWidth="3264" arHeight="2448" duration="0" songTitle="" songArtist="" songAlbum="" />
    <MediaItem id="1218" filePath="C:\Users\aluno.UDICENTRO\Downloads\2 ano\22\P_20180608_144156_p.jpg" arWidth="2448" arHeight="3264" duration="0" songTitle="" songArtist="" songAlbum="" />
    <MediaItem id="1219" filePath="C:\Users\aluno.UDICENTRO\Downloads\2 ano\22\P_20180608_151544.jpg" arWidth="2620" arHeight="4656" duration="0" songTitle="" songArtist="" songAlbum="" />
    <MediaItem id="1220" filePath="C:\Users\aluno.UDICENTRO\Downloads\2 ano\22\P_20180630_105925.jpg" arWidth="4656" arHeight="2620" duration="0" songTitle="" songArtist="" songAlbum="" />
    <MediaItem id="1221" filePath="C:\Users\aluno.UDICENTRO\Downloads\2 ano\22\P_20180630_113658.jpg" arWidth="4656" arHeight="2620" duration="0" songTitle="" songArtist="" songAlbum="" />
    <MediaItem id="1222" filePath="C:\Users\aluno.UDICENTRO\Downloads\2 ano\22\P_20180630_151031.jpg" arWidth="4656" arHeight="2620" duration="0" songTitle="" songArtist="" songAlbum="" />
    <MediaItem id="1223" filePath="C:\Users\aluno.UDICENTRO\Downloads\2 ano\22\P_20180630_173212_1.jpg" arWidth="4656" arHeight="2620" duration="0" songTitle="" songArtist="" songAlbum="" />
    <MediaItem id="1224" filePath="C:\Users\aluno.UDICENTRO\Downloads\2 ano\22\P_20180731_125057_p.jpg" arWidth="3264" arHeight="2448" duration="0" songTitle="" songArtist="" songAlbum="" />
    <MediaItem id="1225" filePath="C:\Users\aluno.UDICENTRO\Downloads\2 ano\22\P_20180817_131034.jpg" arWidth="2620" arHeight="4656" duration="0" songTitle="" songArtist="" songAlbum="" />
    <MediaItem id="1226" filePath="C:\Users\aluno.UDICENTRO\Downloads\2 ano\22\P_20180823_153012.jpg" arWidth="4656" arHeight="2620" duration="0" songTitle="" songArtist="" songAlbum="" />
    <MediaItem id="1227" filePath="C:\Users\aluno.UDICENTRO\Downloads\2 ano\22\P_20180827_164813_p.jpg" arWidth="3264" arHeight="2448" duration="0" songTitle="" songArtist="" songAlbum="" />
    <MediaItem id="1228" filePath="C:\Users\aluno.UDICENTRO\Downloads\2 ano\22\P_20180829_124736.jpg" arWidth="2620" arHeight="4656" duration="0" songTitle="" songArtist="" songAlbum="" />
    <MediaItem id="1229" filePath="C:\Users\aluno.UDICENTRO\Downloads\2 ano\22\P_20180829_124905_1.jpg" arWidth="2620" arHeight="4656" duration="0" songTitle="" songArtist="" songAlbum="" />
    <MediaItem id="1230" filePath="C:\Users\aluno.UDICENTRO\Downloads\2 ano\22\P_20180903_100420_BF.jpg" arWidth="3264" arHeight="2448" duration="0" songTitle="" songArtist="" songAlbum="" />
    <MediaItem id="1231" filePath="C:\Users\aluno.UDICENTRO\Downloads\2 ano\22\P_20180903_101822_vHDR_Auto.jpg" arWidth="2620" arHeight="4656" duration="0" songTitle="" songArtist="" songAlbum="" />
    <MediaItem id="1232" filePath="C:\Users\aluno.UDICENTRO\Downloads\2 ano\22\P_20180903_154931_vHDR_Auto.jpg" arWidth="2620" arHeight="4656" duration="0" songTitle="" songArtist="" songAlbum="" />
    <MediaItem id="1233" filePath="C:\Users\aluno.UDICENTRO\Downloads\2 ano\22\P_20181019_141156.jpg" arWidth="4608" arHeight="2592" duration="0" songTitle="" songArtist="" songAlbum="" />
    <MediaItem id="1234" filePath="C:\Users\aluno.UDICENTRO\Downloads\2 ano\22\P_20181022_114616.jpg" arWidth="5184" arHeight="3888" duration="0" songTitle="" songArtist="" songAlbum="" />
    <MediaItem id="1235" filePath="C:\Users\aluno.UDICENTRO\Downloads\2 ano\22\P_20181023_104139.jpg" arWidth="2592" arHeight="4608" duration="0" songTitle="" songArtist="" songAlbum="" />
    <MediaItem id="1236" filePath="C:\Users\aluno.UDICENTRO\Downloads\2 ano\22\P_20181023_104142.jpg" arWidth="2592" arHeight="4608" duration="0" songTitle="" songArtist="" songAlbum="" />
    <MediaItem id="1237" filePath="C:\Users\aluno.UDICENTRO\Downloads\2 ano\22\P_20181023_163153.jpg" arWidth="2592" arHeight="4608" duration="0" songTitle="" songArtist="" songAlbum="" />
    <MediaItem id="1238" filePath="C:\Users\aluno.UDICENTRO\Downloads\2 ano\22\P_20181023_163153_1.jpg" arWidth="1403" arHeight="1525" duration="0" songTitle="" songArtist="" songAlbum="" />
    <MediaItem id="1239" filePath="C:\Users\aluno.UDICENTRO\Downloads\2 ano\22\P_20181023_163240.jpg" arWidth="2592" arHeight="4608" duration="0" songTitle="" songArtist="" songAlbum="" />
    <MediaItem id="1240" filePath="C:\Users\aluno.UDICENTRO\Downloads\2 ano\22\P_20181023_163241.jpg" arWidth="2592" arHeight="4608" duration="0" songTitle="" songArtist="" songAlbum="" />
    <MediaItem id="1241" filePath="C:\Users\aluno.UDICENTRO\Downloads\2 ano\22\P_20181023_163249.jpg" arWidth="2592" arHeight="4608" duration="0" songTitle="" songArtist="" songAlbum="" />
    <MediaItem id="1242" filePath="C:\Users\aluno.UDICENTRO\Downloads\2 ano\22\Screenshot_20180419-191156.png" arWidth="720" arHeight="1280" duration="0" songTitle="" songArtist="" songAlbum="" />
    <MediaItem id="1243" filePath="C:\Users\aluno.UDICENTRO\Downloads\2 ano\22\Screenshot_20180429-212154.png" arWidth="720" arHeight="1280" duration="0" songTitle="" songArtist="" songAlbum="" />
    <MediaItem id="1244" filePath="C:\Users\aluno.UDICENTRO\Downloads\2 ano\22\Screenshot_20180429-212159.png" arWidth="720" arHeight="1280" duration="0" songTitle="" songArtist="" songAlbum="" />
    <MediaItem id="1245" filePath="C:\Users\aluno.UDICENTRO\Downloads\2 ano\22\Screenshot_20180806-132843.png" arWidth="1080" arHeight="1920" duration="0" songTitle="" songArtist="" songAlbum="" />
    <MediaItem id="1246" filePath="C:\Users\aluno.UDICENTRO\Downloads\2 ano\22\Snapchat-266359264.jpg" arWidth="720" arHeight="1280" duration="0" songTitle="" songArtist="" songAlbum="" />
    <MediaItem id="1247" filePath="C:\Users\aluno.UDICENTRO\Downloads\2 ano\22\Snapchat-393597342.jpg" arWidth="1920" arHeight="1080" duration="0" songTitle="" songArtist="" songAlbum="" />
    <MediaItem id="1248" filePath="C:\Users\aluno.UDICENTRO\Downloads\2 ano\22\Snapchat-808937882.jpg" arWidth="720" arHeight="1280" duration="0" songTitle="" songArtist="" songAlbum="" />
    <MediaItem id="1249" filePath="C:\Users\aluno.UDICENTRO\Downloads\2 ano\22\Snapchat-1863759898.jpg" arWidth="1080" arHeight="1920" duration="0" songTitle="" songArtist="" songAlbum="" />
  </MediaItems>
  <Extents>
    <ImageClip extentID="2062" gapBefore="0" mediaItemID="1066" duration="1">
      <Effects />
      <Transitions>
        <ShaderEffect effectTemplateID="HeartTransitionTemplate" duration="1.5">
          <BoundProperties />
        </ShaderEffect>
      </Transitions>
      <BoundProperties>
        <BoundPropertyInt Name="rotateStepNinety" Value="0" />
      </BoundProperties>
    </ImageClip>
    <ImageClip extentID="1031" gapBefore="0" mediaItemID="611" duration="1">
      <Effects />
      <Transitions>
        <ShaderEffect effectTemplateID="HeartTransitionTemplate" duration="1.5">
          <BoundProperties />
        </ShaderEffect>
      </Transitions>
      <BoundProperties>
        <BoundPropertyInt Name="rotateStepNinety" Value="0" />
      </BoundProperties>
    </ImageClip>
    <ImageClip extentID="1032" gapBefore="0" mediaItemID="612" duration="1">
      <Effects />
      <Transitions>
        <ShaderEffect effectTemplateID="HeartTransitionTemplate" duration="1.5">
          <BoundProperties />
        </ShaderEffect>
      </Transitions>
      <BoundProperties>
        <BoundPropertyInt Name="rotateStepNinety" Value="0" />
      </BoundProperties>
    </ImageClip>
    <ImageClip extentID="1033" gapBefore="0" mediaItemID="613" duration="1">
      <Effects />
      <Transitions>
        <ShaderEffect effectTemplateID="HeartTransitionTemplate" duration="1.5">
          <BoundProperties />
        </ShaderEffect>
      </Transitions>
      <BoundProperties>
        <BoundPropertyInt Name="rotateStepNinety" Value="0" />
      </BoundProperties>
    </ImageClip>
    <ImageClip extentID="1034" gapBefore="0" mediaItemID="614" duration="1">
      <Effects />
      <Transitions>
        <ShaderEffect effectTemplateID="HeartTransitionTemplate" duration="1.5">
          <BoundProperties />
        </ShaderEffect>
      </Transitions>
      <BoundProperties>
        <BoundPropertyInt Name="rotateStepNinety" Value="0" />
      </BoundProperties>
    </ImageClip>
    <ImageClip extentID="2066" gapBefore="0" mediaItemID="1070" duration="1">
      <Effects />
      <Transitions>
        <ShaderEffect effectTemplateID="HeartTransitionTemplate" duration="1.5">
          <BoundProperties />
        </ShaderEffect>
      </Transitions>
      <BoundProperties>
        <BoundPropertyInt Name="rotateStepNinety" Value="0" />
      </BoundProperties>
    </ImageClip>
    <ImageClip extentID="1035" gapBefore="0" mediaItemID="615" duration="1">
      <Effects />
      <Transitions>
        <ShaderEffect effectTemplateID="HeartTransitionTemplate" duration="1.5">
          <BoundProperties />
        </ShaderEffect>
      </Transitions>
      <BoundProperties>
        <BoundPropertyInt Name="rotateStepNinety" Value="0" />
      </BoundProperties>
    </ImageClip>
    <ImageClip extentID="1036" gapBefore="0" mediaItemID="616" duration="1">
      <Effects />
      <Transitions>
        <ShaderEffect effectTemplateID="HeartTransitionTemplate" duration="1.5">
          <BoundProperties />
        </ShaderEffect>
      </Transitions>
      <BoundProperties>
        <BoundPropertyInt Name="rotateStepNinety" Value="0" />
      </BoundProperties>
    </ImageClip>
    <ImageClip extentID="2068" gapBefore="0" mediaItemID="1072" duration="1">
      <Effects />
      <Transitions>
        <ShaderEffect effectTemplateID="HeartTransitionTemplate" duration="1.5">
          <BoundProperties />
        </ShaderEffect>
      </Transitions>
      <BoundProperties>
        <BoundPropertyInt Name="rotateStepNinety" Value="0" />
      </BoundProperties>
    </ImageClip>
    <ImageClip extentID="1037" gapBefore="0" mediaItemID="617" duration="1">
      <Effects />
      <Transitions>
        <ShaderEffect effectTemplateID="HeartTransitionTemplate" duration="1.5">
          <BoundProperties />
        </ShaderEffect>
      </Transitions>
      <BoundProperties>
        <BoundPropertyInt Name="rotateStepNinety" Value="0" />
      </BoundProperties>
    </ImageClip>
    <ImageClip extentID="2069" gapBefore="0" mediaItemID="1073" duration="1">
      <Effects />
      <Transitions>
        <ShaderEffect effectTemplateID="HeartTransitionTemplate" duration="1.5">
          <BoundProperties />
        </ShaderEffect>
      </Transitions>
      <BoundProperties>
        <BoundPropertyInt Name="rotateStepNinety" Value="0" />
      </BoundProperties>
    </ImageClip>
    <ImageClip extentID="1038" gapBefore="0" mediaItemID="618" duration="1">
      <Effects />
      <Transitions>
        <ShaderEffect effectTemplateID="HeartTransitionTemplate" duration="1.5">
          <BoundProperties />
        </ShaderEffect>
      </Transitions>
      <BoundProperties>
        <BoundPropertyInt Name="rotateStepNinety" Value="0" />
      </BoundProperties>
    </ImageClip>
    <ImageClip extentID="2070" gapBefore="0" mediaItemID="1074" duration="1">
      <Effects />
      <Transitions>
        <ShaderEffect effectTemplateID="HeartTransitionTemplate" duration="1.5">
          <BoundProperties />
        </ShaderEffect>
      </Transitions>
      <BoundProperties>
        <BoundPropertyInt Name="rotateStepNinety" Value="0" />
      </BoundProperties>
    </ImageClip>
    <ImageClip extentID="1039" gapBefore="0" mediaItemID="619" duration="1">
      <Effects />
      <Transitions>
        <ShaderEffect effectTemplateID="HeartTransitionTemplate" duration="1.5">
          <BoundProperties />
        </ShaderEffect>
      </Transitions>
      <BoundProperties>
        <BoundPropertyInt Name="rotateStepNinety" Value="0" />
      </BoundProperties>
    </ImageClip>
    <ImageClip extentID="1040" gapBefore="0" mediaItemID="620" duration="1">
      <Effects />
      <Transitions>
        <ShaderEffect effectTemplateID="HeartTransitionTemplate" duration="1.5">
          <BoundProperties />
        </ShaderEffect>
      </Transitions>
      <BoundProperties>
        <BoundPropertyInt Name="rotateStepNinety" Value="0" />
      </BoundProperties>
    </ImageClip>
    <ImageClip extentID="1041" gapBefore="0" mediaItemID="621" duration="1">
      <Effects />
      <Transitions>
        <ShaderEffect effectTemplateID="HeartTransitionTemplate" duration="1.5">
          <BoundProperties />
        </ShaderEffect>
      </Transitions>
      <BoundProperties>
        <BoundPropertyInt Name="rotateStepNinety" Value="0" />
      </BoundProperties>
    </ImageClip>
    <ImageClip extentID="1042" gapBefore="0" mediaItemID="622" duration="1">
      <Effects />
      <Transitions>
        <ShaderEffect effectTemplateID="HeartTransitionTemplate" duration="1.5">
          <BoundProperties />
        </ShaderEffect>
      </Transitions>
      <BoundProperties>
        <BoundPropertyInt Name="rotateStepNinety" Value="2" />
      </BoundProperties>
    </ImageClip>
    <ImageClip extentID="1043" gapBefore="0" mediaItemID="623" duration="1">
      <Effects />
      <Transitions>
        <ShaderEffect effectTemplateID="HeartTransitionTemplate" duration="1.5">
          <BoundProperties />
        </ShaderEffect>
      </Transitions>
      <BoundProperties>
        <BoundPropertyInt Name="rotateStepNinety" Value="0" />
      </BoundProperties>
    </ImageClip>
    <ImageClip extentID="1044" gapBefore="0" mediaItemID="624" duration="1">
      <Effects />
      <Transitions>
        <ShaderEffect effectTemplateID="HeartTransitionTemplate" duration="1.5">
          <BoundProperties />
        </ShaderEffect>
      </Transitions>
      <BoundProperties>
        <BoundPropertyInt Name="rotateStepNinety" Value="0" />
      </BoundProperties>
    </ImageClip>
    <ImageClip extentID="1045" gapBefore="0" mediaItemID="625" duration="1">
      <Effects />
      <Transitions>
        <ShaderEffect effectTemplateID="HeartTransitionTemplate" duration="1.5">
          <BoundProperties />
        </ShaderEffect>
      </Transitions>
      <BoundProperties>
        <BoundPropertyInt Name="rotateStepNinety" Value="0" />
      </BoundProperties>
    </ImageClip>
    <ImageClip extentID="1046" gapBefore="0" mediaItemID="626" duration="1">
      <Effects />
      <Transitions>
        <ShaderEffect effectTemplateID="HeartTransitionTemplate" duration="1.5">
          <BoundProperties />
        </ShaderEffect>
      </Transitions>
      <BoundProperties>
        <BoundPropertyInt Name="rotateStepNinety" Value="0" />
      </BoundProperties>
    </ImageClip>
    <ImageClip extentID="1047" gapBefore="0" mediaItemID="627" duration="1">
      <Effects />
      <Transitions>
        <ShaderEffect effectTemplateID="HeartTransitionTemplate" duration="1.5">
          <BoundProperties />
        </ShaderEffect>
      </Transitions>
      <BoundProperties>
        <BoundPropertyInt Name="rotateStepNinety" Value="0" />
      </BoundProperties>
    </ImageClip>
    <ImageClip extentID="1048" gapBefore="0" mediaItemID="628" duration="1">
      <Effects />
      <Transitions>
        <ShaderEffect effectTemplateID="HeartTransitionTemplate" duration="1.5">
          <BoundProperties />
        </ShaderEffect>
      </Transitions>
      <BoundProperties>
        <BoundPropertyInt Name="rotateStepNinety" Value="0" />
      </BoundProperties>
    </ImageClip>
    <ImageClip extentID="2080" gapBefore="0" mediaItemID="1084" duration="1">
      <Effects />
      <Transitions>
        <ShaderEffect effectTemplateID="HeartTransitionTemplate" duration="1.5">
          <BoundProperties />
        </ShaderEffect>
      </Transitions>
      <BoundProperties>
        <BoundPropertyInt Name="rotateStepNinety" Value="0" />
      </BoundProperties>
    </ImageClip>
    <ImageClip extentID="1049" gapBefore="0" mediaItemID="629" duration="1">
      <Effects />
      <Transitions>
        <ShaderEffect effectTemplateID="HeartTransitionTemplate" duration="1.5">
          <BoundProperties />
        </ShaderEffect>
      </Transitions>
      <BoundProperties>
        <BoundPropertyInt Name="rotateStepNinety" Value="0" />
      </BoundProperties>
    </ImageClip>
    <ImageClip extentID="1050" gapBefore="0" mediaItemID="630" duration="1">
      <Effects />
      <Transitions>
        <ShaderEffect effectTemplateID="HeartTransitionTemplate" duration="1.5">
          <BoundProperties />
        </ShaderEffect>
      </Transitions>
      <BoundProperties>
        <BoundPropertyInt Name="rotateStepNinety" Value="0" />
      </BoundProperties>
    </ImageClip>
    <ImageClip extentID="1051" gapBefore="0" mediaItemID="631" duration="1">
      <Effects />
      <Transitions>
        <ShaderEffect effectTemplateID="HeartTransitionTemplate" duration="1.5">
          <BoundProperties />
        </ShaderEffect>
      </Transitions>
      <BoundProperties>
        <BoundPropertyInt Name="rotateStepNinety" Value="0" />
      </BoundProperties>
    </ImageClip>
    <ImageClip extentID="2083" gapBefore="0" mediaItemID="1087" duration="1">
      <Effects />
      <Transitions>
        <ShaderEffect effectTemplateID="HeartTransitionTemplate" duration="1.5">
          <BoundProperties />
        </ShaderEffect>
      </Transitions>
      <BoundProperties>
        <BoundPropertyInt Name="rotateStepNinety" Value="0" />
      </BoundProperties>
    </ImageClip>
    <ImageClip extentID="1052" gapBefore="0" mediaItemID="632" duration="1">
      <Effects />
      <Transitions>
        <ShaderEffect effectTemplateID="HeartTransitionTemplate" duration="1.5">
          <BoundProperties />
        </ShaderEffect>
      </Transitions>
      <BoundProperties>
        <BoundPropertyInt Name="rotateStepNinety" Value="0" />
      </BoundProperties>
    </ImageClip>
    <ImageClip extentID="2084" gapBefore="0" mediaItemID="1088" duration="1">
      <Effects />
      <Transitions>
        <ShaderEffect effectTemplateID="HeartTransitionTemplate" duration="1.5">
          <BoundProperties />
        </ShaderEffect>
      </Transitions>
      <BoundProperties>
        <BoundPropertyInt Name="rotateStepNinety" Value="0" />
      </BoundProperties>
    </ImageClip>
    <ImageClip extentID="1053" gapBefore="0" mediaItemID="633" duration="1">
      <Effects />
      <Transitions>
        <ShaderEffect effectTemplateID="HeartTransitionTemplate" duration="1.5">
          <BoundProperties />
        </ShaderEffect>
      </Transitions>
      <BoundProperties>
        <BoundPropertyInt Name="rotateStepNinety" Value="0" />
      </BoundProperties>
    </ImageClip>
    <ImageClip extentID="2085" gapBefore="0" mediaItemID="1089" duration="1">
      <Effects />
      <Transitions>
        <ShaderEffect effectTemplateID="HeartTransitionTemplate" duration="1.5">
          <BoundProperties />
        </ShaderEffect>
      </Transitions>
      <BoundProperties>
        <BoundPropertyInt Name="rotateStepNinety" Value="0" />
      </BoundProperties>
    </ImageClip>
    <ImageClip extentID="1055" gapBefore="0" mediaItemID="635" duration="1">
      <Effects />
      <Transitions>
        <ShaderEffect effectTemplateID="HeartTransitionTemplate" duration="1.5">
          <BoundProperties />
        </ShaderEffect>
      </Transitions>
      <BoundProperties>
        <BoundPropertyInt Name="rotateStepNinety" Value="0" />
      </BoundProperties>
    </ImageClip>
    <ImageClip extentID="1056" gapBefore="0" mediaItemID="636" duration="1">
      <Effects />
      <Transitions>
        <ShaderEffect effectTemplateID="HeartTransitionTemplate" duration="1.5">
          <BoundProperties />
        </ShaderEffect>
      </Transitions>
      <BoundProperties>
        <BoundPropertyInt Name="rotateStepNinety" Value="0" />
      </BoundProperties>
    </ImageClip>
    <ImageClip extentID="1057" gapBefore="0" mediaItemID="637" duration="1">
      <Effects />
      <Transitions>
        <ShaderEffect effectTemplateID="HeartTransitionTemplate" duration="1.5">
          <BoundProperties />
        </ShaderEffect>
      </Transitions>
      <BoundProperties>
        <BoundPropertyInt Name="rotateStepNinety" Value="0" />
      </BoundProperties>
    </ImageClip>
    <ImageClip extentID="2091" gapBefore="0" mediaItemID="1095" duration="1">
      <Effects />
      <Transitions>
        <ShaderEffect effectTemplateID="HeartTransitionTemplate" duration="1.5">
          <BoundProperties />
        </ShaderEffect>
      </Transitions>
      <BoundProperties>
        <BoundPropertyInt Name="rotateStepNinety" Value="0" />
      </BoundProperties>
    </ImageClip>
    <ImageClip extentID="1060" gapBefore="0" mediaItemID="640" duration="1">
      <Effects />
      <Transitions>
        <ShaderEffect effectTemplateID="HeartTransitionTemplate" duration="1.5">
          <BoundProperties />
        </ShaderEffect>
      </Transitions>
      <BoundProperties>
        <BoundPropertyInt Name="rotateStepNinety" Value="0" />
      </BoundProperties>
    </ImageClip>
    <ImageClip extentID="1061" gapBefore="0" mediaItemID="641" duration="1">
      <Effects />
      <Transitions>
        <ShaderEffect effectTemplateID="HeartTransitionTemplate" duration="1.5">
          <BoundProperties />
        </ShaderEffect>
      </Transitions>
      <BoundProperties>
        <BoundPropertyInt Name="rotateStepNinety" Value="0" />
      </BoundProperties>
    </ImageClip>
    <ImageClip extentID="2093" gapBefore="0" mediaItemID="1097" duration="1">
      <Effects />
      <Transitions>
        <ShaderEffect effectTemplateID="HeartTransitionTemplate" duration="1.5">
          <BoundProperties />
        </ShaderEffect>
      </Transitions>
      <BoundProperties>
        <BoundPropertyInt Name="rotateStepNinety" Value="0" />
      </BoundProperties>
    </ImageClip>
    <ImageClip extentID="1062" gapBefore="0" mediaItemID="642" duration="1">
      <Effects />
      <Transitions>
        <ShaderEffect effectTemplateID="HeartTransitionTemplate" duration="1.5">
          <BoundProperties />
        </ShaderEffect>
      </Transitions>
      <BoundProperties>
        <BoundPropertyInt Name="rotateStepNinety" Value="0" />
      </BoundProperties>
    </ImageClip>
    <ImageClip extentID="1063" gapBefore="0" mediaItemID="643" duration="1">
      <Effects />
      <Transitions>
        <ShaderEffect effectTemplateID="HeartTransitionTemplate" duration="1.5">
          <BoundProperties />
        </ShaderEffect>
      </Transitions>
      <BoundProperties>
        <BoundPropertyInt Name="rotateStepNinety" Value="0" />
      </BoundProperties>
    </ImageClip>
    <ImageClip extentID="2095" gapBefore="0" mediaItemID="1099" duration="1">
      <Effects />
      <Transitions>
        <ShaderEffect effectTemplateID="HeartTransitionTemplate" duration="1.5">
          <BoundProperties />
        </ShaderEffect>
      </Transitions>
      <BoundProperties>
        <BoundPropertyInt Name="rotateStepNinety" Value="0" />
      </BoundProperties>
    </ImageClip>
    <ImageClip extentID="1064" gapBefore="0" mediaItemID="644" duration="1">
      <Effects />
      <Transitions>
        <ShaderEffect effectTemplateID="HeartTransitionTemplate" duration="1.5">
          <BoundProperties />
        </ShaderEffect>
      </Transitions>
      <BoundProperties>
        <BoundPropertyInt Name="rotateStepNinety" Value="0" />
      </BoundProperties>
    </ImageClip>
    <ImageClip extentID="2097" gapBefore="0" mediaItemID="1101" duration="1">
      <Effects />
      <Transitions>
        <ShaderEffect effectTemplateID="HeartTransitionTemplate" duration="1.5">
          <BoundProperties />
        </ShaderEffect>
      </Transitions>
      <BoundProperties>
        <BoundPropertyInt Name="rotateStepNinety" Value="0" />
      </BoundProperties>
    </ImageClip>
    <ImageClip extentID="1066" gapBefore="0" mediaItemID="646" duration="1">
      <Effects />
      <Transitions>
        <ShaderEffect effectTemplateID="HeartTransitionTemplate" duration="1.5">
          <BoundProperties />
        </ShaderEffect>
      </Transitions>
      <BoundProperties>
        <BoundPropertyInt Name="rotateStepNinety" Value="0" />
      </BoundProperties>
    </ImageClip>
    <ImageClip extentID="2098" gapBefore="0" mediaItemID="1102" duration="1">
      <Effects />
      <Transitions>
        <ShaderEffect effectTemplateID="HeartTransitionTemplate" duration="1.5">
          <BoundProperties />
        </ShaderEffect>
      </Transitions>
      <BoundProperties>
        <BoundPropertyInt Name="rotateStepNinety" Value="0" />
      </BoundProperties>
    </ImageClip>
    <ImageClip extentID="1067" gapBefore="0" mediaItemID="647" duration="1">
      <Effects />
      <Transitions>
        <ShaderEffect effectTemplateID="HeartTransitionTemplate" duration="1.5">
          <BoundProperties />
        </ShaderEffect>
      </Transitions>
      <BoundProperties>
        <BoundPropertyInt Name="rotateStepNinety" Value="0" />
      </BoundProperties>
    </ImageClip>
    <ImageClip extentID="2099" gapBefore="0" mediaItemID="1103" duration="1">
      <Effects />
      <Transitions>
        <ShaderEffect effectTemplateID="HeartTransitionTemplate" duration="1.5">
          <BoundProperties />
        </ShaderEffect>
      </Transitions>
      <BoundProperties>
        <BoundPropertyInt Name="rotateStepNinety" Value="0" />
      </BoundProperties>
    </ImageClip>
    <ImageClip extentID="1068" gapBefore="0" mediaItemID="648" duration="1">
      <Effects />
      <Transitions>
        <ShaderEffect effectTemplateID="HeartTransitionTemplate" duration="1.5">
          <BoundProperties />
        </ShaderEffect>
      </Transitions>
      <BoundProperties>
        <BoundPropertyInt Name="rotateStepNinety" Value="0" />
      </BoundProperties>
    </ImageClip>
    <ImageClip extentID="2100" gapBefore="0" mediaItemID="1104" duration="1">
      <Effects />
      <Transitions>
        <ShaderEffect effectTemplateID="HeartTransitionTemplate" duration="1.5">
          <BoundProperties />
        </ShaderEffect>
      </Transitions>
      <BoundProperties>
        <BoundPropertyInt Name="rotateStepNinety" Value="0" />
      </BoundProperties>
    </ImageClip>
    <ImageClip extentID="1069" gapBefore="0" mediaItemID="649" duration="1">
      <Effects />
      <Transitions>
        <ShaderEffect effectTemplateID="HeartTransitionTemplate" duration="1.5">
          <BoundProperties />
        </ShaderEffect>
      </Transitions>
      <BoundProperties>
        <BoundPropertyInt Name="rotateStepNinety" Value="0" />
      </BoundProperties>
    </ImageClip>
    <ImageClip extentID="1070" gapBefore="0" mediaItemID="650" duration="1">
      <Effects />
      <Transitions>
        <ShaderEffect effectTemplateID="HeartTransitionTemplate" duration="1.5">
          <BoundProperties />
        </ShaderEffect>
      </Transitions>
      <BoundProperties>
        <BoundPropertyInt Name="rotateStepNinety" Value="0" />
      </BoundProperties>
    </ImageClip>
    <ImageClip extentID="1071" gapBefore="0" mediaItemID="651" duration="1">
      <Effects />
      <Transitions>
        <ShaderEffect effectTemplateID="HeartTransitionTemplate" duration="1.5">
          <BoundProperties />
        </ShaderEffect>
      </Transitions>
      <BoundProperties>
        <BoundPropertyInt Name="rotateStepNinety" Value="0" />
      </BoundProperties>
    </ImageClip>
    <ImageClip extentID="1072" gapBefore="0" mediaItemID="652" duration="1">
      <Effects />
      <Transitions>
        <ShaderEffect effectTemplateID="HeartTransitionTemplate" duration="1.5">
          <BoundProperties />
        </ShaderEffect>
      </Transitions>
      <BoundProperties>
        <BoundPropertyInt Name="rotateStepNinety" Value="0" />
      </BoundProperties>
    </ImageClip>
    <ImageClip extentID="2104" gapBefore="0" mediaItemID="1108" duration="1">
      <Effects />
      <Transitions>
        <ShaderEffect effectTemplateID="HeartTransitionTemplate" duration="1.5">
          <BoundProperties />
        </ShaderEffect>
      </Transitions>
      <BoundProperties>
        <BoundPropertyInt Name="rotateStepNinety" Value="0" />
      </BoundProperties>
    </ImageClip>
    <ImageClip extentID="1073" gapBefore="0" mediaItemID="653" duration="1">
      <Effects />
      <Transitions>
        <ShaderEffect effectTemplateID="HeartTransitionTemplate" duration="1.5">
          <BoundProperties />
        </ShaderEffect>
      </Transitions>
      <BoundProperties>
        <BoundPropertyInt Name="rotateStepNinety" Value="0" />
      </BoundProperties>
    </ImageClip>
    <ImageClip extentID="1074" gapBefore="0" mediaItemID="654" duration="1">
      <Effects />
      <Transitions>
        <ShaderEffect effectTemplateID="HeartTransitionTemplate" duration="1.5">
          <BoundProperties />
        </ShaderEffect>
      </Transitions>
      <BoundProperties>
        <BoundPropertyInt Name="rotateStepNinety" Value="0" />
      </BoundProperties>
    </ImageClip>
    <ImageClip extentID="2106" gapBefore="0" mediaItemID="1110" duration="1">
      <Effects />
      <Transitions>
        <ShaderEffect effectTemplateID="HeartTransitionTemplate" duration="1.5">
          <BoundProperties />
        </ShaderEffect>
      </Transitions>
      <BoundProperties>
        <BoundPropertyInt Name="rotateStepNinety" Value="0" />
      </BoundProperties>
    </ImageClip>
    <ImageClip extentID="1075" gapBefore="0" mediaItemID="655" duration="1">
      <Effects />
      <Transitions>
        <ShaderEffect effectTemplateID="HeartTransitionTemplate" duration="1.5">
          <BoundProperties />
        </ShaderEffect>
      </Transitions>
      <BoundProperties>
        <BoundPropertyInt Name="rotateStepNinety" Value="0" />
      </BoundProperties>
    </ImageClip>
    <ImageClip extentID="1076" gapBefore="0" mediaItemID="656" duration="1">
      <Effects />
      <Transitions>
        <ShaderEffect effectTemplateID="HeartTransitionTemplate" duration="1.5">
          <BoundProperties />
        </ShaderEffect>
      </Transitions>
      <BoundProperties>
        <BoundPropertyInt Name="rotateStepNinety" Value="0" />
      </BoundProperties>
    </ImageClip>
    <ImageClip extentID="2108" gapBefore="0" mediaItemID="1112" duration="1">
      <Effects />
      <Transitions>
        <ShaderEffect effectTemplateID="HeartTransitionTemplate" duration="1.5">
          <BoundProperties />
        </ShaderEffect>
      </Transitions>
      <BoundProperties>
        <BoundPropertyInt Name="rotateStepNinety" Value="0" />
      </BoundProperties>
    </ImageClip>
    <ImageClip extentID="1077" gapBefore="0" mediaItemID="657" duration="1">
      <Effects />
      <Transitions>
        <ShaderEffect effectTemplateID="HeartTransitionTemplate" duration="1.5">
          <BoundProperties />
        </ShaderEffect>
      </Transitions>
      <BoundProperties>
        <BoundPropertyInt Name="rotateStepNinety" Value="0" />
      </BoundProperties>
    </ImageClip>
    <ImageClip extentID="2109" gapBefore="0" mediaItemID="1113" duration="1">
      <Effects />
      <Transitions>
        <ShaderEffect effectTemplateID="HeartTransitionTemplate" duration="1.5">
          <BoundProperties />
        </ShaderEffect>
      </Transitions>
      <BoundProperties>
        <BoundPropertyInt Name="rotateStepNinety" Value="0" />
      </BoundProperties>
    </ImageClip>
    <ImageClip extentID="2110" gapBefore="0" mediaItemID="1114" duration="1">
      <Effects />
      <Transitions>
        <ShaderEffect effectTemplateID="HeartTransitionTemplate" duration="1.5">
          <BoundProperties />
        </ShaderEffect>
      </Transitions>
      <BoundProperties>
        <BoundPropertyInt Name="rotateStepNinety" Value="0" />
      </BoundProperties>
    </ImageClip>
    <ImageClip extentID="2111" gapBefore="0" mediaItemID="1115" duration="1">
      <Effects />
      <Transitions>
        <ShaderEffect effectTemplateID="HeartTransitionTemplate" duration="1.5">
          <BoundProperties />
        </ShaderEffect>
      </Transitions>
      <BoundProperties>
        <BoundPropertyInt Name="rotateStepNinety" Value="0" />
      </BoundProperties>
    </ImageClip>
    <ImageClip extentID="1080" gapBefore="0" mediaItemID="660" duration="1">
      <Effects />
      <Transitions>
        <ShaderEffect effectTemplateID="HeartTransitionTemplate" duration="1.5">
          <BoundProperties />
        </ShaderEffect>
      </Transitions>
      <BoundProperties>
        <BoundPropertyInt Name="rotateStepNinety" Value="0" />
      </BoundProperties>
    </ImageClip>
    <ImageClip extentID="2112" gapBefore="0" mediaItemID="1116" duration="1">
      <Effects />
      <Transitions>
        <ShaderEffect effectTemplateID="HeartTransitionTemplate" duration="1.5">
          <BoundProperties />
        </ShaderEffect>
      </Transitions>
      <BoundProperties>
        <BoundPropertyInt Name="rotateStepNinety" Value="0" />
      </BoundProperties>
    </ImageClip>
    <ImageClip extentID="2113" gapBefore="0" mediaItemID="1117" duration="1">
      <Effects />
      <Transitions>
        <ShaderEffect effectTemplateID="HeartTransitionTemplate" duration="1.5">
          <BoundProperties />
        </ShaderEffect>
      </Transitions>
      <BoundProperties>
        <BoundPropertyInt Name="rotateStepNinety" Value="0" />
      </BoundProperties>
    </ImageClip>
    <ImageClip extentID="2114" gapBefore="0" mediaItemID="1118" duration="1">
      <Effects />
      <Transitions>
        <ShaderEffect effectTemplateID="HeartTransitionTemplate" duration="1.5">
          <BoundProperties />
        </ShaderEffect>
      </Transitions>
      <BoundProperties>
        <BoundPropertyInt Name="rotateStepNinety" Value="0" />
      </BoundProperties>
    </ImageClip>
    <ImageClip extentID="2115" gapBefore="0" mediaItemID="1119" duration="1">
      <Effects />
      <Transitions>
        <ShaderEffect effectTemplateID="HeartTransitionTemplate" duration="1.5">
          <BoundProperties />
        </ShaderEffect>
      </Transitions>
      <BoundProperties>
        <BoundPropertyInt Name="rotateStepNinety" Value="0" />
      </BoundProperties>
    </ImageClip>
    <ImageClip extentID="1084" gapBefore="0" mediaItemID="664" duration="1">
      <Effects />
      <Transitions>
        <ShaderEffect effectTemplateID="HeartTransitionTemplate" duration="1.5">
          <BoundProperties />
        </ShaderEffect>
      </Transitions>
      <BoundProperties>
        <BoundPropertyInt Name="rotateStepNinety" Value="0" />
      </BoundProperties>
    </ImageClip>
    <ImageClip extentID="1085" gapBefore="0" mediaItemID="665" duration="1">
      <Effects />
      <Transitions>
        <ShaderEffect effectTemplateID="HeartTransitionTemplate" duration="1.5">
          <BoundProperties />
        </ShaderEffect>
      </Transitions>
      <BoundProperties>
        <BoundPropertyInt Name="rotateStepNinety" Value="0" />
      </BoundProperties>
    </ImageClip>
    <ImageClip extentID="1086" gapBefore="0" mediaItemID="666" duration="1">
      <Effects />
      <Transitions>
        <ShaderEffect effectTemplateID="HeartTransitionTemplate" duration="1.5">
          <BoundProperties />
        </ShaderEffect>
      </Transitions>
      <BoundProperties>
        <BoundPropertyInt Name="rotateStepNinety" Value="0" />
      </BoundProperties>
    </ImageClip>
    <ImageClip extentID="2118" gapBefore="0" mediaItemID="1122" duration="1">
      <Effects />
      <Transitions>
        <ShaderEffect effectTemplateID="HeartTransitionTemplate" duration="1.5">
          <BoundProperties />
        </ShaderEffect>
      </Transitions>
      <BoundProperties>
        <BoundPropertyInt Name="rotateStepNinety" Value="0" />
      </BoundProperties>
    </ImageClip>
    <ImageClip extentID="1088" gapBefore="0" mediaItemID="668" duration="1">
      <Effects />
      <Transitions>
        <ShaderEffect effectTemplateID="HeartTransitionTemplate" duration="1.5">
          <BoundProperties />
        </ShaderEffect>
      </Transitions>
      <BoundProperties>
        <BoundPropertyInt Name="rotateStepNinety" Value="0" />
      </BoundProperties>
    </ImageClip>
    <ImageClip extentID="2120" gapBefore="0" mediaItemID="1124" duration="1">
      <Effects />
      <Transitions>
        <ShaderEffect effectTemplateID="HeartTransitionTemplate" duration="1.5">
          <BoundProperties />
        </ShaderEffect>
      </Transitions>
      <BoundProperties>
        <BoundPropertyInt Name="rotateStepNinety" Value="0" />
      </BoundProperties>
    </ImageClip>
    <ImageClip extentID="1089" gapBefore="0" mediaItemID="669" duration="1">
      <Effects />
      <Transitions>
        <ShaderEffect effectTemplateID="HeartTransitionTemplate" duration="1.5">
          <BoundProperties />
        </ShaderEffect>
      </Transitions>
      <BoundProperties>
        <BoundPropertyInt Name="rotateStepNinety" Value="0" />
      </BoundProperties>
    </ImageClip>
    <ImageClip extentID="2121" gapBefore="0" mediaItemID="1125" duration="1">
      <Effects />
      <Transitions>
        <ShaderEffect effectTemplateID="HeartTransitionTemplate" duration="1.5">
          <BoundProperties />
        </ShaderEffect>
      </Transitions>
      <BoundProperties>
        <BoundPropertyInt Name="rotateStepNinety" Value="0" />
      </BoundProperties>
    </ImageClip>
    <ImageClip extentID="1091" gapBefore="0" mediaItemID="671" duration="1">
      <Effects />
      <Transitions>
        <ShaderEffect effectTemplateID="HeartTransitionTemplate" duration="1.5">
          <BoundProperties />
        </ShaderEffect>
      </Transitions>
      <BoundProperties>
        <BoundPropertyInt Name="rotateStepNinety" Value="0" />
      </BoundProperties>
    </ImageClip>
    <ImageClip extentID="2123" gapBefore="0" mediaItemID="1127" duration="1">
      <Effects />
      <Transitions>
        <ShaderEffect effectTemplateID="HeartTransitionTemplate" duration="1.5">
          <BoundProperties />
        </ShaderEffect>
      </Transitions>
      <BoundProperties>
        <BoundPropertyInt Name="rotateStepNinety" Value="0" />
      </BoundProperties>
    </ImageClip>
    <ImageClip extentID="2124" gapBefore="0" mediaItemID="1128" duration="1">
      <Effects />
      <Transitions>
        <ShaderEffect effectTemplateID="HeartTransitionTemplate" duration="1.5">
          <BoundProperties />
        </ShaderEffect>
      </Transitions>
      <BoundProperties>
        <BoundPropertyInt Name="rotateStepNinety" Value="0" />
      </BoundProperties>
    </ImageClip>
    <ImageClip extentID="1095" gapBefore="0" mediaItemID="675" duration="1">
      <Effects />
      <Transitions>
        <ShaderEffect effectTemplateID="HeartTransitionTemplate" duration="1.5">
          <BoundProperties />
        </ShaderEffect>
      </Transitions>
      <BoundProperties>
        <BoundPropertyInt Name="rotateStepNinety" Value="0" />
      </BoundProperties>
    </ImageClip>
    <ImageClip extentID="1096" gapBefore="0" mediaItemID="676" duration="1">
      <Effects />
      <Transitions>
        <ShaderEffect effectTemplateID="HeartTransitionTemplate" duration="1.5">
          <BoundProperties />
        </ShaderEffect>
      </Transitions>
      <BoundProperties>
        <BoundPropertyInt Name="rotateStepNinety" Value="0" />
      </BoundProperties>
    </ImageClip>
    <ImageClip extentID="1102" gapBefore="0" mediaItemID="682" duration="1">
      <Effects />
      <Transitions>
        <ShaderEffect effectTemplateID="HeartTransitionTemplate" duration="1.5">
          <BoundProperties />
        </ShaderEffect>
      </Transitions>
      <BoundProperties>
        <BoundPropertyInt Name="rotateStepNinety" Value="0" />
      </BoundProperties>
    </ImageClip>
    <ImageClip extentID="1103" gapBefore="0" mediaItemID="683" duration="1">
      <Effects />
      <Transitions>
        <ShaderEffect effectTemplateID="HeartTransitionTemplate" duration="1.5">
          <BoundProperties />
        </ShaderEffect>
      </Transitions>
      <BoundProperties>
        <BoundPropertyInt Name="rotateStepNinety" Value="0" />
      </BoundProperties>
    </ImageClip>
    <ImageClip extentID="2135" gapBefore="0" mediaItemID="1048" duration="1">
      <Effects />
      <Transitions>
        <ShaderEffect effectTemplateID="HeartTransitionTemplate" duration="1.5">
          <BoundProperties />
        </ShaderEffect>
      </Transitions>
      <BoundProperties>
        <BoundPropertyInt Name="rotateStepNinety" Value="0" />
      </BoundProperties>
    </ImageClip>
    <ImageClip extentID="1104" gapBefore="0" mediaItemID="684" duration="1">
      <Effects />
      <Transitions>
        <ShaderEffect effectTemplateID="HeartTransitionTemplate" duration="1.5">
          <BoundProperties />
        </ShaderEffect>
      </Transitions>
      <BoundProperties>
        <BoundPropertyInt Name="rotateStepNinety" Value="0" />
      </BoundProperties>
    </ImageClip>
    <ImageClip extentID="2136" gapBefore="0" mediaItemID="1052" duration="1">
      <Effects />
      <Transitions>
        <ShaderEffect effectTemplateID="HeartTransitionTemplate" duration="1.5">
          <BoundProperties />
        </ShaderEffect>
      </Transitions>
      <BoundProperties>
        <BoundPropertyInt Name="rotateStepNinety" Value="0" />
      </BoundProperties>
    </ImageClip>
    <ImageClip extentID="1105" gapBefore="0" mediaItemID="685" duration="1">
      <Effects />
      <Transitions>
        <ShaderEffect effectTemplateID="HeartTransitionTemplate" duration="1.5">
          <BoundProperties />
        </ShaderEffect>
      </Transitions>
      <BoundProperties>
        <BoundPropertyInt Name="rotateStepNinety" Value="0" />
      </BoundProperties>
    </ImageClip>
    <ImageClip extentID="2137" gapBefore="0" mediaItemID="1094" duration="1">
      <Effects />
      <Transitions>
        <ShaderEffect effectTemplateID="HeartTransitionTemplate" duration="1.5">
          <BoundProperties />
        </ShaderEffect>
      </Transitions>
      <BoundProperties>
        <BoundPropertyInt Name="rotateStepNinety" Value="0" />
      </BoundProperties>
    </ImageClip>
    <ImageClip extentID="2138" gapBefore="0" mediaItemID="1098" duration="1">
      <Effects />
      <Transitions>
        <ShaderEffect effectTemplateID="HeartTransitionTemplate" duration="1.5">
          <BoundProperties />
        </ShaderEffect>
      </Transitions>
      <BoundProperties>
        <BoundPropertyInt Name="rotateStepNinety" Value="0" />
      </BoundProperties>
    </ImageClip>
    <ImageClip extentID="1112" gapBefore="0" mediaItemID="692" duration="1">
      <Effects />
      <Transitions>
        <ShaderEffect effectTemplateID="HeartTransitionTemplate" duration="1.5">
          <BoundProperties />
        </ShaderEffect>
      </Transitions>
      <BoundProperties>
        <BoundPropertyInt Name="rotateStepNinety" Value="0" />
      </BoundProperties>
    </ImageClip>
    <ImageClip extentID="1114" gapBefore="0" mediaItemID="694" duration="1">
      <Effects />
      <Transitions>
        <ShaderEffect effectTemplateID="HeartTransitionTemplate" duration="1.5">
          <BoundProperties />
        </ShaderEffect>
      </Transitions>
      <BoundProperties>
        <BoundPropertyInt Name="rotateStepNinety" Value="0" />
      </BoundProperties>
    </ImageClip>
    <ImageClip extentID="1115" gapBefore="0" mediaItemID="695" duration="1">
      <Effects />
      <Transitions>
        <ShaderEffect effectTemplateID="HeartTransitionTemplate" duration="1.5">
          <BoundProperties />
        </ShaderEffect>
      </Transitions>
      <BoundProperties>
        <BoundPropertyInt Name="rotateStepNinety" Value="0" />
      </BoundProperties>
    </ImageClip>
    <ImageClip extentID="1116" gapBefore="0" mediaItemID="696" duration="1">
      <Effects />
      <Transitions>
        <ShaderEffect effectTemplateID="HeartTransitionTemplate" duration="1.5">
          <BoundProperties />
        </ShaderEffect>
      </Transitions>
      <BoundProperties>
        <BoundPropertyInt Name="rotateStepNinety" Value="0" />
      </BoundProperties>
    </ImageClip>
    <ImageClip extentID="1117" gapBefore="0" mediaItemID="697" duration="1">
      <Effects />
      <Transitions>
        <ShaderEffect effectTemplateID="HeartTransitionTemplate" duration="1.5">
          <BoundProperties />
        </ShaderEffect>
      </Transitions>
      <BoundProperties>
        <BoundPropertyInt Name="rotateStepNinety" Value="0" />
      </BoundProperties>
    </ImageClip>
    <ImageClip extentID="1118" gapBefore="0" mediaItemID="698" duration="1">
      <Effects />
      <Transitions>
        <ShaderEffect effectTemplateID="HeartTransitionTemplate" duration="1.5">
          <BoundProperties />
        </ShaderEffect>
      </Transitions>
      <BoundProperties>
        <BoundPropertyInt Name="rotateStepNinety" Value="0" />
      </BoundProperties>
    </ImageClip>
    <ImageClip extentID="1119" gapBefore="0" mediaItemID="699" duration="1">
      <Effects />
      <Transitions>
        <ShaderEffect effectTemplateID="HeartTransitionTemplate" duration="1.5">
          <BoundProperties />
        </ShaderEffect>
      </Transitions>
      <BoundProperties>
        <BoundPropertyInt Name="rotateStepNinety" Value="0" />
      </BoundProperties>
    </ImageClip>
    <ImageClip extentID="1120" gapBefore="0" mediaItemID="700" duration="1">
      <Effects />
      <Transitions>
        <ShaderEffect effectTemplateID="HeartTransitionTemplate" duration="1.5">
          <BoundProperties />
        </ShaderEffect>
      </Transitions>
      <BoundProperties>
        <BoundPropertyInt Name="rotateStepNinety" Value="0" />
      </BoundProperties>
    </ImageClip>
    <ImageClip extentID="1121" gapBefore="0" mediaItemID="701" duration="1">
      <Effects />
      <Transitions>
        <ShaderEffect effectTemplateID="HeartTransitionTemplate" duration="1.5">
          <BoundProperties />
        </ShaderEffect>
      </Transitions>
      <BoundProperties>
        <BoundPropertyInt Name="rotateStepNinety" Value="0" />
      </BoundProperties>
    </ImageClip>
    <ImageClip extentID="1122" gapBefore="0" mediaItemID="702" duration="1">
      <Effects />
      <Transitions>
        <ShaderEffect effectTemplateID="HeartTransitionTemplate" duration="1.5">
          <BoundProperties />
        </ShaderEffect>
      </Transitions>
      <BoundProperties>
        <BoundPropertyInt Name="rotateStepNinety" Value="0" />
      </BoundProperties>
    </ImageClip>
    <ImageClip extentID="1123" gapBefore="0" mediaItemID="703" duration="1">
      <Effects />
      <Transitions>
        <ShaderEffect effectTemplateID="HeartTransitionTemplate" duration="1.5">
          <BoundProperties />
        </ShaderEffect>
      </Transitions>
      <BoundProperties>
        <BoundPropertyInt Name="rotateStepNinety" Value="0" />
      </BoundProperties>
    </ImageClip>
    <ImageClip extentID="1124" gapBefore="0" mediaItemID="704" duration="1">
      <Effects />
      <Transitions>
        <ShaderEffect effectTemplateID="HeartTransitionTemplate" duration="1.5">
          <BoundProperties />
        </ShaderEffect>
      </Transitions>
      <BoundProperties>
        <BoundPropertyInt Name="rotateStepNinety" Value="0" />
      </BoundProperties>
    </ImageClip>
    <ImageClip extentID="1125" gapBefore="0" mediaItemID="705" duration="1">
      <Effects />
      <Transitions>
        <ShaderEffect effectTemplateID="HeartTransitionTemplate" duration="1.5">
          <BoundProperties />
        </ShaderEffect>
      </Transitions>
      <BoundProperties>
        <BoundPropertyInt Name="rotateStepNinety" Value="0" />
      </BoundProperties>
    </ImageClip>
    <ImageClip extentID="1126" gapBefore="0" mediaItemID="706" duration="1">
      <Effects />
      <Transitions>
        <ShaderEffect effectTemplateID="HeartTransitionTemplate" duration="1.5">
          <BoundProperties />
        </ShaderEffect>
      </Transitions>
      <BoundProperties>
        <BoundPropertyInt Name="rotateStepNinety" Value="0" />
      </BoundProperties>
    </ImageClip>
    <ImageClip extentID="1127" gapBefore="0" mediaItemID="707" duration="1">
      <Effects />
      <Transitions>
        <ShaderEffect effectTemplateID="HeartTransitionTemplate" duration="1.5">
          <BoundProperties />
        </ShaderEffect>
      </Transitions>
      <BoundProperties>
        <BoundPropertyInt Name="rotateStepNinety" Value="0" />
      </BoundProperties>
    </ImageClip>
    <ImageClip extentID="1128" gapBefore="0" mediaItemID="708" duration="1">
      <Effects />
      <Transitions>
        <ShaderEffect effectTemplateID="HeartTransitionTemplate" duration="1.5">
          <BoundProperties />
        </ShaderEffect>
      </Transitions>
      <BoundProperties>
        <BoundPropertyInt Name="rotateStepNinety" Value="0" />
      </BoundProperties>
    </ImageClip>
    <ImageClip extentID="1129" gapBefore="0" mediaItemID="709" duration="1">
      <Effects />
      <Transitions>
        <ShaderEffect effectTemplateID="HeartTransitionTemplate" duration="1.5">
          <BoundProperties />
        </ShaderEffect>
      </Transitions>
      <BoundProperties>
        <BoundPropertyInt Name="rotateStepNinety" Value="0" />
      </BoundProperties>
    </ImageClip>
    <ImageClip extentID="1130" gapBefore="0" mediaItemID="710" duration="1">
      <Effects />
      <Transitions>
        <ShaderEffect effectTemplateID="HeartTransitionTemplate" duration="1.5">
          <BoundProperties />
        </ShaderEffect>
      </Transitions>
      <BoundProperties>
        <BoundPropertyInt Name="rotateStepNinety" Value="0" />
      </BoundProperties>
    </ImageClip>
    <ImageClip extentID="1131" gapBefore="0" mediaItemID="711" duration="1">
      <Effects />
      <Transitions>
        <ShaderEffect effectTemplateID="HeartTransitionTemplate" duration="1.5">
          <BoundProperties />
        </ShaderEffect>
      </Transitions>
      <BoundProperties>
        <BoundPropertyInt Name="rotateStepNinety" Value="0" />
      </BoundProperties>
    </ImageClip>
    <ImageClip extentID="1132" gapBefore="0" mediaItemID="712" duration="1">
      <Effects />
      <Transitions>
        <ShaderEffect effectTemplateID="HeartTransitionTemplate" duration="1.5">
          <BoundProperties />
        </ShaderEffect>
      </Transitions>
      <BoundProperties>
        <BoundPropertyInt Name="rotateStepNinety" Value="0" />
      </BoundProperties>
    </ImageClip>
    <ImageClip extentID="1133" gapBefore="0" mediaItemID="713" duration="1">
      <Effects />
      <Transitions>
        <ShaderEffect effectTemplateID="HeartTransitionTemplate" duration="1.5">
          <BoundProperties />
        </ShaderEffect>
      </Transitions>
      <BoundProperties>
        <BoundPropertyInt Name="rotateStepNinety" Value="0" />
      </BoundProperties>
    </ImageClip>
    <ImageClip extentID="1134" gapBefore="0" mediaItemID="714" duration="1">
      <Effects />
      <Transitions>
        <ShaderEffect effectTemplateID="HeartTransitionTemplate" duration="1.5">
          <BoundProperties />
        </ShaderEffect>
      </Transitions>
      <BoundProperties>
        <BoundPropertyInt Name="rotateStepNinety" Value="0" />
      </BoundProperties>
    </ImageClip>
    <ImageClip extentID="1135" gapBefore="0" mediaItemID="715" duration="1">
      <Effects />
      <Transitions>
        <ShaderEffect effectTemplateID="HeartTransitionTemplate" duration="1.5">
          <BoundProperties />
        </ShaderEffect>
      </Transitions>
      <BoundProperties>
        <BoundPropertyInt Name="rotateStepNinety" Value="0" />
      </BoundProperties>
    </ImageClip>
    <ImageClip extentID="1136" gapBefore="0" mediaItemID="716" duration="1">
      <Effects />
      <Transitions>
        <ShaderEffect effectTemplateID="HeartTransitionTemplate" duration="1.5">
          <BoundProperties />
        </ShaderEffect>
      </Transitions>
      <BoundProperties>
        <BoundPropertyInt Name="rotateStepNinety" Value="0" />
      </BoundProperties>
    </ImageClip>
    <ImageClip extentID="1137" gapBefore="0" mediaItemID="717" duration="1">
      <Effects />
      <Transitions>
        <ShaderEffect effectTemplateID="HeartTransitionTemplate" duration="1.5">
          <BoundProperties />
        </ShaderEffect>
      </Transitions>
      <BoundProperties>
        <BoundPropertyInt Name="rotateStepNinety" Value="0" />
      </BoundProperties>
    </ImageClip>
    <ImageClip extentID="1138" gapBefore="0" mediaItemID="718" duration="1">
      <Effects />
      <Transitions>
        <ShaderEffect effectTemplateID="HeartTransitionTemplate" duration="1.5">
          <BoundProperties />
        </ShaderEffect>
      </Transitions>
      <BoundProperties>
        <BoundPropertyInt Name="rotateStepNinety" Value="0" />
      </BoundProperties>
    </ImageClip>
    <ImageClip extentID="1139" gapBefore="0" mediaItemID="719" duration="1">
      <Effects />
      <Transitions>
        <ShaderEffect effectTemplateID="HeartTransitionTemplate" duration="1.5">
          <BoundProperties />
        </ShaderEffect>
      </Transitions>
      <BoundProperties>
        <BoundPropertyInt Name="rotateStepNinety" Value="0" />
      </BoundProperties>
    </ImageClip>
    <ImageClip extentID="1140" gapBefore="0" mediaItemID="720" duration="1">
      <Effects />
      <Transitions>
        <ShaderEffect effectTemplateID="HeartTransitionTemplate" duration="1.5">
          <BoundProperties />
        </ShaderEffect>
      </Transitions>
      <BoundProperties>
        <BoundPropertyInt Name="rotateStepNinety" Value="0" />
      </BoundProperties>
    </ImageClip>
    <ImageClip extentID="1141" gapBefore="0" mediaItemID="721" duration="1">
      <Effects />
      <Transitions>
        <ShaderEffect effectTemplateID="HeartTransitionTemplate" duration="1.5">
          <BoundProperties />
        </ShaderEffect>
      </Transitions>
      <BoundProperties>
        <BoundPropertyInt Name="rotateStepNinety" Value="0" />
      </BoundProperties>
    </ImageClip>
    <ImageClip extentID="1142" gapBefore="0" mediaItemID="722" duration="1">
      <Effects />
      <Transitions>
        <ShaderEffect effectTemplateID="HeartTransitionTemplate" duration="1.5">
          <BoundProperties />
        </ShaderEffect>
      </Transitions>
      <BoundProperties>
        <BoundPropertyInt Name="rotateStepNinety" Value="0" />
      </BoundProperties>
    </ImageClip>
    <ImageClip extentID="1143" gapBefore="0" mediaItemID="723" duration="1">
      <Effects />
      <Transitions>
        <ShaderEffect effectTemplateID="HeartTransitionTemplate" duration="1.5">
          <BoundProperties />
        </ShaderEffect>
      </Transitions>
      <BoundProperties>
        <BoundPropertyInt Name="rotateStepNinety" Value="0" />
      </BoundProperties>
    </ImageClip>
    <ImageClip extentID="1144" gapBefore="0" mediaItemID="724" duration="1">
      <Effects />
      <Transitions>
        <ShaderEffect effectTemplateID="HeartTransitionTemplate" duration="1.5">
          <BoundProperties />
        </ShaderEffect>
      </Transitions>
      <BoundProperties>
        <BoundPropertyInt Name="rotateStepNinety" Value="0" />
      </BoundProperties>
    </ImageClip>
    <ImageClip extentID="1145" gapBefore="0" mediaItemID="725" duration="1">
      <Effects />
      <Transitions>
        <ShaderEffect effectTemplateID="HeartTransitionTemplate" duration="1.5">
          <BoundProperties />
        </ShaderEffect>
      </Transitions>
      <BoundProperties>
        <BoundPropertyInt Name="rotateStepNinety" Value="0" />
      </BoundProperties>
    </ImageClip>
    <ImageClip extentID="1146" gapBefore="0" mediaItemID="726" duration="1">
      <Effects />
      <Transitions>
        <ShaderEffect effectTemplateID="HeartTransitionTemplate" duration="1.5">
          <BoundProperties />
        </ShaderEffect>
      </Transitions>
      <BoundProperties>
        <BoundPropertyInt Name="rotateStepNinety" Value="0" />
      </BoundProperties>
    </ImageClip>
    <ImageClip extentID="1147" gapBefore="0" mediaItemID="727" duration="1">
      <Effects />
      <Transitions>
        <ShaderEffect effectTemplateID="HeartTransitionTemplate" duration="1.5">
          <BoundProperties />
        </ShaderEffect>
      </Transitions>
      <BoundProperties>
        <BoundPropertyInt Name="rotateStepNinety" Value="0" />
      </BoundProperties>
    </ImageClip>
    <ImageClip extentID="1148" gapBefore="0" mediaItemID="728" duration="1">
      <Effects />
      <Transitions>
        <ShaderEffect effectTemplateID="HeartTransitionTemplate" duration="1.5">
          <BoundProperties />
        </ShaderEffect>
      </Transitions>
      <BoundProperties>
        <BoundPropertyInt Name="rotateStepNinety" Value="0" />
      </BoundProperties>
    </ImageClip>
    <ImageClip extentID="1149" gapBefore="0" mediaItemID="729" duration="1">
      <Effects />
      <Transitions>
        <ShaderEffect effectTemplateID="HeartTransitionTemplate" duration="1.5">
          <BoundProperties />
        </ShaderEffect>
      </Transitions>
      <BoundProperties>
        <BoundPropertyInt Name="rotateStepNinety" Value="0" />
      </BoundProperties>
    </ImageClip>
    <ImageClip extentID="1150" gapBefore="0" mediaItemID="730" duration="1">
      <Effects />
      <Transitions>
        <ShaderEffect effectTemplateID="HeartTransitionTemplate" duration="1.5">
          <BoundProperties />
        </ShaderEffect>
      </Transitions>
      <BoundProperties>
        <BoundPropertyInt Name="rotateStepNinety" Value="0" />
      </BoundProperties>
    </ImageClip>
    <ImageClip extentID="1151" gapBefore="0" mediaItemID="731" duration="1">
      <Effects />
      <Transitions>
        <ShaderEffect effectTemplateID="HeartTransitionTemplate" duration="1.5">
          <BoundProperties />
        </ShaderEffect>
      </Transitions>
      <BoundProperties>
        <BoundPropertyInt Name="rotateStepNinety" Value="0" />
      </BoundProperties>
    </ImageClip>
    <ImageClip extentID="1152" gapBefore="0" mediaItemID="732" duration="1">
      <Effects />
      <Transitions>
        <ShaderEffect effectTemplateID="HeartTransitionTemplate" duration="1.5">
          <BoundProperties />
        </ShaderEffect>
      </Transitions>
      <BoundProperties>
        <BoundPropertyInt Name="rotateStepNinety" Value="0" />
      </BoundProperties>
    </ImageClip>
    <ImageClip extentID="1153" gapBefore="0" mediaItemID="733" duration="1">
      <Effects />
      <Transitions>
        <ShaderEffect effectTemplateID="HeartTransitionTemplate" duration="1.5">
          <BoundProperties />
        </ShaderEffect>
      </Transitions>
      <BoundProperties>
        <BoundPropertyInt Name="rotateStepNinety" Value="0" />
      </BoundProperties>
    </ImageClip>
    <ImageClip extentID="1154" gapBefore="0" mediaItemID="734" duration="1">
      <Effects />
      <Transitions>
        <ShaderEffect effectTemplateID="HeartTransitionTemplate" duration="1.5">
          <BoundProperties />
        </ShaderEffect>
      </Transitions>
      <BoundProperties>
        <BoundPropertyInt Name="rotateStepNinety" Value="0" />
      </BoundProperties>
    </ImageClip>
    <ImageClip extentID="1155" gapBefore="0" mediaItemID="735" duration="1">
      <Effects />
      <Transitions>
        <ShaderEffect effectTemplateID="HeartTransitionTemplate" duration="1.5">
          <BoundProperties />
        </ShaderEffect>
      </Transitions>
      <BoundProperties>
        <BoundPropertyInt Name="rotateStepNinety" Value="0" />
      </BoundProperties>
    </ImageClip>
    <ImageClip extentID="1156" gapBefore="0" mediaItemID="736" duration="1">
      <Effects />
      <Transitions>
        <ShaderEffect effectTemplateID="HeartTransitionTemplate" duration="1.5">
          <BoundProperties />
        </ShaderEffect>
      </Transitions>
      <BoundProperties>
        <BoundPropertyInt Name="rotateStepNinety" Value="0" />
      </BoundProperties>
    </ImageClip>
    <ImageClip extentID="1157" gapBefore="0" mediaItemID="737" duration="1">
      <Effects />
      <Transitions>
        <ShaderEffect effectTemplateID="HeartTransitionTemplate" duration="1.5">
          <BoundProperties />
        </ShaderEffect>
      </Transitions>
      <BoundProperties>
        <BoundPropertyInt Name="rotateStepNinety" Value="0" />
      </BoundProperties>
    </ImageClip>
    <ImageClip extentID="1158" gapBefore="0" mediaItemID="738" duration="1">
      <Effects />
      <Transitions>
        <ShaderEffect effectTemplateID="HeartTransitionTemplate" duration="1.5">
          <BoundProperties />
        </ShaderEffect>
      </Transitions>
      <BoundProperties>
        <BoundPropertyInt Name="rotateStepNinety" Value="0" />
      </BoundProperties>
    </ImageClip>
    <ImageClip extentID="1159" gapBefore="0" mediaItemID="739" duration="1">
      <Effects />
      <Transitions>
        <ShaderEffect effectTemplateID="HeartTransitionTemplate" duration="1.5">
          <BoundProperties />
        </ShaderEffect>
      </Transitions>
      <BoundProperties>
        <BoundPropertyInt Name="rotateStepNinety" Value="0" />
      </BoundProperties>
    </ImageClip>
    <ImageClip extentID="1160" gapBefore="0" mediaItemID="740" duration="1">
      <Effects />
      <Transitions>
        <ShaderEffect effectTemplateID="HeartTransitionTemplate" duration="1.5">
          <BoundProperties />
        </ShaderEffect>
      </Transitions>
      <BoundProperties>
        <BoundPropertyInt Name="rotateStepNinety" Value="0" />
      </BoundProperties>
    </ImageClip>
    <ImageClip extentID="1161" gapBefore="0" mediaItemID="741" duration="1">
      <Effects />
      <Transitions>
        <ShaderEffect effectTemplateID="HeartTransitionTemplate" duration="1.5">
          <BoundProperties />
        </ShaderEffect>
      </Transitions>
      <BoundProperties>
        <BoundPropertyInt Name="rotateStepNinety" Value="0" />
      </BoundProperties>
    </ImageClip>
    <ImageClip extentID="1162" gapBefore="0" mediaItemID="742" duration="1">
      <Effects />
      <Transitions>
        <ShaderEffect effectTemplateID="HeartTransitionTemplate" duration="1.5">
          <BoundProperties />
        </ShaderEffect>
      </Transitions>
      <BoundProperties>
        <BoundPropertyInt Name="rotateStepNinety" Value="0" />
      </BoundProperties>
    </ImageClip>
    <ImageClip extentID="1163" gapBefore="0" mediaItemID="743" duration="1">
      <Effects />
      <Transitions>
        <ShaderEffect effectTemplateID="HeartTransitionTemplate" duration="1.5">
          <BoundProperties />
        </ShaderEffect>
      </Transitions>
      <BoundProperties>
        <BoundPropertyInt Name="rotateStepNinety" Value="0" />
      </BoundProperties>
    </ImageClip>
    <ImageClip extentID="1164" gapBefore="0" mediaItemID="744" duration="1">
      <Effects />
      <Transitions>
        <ShaderEffect effectTemplateID="HeartTransitionTemplate" duration="1.5">
          <BoundProperties />
        </ShaderEffect>
      </Transitions>
      <BoundProperties>
        <BoundPropertyInt Name="rotateStepNinety" Value="0" />
      </BoundProperties>
    </ImageClip>
    <ImageClip extentID="1165" gapBefore="0" mediaItemID="745" duration="1">
      <Effects />
      <Transitions>
        <ShaderEffect effectTemplateID="HeartTransitionTemplate" duration="1.5">
          <BoundProperties />
        </ShaderEffect>
      </Transitions>
      <BoundProperties>
        <BoundPropertyInt Name="rotateStepNinety" Value="0" />
      </BoundProperties>
    </ImageClip>
    <ImageClip extentID="1166" gapBefore="0" mediaItemID="746" duration="1">
      <Effects />
      <Transitions>
        <ShaderEffect effectTemplateID="HeartTransitionTemplate" duration="1.5">
          <BoundProperties />
        </ShaderEffect>
      </Transitions>
      <BoundProperties>
        <BoundPropertyInt Name="rotateStepNinety" Value="0" />
      </BoundProperties>
    </ImageClip>
    <ImageClip extentID="1167" gapBefore="0" mediaItemID="747" duration="1">
      <Effects />
      <Transitions>
        <ShaderEffect effectTemplateID="HeartTransitionTemplate" duration="1.5">
          <BoundProperties />
        </ShaderEffect>
      </Transitions>
      <BoundProperties>
        <BoundPropertyInt Name="rotateStepNinety" Value="0" />
      </BoundProperties>
    </ImageClip>
    <ImageClip extentID="1168" gapBefore="0" mediaItemID="748" duration="1">
      <Effects />
      <Transitions>
        <ShaderEffect effectTemplateID="HeartTransitionTemplate" duration="1.5">
          <BoundProperties />
        </ShaderEffect>
      </Transitions>
      <BoundProperties>
        <BoundPropertyInt Name="rotateStepNinety" Value="0" />
      </BoundProperties>
    </ImageClip>
    <ImageClip extentID="1169" gapBefore="0" mediaItemID="749" duration="1">
      <Effects />
      <Transitions>
        <ShaderEffect effectTemplateID="HeartTransitionTemplate" duration="1.5">
          <BoundProperties />
        </ShaderEffect>
      </Transitions>
      <BoundProperties>
        <BoundPropertyInt Name="rotateStepNinety" Value="0" />
      </BoundProperties>
    </ImageClip>
    <ImageClip extentID="1170" gapBefore="0" mediaItemID="750" duration="1">
      <Effects />
      <Transitions>
        <ShaderEffect effectTemplateID="HeartTransitionTemplate" duration="1.5">
          <BoundProperties />
        </ShaderEffect>
      </Transitions>
      <BoundProperties>
        <BoundPropertyInt Name="rotateStepNinety" Value="0" />
      </BoundProperties>
    </ImageClip>
    <ImageClip extentID="1171" gapBefore="0" mediaItemID="751" duration="1">
      <Effects />
      <Transitions>
        <ShaderEffect effectTemplateID="HeartTransitionTemplate" duration="1.5">
          <BoundProperties />
        </ShaderEffect>
      </Transitions>
      <BoundProperties>
        <BoundPropertyInt Name="rotateStepNinety" Value="0" />
      </BoundProperties>
    </ImageClip>
    <ImageClip extentID="1172" gapBefore="0" mediaItemID="752" duration="1">
      <Effects />
      <Transitions>
        <ShaderEffect effectTemplateID="HeartTransitionTemplate" duration="1.5">
          <BoundProperties />
        </ShaderEffect>
      </Transitions>
      <BoundProperties>
        <BoundPropertyInt Name="rotateStepNinety" Value="0" />
      </BoundProperties>
    </ImageClip>
    <ImageClip extentID="1173" gapBefore="0" mediaItemID="753" duration="1">
      <Effects />
      <Transitions>
        <ShaderEffect effectTemplateID="HeartTransitionTemplate" duration="1.5">
          <BoundProperties />
        </ShaderEffect>
      </Transitions>
      <BoundProperties>
        <BoundPropertyInt Name="rotateStepNinety" Value="0" />
      </BoundProperties>
    </ImageClip>
    <ImageClip extentID="1174" gapBefore="0" mediaItemID="754" duration="1">
      <Effects />
      <Transitions>
        <ShaderEffect effectTemplateID="HeartTransitionTemplate" duration="1.5">
          <BoundProperties />
        </ShaderEffect>
      </Transitions>
      <BoundProperties>
        <BoundPropertyInt Name="rotateStepNinety" Value="0" />
      </BoundProperties>
    </ImageClip>
    <ImageClip extentID="1175" gapBefore="0" mediaItemID="755" duration="1">
      <Effects />
      <Transitions>
        <ShaderEffect effectTemplateID="HeartTransitionTemplate" duration="1.5">
          <BoundProperties />
        </ShaderEffect>
      </Transitions>
      <BoundProperties>
        <BoundPropertyInt Name="rotateStepNinety" Value="0" />
      </BoundProperties>
    </ImageClip>
    <ImageClip extentID="1176" gapBefore="0" mediaItemID="756" duration="1">
      <Effects />
      <Transitions>
        <ShaderEffect effectTemplateID="HeartTransitionTemplate" duration="1.5">
          <BoundProperties />
        </ShaderEffect>
      </Transitions>
      <BoundProperties>
        <BoundPropertyInt Name="rotateStepNinety" Value="0" />
      </BoundProperties>
    </ImageClip>
    <ImageClip extentID="1178" gapBefore="0" mediaItemID="758" duration="1">
      <Effects />
      <Transitions>
        <ShaderEffect effectTemplateID="HeartTransitionTemplate" duration="1.5">
          <BoundProperties />
        </ShaderEffect>
      </Transitions>
      <BoundProperties>
        <BoundPropertyInt Name="rotateStepNinety" Value="0" />
      </BoundProperties>
    </ImageClip>
    <ImageClip extentID="1179" gapBefore="0" mediaItemID="759" duration="1">
      <Effects />
      <Transitions>
        <ShaderEffect effectTemplateID="HeartTransitionTemplate" duration="1.5">
          <BoundProperties />
        </ShaderEffect>
      </Transitions>
      <BoundProperties>
        <BoundPropertyInt Name="rotateStepNinety" Value="0" />
      </BoundProperties>
    </ImageClip>
    <ImageClip extentID="1180" gapBefore="0" mediaItemID="760" duration="1">
      <Effects />
      <Transitions>
        <ShaderEffect effectTemplateID="HeartTransitionTemplate" duration="1.5">
          <BoundProperties />
        </ShaderEffect>
      </Transitions>
      <BoundProperties>
        <BoundPropertyInt Name="rotateStepNinety" Value="0" />
      </BoundProperties>
    </ImageClip>
    <ImageClip extentID="1181" gapBefore="0" mediaItemID="761" duration="1">
      <Effects />
      <Transitions>
        <ShaderEffect effectTemplateID="HeartTransitionTemplate" duration="1.5">
          <BoundProperties />
        </ShaderEffect>
      </Transitions>
      <BoundProperties>
        <BoundPropertyInt Name="rotateStepNinety" Value="0" />
      </BoundProperties>
    </ImageClip>
    <ImageClip extentID="1182" gapBefore="0" mediaItemID="762" duration="1">
      <Effects />
      <Transitions>
        <ShaderEffect effectTemplateID="HeartTransitionTemplate" duration="1.5">
          <BoundProperties />
        </ShaderEffect>
      </Transitions>
      <BoundProperties>
        <BoundPropertyInt Name="rotateStepNinety" Value="0" />
      </BoundProperties>
    </ImageClip>
    <ImageClip extentID="1184" gapBefore="0" mediaItemID="764" duration="1">
      <Effects />
      <Transitions>
        <ShaderEffect effectTemplateID="HeartTransitionTemplate" duration="1.5">
          <BoundProperties />
        </ShaderEffect>
      </Transitions>
      <BoundProperties>
        <BoundPropertyInt Name="rotateStepNinety" Value="0" />
      </BoundProperties>
    </ImageClip>
    <ImageClip extentID="1185" gapBefore="0" mediaItemID="765" duration="1">
      <Effects />
      <Transitions>
        <ShaderEffect effectTemplateID="HeartTransitionTemplate" duration="1.5">
          <BoundProperties />
        </ShaderEffect>
      </Transitions>
      <BoundProperties>
        <BoundPropertyInt Name="rotateStepNinety" Value="0" />
      </BoundProperties>
    </ImageClip>
    <ImageClip extentID="1186" gapBefore="0" mediaItemID="766" duration="1">
      <Effects />
      <Transitions>
        <ShaderEffect effectTemplateID="HeartTransitionTemplate" duration="1.5">
          <BoundProperties />
        </ShaderEffect>
      </Transitions>
      <BoundProperties>
        <BoundPropertyInt Name="rotateStepNinety" Value="0" />
      </BoundProperties>
    </ImageClip>
    <ImageClip extentID="1187" gapBefore="0" mediaItemID="767" duration="1">
      <Effects />
      <Transitions>
        <ShaderEffect effectTemplateID="HeartTransitionTemplate" duration="1.5">
          <BoundProperties />
        </ShaderEffect>
      </Transitions>
      <BoundProperties>
        <BoundPropertyInt Name="rotateStepNinety" Value="0" />
      </BoundProperties>
    </ImageClip>
    <ImageClip extentID="1189" gapBefore="0" mediaItemID="769" duration="1">
      <Effects />
      <Transitions>
        <ShaderEffect effectTemplateID="HeartTransitionTemplate" duration="1.5">
          <BoundProperties />
        </ShaderEffect>
      </Transitions>
      <BoundProperties>
        <BoundPropertyInt Name="rotateStepNinety" Value="0" />
      </BoundProperties>
    </ImageClip>
    <ImageClip extentID="1190" gapBefore="0" mediaItemID="770" duration="1">
      <Effects />
      <Transitions>
        <ShaderEffect effectTemplateID="HeartTransitionTemplate" duration="1.5">
          <BoundProperties />
        </ShaderEffect>
      </Transitions>
      <BoundProperties>
        <BoundPropertyInt Name="rotateStepNinety" Value="0" />
      </BoundProperties>
    </ImageClip>
    <ImageClip extentID="1191" gapBefore="0" mediaItemID="771" duration="1">
      <Effects />
      <Transitions>
        <ShaderEffect effectTemplateID="HeartTransitionTemplate" duration="1.5">
          <BoundProperties />
        </ShaderEffect>
      </Transitions>
      <BoundProperties>
        <BoundPropertyInt Name="rotateStepNinety" Value="0" />
      </BoundProperties>
    </ImageClip>
    <ImageClip extentID="1192" gapBefore="0" mediaItemID="772" duration="1">
      <Effects />
      <Transitions>
        <ShaderEffect effectTemplateID="HeartTransitionTemplate" duration="1.5">
          <BoundProperties />
        </ShaderEffect>
      </Transitions>
      <BoundProperties>
        <BoundPropertyInt Name="rotateStepNinety" Value="0" />
      </BoundProperties>
    </ImageClip>
    <ImageClip extentID="1193" gapBefore="0" mediaItemID="773" duration="1">
      <Effects />
      <Transitions>
        <ShaderEffect effectTemplateID="HeartTransitionTemplate" duration="1.5">
          <BoundProperties />
        </ShaderEffect>
      </Transitions>
      <BoundProperties>
        <BoundPropertyInt Name="rotateStepNinety" Value="0" />
      </BoundProperties>
    </ImageClip>
    <ImageClip extentID="1194" gapBefore="0" mediaItemID="774" duration="1">
      <Effects />
      <Transitions>
        <ShaderEffect effectTemplateID="HeartTransitionTemplate" duration="1.5">
          <BoundProperties />
        </ShaderEffect>
      </Transitions>
      <BoundProperties>
        <BoundPropertyInt Name="rotateStepNinety" Value="0" />
      </BoundProperties>
    </ImageClip>
    <ImageClip extentID="1195" gapBefore="0" mediaItemID="775" duration="1">
      <Effects />
      <Transitions>
        <ShaderEffect effectTemplateID="HeartTransitionTemplate" duration="1.5">
          <BoundProperties />
        </ShaderEffect>
      </Transitions>
      <BoundProperties>
        <BoundPropertyInt Name="rotateStepNinety" Value="0" />
      </BoundProperties>
    </ImageClip>
    <ImageClip extentID="1198" gapBefore="0" mediaItemID="778" duration="1">
      <Effects />
      <Transitions>
        <ShaderEffect effectTemplateID="HeartTransitionTemplate" duration="1.5">
          <BoundProperties />
        </ShaderEffect>
      </Transitions>
      <BoundProperties>
        <BoundPropertyInt Name="rotateStepNinety" Value="0" />
      </BoundProperties>
    </ImageClip>
    <ImageClip extentID="1199" gapBefore="0" mediaItemID="779" duration="1">
      <Effects />
      <Transitions>
        <ShaderEffect effectTemplateID="HeartTransitionTemplate" duration="1.5">
          <BoundProperties />
        </ShaderEffect>
      </Transitions>
      <BoundProperties>
        <BoundPropertyInt Name="rotateStepNinety" Value="0" />
      </BoundProperties>
    </ImageClip>
    <ImageClip extentID="1200" gapBefore="0" mediaItemID="780" duration="1">
      <Effects />
      <Transitions>
        <ShaderEffect effectTemplateID="HeartTransitionTemplate" duration="1.5">
          <BoundProperties />
        </ShaderEffect>
      </Transitions>
      <BoundProperties>
        <BoundPropertyInt Name="rotateStepNinety" Value="0" />
      </BoundProperties>
    </ImageClip>
    <ImageClip extentID="1201" gapBefore="0" mediaItemID="781" duration="1">
      <Effects />
      <Transitions>
        <ShaderEffect effectTemplateID="HeartTransitionTemplate" duration="1.5">
          <BoundProperties />
        </ShaderEffect>
      </Transitions>
      <BoundProperties>
        <BoundPropertyInt Name="rotateStepNinety" Value="0" />
      </BoundProperties>
    </ImageClip>
    <ImageClip extentID="1202" gapBefore="0" mediaItemID="782" duration="1">
      <Effects />
      <Transitions>
        <ShaderEffect effectTemplateID="HeartTransitionTemplate" duration="1.5">
          <BoundProperties />
        </ShaderEffect>
      </Transitions>
      <BoundProperties>
        <BoundPropertyInt Name="rotateStepNinety" Value="0" />
      </BoundProperties>
    </ImageClip>
    <ImageClip extentID="1203" gapBefore="0" mediaItemID="783" duration="1">
      <Effects />
      <Transitions>
        <ShaderEffect effectTemplateID="HeartTransitionTemplate" duration="1.5">
          <BoundProperties />
        </ShaderEffect>
      </Transitions>
      <BoundProperties>
        <BoundPropertyInt Name="rotateStepNinety" Value="0" />
      </BoundProperties>
    </ImageClip>
    <ImageClip extentID="1204" gapBefore="0" mediaItemID="784" duration="1">
      <Effects />
      <Transitions>
        <ShaderEffect effectTemplateID="HeartTransitionTemplate" duration="1.5">
          <BoundProperties />
        </ShaderEffect>
      </Transitions>
      <BoundProperties>
        <BoundPropertyInt Name="rotateStepNinety" Value="0" />
      </BoundProperties>
    </ImageClip>
    <ImageClip extentID="1205" gapBefore="0" mediaItemID="785" duration="1">
      <Effects />
      <Transitions>
        <ShaderEffect effectTemplateID="HeartTransitionTemplate" duration="1.5">
          <BoundProperties />
        </ShaderEffect>
      </Transitions>
      <BoundProperties>
        <BoundPropertyInt Name="rotateStepNinety" Value="0" />
      </BoundProperties>
    </ImageClip>
    <ImageClip extentID="1206" gapBefore="0" mediaItemID="786" duration="1">
      <Effects />
      <Transitions>
        <ShaderEffect effectTemplateID="HeartTransitionTemplate" duration="1.5">
          <BoundProperties />
        </ShaderEffect>
      </Transitions>
      <BoundProperties>
        <BoundPropertyInt Name="rotateStepNinety" Value="0" />
      </BoundProperties>
    </ImageClip>
    <ImageClip extentID="1207" gapBefore="0" mediaItemID="787" duration="1">
      <Effects />
      <Transitions>
        <ShaderEffect effectTemplateID="HeartTransitionTemplate" duration="1.5">
          <BoundProperties />
        </ShaderEffect>
      </Transitions>
      <BoundProperties>
        <BoundPropertyInt Name="rotateStepNinety" Value="0" />
      </BoundProperties>
    </ImageClip>
    <ImageClip extentID="1208" gapBefore="0" mediaItemID="788" duration="1">
      <Effects />
      <Transitions>
        <ShaderEffect effectTemplateID="HeartTransitionTemplate" duration="1.5">
          <BoundProperties />
        </ShaderEffect>
      </Transitions>
      <BoundProperties>
        <BoundPropertyInt Name="rotateStepNinety" Value="0" />
      </BoundProperties>
    </ImageClip>
    <ImageClip extentID="1209" gapBefore="0" mediaItemID="789" duration="1">
      <Effects />
      <Transitions>
        <ShaderEffect effectTemplateID="HeartTransitionTemplate" duration="1.5">
          <BoundProperties />
        </ShaderEffect>
      </Transitions>
      <BoundProperties>
        <BoundPropertyInt Name="rotateStepNinety" Value="0" />
      </BoundProperties>
    </ImageClip>
    <ImageClip extentID="1210" gapBefore="0" mediaItemID="790" duration="1">
      <Effects />
      <Transitions>
        <ShaderEffect effectTemplateID="HeartTransitionTemplate" duration="1.5">
          <BoundProperties />
        </ShaderEffect>
      </Transitions>
      <BoundProperties>
        <BoundPropertyInt Name="rotateStepNinety" Value="0" />
      </BoundProperties>
    </ImageClip>
    <ImageClip extentID="1211" gapBefore="0" mediaItemID="791" duration="1">
      <Effects />
      <Transitions>
        <ShaderEffect effectTemplateID="HeartTransitionTemplate" duration="1.5">
          <BoundProperties />
        </ShaderEffect>
      </Transitions>
      <BoundProperties>
        <BoundPropertyInt Name="rotateStepNinety" Value="0" />
      </BoundProperties>
    </ImageClip>
    <ImageClip extentID="1213" gapBefore="0" mediaItemID="793" duration="1">
      <Effects />
      <Transitions>
        <ShaderEffect effectTemplateID="HeartTransitionTemplate" duration="1.5">
          <BoundProperties />
        </ShaderEffect>
      </Transitions>
      <BoundProperties>
        <BoundPropertyInt Name="rotateStepNinety" Value="0" />
      </BoundProperties>
    </ImageClip>
    <ImageClip extentID="1215" gapBefore="0" mediaItemID="795" duration="1">
      <Effects />
      <Transitions>
        <ShaderEffect effectTemplateID="HeartTransitionTemplate" duration="1.5">
          <BoundProperties />
        </ShaderEffect>
      </Transitions>
      <BoundProperties>
        <BoundPropertyInt Name="rotateStepNinety" Value="0" />
      </BoundProperties>
    </ImageClip>
    <ImageClip extentID="1216" gapBefore="0" mediaItemID="796" duration="1">
      <Effects />
      <Transitions>
        <ShaderEffect effectTemplateID="HeartTransitionTemplate" duration="1.5">
          <BoundProperties />
        </ShaderEffect>
      </Transitions>
      <BoundProperties>
        <BoundPropertyInt Name="rotateStepNinety" Value="0" />
      </BoundProperties>
    </ImageClip>
    <ImageClip extentID="1217" gapBefore="0" mediaItemID="797" duration="1">
      <Effects />
      <Transitions>
        <ShaderEffect effectTemplateID="HeartTransitionTemplate" duration="1.5">
          <BoundProperties />
        </ShaderEffect>
      </Transitions>
      <BoundProperties>
        <BoundPropertyInt Name="rotateStepNinety" Value="0" />
      </BoundProperties>
    </ImageClip>
    <ImageClip extentID="1218" gapBefore="0" mediaItemID="798" duration="1">
      <Effects />
      <Transitions>
        <ShaderEffect effectTemplateID="HeartTransitionTemplate" duration="1.5">
          <BoundProperties />
        </ShaderEffect>
      </Transitions>
      <BoundProperties>
        <BoundPropertyInt Name="rotateStepNinety" Value="0" />
      </BoundProperties>
    </ImageClip>
    <ImageClip extentID="1219" gapBefore="0" mediaItemID="799" duration="1">
      <Effects />
      <Transitions>
        <ShaderEffect effectTemplateID="HeartTransitionTemplate" duration="1.5">
          <BoundProperties />
        </ShaderEffect>
      </Transitions>
      <BoundProperties>
        <BoundPropertyInt Name="rotateStepNinety" Value="0" />
      </BoundProperties>
    </ImageClip>
    <ImageClip extentID="1220" gapBefore="0" mediaItemID="800" duration="1">
      <Effects />
      <Transitions>
        <ShaderEffect effectTemplateID="HeartTransitionTemplate" duration="1.5">
          <BoundProperties />
        </ShaderEffect>
      </Transitions>
      <BoundProperties>
        <BoundPropertyInt Name="rotateStepNinety" Value="0" />
      </BoundProperties>
    </ImageClip>
    <ImageClip extentID="1221" gapBefore="0" mediaItemID="801" duration="1">
      <Effects />
      <Transitions>
        <ShaderEffect effectTemplateID="HeartTransitionTemplate" duration="1.5">
          <BoundProperties />
        </ShaderEffect>
      </Transitions>
      <BoundProperties>
        <BoundPropertyInt Name="rotateStepNinety" Value="0" />
      </BoundProperties>
    </ImageClip>
    <ImageClip extentID="1222" gapBefore="0" mediaItemID="802" duration="1">
      <Effects />
      <Transitions>
        <ShaderEffect effectTemplateID="HeartTransitionTemplate" duration="1.5">
          <BoundProperties />
        </ShaderEffect>
      </Transitions>
      <BoundProperties>
        <BoundPropertyInt Name="rotateStepNinety" Value="0" />
      </BoundProperties>
    </ImageClip>
    <ImageClip extentID="1227" gapBefore="0" mediaItemID="807" duration="1">
      <Effects />
      <Transitions>
        <ShaderEffect effectTemplateID="HeartTransitionTemplate" duration="1.5">
          <BoundProperties />
        </ShaderEffect>
      </Transitions>
      <BoundProperties>
        <BoundPropertyInt Name="rotateStepNinety" Value="0" />
      </BoundProperties>
    </ImageClip>
    <ImageClip extentID="1229" gapBefore="0" mediaItemID="299" duration="1">
      <Effects />
      <Transitions>
        <ShapeEffect effectTemplateID="CrossfadeTransitionTemplate" duration="1.5">
          <BoundProperties />
        </ShapeEffect>
      </Transitions>
      <BoundProperties>
        <BoundPropertyInt Name="rotateStepNinety" Value="0" />
      </BoundProperties>
    </ImageClip>
    <ImageClip extentID="1230" gapBefore="0" mediaItemID="372" duration="1">
      <Effects />
      <Transitions>
        <ShapeEffect effectTemplateID="CrossfadeTransitionTemplate" duration="1.5">
          <BoundProperties />
        </ShapeEffect>
      </Transitions>
      <BoundProperties>
        <BoundPropertyInt Name="rotateStepNinety" Value="0" />
      </BoundProperties>
    </ImageClip>
    <ImageClip extentID="1231" gapBefore="0" mediaItemID="477" duration="1">
      <Effects />
      <Transitions>
        <ShaderEffect effectTemplateID="HeartTransitionTemplate" duration="1.5">
          <BoundProperties />
        </ShaderEffect>
      </Transitions>
      <BoundProperties>
        <BoundPropertyInt Name="rotateStepNinety" Value="0" />
      </BoundProperties>
    </ImageClip>
    <ImageClip extentID="1232" gapBefore="0" mediaItemID="663" duration="1">
      <Effects />
      <Transitions>
        <ShaderEffect effectTemplateID="HeartTransitionTemplate" duration="1.5">
          <BoundProperties />
        </ShaderEffect>
      </Transitions>
      <BoundProperties>
        <BoundPropertyInt Name="rotateStepNinety" Value="0" />
      </BoundProperties>
    </ImageClip>
    <ImageClip extentID="1241" gapBefore="0" mediaItemID="3" duration="1">
      <Effects />
      <Transitions>
        <ShapeEffect effectTemplateID="CrossfadeTransitionTemplate" duration="1.5">
          <BoundProperties />
        </ShapeEffect>
      </Transitions>
      <BoundProperties>
        <BoundPropertyInt Name="rotateStepNinety" Value="1" />
      </BoundProperties>
    </ImageClip>
    <ImageClip extentID="1242" gapBefore="0" mediaItemID="4" duration="1">
      <Effects />
      <Transitions>
        <ShapeEffect effectTemplateID="CrossfadeTransitionTemplate" duration="1.5">
          <BoundProperties />
        </ShapeEffect>
      </Transitions>
      <BoundProperties>
        <BoundPropertyInt Name="rotateStepNinety" Value="2" />
      </BoundProperties>
    </ImageClip>
    <ImageClip extentID="444" gapBefore="0" mediaItemID="5" duration="1">
      <Effects />
      <Transitions>
        <ShapeEffect effectTemplateID="CrossfadeTransitionTemplate" duration="1.5">
          <BoundProperties />
        </ShapeEffect>
      </Transitions>
      <BoundProperties>
        <BoundPropertyInt Name="rotateStepNinety" Value="1" />
      </BoundProperties>
    </ImageClip>
    <ImageClip extentID="445" gapBefore="0" mediaItemID="6" duration="1">
      <Effects />
      <Transitions>
        <ShapeEffect effectTemplateID="CrossfadeTransitionTemplate" duration="1.5">
          <BoundProperties />
        </ShapeEffect>
      </Transitions>
      <BoundProperties>
        <BoundPropertyInt Name="rotateStepNinety" Value="0" />
      </BoundProperties>
    </ImageClip>
    <ImageClip extentID="446" gapBefore="0" mediaItemID="7" duration="1">
      <Effects />
      <Transitions>
        <ShapeEffect effectTemplateID="CrossfadeTransitionTemplate" duration="1.5">
          <BoundProperties />
        </ShapeEffect>
      </Transitions>
      <BoundProperties>
        <BoundPropertyInt Name="rotateStepNinety" Value="0" />
      </BoundProperties>
    </ImageClip>
    <ImageClip extentID="447" gapBefore="0" mediaItemID="8" duration="1">
      <Effects />
      <Transitions>
        <ShapeEffect effectTemplateID="CrossfadeTransitionTemplate" duration="1.5">
          <BoundProperties />
        </ShapeEffect>
      </Transitions>
      <BoundProperties>
        <BoundPropertyInt Name="rotateStepNinety" Value="1" />
      </BoundProperties>
    </ImageClip>
    <ImageClip extentID="450" gapBefore="0" mediaItemID="11" duration="1">
      <Effects />
      <Transitions>
        <ShapeEffect effectTemplateID="CrossfadeTransitionTemplate" duration="1.5">
          <BoundProperties />
        </ShapeEffect>
      </Transitions>
      <BoundProperties>
        <BoundPropertyInt Name="rotateStepNinety" Value="0" />
      </BoundProperties>
    </ImageClip>
    <ImageClip extentID="451" gapBefore="0" mediaItemID="12" duration="1">
      <Effects />
      <Transitions>
        <ShapeEffect effectTemplateID="CrossfadeTransitionTemplate" duration="1.5">
          <BoundProperties />
        </ShapeEffect>
      </Transitions>
      <BoundProperties>
        <BoundPropertyInt Name="rotateStepNinety" Value="1" />
      </BoundProperties>
    </ImageClip>
    <ImageClip extentID="452" gapBefore="0" mediaItemID="13" duration="1">
      <Effects />
      <Transitions>
        <ShapeEffect effectTemplateID="CrossfadeTransitionTemplate" duration="1.5">
          <BoundProperties />
        </ShapeEffect>
      </Transitions>
      <BoundProperties>
        <BoundPropertyInt Name="rotateStepNinety" Value="0" />
      </BoundProperties>
    </ImageClip>
    <ImageClip extentID="453" gapBefore="0" mediaItemID="14" duration="1">
      <Effects />
      <Transitions>
        <ShapeEffect effectTemplateID="CrossfadeTransitionTemplate" duration="1.5">
          <BoundProperties />
        </ShapeEffect>
      </Transitions>
      <BoundProperties>
        <BoundPropertyInt Name="rotateStepNinety" Value="0" />
      </BoundProperties>
    </ImageClip>
    <ImageClip extentID="455" gapBefore="0" mediaItemID="17" duration="1">
      <Effects />
      <Transitions>
        <ShapeEffect effectTemplateID="CrossfadeTransitionTemplate" duration="1.5">
          <BoundProperties />
        </ShapeEffect>
      </Transitions>
      <BoundProperties>
        <BoundPropertyInt Name="rotateStepNinety" Value="0" />
      </BoundProperties>
    </ImageClip>
    <ImageClip extentID="463" gapBefore="0" mediaItemID="25" duration="1">
      <Effects />
      <Transitions>
        <ShapeEffect effectTemplateID="CrossfadeTransitionTemplate" duration="1.5">
          <BoundProperties />
        </ShapeEffect>
      </Transitions>
      <BoundProperties>
        <BoundPropertyInt Name="rotateStepNinety" Value="0" />
      </BoundProperties>
    </ImageClip>
    <ImageClip extentID="464" gapBefore="0" mediaItemID="26" duration="1">
      <Effects />
      <Transitions>
        <ShapeEffect effectTemplateID="CrossfadeTransitionTemplate" duration="1.5">
          <BoundProperties />
        </ShapeEffect>
      </Transitions>
      <BoundProperties>
        <BoundPropertyInt Name="rotateStepNinety" Value="0" />
      </BoundProperties>
    </ImageClip>
    <ImageClip extentID="465" gapBefore="0" mediaItemID="27" duration="1">
      <Effects />
      <Transitions>
        <ShapeEffect effectTemplateID="CrossfadeTransitionTemplate" duration="1.5">
          <BoundProperties />
        </ShapeEffect>
      </Transitions>
      <BoundProperties>
        <BoundPropertyInt Name="rotateStepNinety" Value="0" />
      </BoundProperties>
    </ImageClip>
    <ImageClip extentID="466" gapBefore="0" mediaItemID="28" duration="1">
      <Effects />
      <Transitions>
        <ShapeEffect effectTemplateID="CrossfadeTransitionTemplate" duration="1.5">
          <BoundProperties />
        </ShapeEffect>
      </Transitions>
      <BoundProperties>
        <BoundPropertyInt Name="rotateStepNinety" Value="1" />
      </BoundProperties>
    </ImageClip>
    <ImageClip extentID="467" gapBefore="0" mediaItemID="29" duration="1">
      <Effects />
      <Transitions>
        <ShapeEffect effectTemplateID="CrossfadeTransitionTemplate" duration="1.5">
          <BoundProperties />
        </ShapeEffect>
      </Transitions>
      <BoundProperties>
        <BoundPropertyInt Name="rotateStepNinety" Value="3" />
      </BoundProperties>
    </ImageClip>
    <ImageClip extentID="468" gapBefore="0" mediaItemID="30" duration="1">
      <Effects />
      <Transitions>
        <ShapeEffect effectTemplateID="CrossfadeTransitionTemplate" duration="1.5">
          <BoundProperties />
        </ShapeEffect>
      </Transitions>
      <BoundProperties>
        <BoundPropertyInt Name="rotateStepNinety" Value="0" />
      </BoundProperties>
    </ImageClip>
    <ImageClip extentID="469" gapBefore="0" mediaItemID="31" duration="1">
      <Effects />
      <Transitions>
        <ShapeEffect effectTemplateID="CrossfadeTransitionTemplate" duration="1.5">
          <BoundProperties />
        </ShapeEffect>
      </Transitions>
      <BoundProperties>
        <BoundPropertyInt Name="rotateStepNinety" Value="0" />
      </BoundProperties>
    </ImageClip>
    <ImageClip extentID="470" gapBefore="0" mediaItemID="36" duration="1">
      <Effects />
      <Transitions>
        <ShapeEffect effectTemplateID="CrossfadeTransitionTemplate" duration="1.5">
          <BoundProperties />
        </ShapeEffect>
      </Transitions>
      <BoundProperties>
        <BoundPropertyInt Name="rotateStepNinety" Value="3" />
      </BoundProperties>
    </ImageClip>
    <ImageClip extentID="471" gapBefore="0" mediaItemID="37" duration="1">
      <Effects />
      <Transitions>
        <ShapeEffect effectTemplateID="CrossfadeTransitionTemplate" duration="1.5">
          <BoundProperties />
        </ShapeEffect>
      </Transitions>
      <BoundProperties>
        <BoundPropertyInt Name="rotateStepNinety" Value="0" />
      </BoundProperties>
    </ImageClip>
    <ImageClip extentID="472" gapBefore="0" mediaItemID="38" duration="1">
      <Effects />
      <Transitions>
        <ShapeEffect effectTemplateID="CrossfadeTransitionTemplate" duration="1.5">
          <BoundProperties />
        </ShapeEffect>
      </Transitions>
      <BoundProperties>
        <BoundPropertyInt Name="rotateStepNinety" Value="0" />
      </BoundProperties>
    </ImageClip>
    <ImageClip extentID="473" gapBefore="0" mediaItemID="39" duration="1">
      <Effects />
      <Transitions>
        <ShapeEffect effectTemplateID="CrossfadeTransitionTemplate" duration="1.5">
          <BoundProperties />
        </ShapeEffect>
      </Transitions>
      <BoundProperties>
        <BoundPropertyInt Name="rotateStepNinety" Value="0" />
      </BoundProperties>
    </ImageClip>
    <ImageClip extentID="474" gapBefore="0" mediaItemID="40" duration="1">
      <Effects />
      <Transitions>
        <ShapeEffect effectTemplateID="CrossfadeTransitionTemplate" duration="1.5">
          <BoundProperties />
        </ShapeEffect>
      </Transitions>
      <BoundProperties>
        <BoundPropertyInt Name="rotateStepNinety" Value="0" />
      </BoundProperties>
    </ImageClip>
    <ImageClip extentID="475" gapBefore="0" mediaItemID="41" duration="1">
      <Effects />
      <Transitions>
        <ShapeEffect effectTemplateID="CrossfadeTransitionTemplate" duration="1.5">
          <BoundProperties />
        </ShapeEffect>
      </Transitions>
      <BoundProperties>
        <BoundPropertyInt Name="rotateStepNinety" Value="1" />
      </BoundProperties>
    </ImageClip>
    <ImageClip extentID="476" gapBefore="0" mediaItemID="42" duration="1">
      <Effects />
      <Transitions>
        <ShapeEffect effectTemplateID="CrossfadeTransitionTemplate" duration="1.5">
          <BoundProperties />
        </ShapeEffect>
      </Transitions>
      <BoundProperties>
        <BoundPropertyInt Name="rotateStepNinety" Value="1" />
      </BoundProperties>
    </ImageClip>
    <ImageClip extentID="477" gapBefore="0" mediaItemID="43" duration="1">
      <Effects />
      <Transitions>
        <ShapeEffect effectTemplateID="CrossfadeTransitionTemplate" duration="1.5">
          <BoundProperties />
        </ShapeEffect>
      </Transitions>
      <BoundProperties>
        <BoundPropertyInt Name="rotateStepNinety" Value="1" />
      </BoundProperties>
    </ImageClip>
    <ImageClip extentID="478" gapBefore="0" mediaItemID="44" duration="1">
      <Effects />
      <Transitions>
        <ShapeEffect effectTemplateID="CrossfadeTransitionTemplate" duration="1.5">
          <BoundProperties />
        </ShapeEffect>
      </Transitions>
      <BoundProperties>
        <BoundPropertyInt Name="rotateStepNinety" Value="1" />
      </BoundProperties>
    </ImageClip>
    <ImageClip extentID="479" gapBefore="0" mediaItemID="45" duration="1">
      <Effects />
      <Transitions>
        <ShapeEffect effectTemplateID="CrossfadeTransitionTemplate" duration="1.5">
          <BoundProperties />
        </ShapeEffect>
      </Transitions>
      <BoundProperties>
        <BoundPropertyInt Name="rotateStepNinety" Value="3" />
      </BoundProperties>
    </ImageClip>
    <ImageClip extentID="481" gapBefore="0" mediaItemID="47" duration="1">
      <Effects />
      <Transitions>
        <ShapeEffect effectTemplateID="CrossfadeTransitionTemplate" duration="1.5">
          <BoundProperties />
        </ShapeEffect>
      </Transitions>
      <BoundProperties>
        <BoundPropertyInt Name="rotateStepNinety" Value="0" />
      </BoundProperties>
    </ImageClip>
    <ImageClip extentID="482" gapBefore="0" mediaItemID="48" duration="1">
      <Effects />
      <Transitions>
        <ShapeEffect effectTemplateID="CrossfadeTransitionTemplate" duration="1.5">
          <BoundProperties />
        </ShapeEffect>
      </Transitions>
      <BoundProperties>
        <BoundPropertyInt Name="rotateStepNinety" Value="0" />
      </BoundProperties>
    </ImageClip>
    <ImageClip extentID="483" gapBefore="0" mediaItemID="49" duration="1">
      <Effects />
      <Transitions>
        <ShapeEffect effectTemplateID="CrossfadeTransitionTemplate" duration="1.5">
          <BoundProperties />
        </ShapeEffect>
      </Transitions>
      <BoundProperties>
        <BoundPropertyInt Name="rotateStepNinety" Value="0" />
      </BoundProperties>
    </ImageClip>
    <ImageClip extentID="484" gapBefore="0" mediaItemID="50" duration="1">
      <Effects />
      <Transitions>
        <ShapeEffect effectTemplateID="CrossfadeTransitionTemplate" duration="1.5">
          <BoundProperties />
        </ShapeEffect>
      </Transitions>
      <BoundProperties>
        <BoundPropertyInt Name="rotateStepNinety" Value="3" />
      </BoundProperties>
    </ImageClip>
    <ImageClip extentID="485" gapBefore="0" mediaItemID="51" duration="1">
      <Effects />
      <Transitions>
        <ShapeEffect effectTemplateID="CrossfadeTransitionTemplate" duration="1.5">
          <BoundProperties />
        </ShapeEffect>
      </Transitions>
      <BoundProperties>
        <BoundPropertyInt Name="rotateStepNinety" Value="3" />
      </BoundProperties>
    </ImageClip>
    <ImageClip extentID="488" gapBefore="0" mediaItemID="54" duration="1">
      <Effects />
      <Transitions>
        <ShapeEffect effectTemplateID="CrossfadeTransitionTemplate" duration="1.5">
          <BoundProperties />
        </ShapeEffect>
      </Transitions>
      <BoundProperties>
        <BoundPropertyInt Name="rotateStepNinety" Value="0" />
      </BoundProperties>
    </ImageClip>
    <ImageClip extentID="489" gapBefore="0" mediaItemID="55" duration="1">
      <Effects />
      <Transitions>
        <ShapeEffect effectTemplateID="CrossfadeTransitionTemplate" duration="1.5">
          <BoundProperties />
        </ShapeEffect>
      </Transitions>
      <BoundProperties>
        <BoundPropertyInt Name="rotateStepNinety" Value="0" />
      </BoundProperties>
    </ImageClip>
    <ImageClip extentID="490" gapBefore="0" mediaItemID="56" duration="1">
      <Effects />
      <Transitions>
        <ShapeEffect effectTemplateID="CrossfadeTransitionTemplate" duration="1.5">
          <BoundProperties />
        </ShapeEffect>
      </Transitions>
      <BoundProperties>
        <BoundPropertyInt Name="rotateStepNinety" Value="0" />
      </BoundProperties>
    </ImageClip>
    <ImageClip extentID="505" gapBefore="0" mediaItemID="71" duration="1">
      <Effects />
      <Transitions>
        <ShapeEffect effectTemplateID="CrossfadeTransitionTemplate" duration="1.5">
          <BoundProperties />
        </ShapeEffect>
      </Transitions>
      <BoundProperties>
        <BoundPropertyInt Name="rotateStepNinety" Value="0" />
      </BoundProperties>
    </ImageClip>
    <ImageClip extentID="507" gapBefore="0" mediaItemID="73" duration="1">
      <Effects />
      <Transitions>
        <ShapeEffect effectTemplateID="CrossfadeTransitionTemplate" duration="1.5">
          <BoundProperties />
        </ShapeEffect>
      </Transitions>
      <BoundProperties>
        <BoundPropertyInt Name="rotateStepNinety" Value="0" />
      </BoundProperties>
    </ImageClip>
    <ImageClip extentID="509" gapBefore="0" mediaItemID="75" duration="1">
      <Effects />
      <Transitions>
        <ShapeEffect effectTemplateID="CrossfadeTransitionTemplate" duration="1.5">
          <BoundProperties />
        </ShapeEffect>
      </Transitions>
      <BoundProperties>
        <BoundPropertyInt Name="rotateStepNinety" Value="0" />
      </BoundProperties>
    </ImageClip>
    <ImageClip extentID="510" gapBefore="0" mediaItemID="76" duration="1">
      <Effects />
      <Transitions>
        <ShapeEffect effectTemplateID="CrossfadeTransitionTemplate" duration="1.5">
          <BoundProperties />
        </ShapeEffect>
      </Transitions>
      <BoundProperties>
        <BoundPropertyInt Name="rotateStepNinety" Value="0" />
      </BoundProperties>
    </ImageClip>
    <ImageClip extentID="511" gapBefore="0" mediaItemID="77" duration="1">
      <Effects />
      <Transitions>
        <ShapeEffect effectTemplateID="CrossfadeTransitionTemplate" duration="1.5">
          <BoundProperties />
        </ShapeEffect>
      </Transitions>
      <BoundProperties>
        <BoundPropertyInt Name="rotateStepNinety" Value="0" />
      </BoundProperties>
    </ImageClip>
    <ImageClip extentID="512" gapBefore="0" mediaItemID="78" duration="1">
      <Effects />
      <Transitions>
        <ShapeEffect effectTemplateID="CrossfadeTransitionTemplate" duration="1.5">
          <BoundProperties />
        </ShapeEffect>
      </Transitions>
      <BoundProperties>
        <BoundPropertyInt Name="rotateStepNinety" Value="0" />
      </BoundProperties>
    </ImageClip>
    <ImageClip extentID="513" gapBefore="0" mediaItemID="79" duration="1">
      <Effects />
      <Transitions>
        <ShapeEffect effectTemplateID="CrossfadeTransitionTemplate" duration="1.5">
          <BoundProperties />
        </ShapeEffect>
      </Transitions>
      <BoundProperties>
        <BoundPropertyInt Name="rotateStepNinety" Value="0" />
      </BoundProperties>
    </ImageClip>
    <ImageClip extentID="514" gapBefore="0" mediaItemID="80" duration="1">
      <Effects />
      <Transitions>
        <ShapeEffect effectTemplateID="CrossfadeTransitionTemplate" duration="1.5">
          <BoundProperties />
        </ShapeEffect>
      </Transitions>
      <BoundProperties>
        <BoundPropertyInt Name="rotateStepNinety" Value="0" />
      </BoundProperties>
    </ImageClip>
    <ImageClip extentID="515" gapBefore="0" mediaItemID="81" duration="1">
      <Effects />
      <Transitions>
        <ShapeEffect effectTemplateID="CrossfadeTransitionTemplate" duration="1.5">
          <BoundProperties />
        </ShapeEffect>
      </Transitions>
      <BoundProperties>
        <BoundPropertyInt Name="rotateStepNinety" Value="0" />
      </BoundProperties>
    </ImageClip>
    <ImageClip extentID="516" gapBefore="0" mediaItemID="82" duration="1">
      <Effects />
      <Transitions>
        <ShapeEffect effectTemplateID="CrossfadeTransitionTemplate" duration="1.5">
          <BoundProperties />
        </ShapeEffect>
      </Transitions>
      <BoundProperties>
        <BoundPropertyInt Name="rotateStepNinety" Value="0" />
      </BoundProperties>
    </ImageClip>
    <ImageClip extentID="517" gapBefore="0" mediaItemID="83" duration="1">
      <Effects />
      <Transitions>
        <ShapeEffect effectTemplateID="CrossfadeTransitionTemplate" duration="1.5">
          <BoundProperties />
        </ShapeEffect>
      </Transitions>
      <BoundProperties>
        <BoundPropertyInt Name="rotateStepNinety" Value="0" />
      </BoundProperties>
    </ImageClip>
    <ImageClip extentID="518" gapBefore="0" mediaItemID="84" duration="1">
      <Effects />
      <Transitions>
        <ShapeEffect effectTemplateID="CrossfadeTransitionTemplate" duration="1.5">
          <BoundProperties />
        </ShapeEffect>
      </Transitions>
      <BoundProperties>
        <BoundPropertyInt Name="rotateStepNinety" Value="0" />
      </BoundProperties>
    </ImageClip>
    <ImageClip extentID="519" gapBefore="0" mediaItemID="85" duration="1">
      <Effects />
      <Transitions>
        <ShapeEffect effectTemplateID="CrossfadeTransitionTemplate" duration="1.5">
          <BoundProperties />
        </ShapeEffect>
      </Transitions>
      <BoundProperties>
        <BoundPropertyInt Name="rotateStepNinety" Value="0" />
      </BoundProperties>
    </ImageClip>
    <ImageClip extentID="520" gapBefore="0" mediaItemID="86" duration="1">
      <Effects />
      <Transitions>
        <ShapeEffect effectTemplateID="CrossfadeTransitionTemplate" duration="1.5">
          <BoundProperties />
        </ShapeEffect>
      </Transitions>
      <BoundProperties>
        <BoundPropertyInt Name="rotateStepNinety" Value="0" />
      </BoundProperties>
    </ImageClip>
    <ImageClip extentID="521" gapBefore="0" mediaItemID="87" duration="1">
      <Effects />
      <Transitions>
        <ShapeEffect effectTemplateID="CrossfadeTransitionTemplate" duration="1.5">
          <BoundProperties />
        </ShapeEffect>
      </Transitions>
      <BoundProperties>
        <BoundPropertyInt Name="rotateStepNinety" Value="0" />
      </BoundProperties>
    </ImageClip>
    <ImageClip extentID="522" gapBefore="0" mediaItemID="88" duration="1">
      <Effects />
      <Transitions>
        <ShapeEffect effectTemplateID="CrossfadeTransitionTemplate" duration="1.5">
          <BoundProperties />
        </ShapeEffect>
      </Transitions>
      <BoundProperties>
        <BoundPropertyInt Name="rotateStepNinety" Value="0" />
      </BoundProperties>
    </ImageClip>
    <ImageClip extentID="523" gapBefore="0" mediaItemID="89" duration="1">
      <Effects />
      <Transitions>
        <ShapeEffect effectTemplateID="CrossfadeTransitionTemplate" duration="1.5">
          <BoundProperties />
        </ShapeEffect>
      </Transitions>
      <BoundProperties>
        <BoundPropertyInt Name="rotateStepNinety" Value="0" />
      </BoundProperties>
    </ImageClip>
    <ImageClip extentID="524" gapBefore="0" mediaItemID="90" duration="1">
      <Effects />
      <Transitions>
        <ShapeEffect effectTemplateID="CrossfadeTransitionTemplate" duration="1.5">
          <BoundProperties />
        </ShapeEffect>
      </Transitions>
      <BoundProperties>
        <BoundPropertyInt Name="rotateStepNinety" Value="0" />
      </BoundProperties>
    </ImageClip>
    <ImageClip extentID="525" gapBefore="0" mediaItemID="91" duration="1">
      <Effects />
      <Transitions>
        <ShapeEffect effectTemplateID="CrossfadeTransitionTemplate" duration="1.5">
          <BoundProperties />
        </ShapeEffect>
      </Transitions>
      <BoundProperties>
        <BoundPropertyInt Name="rotateStepNinety" Value="0" />
      </BoundProperties>
    </ImageClip>
    <ImageClip extentID="526" gapBefore="0" mediaItemID="92" duration="1">
      <Effects />
      <Transitions>
        <ShapeEffect effectTemplateID="CrossfadeTransitionTemplate" duration="1.5">
          <BoundProperties />
        </ShapeEffect>
      </Transitions>
      <BoundProperties>
        <BoundPropertyInt Name="rotateStepNinety" Value="0" />
      </BoundProperties>
    </ImageClip>
    <ImageClip extentID="527" gapBefore="0" mediaItemID="93" duration="1">
      <Effects />
      <Transitions>
        <ShapeEffect effectTemplateID="CrossfadeTransitionTemplate" duration="1.5">
          <BoundProperties />
        </ShapeEffect>
      </Transitions>
      <BoundProperties>
        <BoundPropertyInt Name="rotateStepNinety" Value="0" />
      </BoundProperties>
    </ImageClip>
    <ImageClip extentID="528" gapBefore="0" mediaItemID="94" duration="1">
      <Effects />
      <Transitions>
        <ShapeEffect effectTemplateID="CrossfadeTransitionTemplate" duration="1.5">
          <BoundProperties />
        </ShapeEffect>
      </Transitions>
      <BoundProperties>
        <BoundPropertyInt Name="rotateStepNinety" Value="0" />
      </BoundProperties>
    </ImageClip>
    <ImageClip extentID="529" gapBefore="0" mediaItemID="95" duration="1">
      <Effects />
      <Transitions>
        <ShapeEffect effectTemplateID="CrossfadeTransitionTemplate" duration="1.5">
          <BoundProperties />
        </ShapeEffect>
      </Transitions>
      <BoundProperties>
        <BoundPropertyInt Name="rotateStepNinety" Value="0" />
      </BoundProperties>
    </ImageClip>
    <ImageClip extentID="531" gapBefore="0" mediaItemID="99" duration="1">
      <Effects />
      <Transitions>
        <ShapeEffect effectTemplateID="CrossfadeTransitionTemplate" duration="1.5">
          <BoundProperties />
        </ShapeEffect>
      </Transitions>
      <BoundProperties>
        <BoundPropertyInt Name="rotateStepNinety" Value="1" />
      </BoundProperties>
    </ImageClip>
    <ImageClip extentID="532" gapBefore="0" mediaItemID="100" duration="1">
      <Effects />
      <Transitions>
        <ShapeEffect effectTemplateID="CrossfadeTransitionTemplate" duration="1.5">
          <BoundProperties />
        </ShapeEffect>
      </Transitions>
      <BoundProperties>
        <BoundPropertyInt Name="rotateStepNinety" Value="0" />
      </BoundProperties>
    </ImageClip>
    <ImageClip extentID="533" gapBefore="0" mediaItemID="101" duration="1">
      <Effects />
      <Transitions>
        <ShapeEffect effectTemplateID="CrossfadeTransitionTemplate" duration="1.5">
          <BoundProperties />
        </ShapeEffect>
      </Transitions>
      <BoundProperties>
        <BoundPropertyInt Name="rotateStepNinety" Value="0" />
      </BoundProperties>
    </ImageClip>
    <ImageClip extentID="534" gapBefore="0" mediaItemID="102" duration="1">
      <Effects />
      <Transitions>
        <ShapeEffect effectTemplateID="CrossfadeTransitionTemplate" duration="1.5">
          <BoundProperties />
        </ShapeEffect>
      </Transitions>
      <BoundProperties>
        <BoundPropertyInt Name="rotateStepNinety" Value="0" />
      </BoundProperties>
    </ImageClip>
    <ImageClip extentID="535" gapBefore="0" mediaItemID="103" duration="1">
      <Effects />
      <Transitions>
        <ShapeEffect effectTemplateID="CrossfadeTransitionTemplate" duration="1.5">
          <BoundProperties />
        </ShapeEffect>
      </Transitions>
      <BoundProperties>
        <BoundPropertyInt Name="rotateStepNinety" Value="0" />
      </BoundProperties>
    </ImageClip>
    <ImageClip extentID="536" gapBefore="0" mediaItemID="105" duration="1">
      <Effects />
      <Transitions>
        <ShapeEffect effectTemplateID="CrossfadeTransitionTemplate" duration="1.5">
          <BoundProperties />
        </ShapeEffect>
      </Transitions>
      <BoundProperties>
        <BoundPropertyInt Name="rotateStepNinety" Value="0" />
      </BoundProperties>
    </ImageClip>
    <ImageClip extentID="537" gapBefore="0" mediaItemID="108" duration="1">
      <Effects />
      <Transitions>
        <ShapeEffect effectTemplateID="CrossfadeTransitionTemplate" duration="1.5">
          <BoundProperties />
        </ShapeEffect>
      </Transitions>
      <BoundProperties>
        <BoundPropertyInt Name="rotateStepNinety" Value="0" />
      </BoundProperties>
    </ImageClip>
    <ImageClip extentID="538" gapBefore="0" mediaItemID="110" duration="1">
      <Effects />
      <Transitions>
        <ShapeEffect effectTemplateID="CrossfadeTransitionTemplate" duration="1.5">
          <BoundProperties />
        </ShapeEffect>
      </Transitions>
      <BoundProperties>
        <BoundPropertyInt Name="rotateStepNinety" Value="2" />
      </BoundProperties>
    </ImageClip>
    <ImageClip extentID="539" gapBefore="0" mediaItemID="111" duration="1">
      <Effects />
      <Transitions>
        <ShapeEffect effectTemplateID="CrossfadeTransitionTemplate" duration="1.5">
          <BoundProperties />
        </ShapeEffect>
      </Transitions>
      <BoundProperties>
        <BoundPropertyInt Name="rotateStepNinety" Value="0" />
      </BoundProperties>
    </ImageClip>
    <ImageClip extentID="540" gapBefore="0" mediaItemID="112" duration="1">
      <Effects />
      <Transitions>
        <ShapeEffect effectTemplateID="CrossfadeTransitionTemplate" duration="1.5">
          <BoundProperties />
        </ShapeEffect>
      </Transitions>
      <BoundProperties>
        <BoundPropertyInt Name="rotateStepNinety" Value="0" />
      </BoundProperties>
    </ImageClip>
    <ImageClip extentID="541" gapBefore="0" mediaItemID="113" duration="1">
      <Effects />
      <Transitions>
        <ShapeEffect effectTemplateID="CrossfadeTransitionTemplate" duration="1.5">
          <BoundProperties />
        </ShapeEffect>
      </Transitions>
      <BoundProperties>
        <BoundPropertyInt Name="rotateStepNinety" Value="0" />
      </BoundProperties>
    </ImageClip>
    <ImageClip extentID="542" gapBefore="0" mediaItemID="114" duration="1">
      <Effects />
      <Transitions>
        <ShapeEffect effectTemplateID="CrossfadeTransitionTemplate" duration="1.5">
          <BoundProperties />
        </ShapeEffect>
      </Transitions>
      <BoundProperties>
        <BoundPropertyInt Name="rotateStepNinety" Value="0" />
      </BoundProperties>
    </ImageClip>
    <ImageClip extentID="543" gapBefore="0" mediaItemID="115" duration="1">
      <Effects />
      <Transitions>
        <ShapeEffect effectTemplateID="CrossfadeTransitionTemplate" duration="1.5">
          <BoundProperties />
        </ShapeEffect>
      </Transitions>
      <BoundProperties>
        <BoundPropertyInt Name="rotateStepNinety" Value="0" />
      </BoundProperties>
    </ImageClip>
    <ImageClip extentID="544" gapBefore="0" mediaItemID="116" duration="1">
      <Effects />
      <Transitions>
        <ShapeEffect effectTemplateID="CrossfadeTransitionTemplate" duration="1.5">
          <BoundProperties />
        </ShapeEffect>
      </Transitions>
      <BoundProperties>
        <BoundPropertyInt Name="rotateStepNinety" Value="0" />
      </BoundProperties>
    </ImageClip>
    <ImageClip extentID="545" gapBefore="0" mediaItemID="117" duration="1">
      <Effects />
      <Transitions>
        <ShapeEffect effectTemplateID="CrossfadeTransitionTemplate" duration="1.5">
          <BoundProperties />
        </ShapeEffect>
      </Transitions>
      <BoundProperties>
        <BoundPropertyInt Name="rotateStepNinety" Value="0" />
      </BoundProperties>
    </ImageClip>
    <ImageClip extentID="546" gapBefore="0" mediaItemID="118" duration="1">
      <Effects />
      <Transitions>
        <ShapeEffect effectTemplateID="CrossfadeTransitionTemplate" duration="1.5">
          <BoundProperties />
        </ShapeEffect>
      </Transitions>
      <BoundProperties>
        <BoundPropertyInt Name="rotateStepNinety" Value="0" />
      </BoundProperties>
    </ImageClip>
    <ImageClip extentID="547" gapBefore="0" mediaItemID="119" duration="1">
      <Effects />
      <Transitions>
        <ShapeEffect effectTemplateID="CrossfadeTransitionTemplate" duration="1.5">
          <BoundProperties />
        </ShapeEffect>
      </Transitions>
      <BoundProperties>
        <BoundPropertyInt Name="rotateStepNinety" Value="0" />
      </BoundProperties>
    </ImageClip>
    <ImageClip extentID="548" gapBefore="0" mediaItemID="120" duration="1">
      <Effects />
      <Transitions>
        <ShapeEffect effectTemplateID="CrossfadeTransitionTemplate" duration="1.5">
          <BoundProperties />
        </ShapeEffect>
      </Transitions>
      <BoundProperties>
        <BoundPropertyInt Name="rotateStepNinety" Value="0" />
      </BoundProperties>
    </ImageClip>
    <ImageClip extentID="549" gapBefore="0" mediaItemID="121" duration="1">
      <Effects />
      <Transitions>
        <ShapeEffect effectTemplateID="CrossfadeTransitionTemplate" duration="1.5">
          <BoundProperties />
        </ShapeEffect>
      </Transitions>
      <BoundProperties>
        <BoundPropertyInt Name="rotateStepNinety" Value="0" />
      </BoundProperties>
    </ImageClip>
    <ImageClip extentID="550" gapBefore="0" mediaItemID="122" duration="1">
      <Effects />
      <Transitions>
        <ShapeEffect effectTemplateID="CrossfadeTransitionTemplate" duration="1.5">
          <BoundProperties />
        </ShapeEffect>
      </Transitions>
      <BoundProperties>
        <BoundPropertyInt Name="rotateStepNinety" Value="0" />
      </BoundProperties>
    </ImageClip>
    <ImageClip extentID="551" gapBefore="0" mediaItemID="123" duration="1">
      <Effects />
      <Transitions>
        <ShapeEffect effectTemplateID="CrossfadeTransitionTemplate" duration="1.5">
          <BoundProperties />
        </ShapeEffect>
      </Transitions>
      <BoundProperties>
        <BoundPropertyInt Name="rotateStepNinety" Value="2" />
      </BoundProperties>
    </ImageClip>
    <ImageClip extentID="552" gapBefore="0" mediaItemID="124" duration="1">
      <Effects />
      <Transitions>
        <ShapeEffect effectTemplateID="CrossfadeTransitionTemplate" duration="1.5">
          <BoundProperties />
        </ShapeEffect>
      </Transitions>
      <BoundProperties>
        <BoundPropertyInt Name="rotateStepNinety" Value="0" />
      </BoundProperties>
    </ImageClip>
    <ImageClip extentID="553" gapBefore="0" mediaItemID="126" duration="1">
      <Effects />
      <Transitions>
        <ShapeEffect effectTemplateID="CrossfadeTransitionTemplate" duration="1.5">
          <BoundProperties />
        </ShapeEffect>
      </Transitions>
      <BoundProperties>
        <BoundPropertyInt Name="rotateStepNinety" Value="0" />
      </BoundProperties>
    </ImageClip>
    <ImageClip extentID="554" gapBefore="0" mediaItemID="127" duration="1">
      <Effects />
      <Transitions>
        <ShapeEffect effectTemplateID="CrossfadeTransitionTemplate" duration="1.5">
          <BoundProperties />
        </ShapeEffect>
      </Transitions>
      <BoundProperties>
        <BoundPropertyInt Name="rotateStepNinety" Value="0" />
      </BoundProperties>
    </ImageClip>
    <ImageClip extentID="555" gapBefore="0" mediaItemID="128" duration="1">
      <Effects />
      <Transitions>
        <ShapeEffect effectTemplateID="CrossfadeTransitionTemplate" duration="1.5">
          <BoundProperties />
        </ShapeEffect>
      </Transitions>
      <BoundProperties>
        <BoundPropertyInt Name="rotateStepNinety" Value="2" />
      </BoundProperties>
    </ImageClip>
    <ImageClip extentID="556" gapBefore="0" mediaItemID="129" duration="1">
      <Effects />
      <Transitions>
        <ShapeEffect effectTemplateID="CrossfadeTransitionTemplate" duration="1.5">
          <BoundProperties />
        </ShapeEffect>
      </Transitions>
      <BoundProperties>
        <BoundPropertyInt Name="rotateStepNinety" Value="0" />
      </BoundProperties>
    </ImageClip>
    <ImageClip extentID="557" gapBefore="0" mediaItemID="130" duration="1">
      <Effects />
      <Transitions>
        <ShapeEffect effectTemplateID="CrossfadeTransitionTemplate" duration="1.5">
          <BoundProperties />
        </ShapeEffect>
      </Transitions>
      <BoundProperties>
        <BoundPropertyInt Name="rotateStepNinety" Value="0" />
      </BoundProperties>
    </ImageClip>
    <ImageClip extentID="558" gapBefore="0" mediaItemID="131" duration="1">
      <Effects />
      <Transitions>
        <ShapeEffect effectTemplateID="CrossfadeTransitionTemplate" duration="1.5">
          <BoundProperties />
        </ShapeEffect>
      </Transitions>
      <BoundProperties>
        <BoundPropertyInt Name="rotateStepNinety" Value="0" />
      </BoundProperties>
    </ImageClip>
    <ImageClip extentID="559" gapBefore="0" mediaItemID="132" duration="1">
      <Effects />
      <Transitions>
        <ShapeEffect effectTemplateID="CrossfadeTransitionTemplate" duration="1.5">
          <BoundProperties />
        </ShapeEffect>
      </Transitions>
      <BoundProperties>
        <BoundPropertyInt Name="rotateStepNinety" Value="0" />
      </BoundProperties>
    </ImageClip>
    <ImageClip extentID="560" gapBefore="0" mediaItemID="133" duration="1">
      <Effects />
      <Transitions>
        <ShapeEffect effectTemplateID="CrossfadeTransitionTemplate" duration="1.5">
          <BoundProperties />
        </ShapeEffect>
      </Transitions>
      <BoundProperties>
        <BoundPropertyInt Name="rotateStepNinety" Value="0" />
      </BoundProperties>
    </ImageClip>
    <ImageClip extentID="561" gapBefore="0" mediaItemID="134" duration="1">
      <Effects />
      <Transitions>
        <ShapeEffect effectTemplateID="CrossfadeTransitionTemplate" duration="1.5">
          <BoundProperties />
        </ShapeEffect>
      </Transitions>
      <BoundProperties>
        <BoundPropertyInt Name="rotateStepNinety" Value="1" />
      </BoundProperties>
    </ImageClip>
    <ImageClip extentID="562" gapBefore="0" mediaItemID="135" duration="1">
      <Effects />
      <Transitions>
        <ShapeEffect effectTemplateID="CrossfadeTransitionTemplate" duration="1.5">
          <BoundProperties />
        </ShapeEffect>
      </Transitions>
      <BoundProperties>
        <BoundPropertyInt Name="rotateStepNinety" Value="1" />
      </BoundProperties>
    </ImageClip>
    <ImageClip extentID="563" gapBefore="0" mediaItemID="136" duration="1">
      <Effects />
      <Transitions>
        <ShapeEffect effectTemplateID="CrossfadeTransitionTemplate" duration="1.5">
          <BoundProperties />
        </ShapeEffect>
      </Transitions>
      <BoundProperties>
        <BoundPropertyInt Name="rotateStepNinety" Value="0" />
      </BoundProperties>
    </ImageClip>
    <ImageClip extentID="564" gapBefore="0" mediaItemID="137" duration="1">
      <Effects />
      <Transitions>
        <ShapeEffect effectTemplateID="CrossfadeTransitionTemplate" duration="1.5">
          <BoundProperties />
        </ShapeEffect>
      </Transitions>
      <BoundProperties>
        <BoundPropertyInt Name="rotateStepNinety" Value="0" />
      </BoundProperties>
    </ImageClip>
    <ImageClip extentID="565" gapBefore="0" mediaItemID="138" duration="1">
      <Effects />
      <Transitions>
        <ShapeEffect effectTemplateID="CrossfadeTransitionTemplate" duration="1.5">
          <BoundProperties />
        </ShapeEffect>
      </Transitions>
      <BoundProperties>
        <BoundPropertyInt Name="rotateStepNinety" Value="0" />
      </BoundProperties>
    </ImageClip>
    <ImageClip extentID="567" gapBefore="0" mediaItemID="140" duration="1">
      <Effects />
      <Transitions>
        <ShapeEffect effectTemplateID="CrossfadeTransitionTemplate" duration="1.5">
          <BoundProperties />
        </ShapeEffect>
      </Transitions>
      <BoundProperties>
        <BoundPropertyInt Name="rotateStepNinety" Value="1" />
      </BoundProperties>
    </ImageClip>
    <ImageClip extentID="570" gapBefore="0" mediaItemID="143" duration="1">
      <Effects />
      <Transitions>
        <ShapeEffect effectTemplateID="CrossfadeTransitionTemplate" duration="1.5">
          <BoundProperties />
        </ShapeEffect>
      </Transitions>
      <BoundProperties>
        <BoundPropertyInt Name="rotateStepNinety" Value="0" />
      </BoundProperties>
    </ImageClip>
    <ImageClip extentID="571" gapBefore="0" mediaItemID="144" duration="1">
      <Effects />
      <Transitions>
        <ShapeEffect effectTemplateID="CrossfadeTransitionTemplate" duration="1.5">
          <BoundProperties />
        </ShapeEffect>
      </Transitions>
      <BoundProperties>
        <BoundPropertyInt Name="rotateStepNinety" Value="0" />
      </BoundProperties>
    </ImageClip>
    <ImageClip extentID="572" gapBefore="0" mediaItemID="145" duration="1">
      <Effects />
      <Transitions>
        <ShapeEffect effectTemplateID="CrossfadeTransitionTemplate" duration="1.5">
          <BoundProperties />
        </ShapeEffect>
      </Transitions>
      <BoundProperties>
        <BoundPropertyInt Name="rotateStepNinety" Value="0" />
      </BoundProperties>
    </ImageClip>
    <ImageClip extentID="573" gapBefore="0" mediaItemID="146" duration="1">
      <Effects />
      <Transitions>
        <ShapeEffect effectTemplateID="CrossfadeTransitionTemplate" duration="1.5">
          <BoundProperties />
        </ShapeEffect>
      </Transitions>
      <BoundProperties>
        <BoundPropertyInt Name="rotateStepNinety" Value="2" />
      </BoundProperties>
    </ImageClip>
    <ImageClip extentID="574" gapBefore="0" mediaItemID="147" duration="1">
      <Effects />
      <Transitions>
        <ShapeEffect effectTemplateID="CrossfadeTransitionTemplate" duration="1.5">
          <BoundProperties />
        </ShapeEffect>
      </Transitions>
      <BoundProperties>
        <BoundPropertyInt Name="rotateStepNinety" Value="0" />
      </BoundProperties>
    </ImageClip>
    <ImageClip extentID="575" gapBefore="0" mediaItemID="148" duration="1">
      <Effects />
      <Transitions>
        <ShapeEffect effectTemplateID="CrossfadeTransitionTemplate" duration="1.5">
          <BoundProperties />
        </ShapeEffect>
      </Transitions>
      <BoundProperties>
        <BoundPropertyInt Name="rotateStepNinety" Value="1" />
      </BoundProperties>
    </ImageClip>
    <ImageClip extentID="576" gapBefore="0" mediaItemID="149" duration="1">
      <Effects />
      <Transitions>
        <ShapeEffect effectTemplateID="CrossfadeTransitionTemplate" duration="1.5">
          <BoundProperties />
        </ShapeEffect>
      </Transitions>
      <BoundProperties>
        <BoundPropertyInt Name="rotateStepNinety" Value="2" />
      </BoundProperties>
    </ImageClip>
    <ImageClip extentID="577" gapBefore="0" mediaItemID="150" duration="1">
      <Effects />
      <Transitions>
        <ShapeEffect effectTemplateID="CrossfadeTransitionTemplate" duration="1.5">
          <BoundProperties />
        </ShapeEffect>
      </Transitions>
      <BoundProperties>
        <BoundPropertyInt Name="rotateStepNinety" Value="1" />
      </BoundProperties>
    </ImageClip>
    <ImageClip extentID="578" gapBefore="0" mediaItemID="151" duration="1">
      <Effects />
      <Transitions>
        <ShapeEffect effectTemplateID="CrossfadeTransitionTemplate" duration="1.5">
          <BoundProperties />
        </ShapeEffect>
      </Transitions>
      <BoundProperties>
        <BoundPropertyInt Name="rotateStepNinety" Value="1" />
      </BoundProperties>
    </ImageClip>
    <ImageClip extentID="579" gapBefore="0" mediaItemID="152" duration="1">
      <Effects />
      <Transitions>
        <ShapeEffect effectTemplateID="CrossfadeTransitionTemplate" duration="1.5">
          <BoundProperties />
        </ShapeEffect>
      </Transitions>
      <BoundProperties>
        <BoundPropertyInt Name="rotateStepNinety" Value="0" />
      </BoundProperties>
    </ImageClip>
    <ImageClip extentID="580" gapBefore="0" mediaItemID="153" duration="1">
      <Effects />
      <Transitions>
        <ShapeEffect effectTemplateID="CrossfadeTransitionTemplate" duration="1.5">
          <BoundProperties />
        </ShapeEffect>
      </Transitions>
      <BoundProperties>
        <BoundPropertyInt Name="rotateStepNinety" Value="0" />
      </BoundProperties>
    </ImageClip>
    <ImageClip extentID="581" gapBefore="0" mediaItemID="154" duration="1">
      <Effects />
      <Transitions>
        <ShapeEffect effectTemplateID="CrossfadeTransitionTemplate" duration="1.5">
          <BoundProperties />
        </ShapeEffect>
      </Transitions>
      <BoundProperties>
        <BoundPropertyInt Name="rotateStepNinety" Value="1" />
      </BoundProperties>
    </ImageClip>
    <ImageClip extentID="582" gapBefore="0" mediaItemID="155" duration="1">
      <Effects />
      <Transitions>
        <ShapeEffect effectTemplateID="CrossfadeTransitionTemplate" duration="1.5">
          <BoundProperties />
        </ShapeEffect>
      </Transitions>
      <BoundProperties>
        <BoundPropertyInt Name="rotateStepNinety" Value="0" />
      </BoundProperties>
    </ImageClip>
    <ImageClip extentID="584" gapBefore="0" mediaItemID="157" duration="1">
      <Effects />
      <Transitions>
        <ShapeEffect effectTemplateID="CrossfadeTransitionTemplate" duration="1.5">
          <BoundProperties />
        </ShapeEffect>
      </Transitions>
      <BoundProperties>
        <BoundPropertyInt Name="rotateStepNinety" Value="0" />
      </BoundProperties>
    </ImageClip>
    <ImageClip extentID="585" gapBefore="0" mediaItemID="158" duration="1">
      <Effects />
      <Transitions>
        <ShapeEffect effectTemplateID="CrossfadeTransitionTemplate" duration="1.5">
          <BoundProperties />
        </ShapeEffect>
      </Transitions>
      <BoundProperties>
        <BoundPropertyInt Name="rotateStepNinety" Value="0" />
      </BoundProperties>
    </ImageClip>
    <ImageClip extentID="586" gapBefore="0" mediaItemID="159" duration="1">
      <Effects />
      <Transitions>
        <ShapeEffect effectTemplateID="CrossfadeTransitionTemplate" duration="1.5">
          <BoundProperties />
        </ShapeEffect>
      </Transitions>
      <BoundProperties>
        <BoundPropertyInt Name="rotateStepNinety" Value="0" />
      </BoundProperties>
    </ImageClip>
    <ImageClip extentID="587" gapBefore="0" mediaItemID="160" duration="1">
      <Effects />
      <Transitions>
        <ShapeEffect effectTemplateID="CrossfadeTransitionTemplate" duration="1.5">
          <BoundProperties />
        </ShapeEffect>
      </Transitions>
      <BoundProperties>
        <BoundPropertyInt Name="rotateStepNinety" Value="0" />
      </BoundProperties>
    </ImageClip>
    <ImageClip extentID="588" gapBefore="0" mediaItemID="161" duration="1">
      <Effects />
      <Transitions>
        <ShapeEffect effectTemplateID="CrossfadeTransitionTemplate" duration="1.5">
          <BoundProperties />
        </ShapeEffect>
      </Transitions>
      <BoundProperties>
        <BoundPropertyInt Name="rotateStepNinety" Value="0" />
      </BoundProperties>
    </ImageClip>
    <ImageClip extentID="589" gapBefore="0" mediaItemID="162" duration="1">
      <Effects />
      <Transitions>
        <ShapeEffect effectTemplateID="CrossfadeTransitionTemplate" duration="1.5">
          <BoundProperties />
        </ShapeEffect>
      </Transitions>
      <BoundProperties>
        <BoundPropertyInt Name="rotateStepNinety" Value="0" />
      </BoundProperties>
    </ImageClip>
    <ImageClip extentID="591" gapBefore="0" mediaItemID="164" duration="1">
      <Effects />
      <Transitions>
        <ShapeEffect effectTemplateID="CrossfadeTransitionTemplate" duration="1.5">
          <BoundProperties />
        </ShapeEffect>
      </Transitions>
      <BoundProperties>
        <BoundPropertyInt Name="rotateStepNinety" Value="0" />
      </BoundProperties>
    </ImageClip>
    <ImageClip extentID="592" gapBefore="0" mediaItemID="165" duration="1">
      <Effects />
      <Transitions>
        <ShapeEffect effectTemplateID="CrossfadeTransitionTemplate" duration="1.5">
          <BoundProperties />
        </ShapeEffect>
      </Transitions>
      <BoundProperties>
        <BoundPropertyInt Name="rotateStepNinety" Value="0" />
      </BoundProperties>
    </ImageClip>
    <ImageClip extentID="593" gapBefore="0" mediaItemID="166" duration="1">
      <Effects />
      <Transitions>
        <ShapeEffect effectTemplateID="CrossfadeTransitionTemplate" duration="1.5">
          <BoundProperties />
        </ShapeEffect>
      </Transitions>
      <BoundProperties>
        <BoundPropertyInt Name="rotateStepNinety" Value="0" />
      </BoundProperties>
    </ImageClip>
    <ImageClip extentID="594" gapBefore="0" mediaItemID="167" duration="1">
      <Effects />
      <Transitions>
        <ShapeEffect effectTemplateID="CrossfadeTransitionTemplate" duration="1.5">
          <BoundProperties />
        </ShapeEffect>
      </Transitions>
      <BoundProperties>
        <BoundPropertyInt Name="rotateStepNinety" Value="0" />
      </BoundProperties>
    </ImageClip>
    <ImageClip extentID="595" gapBefore="0" mediaItemID="168" duration="1">
      <Effects />
      <Transitions>
        <ShapeEffect effectTemplateID="CrossfadeTransitionTemplate" duration="1.5">
          <BoundProperties />
        </ShapeEffect>
      </Transitions>
      <BoundProperties>
        <BoundPropertyInt Name="rotateStepNinety" Value="0" />
      </BoundProperties>
    </ImageClip>
    <ImageClip extentID="596" gapBefore="0" mediaItemID="169" duration="1">
      <Effects />
      <Transitions>
        <ShapeEffect effectTemplateID="CrossfadeTransitionTemplate" duration="1.5">
          <BoundProperties />
        </ShapeEffect>
      </Transitions>
      <BoundProperties>
        <BoundPropertyInt Name="rotateStepNinety" Value="0" />
      </BoundProperties>
    </ImageClip>
    <ImageClip extentID="597" gapBefore="0" mediaItemID="170" duration="1">
      <Effects />
      <Transitions>
        <ShapeEffect effectTemplateID="CrossfadeTransitionTemplate" duration="1.5">
          <BoundProperties />
        </ShapeEffect>
      </Transitions>
      <BoundProperties>
        <BoundPropertyInt Name="rotateStepNinety" Value="0" />
      </BoundProperties>
    </ImageClip>
    <ImageClip extentID="598" gapBefore="0" mediaItemID="171" duration="1">
      <Effects />
      <Transitions>
        <ShapeEffect effectTemplateID="CrossfadeTransitionTemplate" duration="1.5">
          <BoundProperties />
        </ShapeEffect>
      </Transitions>
      <BoundProperties>
        <BoundPropertyInt Name="rotateStepNinety" Value="0" />
      </BoundProperties>
    </ImageClip>
    <ImageClip extentID="599" gapBefore="0" mediaItemID="172" duration="1">
      <Effects />
      <Transitions>
        <ShapeEffect effectTemplateID="CrossfadeTransitionTemplate" duration="1.5">
          <BoundProperties />
        </ShapeEffect>
      </Transitions>
      <BoundProperties>
        <BoundPropertyInt Name="rotateStepNinety" Value="0" />
      </BoundProperties>
    </ImageClip>
    <ImageClip extentID="600" gapBefore="0" mediaItemID="173" duration="1">
      <Effects />
      <Transitions>
        <ShapeEffect effectTemplateID="CrossfadeTransitionTemplate" duration="1.5">
          <BoundProperties />
        </ShapeEffect>
      </Transitions>
      <BoundProperties>
        <BoundPropertyInt Name="rotateStepNinety" Value="0" />
      </BoundProperties>
    </ImageClip>
    <ImageClip extentID="601" gapBefore="0" mediaItemID="174" duration="1">
      <Effects />
      <Transitions>
        <ShapeEffect effectTemplateID="CrossfadeTransitionTemplate" duration="1.5">
          <BoundProperties />
        </ShapeEffect>
      </Transitions>
      <BoundProperties>
        <BoundPropertyInt Name="rotateStepNinety" Value="0" />
      </BoundProperties>
    </ImageClip>
    <ImageClip extentID="602" gapBefore="0" mediaItemID="175" duration="1">
      <Effects />
      <Transitions>
        <ShapeEffect effectTemplateID="CrossfadeTransitionTemplate" duration="1.5">
          <BoundProperties />
        </ShapeEffect>
      </Transitions>
      <BoundProperties>
        <BoundPropertyInt Name="rotateStepNinety" Value="0" />
      </BoundProperties>
    </ImageClip>
    <ImageClip extentID="603" gapBefore="0" mediaItemID="176" duration="1">
      <Effects />
      <Transitions>
        <ShapeEffect effectTemplateID="CrossfadeTransitionTemplate" duration="1.5">
          <BoundProperties />
        </ShapeEffect>
      </Transitions>
      <BoundProperties>
        <BoundPropertyInt Name="rotateStepNinety" Value="0" />
      </BoundProperties>
    </ImageClip>
    <ImageClip extentID="604" gapBefore="0" mediaItemID="177" duration="1">
      <Effects />
      <Transitions>
        <ShapeEffect effectTemplateID="CrossfadeTransitionTemplate" duration="1.5">
          <BoundProperties />
        </ShapeEffect>
      </Transitions>
      <BoundProperties>
        <BoundPropertyInt Name="rotateStepNinety" Value="0" />
      </BoundProperties>
    </ImageClip>
    <ImageClip extentID="605" gapBefore="0" mediaItemID="178" duration="1">
      <Effects />
      <Transitions>
        <ShapeEffect effectTemplateID="CrossfadeTransitionTemplate" duration="1.5">
          <BoundProperties />
        </ShapeEffect>
      </Transitions>
      <BoundProperties>
        <BoundPropertyInt Name="rotateStepNinety" Value="0" />
      </BoundProperties>
    </ImageClip>
    <ImageClip extentID="606" gapBefore="0" mediaItemID="179" duration="1">
      <Effects />
      <Transitions>
        <ShapeEffect effectTemplateID="CrossfadeTransitionTemplate" duration="1.5">
          <BoundProperties />
        </ShapeEffect>
      </Transitions>
      <BoundProperties>
        <BoundPropertyInt Name="rotateStepNinety" Value="0" />
      </BoundProperties>
    </ImageClip>
    <ImageClip extentID="607" gapBefore="0" mediaItemID="180" duration="1">
      <Effects />
      <Transitions>
        <ShapeEffect effectTemplateID="CrossfadeTransitionTemplate" duration="1.5">
          <BoundProperties />
        </ShapeEffect>
      </Transitions>
      <BoundProperties>
        <BoundPropertyInt Name="rotateStepNinety" Value="0" />
      </BoundProperties>
    </ImageClip>
    <ImageClip extentID="608" gapBefore="0" mediaItemID="181" duration="1">
      <Effects />
      <Transitions>
        <ShapeEffect effectTemplateID="CrossfadeTransitionTemplate" duration="1.5">
          <BoundProperties />
        </ShapeEffect>
      </Transitions>
      <BoundProperties>
        <BoundPropertyInt Name="rotateStepNinety" Value="0" />
      </BoundProperties>
    </ImageClip>
    <ImageClip extentID="609" gapBefore="0" mediaItemID="182" duration="1">
      <Effects />
      <Transitions>
        <ShapeEffect effectTemplateID="CrossfadeTransitionTemplate" duration="1.5">
          <BoundProperties />
        </ShapeEffect>
      </Transitions>
      <BoundProperties>
        <BoundPropertyInt Name="rotateStepNinety" Value="0" />
      </BoundProperties>
    </ImageClip>
    <ImageClip extentID="610" gapBefore="0" mediaItemID="183" duration="1">
      <Effects />
      <Transitions>
        <ShapeEffect effectTemplateID="CrossfadeTransitionTemplate" duration="1.5">
          <BoundProperties />
        </ShapeEffect>
      </Transitions>
      <BoundProperties>
        <BoundPropertyInt Name="rotateStepNinety" Value="0" />
      </BoundProperties>
    </ImageClip>
    <ImageClip extentID="611" gapBefore="0" mediaItemID="184" duration="1">
      <Effects />
      <Transitions>
        <ShapeEffect effectTemplateID="CrossfadeTransitionTemplate" duration="1.5">
          <BoundProperties />
        </ShapeEffect>
      </Transitions>
      <BoundProperties>
        <BoundPropertyInt Name="rotateStepNinety" Value="0" />
      </BoundProperties>
    </ImageClip>
    <ImageClip extentID="612" gapBefore="0" mediaItemID="185" duration="1">
      <Effects />
      <Transitions>
        <ShapeEffect effectTemplateID="CrossfadeTransitionTemplate" duration="1.5">
          <BoundProperties />
        </ShapeEffect>
      </Transitions>
      <BoundProperties>
        <BoundPropertyInt Name="rotateStepNinety" Value="0" />
      </BoundProperties>
    </ImageClip>
    <ImageClip extentID="613" gapBefore="0" mediaItemID="186" duration="1">
      <Effects />
      <Transitions>
        <ShapeEffect effectTemplateID="CrossfadeTransitionTemplate" duration="1.5">
          <BoundProperties />
        </ShapeEffect>
      </Transitions>
      <BoundProperties>
        <BoundPropertyInt Name="rotateStepNinety" Value="0" />
      </BoundProperties>
    </ImageClip>
    <ImageClip extentID="614" gapBefore="0" mediaItemID="187" duration="1">
      <Effects />
      <Transitions>
        <ShapeEffect effectTemplateID="CrossfadeTransitionTemplate" duration="1.5">
          <BoundProperties />
        </ShapeEffect>
      </Transitions>
      <BoundProperties>
        <BoundPropertyInt Name="rotateStepNinety" Value="0" />
      </BoundProperties>
    </ImageClip>
    <ImageClip extentID="615" gapBefore="0" mediaItemID="188" duration="1">
      <Effects />
      <Transitions>
        <ShapeEffect effectTemplateID="CrossfadeTransitionTemplate" duration="1.5">
          <BoundProperties />
        </ShapeEffect>
      </Transitions>
      <BoundProperties>
        <BoundPropertyInt Name="rotateStepNinety" Value="0" />
      </BoundProperties>
    </ImageClip>
    <ImageClip extentID="616" gapBefore="0" mediaItemID="189" duration="1">
      <Effects />
      <Transitions>
        <ShapeEffect effectTemplateID="CrossfadeTransitionTemplate" duration="1.5">
          <BoundProperties />
        </ShapeEffect>
      </Transitions>
      <BoundProperties>
        <BoundPropertyInt Name="rotateStepNinety" Value="0" />
      </BoundProperties>
    </ImageClip>
    <ImageClip extentID="617" gapBefore="0" mediaItemID="190" duration="1">
      <Effects />
      <Transitions>
        <ShapeEffect effectTemplateID="CrossfadeTransitionTemplate" duration="1.5">
          <BoundProperties />
        </ShapeEffect>
      </Transitions>
      <BoundProperties>
        <BoundPropertyInt Name="rotateStepNinety" Value="0" />
      </BoundProperties>
    </ImageClip>
    <ImageClip extentID="618" gapBefore="0" mediaItemID="191" duration="1">
      <Effects />
      <Transitions>
        <ShapeEffect effectTemplateID="CrossfadeTransitionTemplate" duration="1.5">
          <BoundProperties />
        </ShapeEffect>
      </Transitions>
      <BoundProperties>
        <BoundPropertyInt Name="rotateStepNinety" Value="0" />
      </BoundProperties>
    </ImageClip>
    <ImageClip extentID="619" gapBefore="0" mediaItemID="192" duration="1">
      <Effects />
      <Transitions>
        <ShapeEffect effectTemplateID="CrossfadeTransitionTemplate" duration="1.5">
          <BoundProperties />
        </ShapeEffect>
      </Transitions>
      <BoundProperties>
        <BoundPropertyInt Name="rotateStepNinety" Value="0" />
      </BoundProperties>
    </ImageClip>
    <ImageClip extentID="620" gapBefore="0" mediaItemID="193" duration="1">
      <Effects />
      <Transitions>
        <ShapeEffect effectTemplateID="CrossfadeTransitionTemplate" duration="1.5">
          <BoundProperties />
        </ShapeEffect>
      </Transitions>
      <BoundProperties>
        <BoundPropertyInt Name="rotateStepNinety" Value="0" />
      </BoundProperties>
    </ImageClip>
    <ImageClip extentID="621" gapBefore="0" mediaItemID="194" duration="1">
      <Effects />
      <Transitions>
        <ShapeEffect effectTemplateID="CrossfadeTransitionTemplate" duration="1.5">
          <BoundProperties />
        </ShapeEffect>
      </Transitions>
      <BoundProperties>
        <BoundPropertyInt Name="rotateStepNinety" Value="0" />
      </BoundProperties>
    </ImageClip>
    <ImageClip extentID="622" gapBefore="0" mediaItemID="195" duration="1">
      <Effects />
      <Transitions>
        <ShapeEffect effectTemplateID="CrossfadeTransitionTemplate" duration="1.5">
          <BoundProperties />
        </ShapeEffect>
      </Transitions>
      <BoundProperties>
        <BoundPropertyInt Name="rotateStepNinety" Value="0" />
      </BoundProperties>
    </ImageClip>
    <ImageClip extentID="624" gapBefore="0" mediaItemID="197" duration="1">
      <Effects />
      <Transitions>
        <ShapeEffect effectTemplateID="CrossfadeTransitionTemplate" duration="1.5">
          <BoundProperties />
        </ShapeEffect>
      </Transitions>
      <BoundProperties>
        <BoundPropertyInt Name="rotateStepNinety" Value="0" />
      </BoundProperties>
    </ImageClip>
    <ImageClip extentID="626" gapBefore="0" mediaItemID="199" duration="1">
      <Effects />
      <Transitions>
        <ShapeEffect effectTemplateID="CrossfadeTransitionTemplate" duration="1.5">
          <BoundProperties />
        </ShapeEffect>
      </Transitions>
      <BoundProperties>
        <BoundPropertyInt Name="rotateStepNinety" Value="0" />
      </BoundProperties>
    </ImageClip>
    <ImageClip extentID="627" gapBefore="0" mediaItemID="200" duration="1">
      <Effects />
      <Transitions>
        <ShapeEffect effectTemplateID="CrossfadeTransitionTemplate" duration="1.5">
          <BoundProperties />
        </ShapeEffect>
      </Transitions>
      <BoundProperties>
        <BoundPropertyInt Name="rotateStepNinety" Value="0" />
      </BoundProperties>
    </ImageClip>
    <ImageClip extentID="628" gapBefore="0" mediaItemID="201" duration="1">
      <Effects />
      <Transitions>
        <ShapeEffect effectTemplateID="CrossfadeTransitionTemplate" duration="1.5">
          <BoundProperties />
        </ShapeEffect>
      </Transitions>
      <BoundProperties>
        <BoundPropertyInt Name="rotateStepNinety" Value="0" />
      </BoundProperties>
    </ImageClip>
    <ImageClip extentID="631" gapBefore="0" mediaItemID="204" duration="1">
      <Effects />
      <Transitions>
        <ShapeEffect effectTemplateID="CrossfadeTransitionTemplate" duration="1.5">
          <BoundProperties />
        </ShapeEffect>
      </Transitions>
      <BoundProperties>
        <BoundPropertyInt Name="rotateStepNinety" Value="0" />
      </BoundProperties>
    </ImageClip>
    <ImageClip extentID="632" gapBefore="0" mediaItemID="205" duration="1">
      <Effects />
      <Transitions>
        <ShapeEffect effectTemplateID="CrossfadeTransitionTemplate" duration="1.5">
          <BoundProperties />
        </ShapeEffect>
      </Transitions>
      <BoundProperties>
        <BoundPropertyInt Name="rotateStepNinety" Value="0" />
      </BoundProperties>
    </ImageClip>
    <ImageClip extentID="633" gapBefore="0" mediaItemID="206" duration="1">
      <Effects />
      <Transitions>
        <ShapeEffect effectTemplateID="CrossfadeTransitionTemplate" duration="1.5">
          <BoundProperties />
        </ShapeEffect>
      </Transitions>
      <BoundProperties>
        <BoundPropertyInt Name="rotateStepNinety" Value="3" />
      </BoundProperties>
    </ImageClip>
    <ImageClip extentID="637" gapBefore="0" mediaItemID="210" duration="1">
      <Effects />
      <Transitions>
        <ShapeEffect effectTemplateID="CrossfadeTransitionTemplate" duration="1.5">
          <BoundProperties />
        </ShapeEffect>
      </Transitions>
      <BoundProperties>
        <BoundPropertyInt Name="rotateStepNinety" Value="0" />
      </BoundProperties>
    </ImageClip>
    <ImageClip extentID="639" gapBefore="0" mediaItemID="212" duration="1">
      <Effects />
      <Transitions>
        <ShapeEffect effectTemplateID="CrossfadeTransitionTemplate" duration="1.5">
          <BoundProperties />
        </ShapeEffect>
      </Transitions>
      <BoundProperties>
        <BoundPropertyInt Name="rotateStepNinety" Value="0" />
      </BoundProperties>
    </ImageClip>
    <ImageClip extentID="640" gapBefore="0" mediaItemID="213" duration="1">
      <Effects />
      <Transitions>
        <ShapeEffect effectTemplateID="CrossfadeTransitionTemplate" duration="1.5">
          <BoundProperties />
        </ShapeEffect>
      </Transitions>
      <BoundProperties>
        <BoundPropertyInt Name="rotateStepNinety" Value="0" />
      </BoundProperties>
    </ImageClip>
    <ImageClip extentID="641" gapBefore="0" mediaItemID="214" duration="1">
      <Effects />
      <Transitions>
        <ShapeEffect effectTemplateID="CrossfadeTransitionTemplate" duration="1.5">
          <BoundProperties />
        </ShapeEffect>
      </Transitions>
      <BoundProperties>
        <BoundPropertyInt Name="rotateStepNinety" Value="0" />
      </BoundProperties>
    </ImageClip>
    <ImageClip extentID="643" gapBefore="0" mediaItemID="216" duration="1">
      <Effects />
      <Transitions>
        <ShapeEffect effectTemplateID="CrossfadeTransitionTemplate" duration="1.5">
          <BoundProperties />
        </ShapeEffect>
      </Transitions>
      <BoundProperties>
        <BoundPropertyInt Name="rotateStepNinety" Value="0" />
      </BoundProperties>
    </ImageClip>
    <ImageClip extentID="644" gapBefore="0" mediaItemID="217" duration="1">
      <Effects />
      <Transitions>
        <ShapeEffect effectTemplateID="CrossfadeTransitionTemplate" duration="1.5">
          <BoundProperties />
        </ShapeEffect>
      </Transitions>
      <BoundProperties>
        <BoundPropertyInt Name="rotateStepNinety" Value="0" />
      </BoundProperties>
    </ImageClip>
    <ImageClip extentID="645" gapBefore="0" mediaItemID="218" duration="1">
      <Effects />
      <Transitions>
        <ShapeEffect effectTemplateID="CrossfadeTransitionTemplate" duration="1.5">
          <BoundProperties />
        </ShapeEffect>
      </Transitions>
      <BoundProperties>
        <BoundPropertyInt Name="rotateStepNinety" Value="0" />
      </BoundProperties>
    </ImageClip>
    <ImageClip extentID="646" gapBefore="0" mediaItemID="219" duration="1">
      <Effects />
      <Transitions>
        <ShapeEffect effectTemplateID="CrossfadeTransitionTemplate" duration="1.5">
          <BoundProperties />
        </ShapeEffect>
      </Transitions>
      <BoundProperties>
        <BoundPropertyInt Name="rotateStepNinety" Value="0" />
      </BoundProperties>
    </ImageClip>
    <ImageClip extentID="647" gapBefore="0" mediaItemID="220" duration="1">
      <Effects />
      <Transitions>
        <ShapeEffect effectTemplateID="CrossfadeTransitionTemplate" duration="1.5">
          <BoundProperties />
        </ShapeEffect>
      </Transitions>
      <BoundProperties>
        <BoundPropertyInt Name="rotateStepNinety" Value="0" />
      </BoundProperties>
    </ImageClip>
    <ImageClip extentID="649" gapBefore="0" mediaItemID="222" duration="1">
      <Effects />
      <Transitions>
        <ShapeEffect effectTemplateID="CrossfadeTransitionTemplate" duration="1.5">
          <BoundProperties />
        </ShapeEffect>
      </Transitions>
      <BoundProperties>
        <BoundPropertyInt Name="rotateStepNinety" Value="0" />
      </BoundProperties>
    </ImageClip>
    <ImageClip extentID="650" gapBefore="0" mediaItemID="223" duration="1">
      <Effects />
      <Transitions>
        <ShapeEffect effectTemplateID="CrossfadeTransitionTemplate" duration="1.5">
          <BoundProperties />
        </ShapeEffect>
      </Transitions>
      <BoundProperties>
        <BoundPropertyInt Name="rotateStepNinety" Value="0" />
      </BoundProperties>
    </ImageClip>
    <ImageClip extentID="651" gapBefore="0" mediaItemID="224" duration="1">
      <Effects />
      <Transitions>
        <ShapeEffect effectTemplateID="CrossfadeTransitionTemplate" duration="1.5">
          <BoundProperties />
        </ShapeEffect>
      </Transitions>
      <BoundProperties>
        <BoundPropertyInt Name="rotateStepNinety" Value="0" />
      </BoundProperties>
    </ImageClip>
    <ImageClip extentID="652" gapBefore="0" mediaItemID="225" duration="1">
      <Effects />
      <Transitions>
        <ShapeEffect effectTemplateID="CrossfadeTransitionTemplate" duration="1.5">
          <BoundProperties />
        </ShapeEffect>
      </Transitions>
      <BoundProperties>
        <BoundPropertyInt Name="rotateStepNinety" Value="0" />
      </BoundProperties>
    </ImageClip>
    <ImageClip extentID="653" gapBefore="0" mediaItemID="226" duration="1">
      <Effects />
      <Transitions>
        <ShapeEffect effectTemplateID="CrossfadeTransitionTemplate" duration="1.5">
          <BoundProperties />
        </ShapeEffect>
      </Transitions>
      <BoundProperties>
        <BoundPropertyInt Name="rotateStepNinety" Value="0" />
      </BoundProperties>
    </ImageClip>
    <ImageClip extentID="1685" gapBefore="0" mediaItemID="1130" duration="1">
      <Effects />
      <Transitions>
        <ShaderEffect effectTemplateID="HeartTransitionTemplate" duration="1.5">
          <BoundProperties />
        </ShaderEffect>
      </Transitions>
      <BoundProperties>
        <BoundPropertyInt Name="rotateStepNinety" Value="0" />
      </BoundProperties>
    </ImageClip>
    <ImageClip extentID="1686" gapBefore="0" mediaItemID="1131" duration="1">
      <Effects />
      <Transitions>
        <ShaderEffect effectTemplateID="HeartTransitionTemplate" duration="1.5">
          <BoundProperties />
        </ShaderEffect>
      </Transitions>
      <BoundProperties>
        <BoundPropertyInt Name="rotateStepNinety" Value="0" />
      </BoundProperties>
    </ImageClip>
    <ImageClip extentID="655" gapBefore="0" mediaItemID="228" duration="1">
      <Effects />
      <Transitions>
        <ShapeEffect effectTemplateID="CrossfadeTransitionTemplate" duration="1.5">
          <BoundProperties />
        </ShapeEffect>
      </Transitions>
      <BoundProperties>
        <BoundPropertyInt Name="rotateStepNinety" Value="0" />
      </BoundProperties>
    </ImageClip>
    <ImageClip extentID="1687" gapBefore="0" mediaItemID="1132" duration="1">
      <Effects />
      <Transitions>
        <ShaderEffect effectTemplateID="HeartTransitionTemplate" duration="1.5">
          <BoundProperties />
        </ShaderEffect>
      </Transitions>
      <BoundProperties>
        <BoundPropertyInt Name="rotateStepNinety" Value="0" />
      </BoundProperties>
    </ImageClip>
    <ImageClip extentID="656" gapBefore="0" mediaItemID="229" duration="1">
      <Effects />
      <Transitions>
        <ShapeEffect effectTemplateID="CrossfadeTransitionTemplate" duration="1.5">
          <BoundProperties />
        </ShapeEffect>
      </Transitions>
      <BoundProperties>
        <BoundPropertyInt Name="rotateStepNinety" Value="0" />
      </BoundProperties>
    </ImageClip>
    <ImageClip extentID="1688" gapBefore="0" mediaItemID="1133" duration="1">
      <Effects />
      <Transitions>
        <ShaderEffect effectTemplateID="HeartTransitionTemplate" duration="1.5">
          <BoundProperties />
        </ShaderEffect>
      </Transitions>
      <BoundProperties>
        <BoundPropertyInt Name="rotateStepNinety" Value="0" />
      </BoundProperties>
    </ImageClip>
    <ImageClip extentID="657" gapBefore="0" mediaItemID="230" duration="1">
      <Effects />
      <Transitions>
        <ShapeEffect effectTemplateID="CrossfadeTransitionTemplate" duration="1.5">
          <BoundProperties />
        </ShapeEffect>
      </Transitions>
      <BoundProperties>
        <BoundPropertyInt Name="rotateStepNinety" Value="0" />
      </BoundProperties>
    </ImageClip>
    <ImageClip extentID="658" gapBefore="0" mediaItemID="231" duration="1">
      <Effects />
      <Transitions>
        <ShapeEffect effectTemplateID="CrossfadeTransitionTemplate" duration="1.5">
          <BoundProperties />
        </ShapeEffect>
      </Transitions>
      <BoundProperties>
        <BoundPropertyInt Name="rotateStepNinety" Value="0" />
      </BoundProperties>
    </ImageClip>
    <ImageClip extentID="1690" gapBefore="0" mediaItemID="1135" duration="1">
      <Effects />
      <Transitions>
        <ShaderEffect effectTemplateID="HeartTransitionTemplate" duration="1.5">
          <BoundProperties />
        </ShaderEffect>
      </Transitions>
      <BoundProperties>
        <BoundPropertyInt Name="rotateStepNinety" Value="0" />
      </BoundProperties>
    </ImageClip>
    <ImageClip extentID="659" gapBefore="0" mediaItemID="232" duration="1">
      <Effects />
      <Transitions>
        <ShapeEffect effectTemplateID="CrossfadeTransitionTemplate" duration="1.5">
          <BoundProperties />
        </ShapeEffect>
      </Transitions>
      <BoundProperties>
        <BoundPropertyInt Name="rotateStepNinety" Value="3" />
      </BoundProperties>
    </ImageClip>
    <ImageClip extentID="660" gapBefore="0" mediaItemID="233" duration="1">
      <Effects />
      <Transitions>
        <ShapeEffect effectTemplateID="CrossfadeTransitionTemplate" duration="1.5">
          <BoundProperties />
        </ShapeEffect>
      </Transitions>
      <BoundProperties>
        <BoundPropertyInt Name="rotateStepNinety" Value="0" />
      </BoundProperties>
    </ImageClip>
    <ImageClip extentID="1692" gapBefore="0" mediaItemID="1137" duration="1">
      <Effects />
      <Transitions>
        <ShaderEffect effectTemplateID="HeartTransitionTemplate" duration="1.5">
          <BoundProperties />
        </ShaderEffect>
      </Transitions>
      <BoundProperties>
        <BoundPropertyInt Name="rotateStepNinety" Value="0" />
      </BoundProperties>
    </ImageClip>
    <ImageClip extentID="661" gapBefore="0" mediaItemID="234" duration="1">
      <Effects />
      <Transitions>
        <ShapeEffect effectTemplateID="CrossfadeTransitionTemplate" duration="1.5">
          <BoundProperties />
        </ShapeEffect>
      </Transitions>
      <BoundProperties>
        <BoundPropertyInt Name="rotateStepNinety" Value="0" />
      </BoundProperties>
    </ImageClip>
    <ImageClip extentID="1693" gapBefore="0" mediaItemID="1138" duration="1">
      <Effects />
      <Transitions>
        <ShaderEffect effectTemplateID="HeartTransitionTemplate" duration="1.5">
          <BoundProperties />
        </ShaderEffect>
      </Transitions>
      <BoundProperties>
        <BoundPropertyInt Name="rotateStepNinety" Value="0" />
      </BoundProperties>
    </ImageClip>
    <ImageClip extentID="662" gapBefore="0" mediaItemID="235" duration="1">
      <Effects />
      <Transitions>
        <ShapeEffect effectTemplateID="CrossfadeTransitionTemplate" duration="1.5">
          <BoundProperties />
        </ShapeEffect>
      </Transitions>
      <BoundProperties>
        <BoundPropertyInt Name="rotateStepNinety" Value="0" />
      </BoundProperties>
    </ImageClip>
    <ImageClip extentID="1694" gapBefore="0" mediaItemID="1139" duration="1">
      <Effects />
      <Transitions>
        <ShaderEffect effectTemplateID="HeartTransitionTemplate" duration="1.5">
          <BoundProperties />
        </ShaderEffect>
      </Transitions>
      <BoundProperties>
        <BoundPropertyInt Name="rotateStepNinety" Value="0" />
      </BoundProperties>
    </ImageClip>
    <ImageClip extentID="663" gapBefore="0" mediaItemID="236" duration="1">
      <Effects />
      <Transitions>
        <ShapeEffect effectTemplateID="CrossfadeTransitionTemplate" duration="1.5">
          <BoundProperties />
        </ShapeEffect>
      </Transitions>
      <BoundProperties>
        <BoundPropertyInt Name="rotateStepNinety" Value="0" />
      </BoundProperties>
    </ImageClip>
    <ImageClip extentID="664" gapBefore="0" mediaItemID="237" duration="1">
      <Effects />
      <Transitions>
        <ShapeEffect effectTemplateID="CrossfadeTransitionTemplate" duration="1.5">
          <BoundProperties />
        </ShapeEffect>
      </Transitions>
      <BoundProperties>
        <BoundPropertyInt Name="rotateStepNinety" Value="0" />
      </BoundProperties>
    </ImageClip>
    <ImageClip extentID="1696" gapBefore="0" mediaItemID="1141" duration="1">
      <Effects />
      <Transitions>
        <ShaderEffect effectTemplateID="HeartTransitionTemplate" duration="1.5">
          <BoundProperties />
        </ShaderEffect>
      </Transitions>
      <BoundProperties>
        <BoundPropertyInt Name="rotateStepNinety" Value="0" />
      </BoundProperties>
    </ImageClip>
    <ImageClip extentID="665" gapBefore="0" mediaItemID="238" duration="1">
      <Effects />
      <Transitions>
        <ShapeEffect effectTemplateID="CrossfadeTransitionTemplate" duration="1.5">
          <BoundProperties />
        </ShapeEffect>
      </Transitions>
      <BoundProperties>
        <BoundPropertyInt Name="rotateStepNinety" Value="0" />
      </BoundProperties>
    </ImageClip>
    <ImageClip extentID="1697" gapBefore="0" mediaItemID="1142" duration="1">
      <Effects />
      <Transitions>
        <ShaderEffect effectTemplateID="HeartTransitionTemplate" duration="1.5">
          <BoundProperties />
        </ShaderEffect>
      </Transitions>
      <BoundProperties>
        <BoundPropertyInt Name="rotateStepNinety" Value="0" />
      </BoundProperties>
    </ImageClip>
    <ImageClip extentID="666" gapBefore="0" mediaItemID="239" duration="1">
      <Effects />
      <Transitions>
        <ShapeEffect effectTemplateID="CrossfadeTransitionTemplate" duration="1.5">
          <BoundProperties />
        </ShapeEffect>
      </Transitions>
      <BoundProperties>
        <BoundPropertyInt Name="rotateStepNinety" Value="0" />
      </BoundProperties>
    </ImageClip>
    <ImageClip extentID="1698" gapBefore="0" mediaItemID="1143" duration="1">
      <Effects />
      <Transitions>
        <ShaderEffect effectTemplateID="HeartTransitionTemplate" duration="1.5">
          <BoundProperties />
        </ShaderEffect>
      </Transitions>
      <BoundProperties>
        <BoundPropertyInt Name="rotateStepNinety" Value="0" />
      </BoundProperties>
    </ImageClip>
    <ImageClip extentID="667" gapBefore="0" mediaItemID="240" duration="1">
      <Effects />
      <Transitions>
        <ShapeEffect effectTemplateID="CrossfadeTransitionTemplate" duration="1.5">
          <BoundProperties />
        </ShapeEffect>
      </Transitions>
      <BoundProperties>
        <BoundPropertyInt Name="rotateStepNinety" Value="0" />
      </BoundProperties>
    </ImageClip>
    <ImageClip extentID="1699" gapBefore="0" mediaItemID="1144" duration="1">
      <Effects />
      <Transitions>
        <ShaderEffect effectTemplateID="HeartTransitionTemplate" duration="1.5">
          <BoundProperties />
        </ShaderEffect>
      </Transitions>
      <BoundProperties>
        <BoundPropertyInt Name="rotateStepNinety" Value="0" />
      </BoundProperties>
    </ImageClip>
    <ImageClip extentID="668" gapBefore="0" mediaItemID="241" duration="1">
      <Effects />
      <Transitions>
        <ShapeEffect effectTemplateID="CrossfadeTransitionTemplate" duration="1.5">
          <BoundProperties />
        </ShapeEffect>
      </Transitions>
      <BoundProperties>
        <BoundPropertyInt Name="rotateStepNinety" Value="0" />
      </BoundProperties>
    </ImageClip>
    <ImageClip extentID="1700" gapBefore="0" mediaItemID="1145" duration="1">
      <Effects />
      <Transitions>
        <ShaderEffect effectTemplateID="HeartTransitionTemplate" duration="1.5">
          <BoundProperties />
        </ShaderEffect>
      </Transitions>
      <BoundProperties>
        <BoundPropertyInt Name="rotateStepNinety" Value="0" />
      </BoundProperties>
    </ImageClip>
    <ImageClip extentID="669" gapBefore="0" mediaItemID="242" duration="1">
      <Effects />
      <Transitions>
        <ShapeEffect effectTemplateID="CrossfadeTransitionTemplate" duration="1.5">
          <BoundProperties />
        </ShapeEffect>
      </Transitions>
      <BoundProperties>
        <BoundPropertyInt Name="rotateStepNinety" Value="0" />
      </BoundProperties>
    </ImageClip>
    <ImageClip extentID="1701" gapBefore="0" mediaItemID="1146" duration="1">
      <Effects />
      <Transitions>
        <ShaderEffect effectTemplateID="HeartTransitionTemplate" duration="1.5">
          <BoundProperties />
        </ShaderEffect>
      </Transitions>
      <BoundProperties>
        <BoundPropertyInt Name="rotateStepNinety" Value="0" />
      </BoundProperties>
    </ImageClip>
    <ImageClip extentID="670" gapBefore="0" mediaItemID="243" duration="1">
      <Effects />
      <Transitions>
        <ShapeEffect effectTemplateID="CrossfadeTransitionTemplate" duration="1.5">
          <BoundProperties />
        </ShapeEffect>
      </Transitions>
      <BoundProperties>
        <BoundPropertyInt Name="rotateStepNinety" Value="0" />
      </BoundProperties>
    </ImageClip>
    <ImageClip extentID="1702" gapBefore="0" mediaItemID="1147" duration="1">
      <Effects />
      <Transitions>
        <ShaderEffect effectTemplateID="HeartTransitionTemplate" duration="1.5">
          <BoundProperties />
        </ShaderEffect>
      </Transitions>
      <BoundProperties>
        <BoundPropertyInt Name="rotateStepNinety" Value="0" />
      </BoundProperties>
    </ImageClip>
    <ImageClip extentID="671" gapBefore="0" mediaItemID="244" duration="1">
      <Effects />
      <Transitions>
        <ShapeEffect effectTemplateID="CrossfadeTransitionTemplate" duration="1.5">
          <BoundProperties />
        </ShapeEffect>
      </Transitions>
      <BoundProperties>
        <BoundPropertyInt Name="rotateStepNinety" Value="0" />
      </BoundProperties>
    </ImageClip>
    <ImageClip extentID="1703" gapBefore="0" mediaItemID="1148" duration="1">
      <Effects />
      <Transitions>
        <ShaderEffect effectTemplateID="HeartTransitionTemplate" duration="1.5">
          <BoundProperties />
        </ShaderEffect>
      </Transitions>
      <BoundProperties>
        <BoundPropertyInt Name="rotateStepNinety" Value="0" />
      </BoundProperties>
    </ImageClip>
    <ImageClip extentID="672" gapBefore="0" mediaItemID="245" duration="1">
      <Effects />
      <Transitions>
        <ShapeEffect effectTemplateID="CrossfadeTransitionTemplate" duration="1.5">
          <BoundProperties />
        </ShapeEffect>
      </Transitions>
      <BoundProperties>
        <BoundPropertyInt Name="rotateStepNinety" Value="0" />
      </BoundProperties>
    </ImageClip>
    <ImageClip extentID="1704" gapBefore="0" mediaItemID="1149" duration="1">
      <Effects />
      <Transitions>
        <ShaderEffect effectTemplateID="HeartTransitionTemplate" duration="1.5">
          <BoundProperties />
        </ShaderEffect>
      </Transitions>
      <BoundProperties>
        <BoundPropertyInt Name="rotateStepNinety" Value="0" />
      </BoundProperties>
    </ImageClip>
    <ImageClip extentID="673" gapBefore="0" mediaItemID="246" duration="1">
      <Effects />
      <Transitions>
        <ShapeEffect effectTemplateID="CrossfadeTransitionTemplate" duration="1.5">
          <BoundProperties />
        </ShapeEffect>
      </Transitions>
      <BoundProperties>
        <BoundPropertyInt Name="rotateStepNinety" Value="0" />
      </BoundProperties>
    </ImageClip>
    <ImageClip extentID="1705" gapBefore="0" mediaItemID="1150" duration="1">
      <Effects />
      <Transitions>
        <ShaderEffect effectTemplateID="HeartTransitionTemplate" duration="1.5">
          <BoundProperties />
        </ShaderEffect>
      </Transitions>
      <BoundProperties>
        <BoundPropertyInt Name="rotateStepNinety" Value="0" />
      </BoundProperties>
    </ImageClip>
    <ImageClip extentID="674" gapBefore="0" mediaItemID="247" duration="1">
      <Effects />
      <Transitions>
        <ShapeEffect effectTemplateID="CrossfadeTransitionTemplate" duration="1.5">
          <BoundProperties />
        </ShapeEffect>
      </Transitions>
      <BoundProperties>
        <BoundPropertyInt Name="rotateStepNinety" Value="0" />
      </BoundProperties>
    </ImageClip>
    <ImageClip extentID="675" gapBefore="0" mediaItemID="248" duration="1">
      <Effects />
      <Transitions>
        <ShapeEffect effectTemplateID="CrossfadeTransitionTemplate" duration="1.5">
          <BoundProperties />
        </ShapeEffect>
      </Transitions>
      <BoundProperties>
        <BoundPropertyInt Name="rotateStepNinety" Value="0" />
      </BoundProperties>
    </ImageClip>
    <ImageClip extentID="1707" gapBefore="0" mediaItemID="1152" duration="1">
      <Effects />
      <Transitions>
        <ShaderEffect effectTemplateID="HeartTransitionTemplate" duration="1.5">
          <BoundProperties />
        </ShaderEffect>
      </Transitions>
      <BoundProperties>
        <BoundPropertyInt Name="rotateStepNinety" Value="0" />
      </BoundProperties>
    </ImageClip>
    <ImageClip extentID="676" gapBefore="0" mediaItemID="249" duration="1">
      <Effects />
      <Transitions>
        <ShapeEffect effectTemplateID="CrossfadeTransitionTemplate" duration="1.5">
          <BoundProperties />
        </ShapeEffect>
      </Transitions>
      <BoundProperties>
        <BoundPropertyInt Name="rotateStepNinety" Value="0" />
      </BoundProperties>
    </ImageClip>
    <ImageClip extentID="1708" gapBefore="0" mediaItemID="1153" duration="1">
      <Effects />
      <Transitions>
        <ShaderEffect effectTemplateID="HeartTransitionTemplate" duration="1.5">
          <BoundProperties />
        </ShaderEffect>
      </Transitions>
      <BoundProperties>
        <BoundPropertyInt Name="rotateStepNinety" Value="0" />
      </BoundProperties>
    </ImageClip>
    <ImageClip extentID="677" gapBefore="0" mediaItemID="250" duration="1">
      <Effects />
      <Transitions>
        <ShapeEffect effectTemplateID="CrossfadeTransitionTemplate" duration="1.5">
          <BoundProperties />
        </ShapeEffect>
      </Transitions>
      <BoundProperties>
        <BoundPropertyInt Name="rotateStepNinety" Value="0" />
      </BoundProperties>
    </ImageClip>
    <ImageClip extentID="678" gapBefore="0" mediaItemID="251" duration="1">
      <Effects />
      <Transitions>
        <ShapeEffect effectTemplateID="CrossfadeTransitionTemplate" duration="1.5">
          <BoundProperties />
        </ShapeEffect>
      </Transitions>
      <BoundProperties>
        <BoundPropertyInt Name="rotateStepNinety" Value="0" />
      </BoundProperties>
    </ImageClip>
    <ImageClip extentID="1710" gapBefore="0" mediaItemID="1155" duration="1">
      <Effects />
      <Transitions>
        <ShaderEffect effectTemplateID="HeartTransitionTemplate" duration="1.5">
          <BoundProperties />
        </ShaderEffect>
      </Transitions>
      <BoundProperties>
        <BoundPropertyInt Name="rotateStepNinety" Value="0" />
      </BoundProperties>
    </ImageClip>
    <ImageClip extentID="679" gapBefore="0" mediaItemID="252" duration="1">
      <Effects />
      <Transitions>
        <ShapeEffect effectTemplateID="CrossfadeTransitionTemplate" duration="1.5">
          <BoundProperties />
        </ShapeEffect>
      </Transitions>
      <BoundProperties>
        <BoundPropertyInt Name="rotateStepNinety" Value="0" />
      </BoundProperties>
    </ImageClip>
    <ImageClip extentID="1711" gapBefore="0" mediaItemID="1156" duration="1">
      <Effects />
      <Transitions>
        <ShaderEffect effectTemplateID="HeartTransitionTemplate" duration="1.5">
          <BoundProperties />
        </ShaderEffect>
      </Transitions>
      <BoundProperties>
        <BoundPropertyInt Name="rotateStepNinety" Value="0" />
      </BoundProperties>
    </ImageClip>
    <ImageClip extentID="680" gapBefore="0" mediaItemID="253" duration="1">
      <Effects />
      <Transitions>
        <ShapeEffect effectTemplateID="CrossfadeTransitionTemplate" duration="1.5">
          <BoundProperties />
        </ShapeEffect>
      </Transitions>
      <BoundProperties>
        <BoundPropertyInt Name="rotateStepNinety" Value="0" />
      </BoundProperties>
    </ImageClip>
    <ImageClip extentID="1712" gapBefore="0" mediaItemID="1157" duration="1">
      <Effects />
      <Transitions>
        <ShaderEffect effectTemplateID="HeartTransitionTemplate" duration="1.5">
          <BoundProperties />
        </ShaderEffect>
      </Transitions>
      <BoundProperties>
        <BoundPropertyInt Name="rotateStepNinety" Value="0" />
      </BoundProperties>
    </ImageClip>
    <ImageClip extentID="681" gapBefore="0" mediaItemID="254" duration="1">
      <Effects />
      <Transitions>
        <ShapeEffect effectTemplateID="CrossfadeTransitionTemplate" duration="1.5">
          <BoundProperties />
        </ShapeEffect>
      </Transitions>
      <BoundProperties>
        <BoundPropertyInt Name="rotateStepNinety" Value="0" />
      </BoundProperties>
    </ImageClip>
    <ImageClip extentID="1713" gapBefore="0" mediaItemID="1158" duration="1">
      <Effects />
      <Transitions>
        <ShaderEffect effectTemplateID="HeartTransitionTemplate" duration="1.5">
          <BoundProperties />
        </ShaderEffect>
      </Transitions>
      <BoundProperties>
        <BoundPropertyInt Name="rotateStepNinety" Value="0" />
      </BoundProperties>
    </ImageClip>
    <ImageClip extentID="682" gapBefore="0" mediaItemID="255" duration="1">
      <Effects />
      <Transitions>
        <ShapeEffect effectTemplateID="CrossfadeTransitionTemplate" duration="1.5">
          <BoundProperties />
        </ShapeEffect>
      </Transitions>
      <BoundProperties>
        <BoundPropertyInt Name="rotateStepNinety" Value="0" />
      </BoundProperties>
    </ImageClip>
    <ImageClip extentID="1714" gapBefore="0" mediaItemID="1159" duration="1">
      <Effects />
      <Transitions>
        <ShaderEffect effectTemplateID="HeartTransitionTemplate" duration="1.5">
          <BoundProperties />
        </ShaderEffect>
      </Transitions>
      <BoundProperties>
        <BoundPropertyInt Name="rotateStepNinety" Value="0" />
      </BoundProperties>
    </ImageClip>
    <ImageClip extentID="683" gapBefore="0" mediaItemID="256" duration="1">
      <Effects />
      <Transitions>
        <ShapeEffect effectTemplateID="CrossfadeTransitionTemplate" duration="1.5">
          <BoundProperties />
        </ShapeEffect>
      </Transitions>
      <BoundProperties>
        <BoundPropertyInt Name="rotateStepNinety" Value="0" />
      </BoundProperties>
    </ImageClip>
    <ImageClip extentID="684" gapBefore="0" mediaItemID="257" duration="1">
      <Effects />
      <Transitions>
        <ShapeEffect effectTemplateID="CrossfadeTransitionTemplate" duration="1.5">
          <BoundProperties />
        </ShapeEffect>
      </Transitions>
      <BoundProperties>
        <BoundPropertyInt Name="rotateStepNinety" Value="0" />
      </BoundProperties>
    </ImageClip>
    <ImageClip extentID="1716" gapBefore="0" mediaItemID="1161" duration="1">
      <Effects />
      <Transitions>
        <ShaderEffect effectTemplateID="HeartTransitionTemplate" duration="1.5">
          <BoundProperties />
        </ShaderEffect>
      </Transitions>
      <BoundProperties>
        <BoundPropertyInt Name="rotateStepNinety" Value="0" />
      </BoundProperties>
    </ImageClip>
    <ImageClip extentID="685" gapBefore="0" mediaItemID="258" duration="1">
      <Effects />
      <Transitions>
        <ShapeEffect effectTemplateID="CrossfadeTransitionTemplate" duration="1.5">
          <BoundProperties />
        </ShapeEffect>
      </Transitions>
      <BoundProperties>
        <BoundPropertyInt Name="rotateStepNinety" Value="0" />
      </BoundProperties>
    </ImageClip>
    <ImageClip extentID="686" gapBefore="0" mediaItemID="259" duration="1">
      <Effects />
      <Transitions>
        <ShapeEffect effectTemplateID="CrossfadeTransitionTemplate" duration="1.5">
          <BoundProperties />
        </ShapeEffect>
      </Transitions>
      <BoundProperties>
        <BoundPropertyInt Name="rotateStepNinety" Value="1" />
      </BoundProperties>
    </ImageClip>
    <ImageClip extentID="1718" gapBefore="0" mediaItemID="1163" duration="1">
      <Effects />
      <Transitions>
        <ShaderEffect effectTemplateID="HeartTransitionTemplate" duration="1.5">
          <BoundProperties />
        </ShaderEffect>
      </Transitions>
      <BoundProperties>
        <BoundPropertyInt Name="rotateStepNinety" Value="0" />
      </BoundProperties>
    </ImageClip>
    <ImageClip extentID="687" gapBefore="0" mediaItemID="260" duration="1">
      <Effects />
      <Transitions>
        <ShapeEffect effectTemplateID="CrossfadeTransitionTemplate" duration="1.5">
          <BoundProperties />
        </ShapeEffect>
      </Transitions>
      <BoundProperties>
        <BoundPropertyInt Name="rotateStepNinety" Value="0" />
      </BoundProperties>
    </ImageClip>
    <ImageClip extentID="1720" gapBefore="0" mediaItemID="1165" duration="1">
      <Effects />
      <Transitions>
        <ShaderEffect effectTemplateID="HeartTransitionTemplate" duration="1.5">
          <BoundProperties />
        </ShaderEffect>
      </Transitions>
      <BoundProperties>
        <BoundPropertyInt Name="rotateStepNinety" Value="0" />
      </BoundProperties>
    </ImageClip>
    <ImageClip extentID="689" gapBefore="0" mediaItemID="262" duration="1">
      <Effects />
      <Transitions>
        <ShapeEffect effectTemplateID="CrossfadeTransitionTemplate" duration="1.5">
          <BoundProperties />
        </ShapeEffect>
      </Transitions>
      <BoundProperties>
        <BoundPropertyInt Name="rotateStepNinety" Value="0" />
      </BoundProperties>
    </ImageClip>
    <ImageClip extentID="690" gapBefore="0" mediaItemID="263" duration="1">
      <Effects />
      <Transitions>
        <ShapeEffect effectTemplateID="CrossfadeTransitionTemplate" duration="1.5">
          <BoundProperties />
        </ShapeEffect>
      </Transitions>
      <BoundProperties>
        <BoundPropertyInt Name="rotateStepNinety" Value="0" />
      </BoundProperties>
    </ImageClip>
    <ImageClip extentID="691" gapBefore="0" mediaItemID="264" duration="1">
      <Effects />
      <Transitions>
        <ShapeEffect effectTemplateID="CrossfadeTransitionTemplate" duration="1.5">
          <BoundProperties />
        </ShapeEffect>
      </Transitions>
      <BoundProperties>
        <BoundPropertyInt Name="rotateStepNinety" Value="0" />
      </BoundProperties>
    </ImageClip>
    <ImageClip extentID="1723" gapBefore="0" mediaItemID="1168" duration="1">
      <Effects />
      <Transitions>
        <ShaderEffect effectTemplateID="HeartTransitionTemplate" duration="1.5">
          <BoundProperties />
        </ShaderEffect>
      </Transitions>
      <BoundProperties>
        <BoundPropertyInt Name="rotateStepNinety" Value="0" />
      </BoundProperties>
    </ImageClip>
    <ImageClip extentID="692" gapBefore="0" mediaItemID="265" duration="1">
      <Effects />
      <Transitions>
        <ShapeEffect effectTemplateID="CrossfadeTransitionTemplate" duration="1.5">
          <BoundProperties />
        </ShapeEffect>
      </Transitions>
      <BoundProperties>
        <BoundPropertyInt Name="rotateStepNinety" Value="0" />
      </BoundProperties>
    </ImageClip>
    <ImageClip extentID="693" gapBefore="0" mediaItemID="266" duration="1">
      <Effects />
      <Transitions>
        <ShapeEffect effectTemplateID="CrossfadeTransitionTemplate" duration="1.5">
          <BoundProperties />
        </ShapeEffect>
      </Transitions>
      <BoundProperties>
        <BoundPropertyInt Name="rotateStepNinety" Value="0" />
      </BoundProperties>
    </ImageClip>
    <ImageClip extentID="694" gapBefore="0" mediaItemID="267" duration="1">
      <Effects />
      <Transitions>
        <ShapeEffect effectTemplateID="CrossfadeTransitionTemplate" duration="1.5">
          <BoundProperties />
        </ShapeEffect>
      </Transitions>
      <BoundProperties>
        <BoundPropertyInt Name="rotateStepNinety" Value="0" />
      </BoundProperties>
    </ImageClip>
    <ImageClip extentID="1726" gapBefore="0" mediaItemID="1171" duration="1">
      <Effects />
      <Transitions>
        <ShaderEffect effectTemplateID="HeartTransitionTemplate" duration="1.5">
          <BoundProperties />
        </ShaderEffect>
      </Transitions>
      <BoundProperties>
        <BoundPropertyInt Name="rotateStepNinety" Value="0" />
      </BoundProperties>
    </ImageClip>
    <ImageClip extentID="695" gapBefore="0" mediaItemID="268" duration="1">
      <Effects />
      <Transitions>
        <ShapeEffect effectTemplateID="CrossfadeTransitionTemplate" duration="1.5">
          <BoundProperties />
        </ShapeEffect>
      </Transitions>
      <BoundProperties>
        <BoundPropertyInt Name="rotateStepNinety" Value="0" />
      </BoundProperties>
    </ImageClip>
    <ImageClip extentID="1727" gapBefore="0" mediaItemID="1172" duration="1">
      <Effects />
      <Transitions>
        <ShaderEffect effectTemplateID="HeartTransitionTemplate" duration="1.5">
          <BoundProperties />
        </ShaderEffect>
      </Transitions>
      <BoundProperties>
        <BoundPropertyInt Name="rotateStepNinety" Value="0" />
      </BoundProperties>
    </ImageClip>
    <ImageClip extentID="696" gapBefore="0" mediaItemID="269" duration="1">
      <Effects />
      <Transitions>
        <ShapeEffect effectTemplateID="CrossfadeTransitionTemplate" duration="1.5">
          <BoundProperties />
        </ShapeEffect>
      </Transitions>
      <BoundProperties>
        <BoundPropertyInt Name="rotateStepNinety" Value="0" />
      </BoundProperties>
    </ImageClip>
    <ImageClip extentID="1728" gapBefore="0" mediaItemID="1173" duration="1">
      <Effects />
      <Transitions>
        <ShaderEffect effectTemplateID="HeartTransitionTemplate" duration="1.5">
          <BoundProperties />
        </ShaderEffect>
      </Transitions>
      <BoundProperties>
        <BoundPropertyInt Name="rotateStepNinety" Value="0" />
      </BoundProperties>
    </ImageClip>
    <ImageClip extentID="697" gapBefore="0" mediaItemID="270" duration="1">
      <Effects />
      <Transitions>
        <ShapeEffect effectTemplateID="CrossfadeTransitionTemplate" duration="1.5">
          <BoundProperties />
        </ShapeEffect>
      </Transitions>
      <BoundProperties>
        <BoundPropertyInt Name="rotateStepNinety" Value="0" />
      </BoundProperties>
    </ImageClip>
    <ImageClip extentID="1729" gapBefore="0" mediaItemID="1174" duration="1">
      <Effects />
      <Transitions>
        <ShaderEffect effectTemplateID="HeartTransitionTemplate" duration="1.5">
          <BoundProperties />
        </ShaderEffect>
      </Transitions>
      <BoundProperties>
        <BoundPropertyInt Name="rotateStepNinety" Value="0" />
      </BoundProperties>
    </ImageClip>
    <ImageClip extentID="698" gapBefore="0" mediaItemID="271" duration="1">
      <Effects />
      <Transitions>
        <ShapeEffect effectTemplateID="CrossfadeTransitionTemplate" duration="1.5">
          <BoundProperties />
        </ShapeEffect>
      </Transitions>
      <BoundProperties>
        <BoundPropertyInt Name="rotateStepNinety" Value="0" />
      </BoundProperties>
    </ImageClip>
    <ImageClip extentID="1730" gapBefore="0" mediaItemID="1175" duration="1">
      <Effects />
      <Transitions>
        <ShaderEffect effectTemplateID="HeartTransitionTemplate" duration="1.5">
          <BoundProperties />
        </ShaderEffect>
      </Transitions>
      <BoundProperties>
        <BoundPropertyInt Name="rotateStepNinety" Value="0" />
      </BoundProperties>
    </ImageClip>
    <ImageClip extentID="699" gapBefore="0" mediaItemID="272" duration="1">
      <Effects />
      <Transitions>
        <ShapeEffect effectTemplateID="CrossfadeTransitionTemplate" duration="1.5">
          <BoundProperties />
        </ShapeEffect>
      </Transitions>
      <BoundProperties>
        <BoundPropertyInt Name="rotateStepNinety" Value="0" />
      </BoundProperties>
    </ImageClip>
    <ImageClip extentID="1731" gapBefore="0" mediaItemID="1176" duration="1">
      <Effects />
      <Transitions>
        <ShaderEffect effectTemplateID="HeartTransitionTemplate" duration="1.5">
          <BoundProperties />
        </ShaderEffect>
      </Transitions>
      <BoundProperties>
        <BoundPropertyInt Name="rotateStepNinety" Value="0" />
      </BoundProperties>
    </ImageClip>
    <ImageClip extentID="700" gapBefore="0" mediaItemID="273" duration="1">
      <Effects />
      <Transitions>
        <ShapeEffect effectTemplateID="CrossfadeTransitionTemplate" duration="1.5">
          <BoundProperties />
        </ShapeEffect>
      </Transitions>
      <BoundProperties>
        <BoundPropertyInt Name="rotateStepNinety" Value="0" />
      </BoundProperties>
    </ImageClip>
    <ImageClip extentID="1732" gapBefore="0" mediaItemID="1177" duration="1">
      <Effects />
      <Transitions>
        <ShaderEffect effectTemplateID="HeartTransitionTemplate" duration="1.5">
          <BoundProperties />
        </ShaderEffect>
      </Transitions>
      <BoundProperties>
        <BoundPropertyInt Name="rotateStepNinety" Value="0" />
      </BoundProperties>
    </ImageClip>
    <ImageClip extentID="701" gapBefore="0" mediaItemID="274" duration="1">
      <Effects />
      <Transitions>
        <ShapeEffect effectTemplateID="CrossfadeTransitionTemplate" duration="1.5">
          <BoundProperties />
        </ShapeEffect>
      </Transitions>
      <BoundProperties>
        <BoundPropertyInt Name="rotateStepNinety" Value="0" />
      </BoundProperties>
    </ImageClip>
    <ImageClip extentID="1733" gapBefore="0" mediaItemID="1178" duration="1">
      <Effects />
      <Transitions>
        <ShaderEffect effectTemplateID="HeartTransitionTemplate" duration="1.5">
          <BoundProperties />
        </ShaderEffect>
      </Transitions>
      <BoundProperties>
        <BoundPropertyInt Name="rotateStepNinety" Value="0" />
      </BoundProperties>
    </ImageClip>
    <ImageClip extentID="702" gapBefore="0" mediaItemID="275" duration="1">
      <Effects />
      <Transitions>
        <ShapeEffect effectTemplateID="CrossfadeTransitionTemplate" duration="1.5">
          <BoundProperties />
        </ShapeEffect>
      </Transitions>
      <BoundProperties>
        <BoundPropertyInt Name="rotateStepNinety" Value="0" />
      </BoundProperties>
    </ImageClip>
    <ImageClip extentID="1734" gapBefore="0" mediaItemID="1179" duration="1">
      <Effects />
      <Transitions>
        <ShaderEffect effectTemplateID="HeartTransitionTemplate" duration="1.5">
          <BoundProperties />
        </ShaderEffect>
      </Transitions>
      <BoundProperties>
        <BoundPropertyInt Name="rotateStepNinety" Value="0" />
      </BoundProperties>
    </ImageClip>
    <ImageClip extentID="703" gapBefore="0" mediaItemID="276" duration="1">
      <Effects />
      <Transitions>
        <ShapeEffect effectTemplateID="CrossfadeTransitionTemplate" duration="1.5">
          <BoundProperties />
        </ShapeEffect>
      </Transitions>
      <BoundProperties>
        <BoundPropertyInt Name="rotateStepNinety" Value="0" />
      </BoundProperties>
    </ImageClip>
    <ImageClip extentID="1735" gapBefore="0" mediaItemID="1180" duration="1">
      <Effects />
      <Transitions>
        <ShaderEffect effectTemplateID="HeartTransitionTemplate" duration="1.5">
          <BoundProperties />
        </ShaderEffect>
      </Transitions>
      <BoundProperties>
        <BoundPropertyInt Name="rotateStepNinety" Value="0" />
      </BoundProperties>
    </ImageClip>
    <ImageClip extentID="704" gapBefore="0" mediaItemID="277" duration="1">
      <Effects />
      <Transitions>
        <ShapeEffect effectTemplateID="CrossfadeTransitionTemplate" duration="1.5">
          <BoundProperties />
        </ShapeEffect>
      </Transitions>
      <BoundProperties>
        <BoundPropertyInt Name="rotateStepNinety" Value="0" />
      </BoundProperties>
    </ImageClip>
    <ImageClip extentID="705" gapBefore="0" mediaItemID="278" duration="1">
      <Effects />
      <Transitions>
        <ShapeEffect effectTemplateID="CrossfadeTransitionTemplate" duration="1.5">
          <BoundProperties />
        </ShapeEffect>
      </Transitions>
      <BoundProperties>
        <BoundPropertyInt Name="rotateStepNinety" Value="0" />
      </BoundProperties>
    </ImageClip>
    <ImageClip extentID="706" gapBefore="0" mediaItemID="279" duration="1">
      <Effects />
      <Transitions>
        <ShapeEffect effectTemplateID="CrossfadeTransitionTemplate" duration="1.5">
          <BoundProperties />
        </ShapeEffect>
      </Transitions>
      <BoundProperties>
        <BoundPropertyInt Name="rotateStepNinety" Value="0" />
      </BoundProperties>
    </ImageClip>
    <ImageClip extentID="707" gapBefore="0" mediaItemID="280" duration="1">
      <Effects />
      <Transitions>
        <ShapeEffect effectTemplateID="CrossfadeTransitionTemplate" duration="1.5">
          <BoundProperties />
        </ShapeEffect>
      </Transitions>
      <BoundProperties>
        <BoundPropertyInt Name="rotateStepNinety" Value="0" />
      </BoundProperties>
    </ImageClip>
    <ImageClip extentID="1739" gapBefore="0" mediaItemID="1184" duration="1">
      <Effects />
      <Transitions>
        <ShaderEffect effectTemplateID="HeartTransitionTemplate" duration="1.5">
          <BoundProperties />
        </ShaderEffect>
      </Transitions>
      <BoundProperties>
        <BoundPropertyInt Name="rotateStepNinety" Value="0" />
      </BoundProperties>
    </ImageClip>
    <ImageClip extentID="708" gapBefore="0" mediaItemID="281" duration="1">
      <Effects />
      <Transitions>
        <ShapeEffect effectTemplateID="CrossfadeTransitionTemplate" duration="1.5">
          <BoundProperties />
        </ShapeEffect>
      </Transitions>
      <BoundProperties>
        <BoundPropertyInt Name="rotateStepNinety" Value="0" />
      </BoundProperties>
    </ImageClip>
    <ImageClip extentID="1740" gapBefore="0" mediaItemID="1185" duration="1">
      <Effects />
      <Transitions>
        <ShaderEffect effectTemplateID="HeartTransitionTemplate" duration="1.5">
          <BoundProperties />
        </ShaderEffect>
      </Transitions>
      <BoundProperties>
        <BoundPropertyInt Name="rotateStepNinety" Value="0" />
      </BoundProperties>
    </ImageClip>
    <ImageClip extentID="709" gapBefore="0" mediaItemID="282" duration="1">
      <Effects />
      <Transitions>
        <ShapeEffect effectTemplateID="CrossfadeTransitionTemplate" duration="1.5">
          <BoundProperties />
        </ShapeEffect>
      </Transitions>
      <BoundProperties>
        <BoundPropertyInt Name="rotateStepNinety" Value="0" />
      </BoundProperties>
    </ImageClip>
    <ImageClip extentID="1741" gapBefore="0" mediaItemID="1186" duration="1">
      <Effects />
      <Transitions>
        <ShaderEffect effectTemplateID="HeartTransitionTemplate" duration="1.5">
          <BoundProperties />
        </ShaderEffect>
      </Transitions>
      <BoundProperties>
        <BoundPropertyInt Name="rotateStepNinety" Value="0" />
      </BoundProperties>
    </ImageClip>
    <ImageClip extentID="710" gapBefore="0" mediaItemID="283" duration="1">
      <Effects />
      <Transitions>
        <ShapeEffect effectTemplateID="CrossfadeTransitionTemplate" duration="1.5">
          <BoundProperties />
        </ShapeEffect>
      </Transitions>
      <BoundProperties>
        <BoundPropertyInt Name="rotateStepNinety" Value="0" />
      </BoundProperties>
    </ImageClip>
    <ImageClip extentID="1742" gapBefore="0" mediaItemID="1187" duration="1">
      <Effects />
      <Transitions>
        <ShaderEffect effectTemplateID="HeartTransitionTemplate" duration="1.5">
          <BoundProperties />
        </ShaderEffect>
      </Transitions>
      <BoundProperties>
        <BoundPropertyInt Name="rotateStepNinety" Value="0" />
      </BoundProperties>
    </ImageClip>
    <ImageClip extentID="711" gapBefore="0" mediaItemID="284" duration="1">
      <Effects />
      <Transitions>
        <ShapeEffect effectTemplateID="CrossfadeTransitionTemplate" duration="1.5">
          <BoundProperties />
        </ShapeEffect>
      </Transitions>
      <BoundProperties>
        <BoundPropertyInt Name="rotateStepNinety" Value="0" />
      </BoundProperties>
    </ImageClip>
    <ImageClip extentID="1743" gapBefore="0" mediaItemID="1188" duration="1">
      <Effects />
      <Transitions>
        <ShaderEffect effectTemplateID="HeartTransitionTemplate" duration="1.5">
          <BoundProperties />
        </ShaderEffect>
      </Transitions>
      <BoundProperties>
        <BoundPropertyInt Name="rotateStepNinety" Value="0" />
      </BoundProperties>
    </ImageClip>
    <ImageClip extentID="712" gapBefore="0" mediaItemID="285" duration="1">
      <Effects />
      <Transitions>
        <ShapeEffect effectTemplateID="CrossfadeTransitionTemplate" duration="1.5">
          <BoundProperties />
        </ShapeEffect>
      </Transitions>
      <BoundProperties>
        <BoundPropertyInt Name="rotateStepNinety" Value="0" />
      </BoundProperties>
    </ImageClip>
    <ImageClip extentID="713" gapBefore="0" mediaItemID="286" duration="1">
      <Effects />
      <Transitions>
        <ShapeEffect effectTemplateID="CrossfadeTransitionTemplate" duration="1.5">
          <BoundProperties />
        </ShapeEffect>
      </Transitions>
      <BoundProperties>
        <BoundPropertyInt Name="rotateStepNinety" Value="0" />
      </BoundProperties>
    </ImageClip>
    <ImageClip extentID="714" gapBefore="0" mediaItemID="287" duration="1">
      <Effects />
      <Transitions>
        <ShapeEffect effectTemplateID="CrossfadeTransitionTemplate" duration="1.5">
          <BoundProperties />
        </ShapeEffect>
      </Transitions>
      <BoundProperties>
        <BoundPropertyInt Name="rotateStepNinety" Value="0" />
      </BoundProperties>
    </ImageClip>
    <ImageClip extentID="1746" gapBefore="0" mediaItemID="1191" duration="1">
      <Effects />
      <Transitions>
        <ShaderEffect effectTemplateID="HeartTransitionTemplate" duration="1.5">
          <BoundProperties />
        </ShaderEffect>
      </Transitions>
      <BoundProperties>
        <BoundPropertyInt Name="rotateStepNinety" Value="0" />
      </BoundProperties>
    </ImageClip>
    <ImageClip extentID="715" gapBefore="0" mediaItemID="288" duration="1">
      <Effects />
      <Transitions>
        <ShapeEffect effectTemplateID="CrossfadeTransitionTemplate" duration="1.5">
          <BoundProperties />
        </ShapeEffect>
      </Transitions>
      <BoundProperties>
        <BoundPropertyInt Name="rotateStepNinety" Value="0" />
      </BoundProperties>
    </ImageClip>
    <ImageClip extentID="716" gapBefore="0" mediaItemID="289" duration="1">
      <Effects />
      <Transitions>
        <ShapeEffect effectTemplateID="CrossfadeTransitionTemplate" duration="1.5">
          <BoundProperties />
        </ShapeEffect>
      </Transitions>
      <BoundProperties>
        <BoundPropertyInt Name="rotateStepNinety" Value="0" />
      </BoundProperties>
    </ImageClip>
    <ImageClip extentID="717" gapBefore="0" mediaItemID="290" duration="1">
      <Effects />
      <Transitions>
        <ShapeEffect effectTemplateID="CrossfadeTransitionTemplate" duration="1.5">
          <BoundProperties />
        </ShapeEffect>
      </Transitions>
      <BoundProperties>
        <BoundPropertyInt Name="rotateStepNinety" Value="0" />
      </BoundProperties>
    </ImageClip>
    <ImageClip extentID="1749" gapBefore="0" mediaItemID="1194" duration="1">
      <Effects />
      <Transitions>
        <ShaderEffect effectTemplateID="HeartTransitionTemplate" duration="1.5">
          <BoundProperties />
        </ShaderEffect>
      </Transitions>
      <BoundProperties>
        <BoundPropertyInt Name="rotateStepNinety" Value="0" />
      </BoundProperties>
    </ImageClip>
    <ImageClip extentID="718" gapBefore="0" mediaItemID="291" duration="1">
      <Effects />
      <Transitions>
        <ShapeEffect effectTemplateID="CrossfadeTransitionTemplate" duration="1.5">
          <BoundProperties />
        </ShapeEffect>
      </Transitions>
      <BoundProperties>
        <BoundPropertyInt Name="rotateStepNinety" Value="0" />
      </BoundProperties>
    </ImageClip>
    <ImageClip extentID="1750" gapBefore="0" mediaItemID="1195" duration="1">
      <Effects />
      <Transitions>
        <ShaderEffect effectTemplateID="HeartTransitionTemplate" duration="1.5">
          <BoundProperties />
        </ShaderEffect>
      </Transitions>
      <BoundProperties>
        <BoundPropertyInt Name="rotateStepNinety" Value="0" />
      </BoundProperties>
    </ImageClip>
    <ImageClip extentID="719" gapBefore="0" mediaItemID="292" duration="1">
      <Effects />
      <Transitions>
        <ShapeEffect effectTemplateID="CrossfadeTransitionTemplate" duration="1.5">
          <BoundProperties />
        </ShapeEffect>
      </Transitions>
      <BoundProperties>
        <BoundPropertyInt Name="rotateStepNinety" Value="0" />
      </BoundProperties>
    </ImageClip>
    <ImageClip extentID="1751" gapBefore="0" mediaItemID="1196" duration="1">
      <Effects />
      <Transitions>
        <ShaderEffect effectTemplateID="HeartTransitionTemplate" duration="1.5">
          <BoundProperties />
        </ShaderEffect>
      </Transitions>
      <BoundProperties>
        <BoundPropertyInt Name="rotateStepNinety" Value="0" />
      </BoundProperties>
    </ImageClip>
    <ImageClip extentID="720" gapBefore="0" mediaItemID="293" duration="1">
      <Effects />
      <Transitions>
        <ShapeEffect effectTemplateID="CrossfadeTransitionTemplate" duration="1.5">
          <BoundProperties />
        </ShapeEffect>
      </Transitions>
      <BoundProperties>
        <BoundPropertyInt Name="rotateStepNinety" Value="0" />
      </BoundProperties>
    </ImageClip>
    <ImageClip extentID="1752" gapBefore="0" mediaItemID="1197" duration="1">
      <Effects />
      <Transitions>
        <ShaderEffect effectTemplateID="HeartTransitionTemplate" duration="1.5">
          <BoundProperties />
        </ShaderEffect>
      </Transitions>
      <BoundProperties>
        <BoundPropertyInt Name="rotateStepNinety" Value="0" />
      </BoundProperties>
    </ImageClip>
    <ImageClip extentID="721" gapBefore="0" mediaItemID="294" duration="1">
      <Effects />
      <Transitions>
        <ShapeEffect effectTemplateID="CrossfadeTransitionTemplate" duration="1.5">
          <BoundProperties />
        </ShapeEffect>
      </Transitions>
      <BoundProperties>
        <BoundPropertyInt Name="rotateStepNinety" Value="0" />
      </BoundProperties>
    </ImageClip>
    <ImageClip extentID="1753" gapBefore="0" mediaItemID="1198" duration="1">
      <Effects />
      <Transitions>
        <ShaderEffect effectTemplateID="HeartTransitionTemplate" duration="1.5">
          <BoundProperties />
        </ShaderEffect>
      </Transitions>
      <BoundProperties>
        <BoundPropertyInt Name="rotateStepNinety" Value="0" />
      </BoundProperties>
    </ImageClip>
    <ImageClip extentID="722" gapBefore="0" mediaItemID="295" duration="1">
      <Effects />
      <Transitions>
        <ShapeEffect effectTemplateID="CrossfadeTransitionTemplate" duration="1.5">
          <BoundProperties />
        </ShapeEffect>
      </Transitions>
      <BoundProperties>
        <BoundPropertyInt Name="rotateStepNinety" Value="0" />
      </BoundProperties>
    </ImageClip>
    <ImageClip extentID="1754" gapBefore="0" mediaItemID="1199" duration="1">
      <Effects />
      <Transitions>
        <ShaderEffect effectTemplateID="HeartTransitionTemplate" duration="1.5">
          <BoundProperties />
        </ShaderEffect>
      </Transitions>
      <BoundProperties>
        <BoundPropertyInt Name="rotateStepNinety" Value="0" />
      </BoundProperties>
    </ImageClip>
    <ImageClip extentID="723" gapBefore="0" mediaItemID="296" duration="1">
      <Effects />
      <Transitions>
        <ShapeEffect effectTemplateID="CrossfadeTransitionTemplate" duration="1.5">
          <BoundProperties />
        </ShapeEffect>
      </Transitions>
      <BoundProperties>
        <BoundPropertyInt Name="rotateStepNinety" Value="0" />
      </BoundProperties>
    </ImageClip>
    <ImageClip extentID="1755" gapBefore="0" mediaItemID="1200" duration="1">
      <Effects />
      <Transitions>
        <ShaderEffect effectTemplateID="HeartTransitionTemplate" duration="1.5">
          <BoundProperties />
        </ShaderEffect>
      </Transitions>
      <BoundProperties>
        <BoundPropertyInt Name="rotateStepNinety" Value="0" />
      </BoundProperties>
    </ImageClip>
    <ImageClip extentID="724" gapBefore="0" mediaItemID="297" duration="1">
      <Effects />
      <Transitions>
        <ShapeEffect effectTemplateID="CrossfadeTransitionTemplate" duration="1.5">
          <BoundProperties />
        </ShapeEffect>
      </Transitions>
      <BoundProperties>
        <BoundPropertyInt Name="rotateStepNinety" Value="0" />
      </BoundProperties>
    </ImageClip>
    <ImageClip extentID="1756" gapBefore="0" mediaItemID="1201" duration="1">
      <Effects />
      <Transitions>
        <ShaderEffect effectTemplateID="HeartTransitionTemplate" duration="1.5">
          <BoundProperties />
        </ShaderEffect>
      </Transitions>
      <BoundProperties>
        <BoundPropertyInt Name="rotateStepNinety" Value="0" />
      </BoundProperties>
    </ImageClip>
    <ImageClip extentID="1757" gapBefore="0" mediaItemID="1202" duration="1">
      <Effects />
      <Transitions>
        <ShaderEffect effectTemplateID="HeartTransitionTemplate" duration="1.5">
          <BoundProperties />
        </ShaderEffect>
      </Transitions>
      <BoundProperties>
        <BoundPropertyInt Name="rotateStepNinety" Value="0" />
      </BoundProperties>
    </ImageClip>
    <ImageClip extentID="1758" gapBefore="0" mediaItemID="1203" duration="1">
      <Effects />
      <Transitions>
        <ShaderEffect effectTemplateID="HeartTransitionTemplate" duration="1.5">
          <BoundProperties />
        </ShaderEffect>
      </Transitions>
      <BoundProperties>
        <BoundPropertyInt Name="rotateStepNinety" Value="0" />
      </BoundProperties>
    </ImageClip>
    <ImageClip extentID="727" gapBefore="0" mediaItemID="300" duration="1">
      <Effects />
      <Transitions>
        <ShapeEffect effectTemplateID="CrossfadeTransitionTemplate" duration="1.5">
          <BoundProperties />
        </ShapeEffect>
      </Transitions>
      <BoundProperties>
        <BoundPropertyInt Name="rotateStepNinety" Value="0" />
      </BoundProperties>
    </ImageClip>
    <ImageClip extentID="1759" gapBefore="0" mediaItemID="1204" duration="1">
      <Effects />
      <Transitions>
        <ShaderEffect effectTemplateID="HeartTransitionTemplate" duration="1.5">
          <BoundProperties />
        </ShaderEffect>
      </Transitions>
      <BoundProperties>
        <BoundPropertyInt Name="rotateStepNinety" Value="0" />
      </BoundProperties>
    </ImageClip>
    <ImageClip extentID="728" gapBefore="0" mediaItemID="301" duration="1">
      <Effects />
      <Transitions>
        <ShapeEffect effectTemplateID="CrossfadeTransitionTemplate" duration="1.5">
          <BoundProperties />
        </ShapeEffect>
      </Transitions>
      <BoundProperties>
        <BoundPropertyInt Name="rotateStepNinety" Value="0" />
      </BoundProperties>
    </ImageClip>
    <ImageClip extentID="1760" gapBefore="0" mediaItemID="1205" duration="1">
      <Effects />
      <Transitions>
        <ShaderEffect effectTemplateID="HeartTransitionTemplate" duration="1.5">
          <BoundProperties />
        </ShaderEffect>
      </Transitions>
      <BoundProperties>
        <BoundPropertyInt Name="rotateStepNinety" Value="0" />
      </BoundProperties>
    </ImageClip>
    <ImageClip extentID="729" gapBefore="0" mediaItemID="302" duration="1">
      <Effects />
      <Transitions>
        <ShapeEffect effectTemplateID="CrossfadeTransitionTemplate" duration="1.5">
          <BoundProperties />
        </ShapeEffect>
      </Transitions>
      <BoundProperties>
        <BoundPropertyInt Name="rotateStepNinety" Value="0" />
      </BoundProperties>
    </ImageClip>
    <ImageClip extentID="1761" gapBefore="0" mediaItemID="1206" duration="1">
      <Effects />
      <Transitions>
        <ShaderEffect effectTemplateID="HeartTransitionTemplate" duration="1.5">
          <BoundProperties />
        </ShaderEffect>
      </Transitions>
      <BoundProperties>
        <BoundPropertyInt Name="rotateStepNinety" Value="0" />
      </BoundProperties>
    </ImageClip>
    <ImageClip extentID="730" gapBefore="0" mediaItemID="303" duration="1">
      <Effects />
      <Transitions>
        <ShapeEffect effectTemplateID="CrossfadeTransitionTemplate" duration="1.5">
          <BoundProperties />
        </ShapeEffect>
      </Transitions>
      <BoundProperties>
        <BoundPropertyInt Name="rotateStepNinety" Value="0" />
      </BoundProperties>
    </ImageClip>
    <ImageClip extentID="1762" gapBefore="0" mediaItemID="1207" duration="1">
      <Effects />
      <Transitions>
        <ShaderEffect effectTemplateID="HeartTransitionTemplate" duration="1.5">
          <BoundProperties />
        </ShaderEffect>
      </Transitions>
      <BoundProperties>
        <BoundPropertyInt Name="rotateStepNinety" Value="0" />
      </BoundProperties>
    </ImageClip>
    <ImageClip extentID="731" gapBefore="0" mediaItemID="304" duration="1">
      <Effects />
      <Transitions>
        <ShapeEffect effectTemplateID="CrossfadeTransitionTemplate" duration="1.5">
          <BoundProperties />
        </ShapeEffect>
      </Transitions>
      <BoundProperties>
        <BoundPropertyInt Name="rotateStepNinety" Value="0" />
      </BoundProperties>
    </ImageClip>
    <ImageClip extentID="1763" gapBefore="0" mediaItemID="1208" duration="1">
      <Effects />
      <Transitions>
        <ShaderEffect effectTemplateID="HeartTransitionTemplate" duration="1.5">
          <BoundProperties />
        </ShaderEffect>
      </Transitions>
      <BoundProperties>
        <BoundPropertyInt Name="rotateStepNinety" Value="0" />
      </BoundProperties>
    </ImageClip>
    <ImageClip extentID="732" gapBefore="0" mediaItemID="305" duration="1">
      <Effects />
      <Transitions>
        <ShapeEffect effectTemplateID="CrossfadeTransitionTemplate" duration="1.5">
          <BoundProperties />
        </ShapeEffect>
      </Transitions>
      <BoundProperties>
        <BoundPropertyInt Name="rotateStepNinety" Value="0" />
      </BoundProperties>
    </ImageClip>
    <ImageClip extentID="1764" gapBefore="0" mediaItemID="1209" duration="1">
      <Effects />
      <Transitions>
        <ShaderEffect effectTemplateID="HeartTransitionTemplate" duration="1.5">
          <BoundProperties />
        </ShaderEffect>
      </Transitions>
      <BoundProperties>
        <BoundPropertyInt Name="rotateStepNinety" Value="0" />
      </BoundProperties>
    </ImageClip>
    <ImageClip extentID="733" gapBefore="0" mediaItemID="306" duration="1">
      <Effects />
      <Transitions>
        <ShapeEffect effectTemplateID="CrossfadeTransitionTemplate" duration="1.5">
          <BoundProperties />
        </ShapeEffect>
      </Transitions>
      <BoundProperties>
        <BoundPropertyInt Name="rotateStepNinety" Value="0" />
      </BoundProperties>
    </ImageClip>
    <ImageClip extentID="1765" gapBefore="0" mediaItemID="1210" duration="1">
      <Effects />
      <Transitions>
        <ShaderEffect effectTemplateID="HeartTransitionTemplate" duration="1.5">
          <BoundProperties />
        </ShaderEffect>
      </Transitions>
      <BoundProperties>
        <BoundPropertyInt Name="rotateStepNinety" Value="0" />
      </BoundProperties>
    </ImageClip>
    <ImageClip extentID="734" gapBefore="0" mediaItemID="307" duration="1">
      <Effects />
      <Transitions>
        <ShapeEffect effectTemplateID="CrossfadeTransitionTemplate" duration="1.5">
          <BoundProperties />
        </ShapeEffect>
      </Transitions>
      <BoundProperties>
        <BoundPropertyInt Name="rotateStepNinety" Value="0" />
      </BoundProperties>
    </ImageClip>
    <ImageClip extentID="1766" gapBefore="0" mediaItemID="1211" duration="1">
      <Effects />
      <Transitions>
        <ShaderEffect effectTemplateID="HeartTransitionTemplate" duration="1.5">
          <BoundProperties />
        </ShaderEffect>
      </Transitions>
      <BoundProperties>
        <BoundPropertyInt Name="rotateStepNinety" Value="0" />
      </BoundProperties>
    </ImageClip>
    <ImageClip extentID="735" gapBefore="0" mediaItemID="308" duration="1">
      <Effects />
      <Transitions>
        <ShapeEffect effectTemplateID="CrossfadeTransitionTemplate" duration="1.5">
          <BoundProperties />
        </ShapeEffect>
      </Transitions>
      <BoundProperties>
        <BoundPropertyInt Name="rotateStepNinety" Value="0" />
      </BoundProperties>
    </ImageClip>
    <ImageClip extentID="1767" gapBefore="0" mediaItemID="1212" duration="1">
      <Effects />
      <Transitions>
        <ShaderEffect effectTemplateID="HeartTransitionTemplate" duration="1.5">
          <BoundProperties />
        </ShaderEffect>
      </Transitions>
      <BoundProperties>
        <BoundPropertyInt Name="rotateStepNinety" Value="0" />
      </BoundProperties>
    </ImageClip>
    <ImageClip extentID="736" gapBefore="0" mediaItemID="309" duration="1">
      <Effects />
      <Transitions>
        <ShapeEffect effectTemplateID="CrossfadeTransitionTemplate" duration="1.5">
          <BoundProperties />
        </ShapeEffect>
      </Transitions>
      <BoundProperties>
        <BoundPropertyInt Name="rotateStepNinety" Value="0" />
      </BoundProperties>
    </ImageClip>
    <ImageClip extentID="1768" gapBefore="0" mediaItemID="1213" duration="1">
      <Effects />
      <Transitions>
        <ShaderEffect effectTemplateID="HeartTransitionTemplate" duration="1.5">
          <BoundProperties />
        </ShaderEffect>
      </Transitions>
      <BoundProperties>
        <BoundPropertyInt Name="rotateStepNinety" Value="0" />
      </BoundProperties>
    </ImageClip>
    <ImageClip extentID="737" gapBefore="0" mediaItemID="310" duration="1">
      <Effects />
      <Transitions>
        <ShapeEffect effectTemplateID="CrossfadeTransitionTemplate" duration="1.5">
          <BoundProperties />
        </ShapeEffect>
      </Transitions>
      <BoundProperties>
        <BoundPropertyInt Name="rotateStepNinety" Value="0" />
      </BoundProperties>
    </ImageClip>
    <ImageClip extentID="1769" gapBefore="0" mediaItemID="1214" duration="1">
      <Effects />
      <Transitions>
        <ShaderEffect effectTemplateID="HeartTransitionTemplate" duration="1.5">
          <BoundProperties />
        </ShaderEffect>
      </Transitions>
      <BoundProperties>
        <BoundPropertyInt Name="rotateStepNinety" Value="0" />
      </BoundProperties>
    </ImageClip>
    <ImageClip extentID="738" gapBefore="0" mediaItemID="311" duration="1">
      <Effects />
      <Transitions>
        <ShapeEffect effectTemplateID="CrossfadeTransitionTemplate" duration="1.5">
          <BoundProperties />
        </ShapeEffect>
      </Transitions>
      <BoundProperties>
        <BoundPropertyInt Name="rotateStepNinety" Value="0" />
      </BoundProperties>
    </ImageClip>
    <ImageClip extentID="739" gapBefore="0" mediaItemID="312" duration="1">
      <Effects />
      <Transitions>
        <ShapeEffect effectTemplateID="CrossfadeTransitionTemplate" duration="1.5">
          <BoundProperties />
        </ShapeEffect>
      </Transitions>
      <BoundProperties>
        <BoundPropertyInt Name="rotateStepNinety" Value="0" />
      </BoundProperties>
    </ImageClip>
    <ImageClip extentID="741" gapBefore="0" mediaItemID="314" duration="1">
      <Effects />
      <Transitions>
        <ShapeEffect effectTemplateID="CrossfadeTransitionTemplate" duration="1.5">
          <BoundProperties />
        </ShapeEffect>
      </Transitions>
      <BoundProperties>
        <BoundPropertyInt Name="rotateStepNinety" Value="0" />
      </BoundProperties>
    </ImageClip>
    <ImageClip extentID="742" gapBefore="0" mediaItemID="315" duration="1">
      <Effects />
      <Transitions>
        <ShapeEffect effectTemplateID="CrossfadeTransitionTemplate" duration="1.5">
          <BoundProperties />
        </ShapeEffect>
      </Transitions>
      <BoundProperties>
        <BoundPropertyInt Name="rotateStepNinety" Value="0" />
      </BoundProperties>
    </ImageClip>
    <ImageClip extentID="743" gapBefore="0" mediaItemID="316" duration="1">
      <Effects />
      <Transitions>
        <ShapeEffect effectTemplateID="CrossfadeTransitionTemplate" duration="1.5">
          <BoundProperties />
        </ShapeEffect>
      </Transitions>
      <BoundProperties>
        <BoundPropertyInt Name="rotateStepNinety" Value="0" />
      </BoundProperties>
    </ImageClip>
    <ImageClip extentID="744" gapBefore="0" mediaItemID="317" duration="1">
      <Effects />
      <Transitions>
        <ShapeEffect effectTemplateID="CrossfadeTransitionTemplate" duration="1.5">
          <BoundProperties />
        </ShapeEffect>
      </Transitions>
      <BoundProperties>
        <BoundPropertyInt Name="rotateStepNinety" Value="0" />
      </BoundProperties>
    </ImageClip>
    <ImageClip extentID="745" gapBefore="0" mediaItemID="318" duration="1">
      <Effects />
      <Transitions>
        <ShapeEffect effectTemplateID="CrossfadeTransitionTemplate" duration="1.5">
          <BoundProperties />
        </ShapeEffect>
      </Transitions>
      <BoundProperties>
        <BoundPropertyInt Name="rotateStepNinety" Value="0" />
      </BoundProperties>
    </ImageClip>
    <ImageClip extentID="1777" gapBefore="0" mediaItemID="1222" duration="1">
      <Effects />
      <Transitions>
        <ShaderEffect effectTemplateID="HeartTransitionTemplate" duration="1.5">
          <BoundProperties />
        </ShaderEffect>
      </Transitions>
      <BoundProperties>
        <BoundPropertyInt Name="rotateStepNinety" Value="0" />
      </BoundProperties>
    </ImageClip>
    <ImageClip extentID="746" gapBefore="0" mediaItemID="319" duration="1">
      <Effects />
      <Transitions>
        <ShapeEffect effectTemplateID="CrossfadeTransitionTemplate" duration="1.5">
          <BoundProperties />
        </ShapeEffect>
      </Transitions>
      <BoundProperties>
        <BoundPropertyInt Name="rotateStepNinety" Value="0" />
      </BoundProperties>
    </ImageClip>
    <ImageClip extentID="747" gapBefore="0" mediaItemID="320" duration="1">
      <Effects />
      <Transitions>
        <ShapeEffect effectTemplateID="CrossfadeTransitionTemplate" duration="1.5">
          <BoundProperties />
        </ShapeEffect>
      </Transitions>
      <BoundProperties>
        <BoundPropertyInt Name="rotateStepNinety" Value="0" />
      </BoundProperties>
    </ImageClip>
    <ImageClip extentID="1779" gapBefore="0" mediaItemID="1224" duration="1">
      <Effects />
      <Transitions>
        <ShaderEffect effectTemplateID="HeartTransitionTemplate" duration="1.5">
          <BoundProperties />
        </ShaderEffect>
      </Transitions>
      <BoundProperties>
        <BoundPropertyInt Name="rotateStepNinety" Value="0" />
      </BoundProperties>
    </ImageClip>
    <ImageClip extentID="748" gapBefore="0" mediaItemID="321" duration="1">
      <Effects />
      <Transitions>
        <ShapeEffect effectTemplateID="CrossfadeTransitionTemplate" duration="1.5">
          <BoundProperties />
        </ShapeEffect>
      </Transitions>
      <BoundProperties>
        <BoundPropertyInt Name="rotateStepNinety" Value="0" />
      </BoundProperties>
    </ImageClip>
    <ImageClip extentID="1780" gapBefore="0" mediaItemID="1225" duration="1">
      <Effects />
      <Transitions>
        <ShaderEffect effectTemplateID="HeartTransitionTemplate" duration="1.5">
          <BoundProperties />
        </ShaderEffect>
      </Transitions>
      <BoundProperties>
        <BoundPropertyInt Name="rotateStepNinety" Value="0" />
      </BoundProperties>
    </ImageClip>
    <ImageClip extentID="749" gapBefore="0" mediaItemID="322" duration="1">
      <Effects />
      <Transitions>
        <ShapeEffect effectTemplateID="CrossfadeTransitionTemplate" duration="1.5">
          <BoundProperties />
        </ShapeEffect>
      </Transitions>
      <BoundProperties>
        <BoundPropertyInt Name="rotateStepNinety" Value="0" />
      </BoundProperties>
    </ImageClip>
    <ImageClip extentID="750" gapBefore="0" mediaItemID="323" duration="1">
      <Effects />
      <Transitions>
        <ShapeEffect effectTemplateID="CrossfadeTransitionTemplate" duration="1.5">
          <BoundProperties />
        </ShapeEffect>
      </Transitions>
      <BoundProperties>
        <BoundPropertyInt Name="rotateStepNinety" Value="0" />
      </BoundProperties>
    </ImageClip>
    <ImageClip extentID="751" gapBefore="0" mediaItemID="324" duration="1">
      <Effects />
      <Transitions>
        <ShapeEffect effectTemplateID="CrossfadeTransitionTemplate" duration="1.5">
          <BoundProperties />
        </ShapeEffect>
      </Transitions>
      <BoundProperties>
        <BoundPropertyInt Name="rotateStepNinety" Value="1" />
      </BoundProperties>
    </ImageClip>
    <ImageClip extentID="1783" gapBefore="0" mediaItemID="1228" duration="1">
      <Effects />
      <Transitions>
        <ShaderEffect effectTemplateID="HeartTransitionTemplate" duration="1.5">
          <BoundProperties />
        </ShaderEffect>
      </Transitions>
      <BoundProperties>
        <BoundPropertyInt Name="rotateStepNinety" Value="0" />
      </BoundProperties>
    </ImageClip>
    <ImageClip extentID="752" gapBefore="0" mediaItemID="325" duration="1">
      <Effects />
      <Transitions>
        <ShapeEffect effectTemplateID="CrossfadeTransitionTemplate" duration="1.5">
          <BoundProperties />
        </ShapeEffect>
      </Transitions>
      <BoundProperties>
        <BoundPropertyInt Name="rotateStepNinety" Value="0" />
      </BoundProperties>
    </ImageClip>
    <ImageClip extentID="1784" gapBefore="0" mediaItemID="1229" duration="1">
      <Effects />
      <Transitions>
        <ShaderEffect effectTemplateID="HeartTransitionTemplate" duration="1.5">
          <BoundProperties />
        </ShaderEffect>
      </Transitions>
      <BoundProperties>
        <BoundPropertyInt Name="rotateStepNinety" Value="0" />
      </BoundProperties>
    </ImageClip>
    <ImageClip extentID="753" gapBefore="0" mediaItemID="326" duration="1">
      <Effects />
      <Transitions>
        <ShapeEffect effectTemplateID="CrossfadeTransitionTemplate" duration="1.5">
          <BoundProperties />
        </ShapeEffect>
      </Transitions>
      <BoundProperties>
        <BoundPropertyInt Name="rotateStepNinety" Value="0" />
      </BoundProperties>
    </ImageClip>
    <ImageClip extentID="1785" gapBefore="0" mediaItemID="1230" duration="1">
      <Effects />
      <Transitions>
        <ShaderEffect effectTemplateID="HeartTransitionTemplate" duration="1.5">
          <BoundProperties />
        </ShaderEffect>
      </Transitions>
      <BoundProperties>
        <BoundPropertyInt Name="rotateStepNinety" Value="0" />
      </BoundProperties>
    </ImageClip>
    <ImageClip extentID="754" gapBefore="0" mediaItemID="327" duration="1">
      <Effects />
      <Transitions>
        <ShapeEffect effectTemplateID="CrossfadeTransitionTemplate" duration="1.5">
          <BoundProperties />
        </ShapeEffect>
      </Transitions>
      <BoundProperties>
        <BoundPropertyInt Name="rotateStepNinety" Value="0" />
      </BoundProperties>
    </ImageClip>
    <ImageClip extentID="755" gapBefore="0" mediaItemID="328" duration="1">
      <Effects />
      <Transitions>
        <ShapeEffect effectTemplateID="CrossfadeTransitionTemplate" duration="1.5">
          <BoundProperties />
        </ShapeEffect>
      </Transitions>
      <BoundProperties>
        <BoundPropertyInt Name="rotateStepNinety" Value="0" />
      </BoundProperties>
    </ImageClip>
    <ImageClip extentID="1787" gapBefore="0" mediaItemID="1232" duration="1">
      <Effects />
      <Transitions>
        <ShaderEffect effectTemplateID="HeartTransitionTemplate" duration="1.5">
          <BoundProperties />
        </ShaderEffect>
      </Transitions>
      <BoundProperties>
        <BoundPropertyInt Name="rotateStepNinety" Value="0" />
      </BoundProperties>
    </ImageClip>
    <ImageClip extentID="756" gapBefore="0" mediaItemID="329" duration="1">
      <Effects />
      <Transitions>
        <ShapeEffect effectTemplateID="CrossfadeTransitionTemplate" duration="1.5">
          <BoundProperties />
        </ShapeEffect>
      </Transitions>
      <BoundProperties>
        <BoundPropertyInt Name="rotateStepNinety" Value="0" />
      </BoundProperties>
    </ImageClip>
    <ImageClip extentID="1788" gapBefore="0" mediaItemID="1233" duration="1">
      <Effects />
      <Transitions>
        <ShaderEffect effectTemplateID="HeartTransitionTemplate" duration="1.5">
          <BoundProperties />
        </ShaderEffect>
      </Transitions>
      <BoundProperties>
        <BoundPropertyInt Name="rotateStepNinety" Value="0" />
      </BoundProperties>
    </ImageClip>
    <ImageClip extentID="757" gapBefore="0" mediaItemID="330" duration="1">
      <Effects />
      <Transitions>
        <ShapeEffect effectTemplateID="CrossfadeTransitionTemplate" duration="1.5">
          <BoundProperties />
        </ShapeEffect>
      </Transitions>
      <BoundProperties>
        <BoundPropertyInt Name="rotateStepNinety" Value="0" />
      </BoundProperties>
    </ImageClip>
    <ImageClip extentID="1789" gapBefore="0" mediaItemID="1234" duration="1">
      <Effects />
      <Transitions>
        <ShaderEffect effectTemplateID="HeartTransitionTemplate" duration="1.5">
          <BoundProperties />
        </ShaderEffect>
      </Transitions>
      <BoundProperties>
        <BoundPropertyInt Name="rotateStepNinety" Value="0" />
      </BoundProperties>
    </ImageClip>
    <ImageClip extentID="758" gapBefore="0" mediaItemID="331" duration="1">
      <Effects />
      <Transitions>
        <ShapeEffect effectTemplateID="CrossfadeTransitionTemplate" duration="1.5">
          <BoundProperties />
        </ShapeEffect>
      </Transitions>
      <BoundProperties>
        <BoundPropertyInt Name="rotateStepNinety" Value="0" />
      </BoundProperties>
    </ImageClip>
    <ImageClip extentID="759" gapBefore="0" mediaItemID="332" duration="1">
      <Effects />
      <Transitions>
        <ShapeEffect effectTemplateID="CrossfadeTransitionTemplate" duration="1.5">
          <BoundProperties />
        </ShapeEffect>
      </Transitions>
      <BoundProperties>
        <BoundPropertyInt Name="rotateStepNinety" Value="0" />
      </BoundProperties>
    </ImageClip>
    <ImageClip extentID="1791" gapBefore="0" mediaItemID="1236" duration="1">
      <Effects />
      <Transitions>
        <ShaderEffect effectTemplateID="HeartTransitionTemplate" duration="1.5">
          <BoundProperties />
        </ShaderEffect>
      </Transitions>
      <BoundProperties>
        <BoundPropertyInt Name="rotateStepNinety" Value="0" />
      </BoundProperties>
    </ImageClip>
    <ImageClip extentID="760" gapBefore="0" mediaItemID="333" duration="1">
      <Effects />
      <Transitions>
        <ShapeEffect effectTemplateID="CrossfadeTransitionTemplate" duration="1.5">
          <BoundProperties />
        </ShapeEffect>
      </Transitions>
      <BoundProperties>
        <BoundPropertyInt Name="rotateStepNinety" Value="0" />
      </BoundProperties>
    </ImageClip>
    <ImageClip extentID="1792" gapBefore="0" mediaItemID="1237" duration="1">
      <Effects />
      <Transitions>
        <ShaderEffect effectTemplateID="HeartTransitionTemplate" duration="1.5">
          <BoundProperties />
        </ShaderEffect>
      </Transitions>
      <BoundProperties>
        <BoundPropertyInt Name="rotateStepNinety" Value="0" />
      </BoundProperties>
    </ImageClip>
    <ImageClip extentID="761" gapBefore="0" mediaItemID="334" duration="1">
      <Effects />
      <Transitions>
        <ShapeEffect effectTemplateID="CrossfadeTransitionTemplate" duration="1.5">
          <BoundProperties />
        </ShapeEffect>
      </Transitions>
      <BoundProperties>
        <BoundPropertyInt Name="rotateStepNinety" Value="0" />
      </BoundProperties>
    </ImageClip>
    <ImageClip extentID="1793" gapBefore="0" mediaItemID="1238" duration="1">
      <Effects />
      <Transitions>
        <ShaderEffect effectTemplateID="HeartTransitionTemplate" duration="1.5">
          <BoundProperties />
        </ShaderEffect>
      </Transitions>
      <BoundProperties>
        <BoundPropertyInt Name="rotateStepNinety" Value="0" />
      </BoundProperties>
    </ImageClip>
    <ImageClip extentID="762" gapBefore="0" mediaItemID="335" duration="1">
      <Effects />
      <Transitions>
        <ShapeEffect effectTemplateID="CrossfadeTransitionTemplate" duration="1.5">
          <BoundProperties />
        </ShapeEffect>
      </Transitions>
      <BoundProperties>
        <BoundPropertyInt Name="rotateStepNinety" Value="0" />
      </BoundProperties>
    </ImageClip>
    <ImageClip extentID="1794" gapBefore="0" mediaItemID="1239" duration="1">
      <Effects />
      <Transitions>
        <ShaderEffect effectTemplateID="HeartTransitionTemplate" duration="1.5">
          <BoundProperties />
        </ShaderEffect>
      </Transitions>
      <BoundProperties>
        <BoundPropertyInt Name="rotateStepNinety" Value="0" />
      </BoundProperties>
    </ImageClip>
    <ImageClip extentID="763" gapBefore="0" mediaItemID="336" duration="1">
      <Effects />
      <Transitions>
        <ShapeEffect effectTemplateID="CrossfadeTransitionTemplate" duration="1.5">
          <BoundProperties />
        </ShapeEffect>
      </Transitions>
      <BoundProperties>
        <BoundPropertyInt Name="rotateStepNinety" Value="0" />
      </BoundProperties>
    </ImageClip>
    <ImageClip extentID="764" gapBefore="0" mediaItemID="337" duration="1">
      <Effects />
      <Transitions>
        <ShapeEffect effectTemplateID="CrossfadeTransitionTemplate" duration="1.5">
          <BoundProperties />
        </ShapeEffect>
      </Transitions>
      <BoundProperties>
        <BoundPropertyInt Name="rotateStepNinety" Value="0" />
      </BoundProperties>
    </ImageClip>
    <ImageClip extentID="1796" gapBefore="0" mediaItemID="1241" duration="1">
      <Effects />
      <Transitions>
        <ShaderEffect effectTemplateID="HeartTransitionTemplate" duration="1.5">
          <BoundProperties />
        </ShaderEffect>
      </Transitions>
      <BoundProperties>
        <BoundPropertyInt Name="rotateStepNinety" Value="0" />
      </BoundProperties>
    </ImageClip>
    <ImageClip extentID="765" gapBefore="0" mediaItemID="338" duration="1">
      <Effects />
      <Transitions>
        <ShapeEffect effectTemplateID="CrossfadeTransitionTemplate" duration="1.5">
          <BoundProperties />
        </ShapeEffect>
      </Transitions>
      <BoundProperties>
        <BoundPropertyInt Name="rotateStepNinety" Value="0" />
      </BoundProperties>
    </ImageClip>
    <ImageClip extentID="1797" gapBefore="0" mediaItemID="1242" duration="1">
      <Effects />
      <Transitions>
        <ShaderEffect effectTemplateID="HeartTransitionTemplate" duration="1.5">
          <BoundProperties />
        </ShaderEffect>
      </Transitions>
      <BoundProperties>
        <BoundPropertyInt Name="rotateStepNinety" Value="0" />
      </BoundProperties>
    </ImageClip>
    <ImageClip extentID="766" gapBefore="0" mediaItemID="339" duration="1">
      <Effects />
      <Transitions>
        <ShapeEffect effectTemplateID="CrossfadeTransitionTemplate" duration="1.5">
          <BoundProperties />
        </ShapeEffect>
      </Transitions>
      <BoundProperties>
        <BoundPropertyInt Name="rotateStepNinety" Value="0" />
      </BoundProperties>
    </ImageClip>
    <ImageClip extentID="767" gapBefore="0" mediaItemID="340" duration="1">
      <Effects />
      <Transitions>
        <ShapeEffect effectTemplateID="CrossfadeTransitionTemplate" duration="1.5">
          <BoundProperties />
        </ShapeEffect>
      </Transitions>
      <BoundProperties>
        <BoundPropertyInt Name="rotateStepNinety" Value="0" />
      </BoundProperties>
    </ImageClip>
    <ImageClip extentID="768" gapBefore="0" mediaItemID="341" duration="1">
      <Effects />
      <Transitions>
        <ShapeEffect effectTemplateID="CrossfadeTransitionTemplate" duration="1.5">
          <BoundProperties />
        </ShapeEffect>
      </Transitions>
      <BoundProperties>
        <BoundPropertyInt Name="rotateStepNinety" Value="0" />
      </BoundProperties>
    </ImageClip>
    <ImageClip extentID="1801" gapBefore="0" mediaItemID="1246" duration="1">
      <Effects />
      <Transitions>
        <ShaderEffect effectTemplateID="HeartTransitionTemplate" duration="1.5">
          <BoundProperties />
        </ShaderEffect>
      </Transitions>
      <BoundProperties>
        <BoundPropertyInt Name="rotateStepNinety" Value="0" />
      </BoundProperties>
    </ImageClip>
    <ImageClip extentID="770" gapBefore="0" mediaItemID="343" duration="1">
      <Effects />
      <Transitions>
        <ShapeEffect effectTemplateID="CrossfadeTransitionTemplate" duration="1.5">
          <BoundProperties />
        </ShapeEffect>
      </Transitions>
      <BoundProperties>
        <BoundPropertyInt Name="rotateStepNinety" Value="0" />
      </BoundProperties>
    </ImageClip>
    <ImageClip extentID="1802" gapBefore="0" mediaItemID="1247" duration="1">
      <Effects />
      <Transitions>
        <ShaderEffect effectTemplateID="HeartTransitionTemplate" duration="1.5">
          <BoundProperties />
        </ShaderEffect>
      </Transitions>
      <BoundProperties>
        <BoundPropertyInt Name="rotateStepNinety" Value="0" />
      </BoundProperties>
    </ImageClip>
    <ImageClip extentID="771" gapBefore="0" mediaItemID="344" duration="1">
      <Effects />
      <Transitions>
        <ShapeEffect effectTemplateID="CrossfadeTransitionTemplate" duration="1.5">
          <BoundProperties />
        </ShapeEffect>
      </Transitions>
      <BoundProperties>
        <BoundPropertyInt Name="rotateStepNinety" Value="0" />
      </BoundProperties>
    </ImageClip>
    <ImageClip extentID="1803" gapBefore="0" mediaItemID="1248" duration="1">
      <Effects />
      <Transitions>
        <ShaderEffect effectTemplateID="HeartTransitionTemplate" duration="1.5">
          <BoundProperties />
        </ShaderEffect>
      </Transitions>
      <BoundProperties>
        <BoundPropertyInt Name="rotateStepNinety" Value="0" />
      </BoundProperties>
    </ImageClip>
    <ImageClip extentID="772" gapBefore="0" mediaItemID="345" duration="1">
      <Effects />
      <Transitions>
        <ShapeEffect effectTemplateID="CrossfadeTransitionTemplate" duration="1.5">
          <BoundProperties />
        </ShapeEffect>
      </Transitions>
      <BoundProperties>
        <BoundPropertyInt Name="rotateStepNinety" Value="0" />
      </BoundProperties>
    </ImageClip>
    <ImageClip extentID="1804" gapBefore="0" mediaItemID="1249" duration="1">
      <Effects />
      <Transitions>
        <ShaderEffect effectTemplateID="HeartTransitionTemplate" duration="1.5">
          <BoundProperties />
        </ShaderEffect>
      </Transitions>
      <BoundProperties>
        <BoundPropertyInt Name="rotateStepNinety" Value="0" />
      </BoundProperties>
    </ImageClip>
    <ImageClip extentID="773" gapBefore="0" mediaItemID="346" duration="1">
      <Effects />
      <Transitions>
        <ShapeEffect effectTemplateID="CrossfadeTransitionTemplate" duration="1.5">
          <BoundProperties />
        </ShapeEffect>
      </Transitions>
      <BoundProperties>
        <BoundPropertyInt Name="rotateStepNinety" Value="0" />
      </BoundProperties>
    </ImageClip>
    <ImageClip extentID="1805" gapBefore="0" mediaItemID="809" duration="1">
      <Effects />
      <Transitions>
        <ShaderEffect effectTemplateID="HeartTransitionTemplate" duration="1.5">
          <BoundProperties />
        </ShaderEffect>
      </Transitions>
      <BoundProperties>
        <BoundPropertyInt Name="rotateStepNinety" Value="0" />
      </BoundProperties>
    </ImageClip>
    <ImageClip extentID="774" gapBefore="0" mediaItemID="347" duration="1">
      <Effects />
      <Transitions>
        <ShapeEffect effectTemplateID="CrossfadeTransitionTemplate" duration="1.5">
          <BoundProperties />
        </ShapeEffect>
      </Transitions>
      <BoundProperties>
        <BoundPropertyInt Name="rotateStepNinety" Value="0" />
      </BoundProperties>
    </ImageClip>
    <ImageClip extentID="1806" gapBefore="0" mediaItemID="810" duration="1">
      <Effects />
      <Transitions>
        <ShaderEffect effectTemplateID="HeartTransitionTemplate" duration="1.5">
          <BoundProperties />
        </ShaderEffect>
      </Transitions>
      <BoundProperties>
        <BoundPropertyInt Name="rotateStepNinety" Value="0" />
      </BoundProperties>
    </ImageClip>
    <ImageClip extentID="775" gapBefore="0" mediaItemID="348" duration="1">
      <Effects />
      <Transitions>
        <ShapeEffect effectTemplateID="CrossfadeTransitionTemplate" duration="1.5">
          <BoundProperties />
        </ShapeEffect>
      </Transitions>
      <BoundProperties>
        <BoundPropertyInt Name="rotateStepNinety" Value="0" />
      </BoundProperties>
    </ImageClip>
    <ImageClip extentID="1807" gapBefore="0" mediaItemID="811" duration="1">
      <Effects />
      <Transitions>
        <ShaderEffect effectTemplateID="HeartTransitionTemplate" duration="1.5">
          <BoundProperties />
        </ShaderEffect>
      </Transitions>
      <BoundProperties>
        <BoundPropertyInt Name="rotateStepNinety" Value="0" />
      </BoundProperties>
    </ImageClip>
    <ImageClip extentID="776" gapBefore="0" mediaItemID="349" duration="1">
      <Effects />
      <Transitions>
        <ShapeEffect effectTemplateID="CrossfadeTransitionTemplate" duration="1.5">
          <BoundProperties />
        </ShapeEffect>
      </Transitions>
      <BoundProperties>
        <BoundPropertyInt Name="rotateStepNinety" Value="0" />
      </BoundProperties>
    </ImageClip>
    <ImageClip extentID="1808" gapBefore="0" mediaItemID="812" duration="1">
      <Effects />
      <Transitions>
        <ShaderEffect effectTemplateID="HeartTransitionTemplate" duration="1.5">
          <BoundProperties />
        </ShaderEffect>
      </Transitions>
      <BoundProperties>
        <BoundPropertyInt Name="rotateStepNinety" Value="0" />
      </BoundProperties>
    </ImageClip>
    <ImageClip extentID="777" gapBefore="0" mediaItemID="350" duration="1">
      <Effects />
      <Transitions>
        <ShapeEffect effectTemplateID="CrossfadeTransitionTemplate" duration="1.5">
          <BoundProperties />
        </ShapeEffect>
      </Transitions>
      <BoundProperties>
        <BoundPropertyInt Name="rotateStepNinety" Value="0" />
      </BoundProperties>
    </ImageClip>
    <ImageClip extentID="1809" gapBefore="0" mediaItemID="813" duration="1">
      <Effects />
      <Transitions>
        <ShaderEffect effectTemplateID="HeartTransitionTemplate" duration="1.5">
          <BoundProperties />
        </ShaderEffect>
      </Transitions>
      <BoundProperties>
        <BoundPropertyInt Name="rotateStepNinety" Value="0" />
      </BoundProperties>
    </ImageClip>
    <ImageClip extentID="778" gapBefore="0" mediaItemID="351" duration="1">
      <Effects />
      <Transitions>
        <ShapeEffect effectTemplateID="CrossfadeTransitionTemplate" duration="1.5">
          <BoundProperties />
        </ShapeEffect>
      </Transitions>
      <BoundProperties>
        <BoundPropertyInt Name="rotateStepNinety" Value="0" />
      </BoundProperties>
    </ImageClip>
    <ImageClip extentID="779" gapBefore="0" mediaItemID="352" duration="1">
      <Effects />
      <Transitions>
        <ShapeEffect effectTemplateID="CrossfadeTransitionTemplate" duration="1.5">
          <BoundProperties />
        </ShapeEffect>
      </Transitions>
      <BoundProperties>
        <BoundPropertyInt Name="rotateStepNinety" Value="0" />
      </BoundProperties>
    </ImageClip>
    <ImageClip extentID="1811" gapBefore="0" mediaItemID="815" duration="1">
      <Effects />
      <Transitions>
        <ShaderEffect effectTemplateID="HeartTransitionTemplate" duration="1.5">
          <BoundProperties />
        </ShaderEffect>
      </Transitions>
      <BoundProperties>
        <BoundPropertyInt Name="rotateStepNinety" Value="0" />
      </BoundProperties>
    </ImageClip>
    <ImageClip extentID="780" gapBefore="0" mediaItemID="353" duration="1">
      <Effects />
      <Transitions>
        <ShapeEffect effectTemplateID="CrossfadeTransitionTemplate" duration="1.5">
          <BoundProperties />
        </ShapeEffect>
      </Transitions>
      <BoundProperties>
        <BoundPropertyInt Name="rotateStepNinety" Value="0" />
      </BoundProperties>
    </ImageClip>
    <ImageClip extentID="1812" gapBefore="0" mediaItemID="816" duration="1">
      <Effects />
      <Transitions>
        <ShaderEffect effectTemplateID="HeartTransitionTemplate" duration="1.5">
          <BoundProperties />
        </ShaderEffect>
      </Transitions>
      <BoundProperties>
        <BoundPropertyInt Name="rotateStepNinety" Value="0" />
      </BoundProperties>
    </ImageClip>
    <ImageClip extentID="781" gapBefore="0" mediaItemID="354" duration="1">
      <Effects />
      <Transitions>
        <ShapeEffect effectTemplateID="CrossfadeTransitionTemplate" duration="1.5">
          <BoundProperties />
        </ShapeEffect>
      </Transitions>
      <BoundProperties>
        <BoundPropertyInt Name="rotateStepNinety" Value="0" />
      </BoundProperties>
    </ImageClip>
    <ImageClip extentID="1813" gapBefore="0" mediaItemID="817" duration="1">
      <Effects />
      <Transitions>
        <ShaderEffect effectTemplateID="HeartTransitionTemplate" duration="1.5">
          <BoundProperties />
        </ShaderEffect>
      </Transitions>
      <BoundProperties>
        <BoundPropertyInt Name="rotateStepNinety" Value="0" />
      </BoundProperties>
    </ImageClip>
    <ImageClip extentID="782" gapBefore="0" mediaItemID="355" duration="1">
      <Effects />
      <Transitions>
        <ShapeEffect effectTemplateID="CrossfadeTransitionTemplate" duration="1.5">
          <BoundProperties />
        </ShapeEffect>
      </Transitions>
      <BoundProperties>
        <BoundPropertyInt Name="rotateStepNinety" Value="0" />
      </BoundProperties>
    </ImageClip>
    <ImageClip extentID="1814" gapBefore="0" mediaItemID="818" duration="1">
      <Effects />
      <Transitions>
        <ShaderEffect effectTemplateID="HeartTransitionTemplate" duration="1.5">
          <BoundProperties />
        </ShaderEffect>
      </Transitions>
      <BoundProperties>
        <BoundPropertyInt Name="rotateStepNinety" Value="0" />
      </BoundProperties>
    </ImageClip>
    <ImageClip extentID="1815" gapBefore="0" mediaItemID="819" duration="1">
      <Effects />
      <Transitions>
        <ShaderEffect effectTemplateID="HeartTransitionTemplate" duration="1.5">
          <BoundProperties />
        </ShaderEffect>
      </Transitions>
      <BoundProperties>
        <BoundPropertyInt Name="rotateStepNinety" Value="0" />
      </BoundProperties>
    </ImageClip>
    <ImageClip extentID="784" gapBefore="0" mediaItemID="357" duration="1">
      <Effects />
      <Transitions>
        <ShapeEffect effectTemplateID="CrossfadeTransitionTemplate" duration="1.5">
          <BoundProperties />
        </ShapeEffect>
      </Transitions>
      <BoundProperties>
        <BoundPropertyInt Name="rotateStepNinety" Value="0" />
      </BoundProperties>
    </ImageClip>
    <ImageClip extentID="785" gapBefore="0" mediaItemID="358" duration="1">
      <Effects />
      <Transitions>
        <ShapeEffect effectTemplateID="CrossfadeTransitionTemplate" duration="1.5">
          <BoundProperties />
        </ShapeEffect>
      </Transitions>
      <BoundProperties>
        <BoundPropertyInt Name="rotateStepNinety" Value="0" />
      </BoundProperties>
    </ImageClip>
    <ImageClip extentID="1817" gapBefore="0" mediaItemID="821" duration="1">
      <Effects />
      <Transitions>
        <ShaderEffect effectTemplateID="HeartTransitionTemplate" duration="1.5">
          <BoundProperties />
        </ShaderEffect>
      </Transitions>
      <BoundProperties>
        <BoundPropertyInt Name="rotateStepNinety" Value="0" />
      </BoundProperties>
    </ImageClip>
    <ImageClip extentID="786" gapBefore="0" mediaItemID="359" duration="1">
      <Effects />
      <Transitions>
        <ShapeEffect effectTemplateID="CrossfadeTransitionTemplate" duration="1.5">
          <BoundProperties />
        </ShapeEffect>
      </Transitions>
      <BoundProperties>
        <BoundPropertyInt Name="rotateStepNinety" Value="0" />
      </BoundProperties>
    </ImageClip>
    <ImageClip extentID="1818" gapBefore="0" mediaItemID="822" duration="1">
      <Effects />
      <Transitions>
        <ShaderEffect effectTemplateID="HeartTransitionTemplate" duration="1.5">
          <BoundProperties />
        </ShaderEffect>
      </Transitions>
      <BoundProperties>
        <BoundPropertyInt Name="rotateStepNinety" Value="0" />
      </BoundProperties>
    </ImageClip>
    <ImageClip extentID="787" gapBefore="0" mediaItemID="360" duration="1">
      <Effects />
      <Transitions>
        <ShapeEffect effectTemplateID="CrossfadeTransitionTemplate" duration="1.5">
          <BoundProperties />
        </ShapeEffect>
      </Transitions>
      <BoundProperties>
        <BoundPropertyInt Name="rotateStepNinety" Value="0" />
      </BoundProperties>
    </ImageClip>
    <ImageClip extentID="1819" gapBefore="0" mediaItemID="823" duration="1">
      <Effects />
      <Transitions>
        <ShaderEffect effectTemplateID="HeartTransitionTemplate" duration="1.5">
          <BoundProperties />
        </ShaderEffect>
      </Transitions>
      <BoundProperties>
        <BoundPropertyInt Name="rotateStepNinety" Value="0" />
      </BoundProperties>
    </ImageClip>
    <ImageClip extentID="788" gapBefore="0" mediaItemID="361" duration="1">
      <Effects />
      <Transitions>
        <ShapeEffect effectTemplateID="CrossfadeTransitionTemplate" duration="1.5">
          <BoundProperties />
        </ShapeEffect>
      </Transitions>
      <BoundProperties>
        <BoundPropertyInt Name="rotateStepNinety" Value="0" />
      </BoundProperties>
    </ImageClip>
    <ImageClip extentID="1820" gapBefore="0" mediaItemID="824" duration="1">
      <Effects />
      <Transitions>
        <ShaderEffect effectTemplateID="HeartTransitionTemplate" duration="1.5">
          <BoundProperties />
        </ShaderEffect>
      </Transitions>
      <BoundProperties>
        <BoundPropertyInt Name="rotateStepNinety" Value="0" />
      </BoundProperties>
    </ImageClip>
    <ImageClip extentID="789" gapBefore="0" mediaItemID="362" duration="1">
      <Effects />
      <Transitions>
        <ShapeEffect effectTemplateID="CrossfadeTransitionTemplate" duration="1.5">
          <BoundProperties />
        </ShapeEffect>
      </Transitions>
      <BoundProperties>
        <BoundPropertyInt Name="rotateStepNinety" Value="0" />
      </BoundProperties>
    </ImageClip>
    <ImageClip extentID="1821" gapBefore="0" mediaItemID="825" duration="1">
      <Effects />
      <Transitions>
        <ShaderEffect effectTemplateID="HeartTransitionTemplate" duration="1.5">
          <BoundProperties />
        </ShaderEffect>
      </Transitions>
      <BoundProperties>
        <BoundPropertyInt Name="rotateStepNinety" Value="0" />
      </BoundProperties>
    </ImageClip>
    <ImageClip extentID="790" gapBefore="0" mediaItemID="363" duration="1">
      <Effects />
      <Transitions>
        <ShapeEffect effectTemplateID="CrossfadeTransitionTemplate" duration="1.5">
          <BoundProperties />
        </ShapeEffect>
      </Transitions>
      <BoundProperties>
        <BoundPropertyInt Name="rotateStepNinety" Value="0" />
      </BoundProperties>
    </ImageClip>
    <ImageClip extentID="1822" gapBefore="0" mediaItemID="826" duration="1">
      <Effects />
      <Transitions>
        <ShaderEffect effectTemplateID="HeartTransitionTemplate" duration="1.5">
          <BoundProperties />
        </ShaderEffect>
      </Transitions>
      <BoundProperties>
        <BoundPropertyInt Name="rotateStepNinety" Value="0" />
      </BoundProperties>
    </ImageClip>
    <ImageClip extentID="791" gapBefore="0" mediaItemID="364" duration="1">
      <Effects />
      <Transitions>
        <ShapeEffect effectTemplateID="CrossfadeTransitionTemplate" duration="1.5">
          <BoundProperties />
        </ShapeEffect>
      </Transitions>
      <BoundProperties>
        <BoundPropertyInt Name="rotateStepNinety" Value="1" />
      </BoundProperties>
    </ImageClip>
    <ImageClip extentID="792" gapBefore="0" mediaItemID="365" duration="1">
      <Effects />
      <Transitions>
        <ShapeEffect effectTemplateID="CrossfadeTransitionTemplate" duration="1.5">
          <BoundProperties />
        </ShapeEffect>
      </Transitions>
      <BoundProperties>
        <BoundPropertyInt Name="rotateStepNinety" Value="0" />
      </BoundProperties>
    </ImageClip>
    <ImageClip extentID="1824" gapBefore="0" mediaItemID="828" duration="1">
      <Effects />
      <Transitions>
        <ShaderEffect effectTemplateID="HeartTransitionTemplate" duration="1.5">
          <BoundProperties />
        </ShaderEffect>
      </Transitions>
      <BoundProperties>
        <BoundPropertyInt Name="rotateStepNinety" Value="0" />
      </BoundProperties>
    </ImageClip>
    <ImageClip extentID="793" gapBefore="0" mediaItemID="366" duration="1">
      <Effects />
      <Transitions>
        <ShapeEffect effectTemplateID="CrossfadeTransitionTemplate" duration="1.5">
          <BoundProperties />
        </ShapeEffect>
      </Transitions>
      <BoundProperties>
        <BoundPropertyInt Name="rotateStepNinety" Value="0" />
      </BoundProperties>
    </ImageClip>
    <ImageClip extentID="794" gapBefore="0" mediaItemID="367" duration="1">
      <Effects />
      <Transitions>
        <ShapeEffect effectTemplateID="CrossfadeTransitionTemplate" duration="1.5">
          <BoundProperties />
        </ShapeEffect>
      </Transitions>
      <BoundProperties>
        <BoundPropertyInt Name="rotateStepNinety" Value="0" />
      </BoundProperties>
    </ImageClip>
    <ImageClip extentID="1826" gapBefore="0" mediaItemID="830" duration="1">
      <Effects />
      <Transitions>
        <ShaderEffect effectTemplateID="HeartTransitionTemplate" duration="1.5">
          <BoundProperties />
        </ShaderEffect>
      </Transitions>
      <BoundProperties>
        <BoundPropertyInt Name="rotateStepNinety" Value="1" />
      </BoundProperties>
    </ImageClip>
    <ImageClip extentID="795" gapBefore="0" mediaItemID="368" duration="1">
      <Effects />
      <Transitions>
        <ShapeEffect effectTemplateID="CrossfadeTransitionTemplate" duration="1.5">
          <BoundProperties />
        </ShapeEffect>
      </Transitions>
      <BoundProperties>
        <BoundPropertyInt Name="rotateStepNinety" Value="0" />
      </BoundProperties>
    </ImageClip>
    <ImageClip extentID="796" gapBefore="0" mediaItemID="369" duration="1">
      <Effects />
      <Transitions>
        <ShapeEffect effectTemplateID="CrossfadeTransitionTemplate" duration="1.5">
          <BoundProperties />
        </ShapeEffect>
      </Transitions>
      <BoundProperties>
        <BoundPropertyInt Name="rotateStepNinety" Value="0" />
      </BoundProperties>
    </ImageClip>
    <ImageClip extentID="797" gapBefore="0" mediaItemID="370" duration="1">
      <Effects />
      <Transitions>
        <ShapeEffect effectTemplateID="CrossfadeTransitionTemplate" duration="1.5">
          <BoundProperties />
        </ShapeEffect>
      </Transitions>
      <BoundProperties>
        <BoundPropertyInt Name="rotateStepNinety" Value="0" />
      </BoundProperties>
    </ImageClip>
    <ImageClip extentID="798" gapBefore="0" mediaItemID="371" duration="1">
      <Effects />
      <Transitions>
        <ShapeEffect effectTemplateID="CrossfadeTransitionTemplate" duration="1.5">
          <BoundProperties />
        </ShapeEffect>
      </Transitions>
      <BoundProperties>
        <BoundPropertyInt Name="rotateStepNinety" Value="0" />
      </BoundProperties>
    </ImageClip>
    <ImageClip extentID="1831" gapBefore="0" mediaItemID="835" duration="1">
      <Effects />
      <Transitions>
        <ShaderEffect effectTemplateID="HeartTransitionTemplate" duration="1.5">
          <BoundProperties />
        </ShaderEffect>
      </Transitions>
      <BoundProperties>
        <BoundPropertyInt Name="rotateStepNinety" Value="1" />
      </BoundProperties>
    </ImageClip>
    <ImageClip extentID="800" gapBefore="0" mediaItemID="373" duration="1">
      <Effects />
      <Transitions>
        <ShapeEffect effectTemplateID="CrossfadeTransitionTemplate" duration="1.5">
          <BoundProperties />
        </ShapeEffect>
      </Transitions>
      <BoundProperties>
        <BoundPropertyInt Name="rotateStepNinety" Value="0" />
      </BoundProperties>
    </ImageClip>
    <ImageClip extentID="801" gapBefore="0" mediaItemID="374" duration="1">
      <Effects />
      <Transitions>
        <ShapeEffect effectTemplateID="CrossfadeTransitionTemplate" duration="1.5">
          <BoundProperties />
        </ShapeEffect>
      </Transitions>
      <BoundProperties>
        <BoundPropertyInt Name="rotateStepNinety" Value="0" />
      </BoundProperties>
    </ImageClip>
    <ImageClip extentID="1833" gapBefore="0" mediaItemID="837" duration="1">
      <Effects />
      <Transitions>
        <ShaderEffect effectTemplateID="HeartTransitionTemplate" duration="1.5">
          <BoundProperties />
        </ShaderEffect>
      </Transitions>
      <BoundProperties>
        <BoundPropertyInt Name="rotateStepNinety" Value="3" />
      </BoundProperties>
    </ImageClip>
    <ImageClip extentID="802" gapBefore="0" mediaItemID="375" duration="1">
      <Effects />
      <Transitions>
        <ShapeEffect effectTemplateID="CrossfadeTransitionTemplate" duration="1.5">
          <BoundProperties />
        </ShapeEffect>
      </Transitions>
      <BoundProperties>
        <BoundPropertyInt Name="rotateStepNinety" Value="0" />
      </BoundProperties>
    </ImageClip>
    <ImageClip extentID="1834" gapBefore="0" mediaItemID="838" duration="1">
      <Effects />
      <Transitions>
        <ShaderEffect effectTemplateID="HeartTransitionTemplate" duration="1.5">
          <BoundProperties />
        </ShaderEffect>
      </Transitions>
      <BoundProperties>
        <BoundPropertyInt Name="rotateStepNinety" Value="0" />
      </BoundProperties>
    </ImageClip>
    <ImageClip extentID="803" gapBefore="0" mediaItemID="376" duration="1">
      <Effects />
      <Transitions>
        <ShapeEffect effectTemplateID="CrossfadeTransitionTemplate" duration="1.5">
          <BoundProperties />
        </ShapeEffect>
      </Transitions>
      <BoundProperties>
        <BoundPropertyInt Name="rotateStepNinety" Value="0" />
      </BoundProperties>
    </ImageClip>
    <ImageClip extentID="1835" gapBefore="0" mediaItemID="839" duration="1">
      <Effects />
      <Transitions>
        <ShaderEffect effectTemplateID="HeartTransitionTemplate" duration="1.5">
          <BoundProperties />
        </ShaderEffect>
      </Transitions>
      <BoundProperties>
        <BoundPropertyInt Name="rotateStepNinety" Value="3" />
      </BoundProperties>
    </ImageClip>
    <ImageClip extentID="804" gapBefore="0" mediaItemID="377" duration="1">
      <Effects />
      <Transitions>
        <ShapeEffect effectTemplateID="CrossfadeTransitionTemplate" duration="1.5">
          <BoundProperties />
        </ShapeEffect>
      </Transitions>
      <BoundProperties>
        <BoundPropertyInt Name="rotateStepNinety" Value="0" />
      </BoundProperties>
    </ImageClip>
    <ImageClip extentID="1836" gapBefore="0" mediaItemID="840" duration="1">
      <Effects />
      <Transitions>
        <ShaderEffect effectTemplateID="HeartTransitionTemplate" duration="1.5">
          <BoundProperties />
        </ShaderEffect>
      </Transitions>
      <BoundProperties>
        <BoundPropertyInt Name="rotateStepNinety" Value="0" />
      </BoundProperties>
    </ImageClip>
    <ImageClip extentID="805" gapBefore="0" mediaItemID="378" duration="1">
      <Effects />
      <Transitions>
        <ShapeEffect effectTemplateID="CrossfadeTransitionTemplate" duration="1.5">
          <BoundProperties />
        </ShapeEffect>
      </Transitions>
      <BoundProperties>
        <BoundPropertyInt Name="rotateStepNinety" Value="0" />
      </BoundProperties>
    </ImageClip>
    <ImageClip extentID="1837" gapBefore="0" mediaItemID="841" duration="1">
      <Effects />
      <Transitions>
        <ShaderEffect effectTemplateID="HeartTransitionTemplate" duration="1.5">
          <BoundProperties />
        </ShaderEffect>
      </Transitions>
      <BoundProperties>
        <BoundPropertyInt Name="rotateStepNinety" Value="0" />
      </BoundProperties>
    </ImageClip>
    <ImageClip extentID="806" gapBefore="0" mediaItemID="379" duration="1">
      <Effects />
      <Transitions>
        <ShapeEffect effectTemplateID="CrossfadeTransitionTemplate" duration="1.5">
          <BoundProperties />
        </ShapeEffect>
      </Transitions>
      <BoundProperties>
        <BoundPropertyInt Name="rotateStepNinety" Value="0" />
      </BoundProperties>
    </ImageClip>
    <ImageClip extentID="1838" gapBefore="0" mediaItemID="842" duration="1">
      <Effects />
      <Transitions>
        <ShaderEffect effectTemplateID="HeartTransitionTemplate" duration="1.5">
          <BoundProperties />
        </ShaderEffect>
      </Transitions>
      <BoundProperties>
        <BoundPropertyInt Name="rotateStepNinety" Value="0" />
      </BoundProperties>
    </ImageClip>
    <ImageClip extentID="807" gapBefore="0" mediaItemID="380" duration="1">
      <Effects />
      <Transitions>
        <ShapeEffect effectTemplateID="CrossfadeTransitionTemplate" duration="1.5">
          <BoundProperties />
        </ShapeEffect>
      </Transitions>
      <BoundProperties>
        <BoundPropertyInt Name="rotateStepNinety" Value="0" />
      </BoundProperties>
    </ImageClip>
    <ImageClip extentID="808" gapBefore="0" mediaItemID="381" duration="1">
      <Effects />
      <Transitions>
        <ShapeEffect effectTemplateID="CrossfadeTransitionTemplate" duration="1.5">
          <BoundProperties />
        </ShapeEffect>
      </Transitions>
      <BoundProperties>
        <BoundPropertyInt Name="rotateStepNinety" Value="0" />
      </BoundProperties>
    </ImageClip>
    <ImageClip extentID="809" gapBefore="0" mediaItemID="382" duration="1">
      <Effects />
      <Transitions>
        <ShapeEffect effectTemplateID="CrossfadeTransitionTemplate" duration="1.5">
          <BoundProperties />
        </ShapeEffect>
      </Transitions>
      <BoundProperties>
        <BoundPropertyInt Name="rotateStepNinety" Value="0" />
      </BoundProperties>
    </ImageClip>
    <ImageClip extentID="1841" gapBefore="0" mediaItemID="845" duration="1">
      <Effects />
      <Transitions>
        <ShaderEffect effectTemplateID="HeartTransitionTemplate" duration="1.5">
          <BoundProperties />
        </ShaderEffect>
      </Transitions>
      <BoundProperties>
        <BoundPropertyInt Name="rotateStepNinety" Value="0" />
      </BoundProperties>
    </ImageClip>
    <ImageClip extentID="810" gapBefore="0" mediaItemID="383" duration="1">
      <Effects />
      <Transitions>
        <ShapeEffect effectTemplateID="CrossfadeTransitionTemplate" duration="1.5">
          <BoundProperties />
        </ShapeEffect>
      </Transitions>
      <BoundProperties>
        <BoundPropertyInt Name="rotateStepNinety" Value="0" />
      </BoundProperties>
    </ImageClip>
    <ImageClip extentID="1842" gapBefore="0" mediaItemID="846" duration="1">
      <Effects />
      <Transitions>
        <ShaderEffect effectTemplateID="HeartTransitionTemplate" duration="1.5">
          <BoundProperties />
        </ShaderEffect>
      </Transitions>
      <BoundProperties>
        <BoundPropertyInt Name="rotateStepNinety" Value="0" />
      </BoundProperties>
    </ImageClip>
    <ImageClip extentID="811" gapBefore="0" mediaItemID="384" duration="1">
      <Effects />
      <Transitions>
        <ShapeEffect effectTemplateID="CrossfadeTransitionTemplate" duration="1.5">
          <BoundProperties />
        </ShapeEffect>
      </Transitions>
      <BoundProperties>
        <BoundPropertyInt Name="rotateStepNinety" Value="0" />
      </BoundProperties>
    </ImageClip>
    <ImageClip extentID="812" gapBefore="0" mediaItemID="385" duration="1">
      <Effects />
      <Transitions>
        <ShapeEffect effectTemplateID="CrossfadeTransitionTemplate" duration="1.5">
          <BoundProperties />
        </ShapeEffect>
      </Transitions>
      <BoundProperties>
        <BoundPropertyInt Name="rotateStepNinety" Value="0" />
      </BoundProperties>
    </ImageClip>
    <ImageClip extentID="813" gapBefore="0" mediaItemID="386" duration="1">
      <Effects />
      <Transitions>
        <ShapeEffect effectTemplateID="CrossfadeTransitionTemplate" duration="1.5">
          <BoundProperties />
        </ShapeEffect>
      </Transitions>
      <BoundProperties>
        <BoundPropertyInt Name="rotateStepNinety" Value="0" />
      </BoundProperties>
    </ImageClip>
    <ImageClip extentID="814" gapBefore="0" mediaItemID="387" duration="1">
      <Effects />
      <Transitions>
        <ShapeEffect effectTemplateID="CrossfadeTransitionTemplate" duration="1.5">
          <BoundProperties />
        </ShapeEffect>
      </Transitions>
      <BoundProperties>
        <BoundPropertyInt Name="rotateStepNinety" Value="0" />
      </BoundProperties>
    </ImageClip>
    <ImageClip extentID="815" gapBefore="0" mediaItemID="388" duration="1">
      <Effects />
      <Transitions>
        <ShapeEffect effectTemplateID="CrossfadeTransitionTemplate" duration="1.5">
          <BoundProperties />
        </ShapeEffect>
      </Transitions>
      <BoundProperties>
        <BoundPropertyInt Name="rotateStepNinety" Value="0" />
      </BoundProperties>
    </ImageClip>
    <ImageClip extentID="1847" gapBefore="0" mediaItemID="851" duration="1">
      <Effects />
      <Transitions>
        <ShaderEffect effectTemplateID="HeartTransitionTemplate" duration="1.5">
          <BoundProperties />
        </ShaderEffect>
      </Transitions>
      <BoundProperties>
        <BoundPropertyInt Name="rotateStepNinety" Value="3" />
      </BoundProperties>
    </ImageClip>
    <ImageClip extentID="816" gapBefore="0" mediaItemID="389" duration="1">
      <Effects />
      <Transitions>
        <ShapeEffect effectTemplateID="CrossfadeTransitionTemplate" duration="1.5">
          <BoundProperties />
        </ShapeEffect>
      </Transitions>
      <BoundProperties>
        <BoundPropertyInt Name="rotateStepNinety" Value="0" />
      </BoundProperties>
    </ImageClip>
    <ImageClip extentID="1848" gapBefore="0" mediaItemID="852" duration="1">
      <Effects />
      <Transitions>
        <ShaderEffect effectTemplateID="HeartTransitionTemplate" duration="1.5">
          <BoundProperties />
        </ShaderEffect>
      </Transitions>
      <BoundProperties>
        <BoundPropertyInt Name="rotateStepNinety" Value="0" />
      </BoundProperties>
    </ImageClip>
    <ImageClip extentID="817" gapBefore="0" mediaItemID="390" duration="1">
      <Effects />
      <Transitions>
        <ShapeEffect effectTemplateID="CrossfadeTransitionTemplate" duration="1.5">
          <BoundProperties />
        </ShapeEffect>
      </Transitions>
      <BoundProperties>
        <BoundPropertyInt Name="rotateStepNinety" Value="0" />
      </BoundProperties>
    </ImageClip>
    <ImageClip extentID="818" gapBefore="0" mediaItemID="391" duration="1">
      <Effects />
      <Transitions>
        <ShapeEffect effectTemplateID="CrossfadeTransitionTemplate" duration="1.5">
          <BoundProperties />
        </ShapeEffect>
      </Transitions>
      <BoundProperties>
        <BoundPropertyInt Name="rotateStepNinety" Value="0" />
      </BoundProperties>
    </ImageClip>
    <ImageClip extentID="819" gapBefore="0" mediaItemID="392" duration="1">
      <Effects />
      <Transitions>
        <ShapeEffect effectTemplateID="CrossfadeTransitionTemplate" duration="1.5">
          <BoundProperties />
        </ShapeEffect>
      </Transitions>
      <BoundProperties>
        <BoundPropertyInt Name="rotateStepNinety" Value="0" />
      </BoundProperties>
    </ImageClip>
    <ImageClip extentID="1851" gapBefore="0" mediaItemID="855" duration="1">
      <Effects />
      <Transitions>
        <ShaderEffect effectTemplateID="HeartTransitionTemplate" duration="1.5">
          <BoundProperties />
        </ShaderEffect>
      </Transitions>
      <BoundProperties>
        <BoundPropertyInt Name="rotateStepNinety" Value="0" />
      </BoundProperties>
    </ImageClip>
    <ImageClip extentID="820" gapBefore="0" mediaItemID="393" duration="1">
      <Effects />
      <Transitions>
        <ShapeEffect effectTemplateID="CrossfadeTransitionTemplate" duration="1.5">
          <BoundProperties />
        </ShapeEffect>
      </Transitions>
      <BoundProperties>
        <BoundPropertyInt Name="rotateStepNinety" Value="0" />
      </BoundProperties>
    </ImageClip>
    <ImageClip extentID="1852" gapBefore="0" mediaItemID="856" duration="1">
      <Effects />
      <Transitions>
        <ShaderEffect effectTemplateID="HeartTransitionTemplate" duration="1.5">
          <BoundProperties />
        </ShaderEffect>
      </Transitions>
      <BoundProperties>
        <BoundPropertyInt Name="rotateStepNinety" Value="0" />
      </BoundProperties>
    </ImageClip>
    <ImageClip extentID="821" gapBefore="0" mediaItemID="394" duration="1">
      <Effects />
      <Transitions>
        <ShapeEffect effectTemplateID="CrossfadeTransitionTemplate" duration="1.5">
          <BoundProperties />
        </ShapeEffect>
      </Transitions>
      <BoundProperties>
        <BoundPropertyInt Name="rotateStepNinety" Value="0" />
      </BoundProperties>
    </ImageClip>
    <ImageClip extentID="1853" gapBefore="0" mediaItemID="857" duration="1">
      <Effects />
      <Transitions>
        <ShaderEffect effectTemplateID="HeartTransitionTemplate" duration="1.5">
          <BoundProperties />
        </ShaderEffect>
      </Transitions>
      <BoundProperties>
        <BoundPropertyInt Name="rotateStepNinety" Value="3" />
      </BoundProperties>
    </ImageClip>
    <ImageClip extentID="822" gapBefore="0" mediaItemID="395" duration="1">
      <Effects />
      <Transitions>
        <ShapeEffect effectTemplateID="CrossfadeTransitionTemplate" duration="1.5">
          <BoundProperties />
        </ShapeEffect>
      </Transitions>
      <BoundProperties>
        <BoundPropertyInt Name="rotateStepNinety" Value="0" />
      </BoundProperties>
    </ImageClip>
    <ImageClip extentID="1854" gapBefore="0" mediaItemID="858" duration="1">
      <Effects />
      <Transitions>
        <ShaderEffect effectTemplateID="HeartTransitionTemplate" duration="1.5">
          <BoundProperties />
        </ShaderEffect>
      </Transitions>
      <BoundProperties>
        <BoundPropertyInt Name="rotateStepNinety" Value="1" />
      </BoundProperties>
    </ImageClip>
    <ImageClip extentID="823" gapBefore="0" mediaItemID="396" duration="1">
      <Effects />
      <Transitions>
        <ShapeEffect effectTemplateID="CrossfadeTransitionTemplate" duration="1.5">
          <BoundProperties />
        </ShapeEffect>
      </Transitions>
      <BoundProperties>
        <BoundPropertyInt Name="rotateStepNinety" Value="0" />
      </BoundProperties>
    </ImageClip>
    <ImageClip extentID="1855" gapBefore="0" mediaItemID="859" duration="1">
      <Effects />
      <Transitions>
        <ShaderEffect effectTemplateID="HeartTransitionTemplate" duration="1.5">
          <BoundProperties />
        </ShaderEffect>
      </Transitions>
      <BoundProperties>
        <BoundPropertyInt Name="rotateStepNinety" Value="0" />
      </BoundProperties>
    </ImageClip>
    <ImageClip extentID="824" gapBefore="0" mediaItemID="397" duration="1">
      <Effects />
      <Transitions>
        <ShapeEffect effectTemplateID="CrossfadeTransitionTemplate" duration="1.5">
          <BoundProperties />
        </ShapeEffect>
      </Transitions>
      <BoundProperties>
        <BoundPropertyInt Name="rotateStepNinety" Value="0" />
      </BoundProperties>
    </ImageClip>
    <ImageClip extentID="825" gapBefore="0" mediaItemID="398" duration="1">
      <Effects />
      <Transitions>
        <ShapeEffect effectTemplateID="CrossfadeTransitionTemplate" duration="1.5">
          <BoundProperties />
        </ShapeEffect>
      </Transitions>
      <BoundProperties>
        <BoundPropertyInt Name="rotateStepNinety" Value="0" />
      </BoundProperties>
    </ImageClip>
    <ImageClip extentID="1857" gapBefore="0" mediaItemID="861" duration="1">
      <Effects />
      <Transitions>
        <ShaderEffect effectTemplateID="HeartTransitionTemplate" duration="1.5">
          <BoundProperties />
        </ShaderEffect>
      </Transitions>
      <BoundProperties>
        <BoundPropertyInt Name="rotateStepNinety" Value="1" />
      </BoundProperties>
    </ImageClip>
    <ImageClip extentID="826" gapBefore="0" mediaItemID="399" duration="1">
      <Effects />
      <Transitions>
        <ShapeEffect effectTemplateID="CrossfadeTransitionTemplate" duration="1.5">
          <BoundProperties />
        </ShapeEffect>
      </Transitions>
      <BoundProperties>
        <BoundPropertyInt Name="rotateStepNinety" Value="0" />
      </BoundProperties>
    </ImageClip>
    <ImageClip extentID="1858" gapBefore="0" mediaItemID="862" duration="1">
      <Effects />
      <Transitions>
        <ShaderEffect effectTemplateID="HeartTransitionTemplate" duration="1.5">
          <BoundProperties />
        </ShaderEffect>
      </Transitions>
      <BoundProperties>
        <BoundPropertyInt Name="rotateStepNinety" Value="1" />
      </BoundProperties>
    </ImageClip>
    <ImageClip extentID="827" gapBefore="0" mediaItemID="400" duration="1">
      <Effects />
      <Transitions>
        <ShapeEffect effectTemplateID="CrossfadeTransitionTemplate" duration="1.5">
          <BoundProperties />
        </ShapeEffect>
      </Transitions>
      <BoundProperties>
        <BoundPropertyInt Name="rotateStepNinety" Value="0" />
      </BoundProperties>
    </ImageClip>
    <ImageClip extentID="1859" gapBefore="0" mediaItemID="863" duration="1">
      <Effects />
      <Transitions>
        <ShaderEffect effectTemplateID="HeartTransitionTemplate" duration="1.5">
          <BoundProperties />
        </ShaderEffect>
      </Transitions>
      <BoundProperties>
        <BoundPropertyInt Name="rotateStepNinety" Value="1" />
      </BoundProperties>
    </ImageClip>
    <ImageClip extentID="828" gapBefore="0" mediaItemID="401" duration="1">
      <Effects />
      <Transitions>
        <ShapeEffect effectTemplateID="CrossfadeTransitionTemplate" duration="1.5">
          <BoundProperties />
        </ShapeEffect>
      </Transitions>
      <BoundProperties>
        <BoundPropertyInt Name="rotateStepNinety" Value="0" />
      </BoundProperties>
    </ImageClip>
    <ImageClip extentID="1860" gapBefore="0" mediaItemID="864" duration="1">
      <Effects />
      <Transitions>
        <ShaderEffect effectTemplateID="HeartTransitionTemplate" duration="1.5">
          <BoundProperties />
        </ShaderEffect>
      </Transitions>
      <BoundProperties>
        <BoundPropertyInt Name="rotateStepNinety" Value="1" />
      </BoundProperties>
    </ImageClip>
    <ImageClip extentID="829" gapBefore="0" mediaItemID="402" duration="1">
      <Effects />
      <Transitions>
        <ShapeEffect effectTemplateID="CrossfadeTransitionTemplate" duration="1.5">
          <BoundProperties />
        </ShapeEffect>
      </Transitions>
      <BoundProperties>
        <BoundPropertyInt Name="rotateStepNinety" Value="0" />
      </BoundProperties>
    </ImageClip>
    <ImageClip extentID="1861" gapBefore="0" mediaItemID="865" duration="1">
      <Effects />
      <Transitions>
        <ShaderEffect effectTemplateID="HeartTransitionTemplate" duration="1.5">
          <BoundProperties />
        </ShaderEffect>
      </Transitions>
      <BoundProperties>
        <BoundPropertyInt Name="rotateStepNinety" Value="0" />
      </BoundProperties>
    </ImageClip>
    <ImageClip extentID="830" gapBefore="0" mediaItemID="403" duration="1">
      <Effects />
      <Transitions>
        <ShapeEffect effectTemplateID="CrossfadeTransitionTemplate" duration="1.5">
          <BoundProperties />
        </ShapeEffect>
      </Transitions>
      <BoundProperties>
        <BoundPropertyInt Name="rotateStepNinety" Value="0" />
      </BoundProperties>
    </ImageClip>
    <ImageClip extentID="1862" gapBefore="0" mediaItemID="866" duration="1">
      <Effects />
      <Transitions>
        <ShaderEffect effectTemplateID="HeartTransitionTemplate" duration="1.5">
          <BoundProperties />
        </ShaderEffect>
      </Transitions>
      <BoundProperties>
        <BoundPropertyInt Name="rotateStepNinety" Value="1" />
      </BoundProperties>
    </ImageClip>
    <ImageClip extentID="831" gapBefore="0" mediaItemID="404" duration="1">
      <Effects />
      <Transitions>
        <ShapeEffect effectTemplateID="CrossfadeTransitionTemplate" duration="1.5">
          <BoundProperties />
        </ShapeEffect>
      </Transitions>
      <BoundProperties>
        <BoundPropertyInt Name="rotateStepNinety" Value="0" />
      </BoundProperties>
    </ImageClip>
    <ImageClip extentID="832" gapBefore="0" mediaItemID="405" duration="1">
      <Effects />
      <Transitions>
        <ShapeEffect effectTemplateID="CrossfadeTransitionTemplate" duration="1.5">
          <BoundProperties />
        </ShapeEffect>
      </Transitions>
      <BoundProperties>
        <BoundPropertyInt Name="rotateStepNinety" Value="0" />
      </BoundProperties>
    </ImageClip>
    <ImageClip extentID="1864" gapBefore="0" mediaItemID="868" duration="1">
      <Effects />
      <Transitions>
        <ShaderEffect effectTemplateID="HeartTransitionTemplate" duration="1.5">
          <BoundProperties />
        </ShaderEffect>
      </Transitions>
      <BoundProperties>
        <BoundPropertyInt Name="rotateStepNinety" Value="2" />
      </BoundProperties>
    </ImageClip>
    <ImageClip extentID="833" gapBefore="0" mediaItemID="406" duration="1">
      <Effects />
      <Transitions>
        <ShapeEffect effectTemplateID="CrossfadeTransitionTemplate" duration="1.5">
          <BoundProperties />
        </ShapeEffect>
      </Transitions>
      <BoundProperties>
        <BoundPropertyInt Name="rotateStepNinety" Value="0" />
      </BoundProperties>
    </ImageClip>
    <ImageClip extentID="1865" gapBefore="0" mediaItemID="869" duration="1">
      <Effects />
      <Transitions>
        <ShaderEffect effectTemplateID="HeartTransitionTemplate" duration="1.5">
          <BoundProperties />
        </ShaderEffect>
      </Transitions>
      <BoundProperties>
        <BoundPropertyInt Name="rotateStepNinety" Value="0" />
      </BoundProperties>
    </ImageClip>
    <ImageClip extentID="834" gapBefore="0" mediaItemID="407" duration="1">
      <Effects />
      <Transitions>
        <ShapeEffect effectTemplateID="CrossfadeTransitionTemplate" duration="1.5">
          <BoundProperties />
        </ShapeEffect>
      </Transitions>
      <BoundProperties>
        <BoundPropertyInt Name="rotateStepNinety" Value="0" />
      </BoundProperties>
    </ImageClip>
    <ImageClip extentID="1866" gapBefore="0" mediaItemID="870" duration="1">
      <Effects />
      <Transitions>
        <ShaderEffect effectTemplateID="HeartTransitionTemplate" duration="1.5">
          <BoundProperties />
        </ShaderEffect>
      </Transitions>
      <BoundProperties>
        <BoundPropertyInt Name="rotateStepNinety" Value="0" />
      </BoundProperties>
    </ImageClip>
    <ImageClip extentID="835" gapBefore="0" mediaItemID="408" duration="1">
      <Effects />
      <Transitions>
        <ShapeEffect effectTemplateID="CrossfadeTransitionTemplate" duration="1.5">
          <BoundProperties />
        </ShapeEffect>
      </Transitions>
      <BoundProperties>
        <BoundPropertyInt Name="rotateStepNinety" Value="0" />
      </BoundProperties>
    </ImageClip>
    <ImageClip extentID="1867" gapBefore="0" mediaItemID="871" duration="1">
      <Effects />
      <Transitions>
        <ShaderEffect effectTemplateID="HeartTransitionTemplate" duration="1.5">
          <BoundProperties />
        </ShaderEffect>
      </Transitions>
      <BoundProperties>
        <BoundPropertyInt Name="rotateStepNinety" Value="0" />
      </BoundProperties>
    </ImageClip>
    <ImageClip extentID="836" gapBefore="0" mediaItemID="409" duration="1">
      <Effects />
      <Transitions>
        <ShapeEffect effectTemplateID="CrossfadeTransitionTemplate" duration="1.5">
          <BoundProperties />
        </ShapeEffect>
      </Transitions>
      <BoundProperties>
        <BoundPropertyInt Name="rotateStepNinety" Value="0" />
      </BoundProperties>
    </ImageClip>
    <ImageClip extentID="1868" gapBefore="0" mediaItemID="872" duration="1">
      <Effects />
      <Transitions>
        <ShaderEffect effectTemplateID="HeartTransitionTemplate" duration="1.5">
          <BoundProperties />
        </ShaderEffect>
      </Transitions>
      <BoundProperties>
        <BoundPropertyInt Name="rotateStepNinety" Value="0" />
      </BoundProperties>
    </ImageClip>
    <ImageClip extentID="837" gapBefore="0" mediaItemID="410" duration="1">
      <Effects />
      <Transitions>
        <ShapeEffect effectTemplateID="CrossfadeTransitionTemplate" duration="1.5">
          <BoundProperties />
        </ShapeEffect>
      </Transitions>
      <BoundProperties>
        <BoundPropertyInt Name="rotateStepNinety" Value="0" />
      </BoundProperties>
    </ImageClip>
    <ImageClip extentID="1869" gapBefore="0" mediaItemID="873" duration="1">
      <Effects />
      <Transitions>
        <ShaderEffect effectTemplateID="HeartTransitionTemplate" duration="1.5">
          <BoundProperties />
        </ShaderEffect>
      </Transitions>
      <BoundProperties>
        <BoundPropertyInt Name="rotateStepNinety" Value="0" />
      </BoundProperties>
    </ImageClip>
    <ImageClip extentID="838" gapBefore="0" mediaItemID="411" duration="1">
      <Effects />
      <Transitions>
        <ShapeEffect effectTemplateID="CrossfadeTransitionTemplate" duration="1.5">
          <BoundProperties />
        </ShapeEffect>
      </Transitions>
      <BoundProperties>
        <BoundPropertyInt Name="rotateStepNinety" Value="0" />
      </BoundProperties>
    </ImageClip>
    <ImageClip extentID="1870" gapBefore="0" mediaItemID="874" duration="1">
      <Effects />
      <Transitions>
        <ShaderEffect effectTemplateID="HeartTransitionTemplate" duration="1.5">
          <BoundProperties />
        </ShaderEffect>
      </Transitions>
      <BoundProperties>
        <BoundPropertyInt Name="rotateStepNinety" Value="0" />
      </BoundProperties>
    </ImageClip>
    <ImageClip extentID="839" gapBefore="0" mediaItemID="412" duration="1">
      <Effects />
      <Transitions>
        <ShapeEffect effectTemplateID="CrossfadeTransitionTemplate" duration="1.5">
          <BoundProperties />
        </ShapeEffect>
      </Transitions>
      <BoundProperties>
        <BoundPropertyInt Name="rotateStepNinety" Value="0" />
      </BoundProperties>
    </ImageClip>
    <ImageClip extentID="1871" gapBefore="0" mediaItemID="875" duration="1">
      <Effects />
      <Transitions>
        <ShaderEffect effectTemplateID="HeartTransitionTemplate" duration="1.5">
          <BoundProperties />
        </ShaderEffect>
      </Transitions>
      <BoundProperties>
        <BoundPropertyInt Name="rotateStepNinety" Value="0" />
      </BoundProperties>
    </ImageClip>
    <ImageClip extentID="840" gapBefore="0" mediaItemID="413" duration="1">
      <Effects />
      <Transitions>
        <ShapeEffect effectTemplateID="CrossfadeTransitionTemplate" duration="1.5">
          <BoundProperties />
        </ShapeEffect>
      </Transitions>
      <BoundProperties>
        <BoundPropertyInt Name="rotateStepNinety" Value="0" />
      </BoundProperties>
    </ImageClip>
    <ImageClip extentID="1872" gapBefore="0" mediaItemID="876" duration="1">
      <Effects />
      <Transitions>
        <ShaderEffect effectTemplateID="HeartTransitionTemplate" duration="1.5">
          <BoundProperties />
        </ShaderEffect>
      </Transitions>
      <BoundProperties>
        <BoundPropertyInt Name="rotateStepNinety" Value="3" />
      </BoundProperties>
    </ImageClip>
    <ImageClip extentID="841" gapBefore="0" mediaItemID="414" duration="1">
      <Effects />
      <Transitions>
        <ShapeEffect effectTemplateID="CrossfadeTransitionTemplate" duration="1.5">
          <BoundProperties />
        </ShapeEffect>
      </Transitions>
      <BoundProperties>
        <BoundPropertyInt Name="rotateStepNinety" Value="0" />
      </BoundProperties>
    </ImageClip>
    <ImageClip extentID="1873" gapBefore="0" mediaItemID="877" duration="1">
      <Effects />
      <Transitions>
        <ShaderEffect effectTemplateID="HeartTransitionTemplate" duration="1.5">
          <BoundProperties />
        </ShaderEffect>
      </Transitions>
      <BoundProperties>
        <BoundPropertyInt Name="rotateStepNinety" Value="0" />
      </BoundProperties>
    </ImageClip>
    <ImageClip extentID="842" gapBefore="0" mediaItemID="415" duration="1">
      <Effects />
      <Transitions>
        <ShapeEffect effectTemplateID="CrossfadeTransitionTemplate" duration="1.5">
          <BoundProperties />
        </ShapeEffect>
      </Transitions>
      <BoundProperties>
        <BoundPropertyInt Name="rotateStepNinety" Value="0" />
      </BoundProperties>
    </ImageClip>
    <ImageClip extentID="1874" gapBefore="0" mediaItemID="878" duration="1">
      <Effects />
      <Transitions>
        <ShaderEffect effectTemplateID="HeartTransitionTemplate" duration="1.5">
          <BoundProperties />
        </ShaderEffect>
      </Transitions>
      <BoundProperties>
        <BoundPropertyInt Name="rotateStepNinety" Value="0" />
      </BoundProperties>
    </ImageClip>
    <ImageClip extentID="843" gapBefore="0" mediaItemID="416" duration="1">
      <Effects />
      <Transitions>
        <ShapeEffect effectTemplateID="CrossfadeTransitionTemplate" duration="1.5">
          <BoundProperties />
        </ShapeEffect>
      </Transitions>
      <BoundProperties>
        <BoundPropertyInt Name="rotateStepNinety" Value="0" />
      </BoundProperties>
    </ImageClip>
    <ImageClip extentID="844" gapBefore="0" mediaItemID="417" duration="1">
      <Effects />
      <Transitions>
        <ShapeEffect effectTemplateID="CrossfadeTransitionTemplate" duration="1.5">
          <BoundProperties />
        </ShapeEffect>
      </Transitions>
      <BoundProperties>
        <BoundPropertyInt Name="rotateStepNinety" Value="0" />
      </BoundProperties>
    </ImageClip>
    <ImageClip extentID="1876" gapBefore="0" mediaItemID="880" duration="1">
      <Effects />
      <Transitions>
        <ShaderEffect effectTemplateID="HeartTransitionTemplate" duration="1.5">
          <BoundProperties />
        </ShaderEffect>
      </Transitions>
      <BoundProperties>
        <BoundPropertyInt Name="rotateStepNinety" Value="0" />
      </BoundProperties>
    </ImageClip>
    <ImageClip extentID="845" gapBefore="0" mediaItemID="418" duration="1">
      <Effects />
      <Transitions>
        <ShapeEffect effectTemplateID="CrossfadeTransitionTemplate" duration="1.5">
          <BoundProperties />
        </ShapeEffect>
      </Transitions>
      <BoundProperties>
        <BoundPropertyInt Name="rotateStepNinety" Value="0" />
      </BoundProperties>
    </ImageClip>
    <ImageClip extentID="1877" gapBefore="0" mediaItemID="881" duration="1">
      <Effects />
      <Transitions>
        <ShaderEffect effectTemplateID="HeartTransitionTemplate" duration="1.5">
          <BoundProperties />
        </ShaderEffect>
      </Transitions>
      <BoundProperties>
        <BoundPropertyInt Name="rotateStepNinety" Value="0" />
      </BoundProperties>
    </ImageClip>
    <ImageClip extentID="846" gapBefore="0" mediaItemID="419" duration="1">
      <Effects />
      <Transitions>
        <ShapeEffect effectTemplateID="CrossfadeTransitionTemplate" duration="1.5">
          <BoundProperties />
        </ShapeEffect>
      </Transitions>
      <BoundProperties>
        <BoundPropertyInt Name="rotateStepNinety" Value="0" />
      </BoundProperties>
    </ImageClip>
    <ImageClip extentID="1878" gapBefore="0" mediaItemID="882" duration="1">
      <Effects />
      <Transitions>
        <ShaderEffect effectTemplateID="HeartTransitionTemplate" duration="1.5">
          <BoundProperties />
        </ShaderEffect>
      </Transitions>
      <BoundProperties>
        <BoundPropertyInt Name="rotateStepNinety" Value="0" />
      </BoundProperties>
    </ImageClip>
    <ImageClip extentID="847" gapBefore="0" mediaItemID="420" duration="1">
      <Effects />
      <Transitions>
        <ShapeEffect effectTemplateID="CrossfadeTransitionTemplate" duration="1.5">
          <BoundProperties />
        </ShapeEffect>
      </Transitions>
      <BoundProperties>
        <BoundPropertyInt Name="rotateStepNinety" Value="0" />
      </BoundProperties>
    </ImageClip>
    <ImageClip extentID="1879" gapBefore="0" mediaItemID="883" duration="1">
      <Effects />
      <Transitions>
        <ShaderEffect effectTemplateID="HeartTransitionTemplate" duration="1.5">
          <BoundProperties />
        </ShaderEffect>
      </Transitions>
      <BoundProperties>
        <BoundPropertyInt Name="rotateStepNinety" Value="0" />
      </BoundProperties>
    </ImageClip>
    <ImageClip extentID="848" gapBefore="0" mediaItemID="421" duration="1">
      <Effects />
      <Transitions>
        <ShapeEffect effectTemplateID="CrossfadeTransitionTemplate" duration="1.5">
          <BoundProperties />
        </ShapeEffect>
      </Transitions>
      <BoundProperties>
        <BoundPropertyInt Name="rotateStepNinety" Value="0" />
      </BoundProperties>
    </ImageClip>
    <ImageClip extentID="1880" gapBefore="0" mediaItemID="884" duration="1">
      <Effects />
      <Transitions>
        <ShaderEffect effectTemplateID="HeartTransitionTemplate" duration="1.5">
          <BoundProperties />
        </ShaderEffect>
      </Transitions>
      <BoundProperties>
        <BoundPropertyInt Name="rotateStepNinety" Value="0" />
      </BoundProperties>
    </ImageClip>
    <ImageClip extentID="849" gapBefore="0" mediaItemID="422" duration="1">
      <Effects />
      <Transitions>
        <ShapeEffect effectTemplateID="CrossfadeTransitionTemplate" duration="1.5">
          <BoundProperties />
        </ShapeEffect>
      </Transitions>
      <BoundProperties>
        <BoundPropertyInt Name="rotateStepNinety" Value="0" />
      </BoundProperties>
    </ImageClip>
    <ImageClip extentID="1881" gapBefore="0" mediaItemID="885" duration="1">
      <Effects />
      <Transitions>
        <ShaderEffect effectTemplateID="HeartTransitionTemplate" duration="1.5">
          <BoundProperties />
        </ShaderEffect>
      </Transitions>
      <BoundProperties>
        <BoundPropertyInt Name="rotateStepNinety" Value="1" />
      </BoundProperties>
    </ImageClip>
    <ImageClip extentID="850" gapBefore="0" mediaItemID="423" duration="1">
      <Effects />
      <Transitions>
        <ShapeEffect effectTemplateID="CrossfadeTransitionTemplate" duration="1.5">
          <BoundProperties />
        </ShapeEffect>
      </Transitions>
      <BoundProperties>
        <BoundPropertyInt Name="rotateStepNinety" Value="0" />
      </BoundProperties>
    </ImageClip>
    <ImageClip extentID="1882" gapBefore="0" mediaItemID="886" duration="1">
      <Effects />
      <Transitions>
        <ShaderEffect effectTemplateID="HeartTransitionTemplate" duration="1.5">
          <BoundProperties />
        </ShaderEffect>
      </Transitions>
      <BoundProperties>
        <BoundPropertyInt Name="rotateStepNinety" Value="0" />
      </BoundProperties>
    </ImageClip>
    <ImageClip extentID="851" gapBefore="0" mediaItemID="424" duration="1">
      <Effects />
      <Transitions>
        <ShapeEffect effectTemplateID="CrossfadeTransitionTemplate" duration="1.5">
          <BoundProperties />
        </ShapeEffect>
      </Transitions>
      <BoundProperties>
        <BoundPropertyInt Name="rotateStepNinety" Value="0" />
      </BoundProperties>
    </ImageClip>
    <ImageClip extentID="1883" gapBefore="0" mediaItemID="887" duration="1">
      <Effects />
      <Transitions>
        <ShaderEffect effectTemplateID="HeartTransitionTemplate" duration="1.5">
          <BoundProperties />
        </ShaderEffect>
      </Transitions>
      <BoundProperties>
        <BoundPropertyInt Name="rotateStepNinety" Value="0" />
      </BoundProperties>
    </ImageClip>
    <ImageClip extentID="852" gapBefore="0" mediaItemID="425" duration="1">
      <Effects />
      <Transitions>
        <ShapeEffect effectTemplateID="CrossfadeTransitionTemplate" duration="1.5">
          <BoundProperties />
        </ShapeEffect>
      </Transitions>
      <BoundProperties>
        <BoundPropertyInt Name="rotateStepNinety" Value="2" />
      </BoundProperties>
    </ImageClip>
    <ImageClip extentID="1884" gapBefore="0" mediaItemID="888" duration="1">
      <Effects />
      <Transitions>
        <ShaderEffect effectTemplateID="HeartTransitionTemplate" duration="1.5">
          <BoundProperties />
        </ShaderEffect>
      </Transitions>
      <BoundProperties>
        <BoundPropertyInt Name="rotateStepNinety" Value="1" />
      </BoundProperties>
    </ImageClip>
    <ImageClip extentID="853" gapBefore="0" mediaItemID="426" duration="1">
      <Effects />
      <Transitions>
        <ShapeEffect effectTemplateID="CrossfadeTransitionTemplate" duration="1.5">
          <BoundProperties />
        </ShapeEffect>
      </Transitions>
      <BoundProperties>
        <BoundPropertyInt Name="rotateStepNinety" Value="0" />
      </BoundProperties>
    </ImageClip>
    <ImageClip extentID="854" gapBefore="0" mediaItemID="427" duration="1">
      <Effects />
      <Transitions>
        <ShapeEffect effectTemplateID="CrossfadeTransitionTemplate" duration="1.5">
          <BoundProperties />
        </ShapeEffect>
      </Transitions>
      <BoundProperties>
        <BoundPropertyInt Name="rotateStepNinety" Value="0" />
      </BoundProperties>
    </ImageClip>
    <ImageClip extentID="1886" gapBefore="0" mediaItemID="890" duration="1">
      <Effects />
      <Transitions>
        <ShaderEffect effectTemplateID="HeartTransitionTemplate" duration="1.5">
          <BoundProperties />
        </ShaderEffect>
      </Transitions>
      <BoundProperties>
        <BoundPropertyInt Name="rotateStepNinety" Value="2" />
      </BoundProperties>
    </ImageClip>
    <ImageClip extentID="855" gapBefore="0" mediaItemID="428" duration="1">
      <Effects />
      <Transitions>
        <ShapeEffect effectTemplateID="CrossfadeTransitionTemplate" duration="1.5">
          <BoundProperties />
        </ShapeEffect>
      </Transitions>
      <BoundProperties>
        <BoundPropertyInt Name="rotateStepNinety" Value="0" />
      </BoundProperties>
    </ImageClip>
    <ImageClip extentID="1887" gapBefore="0" mediaItemID="891" duration="1">
      <Effects />
      <Transitions>
        <ShaderEffect effectTemplateID="HeartTransitionTemplate" duration="1.5">
          <BoundProperties />
        </ShaderEffect>
      </Transitions>
      <BoundProperties>
        <BoundPropertyInt Name="rotateStepNinety" Value="0" />
      </BoundProperties>
    </ImageClip>
    <ImageClip extentID="856" gapBefore="0" mediaItemID="141" duration="1">
      <Effects />
      <Transitions>
        <ShapeEffect effectTemplateID="CrossfadeTransitionTemplate" duration="1.5">
          <BoundProperties />
        </ShapeEffect>
      </Transitions>
      <BoundProperties>
        <BoundPropertyInt Name="rotateStepNinety" Value="1" />
      </BoundProperties>
    </ImageClip>
    <ImageClip extentID="1888" gapBefore="0" mediaItemID="892" duration="1">
      <Effects />
      <Transitions>
        <ShaderEffect effectTemplateID="HeartTransitionTemplate" duration="1.5">
          <BoundProperties />
        </ShaderEffect>
      </Transitions>
      <BoundProperties>
        <BoundPropertyInt Name="rotateStepNinety" Value="0" />
      </BoundProperties>
    </ImageClip>
    <ImageClip extentID="857" gapBefore="0" mediaItemID="437" duration="1">
      <Effects />
      <Transitions>
        <ShaderEffect effectTemplateID="HeartTransitionTemplate" duration="1.5">
          <BoundProperties />
        </ShaderEffect>
      </Transitions>
      <BoundProperties>
        <BoundPropertyInt Name="rotateStepNinety" Value="0" />
      </BoundProperties>
    </ImageClip>
    <ImageClip extentID="1889" gapBefore="0" mediaItemID="893" duration="1">
      <Effects />
      <Transitions>
        <ShaderEffect effectTemplateID="HeartTransitionTemplate" duration="1.5">
          <BoundProperties />
        </ShaderEffect>
      </Transitions>
      <BoundProperties>
        <BoundPropertyInt Name="rotateStepNinety" Value="0" />
      </BoundProperties>
    </ImageClip>
    <ImageClip extentID="858" gapBefore="0" mediaItemID="438" duration="1">
      <Effects />
      <Transitions>
        <ShaderEffect effectTemplateID="HeartTransitionTemplate" duration="1.5">
          <BoundProperties />
        </ShaderEffect>
      </Transitions>
      <BoundProperties>
        <BoundPropertyInt Name="rotateStepNinety" Value="0" />
      </BoundProperties>
    </ImageClip>
    <ImageClip extentID="1890" gapBefore="0" mediaItemID="894" duration="1">
      <Effects />
      <Transitions>
        <ShaderEffect effectTemplateID="HeartTransitionTemplate" duration="1.5">
          <BoundProperties />
        </ShaderEffect>
      </Transitions>
      <BoundProperties>
        <BoundPropertyInt Name="rotateStepNinety" Value="1" />
      </BoundProperties>
    </ImageClip>
    <ImageClip extentID="859" gapBefore="0" mediaItemID="439" duration="1">
      <Effects />
      <Transitions>
        <ShaderEffect effectTemplateID="HeartTransitionTemplate" duration="1.5">
          <BoundProperties />
        </ShaderEffect>
      </Transitions>
      <BoundProperties>
        <BoundPropertyInt Name="rotateStepNinety" Value="0" />
      </BoundProperties>
    </ImageClip>
    <ImageClip extentID="1891" gapBefore="0" mediaItemID="895" duration="1">
      <Effects />
      <Transitions>
        <ShaderEffect effectTemplateID="HeartTransitionTemplate" duration="1.5">
          <BoundProperties />
        </ShaderEffect>
      </Transitions>
      <BoundProperties>
        <BoundPropertyInt Name="rotateStepNinety" Value="1" />
      </BoundProperties>
    </ImageClip>
    <ImageClip extentID="860" gapBefore="0" mediaItemID="440" duration="1">
      <Effects />
      <Transitions>
        <ShaderEffect effectTemplateID="HeartTransitionTemplate" duration="1.5">
          <BoundProperties />
        </ShaderEffect>
      </Transitions>
      <BoundProperties>
        <BoundPropertyInt Name="rotateStepNinety" Value="0" />
      </BoundProperties>
    </ImageClip>
    <ImageClip extentID="861" gapBefore="0" mediaItemID="441" duration="1">
      <Effects />
      <Transitions>
        <ShaderEffect effectTemplateID="HeartTransitionTemplate" duration="1.5">
          <BoundProperties />
        </ShaderEffect>
      </Transitions>
      <BoundProperties>
        <BoundPropertyInt Name="rotateStepNinety" Value="0" />
      </BoundProperties>
    </ImageClip>
    <ImageClip extentID="862" gapBefore="0" mediaItemID="442" duration="1">
      <Effects />
      <Transitions>
        <ShaderEffect effectTemplateID="HeartTransitionTemplate" duration="1.5">
          <BoundProperties />
        </ShaderEffect>
      </Transitions>
      <BoundProperties>
        <BoundPropertyInt Name="rotateStepNinety" Value="0" />
      </BoundProperties>
    </ImageClip>
    <ImageClip extentID="1894" gapBefore="0" mediaItemID="898" duration="1">
      <Effects />
      <Transitions>
        <ShaderEffect effectTemplateID="HeartTransitionTemplate" duration="1.5">
          <BoundProperties />
        </ShaderEffect>
      </Transitions>
      <BoundProperties>
        <BoundPropertyInt Name="rotateStepNinety" Value="1" />
      </BoundProperties>
    </ImageClip>
    <ImageClip extentID="863" gapBefore="0" mediaItemID="443" duration="1">
      <Effects />
      <Transitions>
        <ShaderEffect effectTemplateID="HeartTransitionTemplate" duration="1.5">
          <BoundProperties />
        </ShaderEffect>
      </Transitions>
      <BoundProperties>
        <BoundPropertyInt Name="rotateStepNinety" Value="0" />
      </BoundProperties>
    </ImageClip>
    <ImageClip extentID="864" gapBefore="0" mediaItemID="444" duration="1">
      <Effects />
      <Transitions>
        <ShaderEffect effectTemplateID="HeartTransitionTemplate" duration="1.5">
          <BoundProperties />
        </ShaderEffect>
      </Transitions>
      <BoundProperties>
        <BoundPropertyInt Name="rotateStepNinety" Value="0" />
      </BoundProperties>
    </ImageClip>
    <ImageClip extentID="1896" gapBefore="0" mediaItemID="900" duration="1">
      <Effects />
      <Transitions>
        <ShaderEffect effectTemplateID="HeartTransitionTemplate" duration="1.5">
          <BoundProperties />
        </ShaderEffect>
      </Transitions>
      <BoundProperties>
        <BoundPropertyInt Name="rotateStepNinety" Value="1" />
      </BoundProperties>
    </ImageClip>
    <ImageClip extentID="865" gapBefore="0" mediaItemID="445" duration="1">
      <Effects />
      <Transitions>
        <ShaderEffect effectTemplateID="HeartTransitionTemplate" duration="1.5">
          <BoundProperties />
        </ShaderEffect>
      </Transitions>
      <BoundProperties>
        <BoundPropertyInt Name="rotateStepNinety" Value="0" />
      </BoundProperties>
    </ImageClip>
    <ImageClip extentID="1897" gapBefore="0" mediaItemID="901" duration="1">
      <Effects />
      <Transitions>
        <ShaderEffect effectTemplateID="HeartTransitionTemplate" duration="1.5">
          <BoundProperties />
        </ShaderEffect>
      </Transitions>
      <BoundProperties>
        <BoundPropertyInt Name="rotateStepNinety" Value="1" />
      </BoundProperties>
    </ImageClip>
    <ImageClip extentID="866" gapBefore="0" mediaItemID="446" duration="1">
      <Effects />
      <Transitions>
        <ShaderEffect effectTemplateID="HeartTransitionTemplate" duration="1.5">
          <BoundProperties />
        </ShaderEffect>
      </Transitions>
      <BoundProperties>
        <BoundPropertyInt Name="rotateStepNinety" Value="0" />
      </BoundProperties>
    </ImageClip>
    <ImageClip extentID="1898" gapBefore="0" mediaItemID="902" duration="1">
      <Effects />
      <Transitions>
        <ShaderEffect effectTemplateID="HeartTransitionTemplate" duration="1.5">
          <BoundProperties />
        </ShaderEffect>
      </Transitions>
      <BoundProperties>
        <BoundPropertyInt Name="rotateStepNinety" Value="0" />
      </BoundProperties>
    </ImageClip>
    <ImageClip extentID="867" gapBefore="0" mediaItemID="447" duration="1">
      <Effects />
      <Transitions>
        <ShaderEffect effectTemplateID="HeartTransitionTemplate" duration="1.5">
          <BoundProperties />
        </ShaderEffect>
      </Transitions>
      <BoundProperties>
        <BoundPropertyInt Name="rotateStepNinety" Value="0" />
      </BoundProperties>
    </ImageClip>
    <ImageClip extentID="1899" gapBefore="0" mediaItemID="903" duration="1">
      <Effects />
      <Transitions>
        <ShaderEffect effectTemplateID="HeartTransitionTemplate" duration="1.5">
          <BoundProperties />
        </ShaderEffect>
      </Transitions>
      <BoundProperties>
        <BoundPropertyInt Name="rotateStepNinety" Value="0" />
      </BoundProperties>
    </ImageClip>
    <ImageClip extentID="868" gapBefore="0" mediaItemID="448" duration="1">
      <Effects />
      <Transitions>
        <ShaderEffect effectTemplateID="HeartTransitionTemplate" duration="1.5">
          <BoundProperties />
        </ShaderEffect>
      </Transitions>
      <BoundProperties>
        <BoundPropertyInt Name="rotateStepNinety" Value="0" />
      </BoundProperties>
    </ImageClip>
    <ImageClip extentID="1900" gapBefore="0" mediaItemID="904" duration="1">
      <Effects />
      <Transitions>
        <ShaderEffect effectTemplateID="HeartTransitionTemplate" duration="1.5">
          <BoundProperties />
        </ShaderEffect>
      </Transitions>
      <BoundProperties>
        <BoundPropertyInt Name="rotateStepNinety" Value="0" />
      </BoundProperties>
    </ImageClip>
    <ImageClip extentID="869" gapBefore="0" mediaItemID="449" duration="1">
      <Effects />
      <Transitions>
        <ShaderEffect effectTemplateID="HeartTransitionTemplate" duration="1.5">
          <BoundProperties />
        </ShaderEffect>
      </Transitions>
      <BoundProperties>
        <BoundPropertyInt Name="rotateStepNinety" Value="0" />
      </BoundProperties>
    </ImageClip>
    <ImageClip extentID="1901" gapBefore="0" mediaItemID="905" duration="1">
      <Effects />
      <Transitions>
        <ShaderEffect effectTemplateID="HeartTransitionTemplate" duration="1.5">
          <BoundProperties />
        </ShaderEffect>
      </Transitions>
      <BoundProperties>
        <BoundPropertyInt Name="rotateStepNinety" Value="0" />
      </BoundProperties>
    </ImageClip>
    <ImageClip extentID="870" gapBefore="0" mediaItemID="450" duration="1">
      <Effects />
      <Transitions>
        <ShaderEffect effectTemplateID="HeartTransitionTemplate" duration="1.5">
          <BoundProperties />
        </ShaderEffect>
      </Transitions>
      <BoundProperties>
        <BoundPropertyInt Name="rotateStepNinety" Value="0" />
      </BoundProperties>
    </ImageClip>
    <ImageClip extentID="1902" gapBefore="0" mediaItemID="906" duration="1">
      <Effects />
      <Transitions>
        <ShaderEffect effectTemplateID="HeartTransitionTemplate" duration="1.5">
          <BoundProperties />
        </ShaderEffect>
      </Transitions>
      <BoundProperties>
        <BoundPropertyInt Name="rotateStepNinety" Value="0" />
      </BoundProperties>
    </ImageClip>
    <ImageClip extentID="871" gapBefore="0" mediaItemID="451" duration="1">
      <Effects />
      <Transitions>
        <ShaderEffect effectTemplateID="HeartTransitionTemplate" duration="1.5">
          <BoundProperties />
        </ShaderEffect>
      </Transitions>
      <BoundProperties>
        <BoundPropertyInt Name="rotateStepNinety" Value="0" />
      </BoundProperties>
    </ImageClip>
    <ImageClip extentID="872" gapBefore="0" mediaItemID="452" duration="1">
      <Effects />
      <Transitions>
        <ShaderEffect effectTemplateID="HeartTransitionTemplate" duration="1.5">
          <BoundProperties />
        </ShaderEffect>
      </Transitions>
      <BoundProperties>
        <BoundPropertyInt Name="rotateStepNinety" Value="0" />
      </BoundProperties>
    </ImageClip>
    <ImageClip extentID="873" gapBefore="0" mediaItemID="453" duration="1">
      <Effects />
      <Transitions>
        <ShaderEffect effectTemplateID="HeartTransitionTemplate" duration="1.5">
          <BoundProperties />
        </ShaderEffect>
      </Transitions>
      <BoundProperties>
        <BoundPropertyInt Name="rotateStepNinety" Value="0" />
      </BoundProperties>
    </ImageClip>
    <ImageClip extentID="874" gapBefore="0" mediaItemID="454" duration="1">
      <Effects />
      <Transitions>
        <ShaderEffect effectTemplateID="HeartTransitionTemplate" duration="1.5">
          <BoundProperties />
        </ShaderEffect>
      </Transitions>
      <BoundProperties>
        <BoundPropertyInt Name="rotateStepNinety" Value="0" />
      </BoundProperties>
    </ImageClip>
    <ImageClip extentID="1906" gapBefore="0" mediaItemID="910" duration="1">
      <Effects />
      <Transitions>
        <ShaderEffect effectTemplateID="HeartTransitionTemplate" duration="1.5">
          <BoundProperties />
        </ShaderEffect>
      </Transitions>
      <BoundProperties>
        <BoundPropertyInt Name="rotateStepNinety" Value="0" />
      </BoundProperties>
    </ImageClip>
    <ImageClip extentID="875" gapBefore="0" mediaItemID="455" duration="1">
      <Effects />
      <Transitions>
        <ShaderEffect effectTemplateID="HeartTransitionTemplate" duration="1.5">
          <BoundProperties />
        </ShaderEffect>
      </Transitions>
      <BoundProperties>
        <BoundPropertyInt Name="rotateStepNinety" Value="0" />
      </BoundProperties>
    </ImageClip>
    <ImageClip extentID="1907" gapBefore="0" mediaItemID="911" duration="1">
      <Effects />
      <Transitions>
        <ShaderEffect effectTemplateID="HeartTransitionTemplate" duration="1.5">
          <BoundProperties />
        </ShaderEffect>
      </Transitions>
      <BoundProperties>
        <BoundPropertyInt Name="rotateStepNinety" Value="0" />
      </BoundProperties>
    </ImageClip>
    <ImageClip extentID="1909" gapBefore="0" mediaItemID="913" duration="1">
      <Effects />
      <Transitions>
        <ShaderEffect effectTemplateID="HeartTransitionTemplate" duration="1.5">
          <BoundProperties />
        </ShaderEffect>
      </Transitions>
      <BoundProperties>
        <BoundPropertyInt Name="rotateStepNinety" Value="0" />
      </BoundProperties>
    </ImageClip>
    <ImageClip extentID="878" gapBefore="0" mediaItemID="458" duration="1">
      <Effects />
      <Transitions>
        <ShaderEffect effectTemplateID="HeartTransitionTemplate" duration="1.5">
          <BoundProperties />
        </ShaderEffect>
      </Transitions>
      <BoundProperties>
        <BoundPropertyInt Name="rotateStepNinety" Value="1" />
      </BoundProperties>
    </ImageClip>
    <ImageClip extentID="1910" gapBefore="0" mediaItemID="914" duration="1">
      <Effects />
      <Transitions>
        <ShaderEffect effectTemplateID="HeartTransitionTemplate" duration="1.5">
          <BoundProperties />
        </ShaderEffect>
      </Transitions>
      <BoundProperties>
        <BoundPropertyInt Name="rotateStepNinety" Value="0" />
      </BoundProperties>
    </ImageClip>
    <ImageClip extentID="879" gapBefore="0" mediaItemID="459" duration="1">
      <Effects />
      <Transitions>
        <ShaderEffect effectTemplateID="HeartTransitionTemplate" duration="1.5">
          <BoundProperties />
        </ShaderEffect>
      </Transitions>
      <BoundProperties>
        <BoundPropertyInt Name="rotateStepNinety" Value="1" />
      </BoundProperties>
    </ImageClip>
    <ImageClip extentID="1911" gapBefore="0" mediaItemID="915" duration="1">
      <Effects />
      <Transitions>
        <ShaderEffect effectTemplateID="HeartTransitionTemplate" duration="1.5">
          <BoundProperties />
        </ShaderEffect>
      </Transitions>
      <BoundProperties>
        <BoundPropertyInt Name="rotateStepNinety" Value="0" />
      </BoundProperties>
    </ImageClip>
    <ImageClip extentID="880" gapBefore="0" mediaItemID="460" duration="1">
      <Effects />
      <Transitions>
        <ShaderEffect effectTemplateID="HeartTransitionTemplate" duration="1.5">
          <BoundProperties />
        </ShaderEffect>
      </Transitions>
      <BoundProperties>
        <BoundPropertyInt Name="rotateStepNinety" Value="3" />
      </BoundProperties>
    </ImageClip>
    <ImageClip extentID="1912" gapBefore="0" mediaItemID="916" duration="1">
      <Effects />
      <Transitions>
        <ShaderEffect effectTemplateID="HeartTransitionTemplate" duration="1.5">
          <BoundProperties />
        </ShaderEffect>
      </Transitions>
      <BoundProperties>
        <BoundPropertyInt Name="rotateStepNinety" Value="0" />
      </BoundProperties>
    </ImageClip>
    <ImageClip extentID="1913" gapBefore="0" mediaItemID="917" duration="1">
      <Effects />
      <Transitions>
        <ShaderEffect effectTemplateID="HeartTransitionTemplate" duration="1.5">
          <BoundProperties />
        </ShaderEffect>
      </Transitions>
      <BoundProperties>
        <BoundPropertyInt Name="rotateStepNinety" Value="0" />
      </BoundProperties>
    </ImageClip>
    <ImageClip extentID="1914" gapBefore="0" mediaItemID="918" duration="1">
      <Effects />
      <Transitions>
        <ShaderEffect effectTemplateID="HeartTransitionTemplate" duration="1.5">
          <BoundProperties />
        </ShaderEffect>
      </Transitions>
      <BoundProperties>
        <BoundPropertyInt Name="rotateStepNinety" Value="0" />
      </BoundProperties>
    </ImageClip>
    <ImageClip extentID="1915" gapBefore="0" mediaItemID="919" duration="1">
      <Effects />
      <Transitions>
        <ShaderEffect effectTemplateID="HeartTransitionTemplate" duration="1.5">
          <BoundProperties />
        </ShaderEffect>
      </Transitions>
      <BoundProperties>
        <BoundPropertyInt Name="rotateStepNinety" Value="0" />
      </BoundProperties>
    </ImageClip>
    <ImageClip extentID="884" gapBefore="0" mediaItemID="464" duration="1">
      <Effects />
      <Transitions>
        <ShaderEffect effectTemplateID="HeartTransitionTemplate" duration="1.5">
          <BoundProperties />
        </ShaderEffect>
      </Transitions>
      <BoundProperties>
        <BoundPropertyInt Name="rotateStepNinety" Value="0" />
      </BoundProperties>
    </ImageClip>
    <ImageClip extentID="885" gapBefore="0" mediaItemID="465" duration="1">
      <Effects />
      <Transitions>
        <ShaderEffect effectTemplateID="HeartTransitionTemplate" duration="1.5">
          <BoundProperties />
        </ShaderEffect>
      </Transitions>
      <BoundProperties>
        <BoundPropertyInt Name="rotateStepNinety" Value="0" />
      </BoundProperties>
    </ImageClip>
    <ImageClip extentID="1917" gapBefore="0" mediaItemID="921" duration="1">
      <Effects />
      <Transitions>
        <ShaderEffect effectTemplateID="HeartTransitionTemplate" duration="1.5">
          <BoundProperties />
        </ShaderEffect>
      </Transitions>
      <BoundProperties>
        <BoundPropertyInt Name="rotateStepNinety" Value="0" />
      </BoundProperties>
    </ImageClip>
    <ImageClip extentID="886" gapBefore="0" mediaItemID="466" duration="1">
      <Effects />
      <Transitions>
        <ShaderEffect effectTemplateID="HeartTransitionTemplate" duration="1.5">
          <BoundProperties />
        </ShaderEffect>
      </Transitions>
      <BoundProperties>
        <BoundPropertyInt Name="rotateStepNinety" Value="0" />
      </BoundProperties>
    </ImageClip>
    <ImageClip extentID="1918" gapBefore="0" mediaItemID="922" duration="1">
      <Effects />
      <Transitions>
        <ShaderEffect effectTemplateID="HeartTransitionTemplate" duration="1.5">
          <BoundProperties />
        </ShaderEffect>
      </Transitions>
      <BoundProperties>
        <BoundPropertyInt Name="rotateStepNinety" Value="0" />
      </BoundProperties>
    </ImageClip>
    <ImageClip extentID="887" gapBefore="0" mediaItemID="467" duration="1">
      <Effects />
      <Transitions>
        <ShaderEffect effectTemplateID="HeartTransitionTemplate" duration="1.5">
          <BoundProperties />
        </ShaderEffect>
      </Transitions>
      <BoundProperties>
        <BoundPropertyInt Name="rotateStepNinety" Value="0" />
      </BoundProperties>
    </ImageClip>
    <ImageClip extentID="1919" gapBefore="0" mediaItemID="923" duration="1">
      <Effects />
      <Transitions>
        <ShaderEffect effectTemplateID="HeartTransitionTemplate" duration="1.5">
          <BoundProperties />
        </ShaderEffect>
      </Transitions>
      <BoundProperties>
        <BoundPropertyInt Name="rotateStepNinety" Value="0" />
      </BoundProperties>
    </ImageClip>
    <ImageClip extentID="888" gapBefore="0" mediaItemID="468" duration="1">
      <Effects />
      <Transitions>
        <ShaderEffect effectTemplateID="HeartTransitionTemplate" duration="1.5">
          <BoundProperties />
        </ShaderEffect>
      </Transitions>
      <BoundProperties>
        <BoundPropertyInt Name="rotateStepNinety" Value="0" />
      </BoundProperties>
    </ImageClip>
    <ImageClip extentID="889" gapBefore="0" mediaItemID="469" duration="1">
      <Effects />
      <Transitions>
        <ShaderEffect effectTemplateID="HeartTransitionTemplate" duration="1.5">
          <BoundProperties />
        </ShaderEffect>
      </Transitions>
      <BoundProperties>
        <BoundPropertyInt Name="rotateStepNinety" Value="0" />
      </BoundProperties>
    </ImageClip>
    <ImageClip extentID="1921" gapBefore="0" mediaItemID="925" duration="1">
      <Effects />
      <Transitions>
        <ShaderEffect effectTemplateID="HeartTransitionTemplate" duration="1.5">
          <BoundProperties />
        </ShaderEffect>
      </Transitions>
      <BoundProperties>
        <BoundPropertyInt Name="rotateStepNinety" Value="0" />
      </BoundProperties>
    </ImageClip>
    <ImageClip extentID="890" gapBefore="0" mediaItemID="470" duration="1">
      <Effects />
      <Transitions>
        <ShaderEffect effectTemplateID="HeartTransitionTemplate" duration="1.5">
          <BoundProperties />
        </ShaderEffect>
      </Transitions>
      <BoundProperties>
        <BoundPropertyInt Name="rotateStepNinety" Value="0" />
      </BoundProperties>
    </ImageClip>
    <ImageClip extentID="891" gapBefore="0" mediaItemID="471" duration="1">
      <Effects />
      <Transitions>
        <ShaderEffect effectTemplateID="HeartTransitionTemplate" duration="1.5">
          <BoundProperties />
        </ShaderEffect>
      </Transitions>
      <BoundProperties>
        <BoundPropertyInt Name="rotateStepNinety" Value="0" />
      </BoundProperties>
    </ImageClip>
    <ImageClip extentID="1923" gapBefore="0" mediaItemID="927" duration="1">
      <Effects />
      <Transitions>
        <ShaderEffect effectTemplateID="HeartTransitionTemplate" duration="1.5">
          <BoundProperties />
        </ShaderEffect>
      </Transitions>
      <BoundProperties>
        <BoundPropertyInt Name="rotateStepNinety" Value="0" />
      </BoundProperties>
    </ImageClip>
    <ImageClip extentID="892" gapBefore="0" mediaItemID="472" duration="1">
      <Effects />
      <Transitions>
        <ShaderEffect effectTemplateID="HeartTransitionTemplate" duration="1.5">
          <BoundProperties />
        </ShaderEffect>
      </Transitions>
      <BoundProperties>
        <BoundPropertyInt Name="rotateStepNinety" Value="2" />
      </BoundProperties>
    </ImageClip>
    <ImageClip extentID="1924" gapBefore="0" mediaItemID="928" duration="1">
      <Effects />
      <Transitions>
        <ShaderEffect effectTemplateID="HeartTransitionTemplate" duration="1.5">
          <BoundProperties />
        </ShaderEffect>
      </Transitions>
      <BoundProperties>
        <BoundPropertyInt Name="rotateStepNinety" Value="0" />
      </BoundProperties>
    </ImageClip>
    <ImageClip extentID="893" gapBefore="0" mediaItemID="473" duration="1">
      <Effects />
      <Transitions>
        <ShaderEffect effectTemplateID="HeartTransitionTemplate" duration="1.5">
          <BoundProperties />
        </ShaderEffect>
      </Transitions>
      <BoundProperties>
        <BoundPropertyInt Name="rotateStepNinety" Value="1" />
      </BoundProperties>
    </ImageClip>
    <ImageClip extentID="1925" gapBefore="0" mediaItemID="929" duration="1">
      <Effects />
      <Transitions>
        <ShaderEffect effectTemplateID="HeartTransitionTemplate" duration="1.5">
          <BoundProperties />
        </ShaderEffect>
      </Transitions>
      <BoundProperties>
        <BoundPropertyInt Name="rotateStepNinety" Value="0" />
      </BoundProperties>
    </ImageClip>
    <ImageClip extentID="894" gapBefore="0" mediaItemID="474" duration="1">
      <Effects />
      <Transitions>
        <ShaderEffect effectTemplateID="HeartTransitionTemplate" duration="1.5">
          <BoundProperties />
        </ShaderEffect>
      </Transitions>
      <BoundProperties>
        <BoundPropertyInt Name="rotateStepNinety" Value="0" />
      </BoundProperties>
    </ImageClip>
    <ImageClip extentID="1926" gapBefore="0" mediaItemID="930" duration="1">
      <Effects />
      <Transitions>
        <ShaderEffect effectTemplateID="HeartTransitionTemplate" duration="1.5">
          <BoundProperties />
        </ShaderEffect>
      </Transitions>
      <BoundProperties>
        <BoundPropertyInt Name="rotateStepNinety" Value="0" />
      </BoundProperties>
    </ImageClip>
    <ImageClip extentID="895" gapBefore="0" mediaItemID="475" duration="1">
      <Effects />
      <Transitions>
        <ShaderEffect effectTemplateID="HeartTransitionTemplate" duration="1.5">
          <BoundProperties />
        </ShaderEffect>
      </Transitions>
      <BoundProperties>
        <BoundPropertyInt Name="rotateStepNinety" Value="0" />
      </BoundProperties>
    </ImageClip>
    <ImageClip extentID="1927" gapBefore="0" mediaItemID="931" duration="1">
      <Effects />
      <Transitions>
        <ShaderEffect effectTemplateID="HeartTransitionTemplate" duration="1.5">
          <BoundProperties />
        </ShaderEffect>
      </Transitions>
      <BoundProperties>
        <BoundPropertyInt Name="rotateStepNinety" Value="0" />
      </BoundProperties>
    </ImageClip>
    <ImageClip extentID="1929" gapBefore="0" mediaItemID="933" duration="1">
      <Effects />
      <Transitions>
        <ShaderEffect effectTemplateID="HeartTransitionTemplate" duration="1.5">
          <BoundProperties />
        </ShaderEffect>
      </Transitions>
      <BoundProperties>
        <BoundPropertyInt Name="rotateStepNinety" Value="0" />
      </BoundProperties>
    </ImageClip>
    <ImageClip extentID="898" gapBefore="0" mediaItemID="478" duration="1">
      <Effects />
      <Transitions>
        <ShaderEffect effectTemplateID="HeartTransitionTemplate" duration="1.5">
          <BoundProperties />
        </ShaderEffect>
      </Transitions>
      <BoundProperties>
        <BoundPropertyInt Name="rotateStepNinety" Value="0" />
      </BoundProperties>
    </ImageClip>
    <ImageClip extentID="1930" gapBefore="0" mediaItemID="934" duration="1">
      <Effects />
      <Transitions>
        <ShaderEffect effectTemplateID="HeartTransitionTemplate" duration="1.5">
          <BoundProperties />
        </ShaderEffect>
      </Transitions>
      <BoundProperties>
        <BoundPropertyInt Name="rotateStepNinety" Value="0" />
      </BoundProperties>
    </ImageClip>
    <ImageClip extentID="899" gapBefore="0" mediaItemID="479" duration="1">
      <Effects />
      <Transitions>
        <ShaderEffect effectTemplateID="HeartTransitionTemplate" duration="1.5">
          <BoundProperties />
        </ShaderEffect>
      </Transitions>
      <BoundProperties>
        <BoundPropertyInt Name="rotateStepNinety" Value="0" />
      </BoundProperties>
    </ImageClip>
    <ImageClip extentID="1931" gapBefore="0" mediaItemID="935" duration="1">
      <Effects />
      <Transitions>
        <ShaderEffect effectTemplateID="HeartTransitionTemplate" duration="1.5">
          <BoundProperties />
        </ShaderEffect>
      </Transitions>
      <BoundProperties>
        <BoundPropertyInt Name="rotateStepNinety" Value="3" />
      </BoundProperties>
    </ImageClip>
    <ImageClip extentID="900" gapBefore="0" mediaItemID="480" duration="1">
      <Effects />
      <Transitions>
        <ShaderEffect effectTemplateID="HeartTransitionTemplate" duration="1.5">
          <BoundProperties />
        </ShaderEffect>
      </Transitions>
      <BoundProperties>
        <BoundPropertyInt Name="rotateStepNinety" Value="0" />
      </BoundProperties>
    </ImageClip>
    <ImageClip extentID="1932" gapBefore="0" mediaItemID="936" duration="1">
      <Effects />
      <Transitions>
        <ShaderEffect effectTemplateID="HeartTransitionTemplate" duration="1.5">
          <BoundProperties />
        </ShaderEffect>
      </Transitions>
      <BoundProperties>
        <BoundPropertyInt Name="rotateStepNinety" Value="1" />
      </BoundProperties>
    </ImageClip>
    <ImageClip extentID="901" gapBefore="0" mediaItemID="481" duration="1">
      <Effects />
      <Transitions>
        <ShaderEffect effectTemplateID="HeartTransitionTemplate" duration="1.5">
          <BoundProperties />
        </ShaderEffect>
      </Transitions>
      <BoundProperties>
        <BoundPropertyInt Name="rotateStepNinety" Value="0" />
      </BoundProperties>
    </ImageClip>
    <ImageClip extentID="1933" gapBefore="0" mediaItemID="937" duration="1">
      <Effects />
      <Transitions>
        <ShaderEffect effectTemplateID="HeartTransitionTemplate" duration="1.5">
          <BoundProperties />
        </ShaderEffect>
      </Transitions>
      <BoundProperties>
        <BoundPropertyInt Name="rotateStepNinety" Value="1" />
      </BoundProperties>
    </ImageClip>
    <ImageClip extentID="902" gapBefore="0" mediaItemID="482" duration="1">
      <Effects />
      <Transitions>
        <ShaderEffect effectTemplateID="HeartTransitionTemplate" duration="1.5">
          <BoundProperties />
        </ShaderEffect>
      </Transitions>
      <BoundProperties>
        <BoundPropertyInt Name="rotateStepNinety" Value="0" />
      </BoundProperties>
    </ImageClip>
    <ImageClip extentID="1934" gapBefore="0" mediaItemID="938" duration="1">
      <Effects />
      <Transitions>
        <ShaderEffect effectTemplateID="HeartTransitionTemplate" duration="1.5">
          <BoundProperties />
        </ShaderEffect>
      </Transitions>
      <BoundProperties>
        <BoundPropertyInt Name="rotateStepNinety" Value="1" />
      </BoundProperties>
    </ImageClip>
    <ImageClip extentID="903" gapBefore="0" mediaItemID="483" duration="1">
      <Effects />
      <Transitions>
        <ShaderEffect effectTemplateID="HeartTransitionTemplate" duration="1.5">
          <BoundProperties />
        </ShaderEffect>
      </Transitions>
      <BoundProperties>
        <BoundPropertyInt Name="rotateStepNinety" Value="0" />
      </BoundProperties>
    </ImageClip>
    <ImageClip extentID="1935" gapBefore="0" mediaItemID="939" duration="1">
      <Effects />
      <Transitions>
        <ShaderEffect effectTemplateID="HeartTransitionTemplate" duration="1.5">
          <BoundProperties />
        </ShaderEffect>
      </Transitions>
      <BoundProperties>
        <BoundPropertyInt Name="rotateStepNinety" Value="3" />
      </BoundProperties>
    </ImageClip>
    <ImageClip extentID="904" gapBefore="0" mediaItemID="484" duration="1">
      <Effects />
      <Transitions>
        <ShaderEffect effectTemplateID="HeartTransitionTemplate" duration="1.5">
          <BoundProperties />
        </ShaderEffect>
      </Transitions>
      <BoundProperties>
        <BoundPropertyInt Name="rotateStepNinety" Value="0" />
      </BoundProperties>
    </ImageClip>
    <ImageClip extentID="1936" gapBefore="0" mediaItemID="940" duration="1">
      <Effects />
      <Transitions>
        <ShaderEffect effectTemplateID="HeartTransitionTemplate" duration="1.5">
          <BoundProperties />
        </ShaderEffect>
      </Transitions>
      <BoundProperties>
        <BoundPropertyInt Name="rotateStepNinety" Value="1" />
      </BoundProperties>
    </ImageClip>
    <ImageClip extentID="905" gapBefore="0" mediaItemID="485" duration="1">
      <Effects />
      <Transitions>
        <ShaderEffect effectTemplateID="HeartTransitionTemplate" duration="1.5">
          <BoundProperties />
        </ShaderEffect>
      </Transitions>
      <BoundProperties>
        <BoundPropertyInt Name="rotateStepNinety" Value="0" />
      </BoundProperties>
    </ImageClip>
    <ImageClip extentID="1937" gapBefore="0" mediaItemID="941" duration="1">
      <Effects />
      <Transitions>
        <ShaderEffect effectTemplateID="HeartTransitionTemplate" duration="1.5">
          <BoundProperties />
        </ShaderEffect>
      </Transitions>
      <BoundProperties>
        <BoundPropertyInt Name="rotateStepNinety" Value="1" />
      </BoundProperties>
    </ImageClip>
    <ImageClip extentID="906" gapBefore="0" mediaItemID="486" duration="1">
      <Effects />
      <Transitions>
        <ShaderEffect effectTemplateID="HeartTransitionTemplate" duration="1.5">
          <BoundProperties />
        </ShaderEffect>
      </Transitions>
      <BoundProperties>
        <BoundPropertyInt Name="rotateStepNinety" Value="0" />
      </BoundProperties>
    </ImageClip>
    <ImageClip extentID="1938" gapBefore="0" mediaItemID="942" duration="1">
      <Effects />
      <Transitions>
        <ShaderEffect effectTemplateID="HeartTransitionTemplate" duration="1.5">
          <BoundProperties />
        </ShaderEffect>
      </Transitions>
      <BoundProperties>
        <BoundPropertyInt Name="rotateStepNinety" Value="0" />
      </BoundProperties>
    </ImageClip>
    <ImageClip extentID="907" gapBefore="0" mediaItemID="487" duration="1">
      <Effects />
      <Transitions>
        <ShaderEffect effectTemplateID="HeartTransitionTemplate" duration="1.5">
          <BoundProperties />
        </ShaderEffect>
      </Transitions>
      <BoundProperties>
        <BoundPropertyInt Name="rotateStepNinety" Value="0" />
      </BoundProperties>
    </ImageClip>
    <ImageClip extentID="1939" gapBefore="0" mediaItemID="943" duration="1">
      <Effects />
      <Transitions>
        <ShaderEffect effectTemplateID="HeartTransitionTemplate" duration="1.5">
          <BoundProperties />
        </ShaderEffect>
      </Transitions>
      <BoundProperties>
        <BoundPropertyInt Name="rotateStepNinety" Value="0" />
      </BoundProperties>
    </ImageClip>
    <ImageClip extentID="908" gapBefore="0" mediaItemID="488" duration="1">
      <Effects />
      <Transitions>
        <ShaderEffect effectTemplateID="HeartTransitionTemplate" duration="1.5">
          <BoundProperties />
        </ShaderEffect>
      </Transitions>
      <BoundProperties>
        <BoundPropertyInt Name="rotateStepNinety" Value="0" />
      </BoundProperties>
    </ImageClip>
    <ImageClip extentID="1940" gapBefore="0" mediaItemID="944" duration="1">
      <Effects />
      <Transitions>
        <ShaderEffect effectTemplateID="HeartTransitionTemplate" duration="1.5">
          <BoundProperties />
        </ShaderEffect>
      </Transitions>
      <BoundProperties>
        <BoundPropertyInt Name="rotateStepNinety" Value="0" />
      </BoundProperties>
    </ImageClip>
    <ImageClip extentID="909" gapBefore="0" mediaItemID="489" duration="1">
      <Effects />
      <Transitions>
        <ShaderEffect effectTemplateID="HeartTransitionTemplate" duration="1.5">
          <BoundProperties />
        </ShaderEffect>
      </Transitions>
      <BoundProperties>
        <BoundPropertyInt Name="rotateStepNinety" Value="0" />
      </BoundProperties>
    </ImageClip>
    <ImageClip extentID="1941" gapBefore="0" mediaItemID="945" duration="1">
      <Effects />
      <Transitions>
        <ShaderEffect effectTemplateID="HeartTransitionTemplate" duration="1.5">
          <BoundProperties />
        </ShaderEffect>
      </Transitions>
      <BoundProperties>
        <BoundPropertyInt Name="rotateStepNinety" Value="0" />
      </BoundProperties>
    </ImageClip>
    <ImageClip extentID="910" gapBefore="0" mediaItemID="490" duration="1">
      <Effects />
      <Transitions>
        <ShaderEffect effectTemplateID="HeartTransitionTemplate" duration="1.5">
          <BoundProperties />
        </ShaderEffect>
      </Transitions>
      <BoundProperties>
        <BoundPropertyInt Name="rotateStepNinety" Value="0" />
      </BoundProperties>
    </ImageClip>
    <ImageClip extentID="911" gapBefore="0" mediaItemID="491" duration="1">
      <Effects />
      <Transitions>
        <ShaderEffect effectTemplateID="HeartTransitionTemplate" duration="1.5">
          <BoundProperties />
        </ShaderEffect>
      </Transitions>
      <BoundProperties>
        <BoundPropertyInt Name="rotateStepNinety" Value="0" />
      </BoundProperties>
    </ImageClip>
    <ImageClip extentID="1943" gapBefore="0" mediaItemID="947" duration="1">
      <Effects />
      <Transitions>
        <ShaderEffect effectTemplateID="HeartTransitionTemplate" duration="1.5">
          <BoundProperties />
        </ShaderEffect>
      </Transitions>
      <BoundProperties>
        <BoundPropertyInt Name="rotateStepNinety" Value="1" />
      </BoundProperties>
    </ImageClip>
    <ImageClip extentID="912" gapBefore="0" mediaItemID="492" duration="1">
      <Effects />
      <Transitions>
        <ShaderEffect effectTemplateID="HeartTransitionTemplate" duration="1.5">
          <BoundProperties />
        </ShaderEffect>
      </Transitions>
      <BoundProperties>
        <BoundPropertyInt Name="rotateStepNinety" Value="0" />
      </BoundProperties>
    </ImageClip>
    <ImageClip extentID="913" gapBefore="0" mediaItemID="493" duration="1">
      <Effects />
      <Transitions>
        <ShaderEffect effectTemplateID="HeartTransitionTemplate" duration="1.5">
          <BoundProperties />
        </ShaderEffect>
      </Transitions>
      <BoundProperties>
        <BoundPropertyInt Name="rotateStepNinety" Value="0" />
      </BoundProperties>
    </ImageClip>
    <ImageClip extentID="914" gapBefore="0" mediaItemID="494" duration="1">
      <Effects />
      <Transitions>
        <ShaderEffect effectTemplateID="HeartTransitionTemplate" duration="1.5">
          <BoundProperties />
        </ShaderEffect>
      </Transitions>
      <BoundProperties>
        <BoundPropertyInt Name="rotateStepNinety" Value="0" />
      </BoundProperties>
    </ImageClip>
    <ImageClip extentID="1946" gapBefore="0" mediaItemID="950" duration="1">
      <Effects />
      <Transitions>
        <ShaderEffect effectTemplateID="HeartTransitionTemplate" duration="1.5">
          <BoundProperties />
        </ShaderEffect>
      </Transitions>
      <BoundProperties>
        <BoundPropertyInt Name="rotateStepNinety" Value="0" />
      </BoundProperties>
    </ImageClip>
    <ImageClip extentID="915" gapBefore="0" mediaItemID="495" duration="1">
      <Effects />
      <Transitions>
        <ShaderEffect effectTemplateID="HeartTransitionTemplate" duration="1.5">
          <BoundProperties />
        </ShaderEffect>
      </Transitions>
      <BoundProperties>
        <BoundPropertyInt Name="rotateStepNinety" Value="0" />
      </BoundProperties>
    </ImageClip>
    <ImageClip extentID="1947" gapBefore="0" mediaItemID="951" duration="1">
      <Effects />
      <Transitions>
        <ShaderEffect effectTemplateID="HeartTransitionTemplate" duration="1.5">
          <BoundProperties />
        </ShaderEffect>
      </Transitions>
      <BoundProperties>
        <BoundPropertyInt Name="rotateStepNinety" Value="0" />
      </BoundProperties>
    </ImageClip>
    <ImageClip extentID="916" gapBefore="0" mediaItemID="496" duration="1">
      <Effects />
      <Transitions>
        <ShaderEffect effectTemplateID="HeartTransitionTemplate" duration="1.5">
          <BoundProperties />
        </ShaderEffect>
      </Transitions>
      <BoundProperties>
        <BoundPropertyInt Name="rotateStepNinety" Value="0" />
      </BoundProperties>
    </ImageClip>
    <ImageClip extentID="1948" gapBefore="0" mediaItemID="952" duration="1">
      <Effects />
      <Transitions>
        <ShaderEffect effectTemplateID="HeartTransitionTemplate" duration="1.5">
          <BoundProperties />
        </ShaderEffect>
      </Transitions>
      <BoundProperties>
        <BoundPropertyInt Name="rotateStepNinety" Value="0" />
      </BoundProperties>
    </ImageClip>
    <ImageClip extentID="917" gapBefore="0" mediaItemID="497" duration="1">
      <Effects />
      <Transitions>
        <ShaderEffect effectTemplateID="HeartTransitionTemplate" duration="1.5">
          <BoundProperties />
        </ShaderEffect>
      </Transitions>
      <BoundProperties>
        <BoundPropertyInt Name="rotateStepNinety" Value="0" />
      </BoundProperties>
    </ImageClip>
    <ImageClip extentID="1949" gapBefore="0" mediaItemID="953" duration="1">
      <Effects />
      <Transitions>
        <ShaderEffect effectTemplateID="HeartTransitionTemplate" duration="1.5">
          <BoundProperties />
        </ShaderEffect>
      </Transitions>
      <BoundProperties>
        <BoundPropertyInt Name="rotateStepNinety" Value="1" />
      </BoundProperties>
    </ImageClip>
    <ImageClip extentID="918" gapBefore="0" mediaItemID="498" duration="1">
      <Effects />
      <Transitions>
        <ShaderEffect effectTemplateID="HeartTransitionTemplate" duration="1.5">
          <BoundProperties />
        </ShaderEffect>
      </Transitions>
      <BoundProperties>
        <BoundPropertyInt Name="rotateStepNinety" Value="0" />
      </BoundProperties>
    </ImageClip>
    <ImageClip extentID="919" gapBefore="0" mediaItemID="499" duration="1">
      <Effects />
      <Transitions>
        <ShaderEffect effectTemplateID="HeartTransitionTemplate" duration="1.5">
          <BoundProperties />
        </ShaderEffect>
      </Transitions>
      <BoundProperties>
        <BoundPropertyInt Name="rotateStepNinety" Value="0" />
      </BoundProperties>
    </ImageClip>
    <ImageClip extentID="1951" gapBefore="0" mediaItemID="955" duration="1">
      <Effects />
      <Transitions>
        <ShaderEffect effectTemplateID="HeartTransitionTemplate" duration="1.5">
          <BoundProperties />
        </ShaderEffect>
      </Transitions>
      <BoundProperties>
        <BoundPropertyInt Name="rotateStepNinety" Value="0" />
      </BoundProperties>
    </ImageClip>
    <ImageClip extentID="920" gapBefore="0" mediaItemID="500" duration="1">
      <Effects />
      <Transitions>
        <ShaderEffect effectTemplateID="HeartTransitionTemplate" duration="1.5">
          <BoundProperties />
        </ShaderEffect>
      </Transitions>
      <BoundProperties>
        <BoundPropertyInt Name="rotateStepNinety" Value="0" />
      </BoundProperties>
    </ImageClip>
    <ImageClip extentID="921" gapBefore="0" mediaItemID="501" duration="1">
      <Effects />
      <Transitions>
        <ShaderEffect effectTemplateID="HeartTransitionTemplate" duration="1.5">
          <BoundProperties />
        </ShaderEffect>
      </Transitions>
      <BoundProperties>
        <BoundPropertyInt Name="rotateStepNinety" Value="1" />
      </BoundProperties>
    </ImageClip>
    <ImageClip extentID="1953" gapBefore="0" mediaItemID="957" duration="1">
      <Effects />
      <Transitions>
        <ShaderEffect effectTemplateID="HeartTransitionTemplate" duration="1.5">
          <BoundProperties />
        </ShaderEffect>
      </Transitions>
      <BoundProperties>
        <BoundPropertyInt Name="rotateStepNinety" Value="0" />
      </BoundProperties>
    </ImageClip>
    <ImageClip extentID="1955" gapBefore="0" mediaItemID="959" duration="1">
      <Effects />
      <Transitions>
        <ShaderEffect effectTemplateID="HeartTransitionTemplate" duration="1.5">
          <BoundProperties />
        </ShaderEffect>
      </Transitions>
      <BoundProperties>
        <BoundPropertyInt Name="rotateStepNinety" Value="1" />
      </BoundProperties>
    </ImageClip>
    <ImageClip extentID="924" gapBefore="0" mediaItemID="504" duration="1">
      <Effects />
      <Transitions>
        <ShaderEffect effectTemplateID="HeartTransitionTemplate" duration="1.5">
          <BoundProperties />
        </ShaderEffect>
      </Transitions>
      <BoundProperties>
        <BoundPropertyInt Name="rotateStepNinety" Value="0" />
      </BoundProperties>
    </ImageClip>
    <ImageClip extentID="1956" gapBefore="0" mediaItemID="960" duration="1">
      <Effects />
      <Transitions>
        <ShaderEffect effectTemplateID="HeartTransitionTemplate" duration="1.5">
          <BoundProperties />
        </ShaderEffect>
      </Transitions>
      <BoundProperties>
        <BoundPropertyInt Name="rotateStepNinety" Value="1" />
      </BoundProperties>
    </ImageClip>
    <ImageClip extentID="925" gapBefore="0" mediaItemID="505" duration="1">
      <Effects />
      <Transitions>
        <ShaderEffect effectTemplateID="HeartTransitionTemplate" duration="1.5">
          <BoundProperties />
        </ShaderEffect>
      </Transitions>
      <BoundProperties>
        <BoundPropertyInt Name="rotateStepNinety" Value="0" />
      </BoundProperties>
    </ImageClip>
    <ImageClip extentID="1957" gapBefore="0" mediaItemID="961" duration="1">
      <Effects />
      <Transitions>
        <ShaderEffect effectTemplateID="HeartTransitionTemplate" duration="1.5">
          <BoundProperties />
        </ShaderEffect>
      </Transitions>
      <BoundProperties>
        <BoundPropertyInt Name="rotateStepNinety" Value="3" />
      </BoundProperties>
    </ImageClip>
    <ImageClip extentID="926" gapBefore="0" mediaItemID="506" duration="1">
      <Effects />
      <Transitions>
        <ShaderEffect effectTemplateID="HeartTransitionTemplate" duration="1.5">
          <BoundProperties />
        </ShaderEffect>
      </Transitions>
      <BoundProperties>
        <BoundPropertyInt Name="rotateStepNinety" Value="0" />
      </BoundProperties>
    </ImageClip>
    <ImageClip extentID="1958" gapBefore="0" mediaItemID="962" duration="1">
      <Effects />
      <Transitions>
        <ShaderEffect effectTemplateID="HeartTransitionTemplate" duration="1.5">
          <BoundProperties />
        </ShaderEffect>
      </Transitions>
      <BoundProperties>
        <BoundPropertyInt Name="rotateStepNinety" Value="1" />
      </BoundProperties>
    </ImageClip>
    <ImageClip extentID="927" gapBefore="0" mediaItemID="507" duration="1">
      <Effects />
      <Transitions>
        <ShaderEffect effectTemplateID="HeartTransitionTemplate" duration="1.5">
          <BoundProperties />
        </ShaderEffect>
      </Transitions>
      <BoundProperties>
        <BoundPropertyInt Name="rotateStepNinety" Value="0" />
      </BoundProperties>
    </ImageClip>
    <ImageClip extentID="1959" gapBefore="0" mediaItemID="963" duration="1">
      <Effects />
      <Transitions>
        <ShaderEffect effectTemplateID="HeartTransitionTemplate" duration="1.5">
          <BoundProperties />
        </ShaderEffect>
      </Transitions>
      <BoundProperties>
        <BoundPropertyInt Name="rotateStepNinety" Value="0" />
      </BoundProperties>
    </ImageClip>
    <ImageClip extentID="928" gapBefore="0" mediaItemID="508" duration="1">
      <Effects />
      <Transitions>
        <ShaderEffect effectTemplateID="HeartTransitionTemplate" duration="1.5">
          <BoundProperties />
        </ShaderEffect>
      </Transitions>
      <BoundProperties>
        <BoundPropertyInt Name="rotateStepNinety" Value="0" />
      </BoundProperties>
    </ImageClip>
    <ImageClip extentID="929" gapBefore="0" mediaItemID="509" duration="1">
      <Effects />
      <Transitions>
        <ShaderEffect effectTemplateID="HeartTransitionTemplate" duration="1.5">
          <BoundProperties />
        </ShaderEffect>
      </Transitions>
      <BoundProperties>
        <BoundPropertyInt Name="rotateStepNinety" Value="0" />
      </BoundProperties>
    </ImageClip>
    <ImageClip extentID="1961" gapBefore="0" mediaItemID="965" duration="1">
      <Effects />
      <Transitions>
        <ShaderEffect effectTemplateID="HeartTransitionTemplate" duration="1.5">
          <BoundProperties />
        </ShaderEffect>
      </Transitions>
      <BoundProperties>
        <BoundPropertyInt Name="rotateStepNinety" Value="0" />
      </BoundProperties>
    </ImageClip>
    <ImageClip extentID="930" gapBefore="0" mediaItemID="510" duration="1">
      <Effects />
      <Transitions>
        <ShaderEffect effectTemplateID="HeartTransitionTemplate" duration="1.5">
          <BoundProperties />
        </ShaderEffect>
      </Transitions>
      <BoundProperties>
        <BoundPropertyInt Name="rotateStepNinety" Value="0" />
      </BoundProperties>
    </ImageClip>
    <ImageClip extentID="1962" gapBefore="0" mediaItemID="966" duration="1">
      <Effects />
      <Transitions>
        <ShaderEffect effectTemplateID="HeartTransitionTemplate" duration="1.5">
          <BoundProperties />
        </ShaderEffect>
      </Transitions>
      <BoundProperties>
        <BoundPropertyInt Name="rotateStepNinety" Value="0" />
      </BoundProperties>
    </ImageClip>
    <ImageClip extentID="931" gapBefore="0" mediaItemID="511" duration="1">
      <Effects />
      <Transitions>
        <ShaderEffect effectTemplateID="HeartTransitionTemplate" duration="1.5">
          <BoundProperties />
        </ShaderEffect>
      </Transitions>
      <BoundProperties>
        <BoundPropertyInt Name="rotateStepNinety" Value="0" />
      </BoundProperties>
    </ImageClip>
    <ImageClip extentID="1963" gapBefore="0" mediaItemID="967" duration="1">
      <Effects />
      <Transitions>
        <ShaderEffect effectTemplateID="HeartTransitionTemplate" duration="1.5">
          <BoundProperties />
        </ShaderEffect>
      </Transitions>
      <BoundProperties>
        <BoundPropertyInt Name="rotateStepNinety" Value="2" />
      </BoundProperties>
    </ImageClip>
    <ImageClip extentID="932" gapBefore="0" mediaItemID="512" duration="1">
      <Effects />
      <Transitions>
        <ShaderEffect effectTemplateID="HeartTransitionTemplate" duration="1.5">
          <BoundProperties />
        </ShaderEffect>
      </Transitions>
      <BoundProperties>
        <BoundPropertyInt Name="rotateStepNinety" Value="0" />
      </BoundProperties>
    </ImageClip>
    <ImageClip extentID="933" gapBefore="0" mediaItemID="513" duration="1">
      <Effects />
      <Transitions>
        <ShaderEffect effectTemplateID="HeartTransitionTemplate" duration="1.5">
          <BoundProperties />
        </ShaderEffect>
      </Transitions>
      <BoundProperties>
        <BoundPropertyInt Name="rotateStepNinety" Value="0" />
      </BoundProperties>
    </ImageClip>
    <ImageClip extentID="934" gapBefore="0" mediaItemID="514" duration="1">
      <Effects />
      <Transitions>
        <ShaderEffect effectTemplateID="HeartTransitionTemplate" duration="1.5">
          <BoundProperties />
        </ShaderEffect>
      </Transitions>
      <BoundProperties>
        <BoundPropertyInt Name="rotateStepNinety" Value="0" />
      </BoundProperties>
    </ImageClip>
    <ImageClip extentID="935" gapBefore="0" mediaItemID="515" duration="1">
      <Effects />
      <Transitions>
        <ShaderEffect effectTemplateID="HeartTransitionTemplate" duration="1.5">
          <BoundProperties />
        </ShaderEffect>
      </Transitions>
      <BoundProperties>
        <BoundPropertyInt Name="rotateStepNinety" Value="0" />
      </BoundProperties>
    </ImageClip>
    <ImageClip extentID="1967" gapBefore="0" mediaItemID="971" duration="1">
      <Effects />
      <Transitions>
        <ShaderEffect effectTemplateID="HeartTransitionTemplate" duration="1.5">
          <BoundProperties />
        </ShaderEffect>
      </Transitions>
      <BoundProperties>
        <BoundPropertyInt Name="rotateStepNinety" Value="0" />
      </BoundProperties>
    </ImageClip>
    <ImageClip extentID="936" gapBefore="0" mediaItemID="516" duration="1">
      <Effects />
      <Transitions>
        <ShaderEffect effectTemplateID="HeartTransitionTemplate" duration="1.5">
          <BoundProperties />
        </ShaderEffect>
      </Transitions>
      <BoundProperties>
        <BoundPropertyInt Name="rotateStepNinety" Value="0" />
      </BoundProperties>
    </ImageClip>
    <ImageClip extentID="1968" gapBefore="0" mediaItemID="972" duration="1">
      <Effects />
      <Transitions>
        <ShaderEffect effectTemplateID="HeartTransitionTemplate" duration="1.5">
          <BoundProperties />
        </ShaderEffect>
      </Transitions>
      <BoundProperties>
        <BoundPropertyInt Name="rotateStepNinety" Value="0" />
      </BoundProperties>
    </ImageClip>
    <ImageClip extentID="937" gapBefore="0" mediaItemID="517" duration="1">
      <Effects />
      <Transitions>
        <ShaderEffect effectTemplateID="HeartTransitionTemplate" duration="1.5">
          <BoundProperties />
        </ShaderEffect>
      </Transitions>
      <BoundProperties>
        <BoundPropertyInt Name="rotateStepNinety" Value="0" />
      </BoundProperties>
    </ImageClip>
    <ImageClip extentID="1969" gapBefore="0" mediaItemID="973" duration="1">
      <Effects />
      <Transitions>
        <ShaderEffect effectTemplateID="HeartTransitionTemplate" duration="1.5">
          <BoundProperties />
        </ShaderEffect>
      </Transitions>
      <BoundProperties>
        <BoundPropertyInt Name="rotateStepNinety" Value="0" />
      </BoundProperties>
    </ImageClip>
    <ImageClip extentID="938" gapBefore="0" mediaItemID="518" duration="1">
      <Effects />
      <Transitions>
        <ShaderEffect effectTemplateID="HeartTransitionTemplate" duration="1.5">
          <BoundProperties />
        </ShaderEffect>
      </Transitions>
      <BoundProperties>
        <BoundPropertyInt Name="rotateStepNinety" Value="0" />
      </BoundProperties>
    </ImageClip>
    <ImageClip extentID="1970" gapBefore="0" mediaItemID="974" duration="1">
      <Effects />
      <Transitions>
        <ShaderEffect effectTemplateID="HeartTransitionTemplate" duration="1.5">
          <BoundProperties />
        </ShaderEffect>
      </Transitions>
      <BoundProperties>
        <BoundPropertyInt Name="rotateStepNinety" Value="0" />
      </BoundProperties>
    </ImageClip>
    <ImageClip extentID="1971" gapBefore="0" mediaItemID="975" duration="1">
      <Effects />
      <Transitions>
        <ShaderEffect effectTemplateID="HeartTransitionTemplate" duration="1.5">
          <BoundProperties />
        </ShaderEffect>
      </Transitions>
      <BoundProperties>
        <BoundPropertyInt Name="rotateStepNinety" Value="0" />
      </BoundProperties>
    </ImageClip>
    <ImageClip extentID="940" gapBefore="0" mediaItemID="520" duration="1">
      <Effects />
      <Transitions>
        <ShaderEffect effectTemplateID="HeartTransitionTemplate" duration="1.5">
          <BoundProperties />
        </ShaderEffect>
      </Transitions>
      <BoundProperties>
        <BoundPropertyInt Name="rotateStepNinety" Value="0" />
      </BoundProperties>
    </ImageClip>
    <ImageClip extentID="942" gapBefore="0" mediaItemID="522" duration="1">
      <Effects />
      <Transitions>
        <ShaderEffect effectTemplateID="HeartTransitionTemplate" duration="1.5">
          <BoundProperties />
        </ShaderEffect>
      </Transitions>
      <BoundProperties>
        <BoundPropertyInt Name="rotateStepNinety" Value="0" />
      </BoundProperties>
    </ImageClip>
    <ImageClip extentID="1974" gapBefore="0" mediaItemID="978" duration="1">
      <Effects />
      <Transitions>
        <ShaderEffect effectTemplateID="HeartTransitionTemplate" duration="1.5">
          <BoundProperties />
        </ShaderEffect>
      </Transitions>
      <BoundProperties>
        <BoundPropertyInt Name="rotateStepNinety" Value="0" />
      </BoundProperties>
    </ImageClip>
    <ImageClip extentID="943" gapBefore="0" mediaItemID="523" duration="1">
      <Effects />
      <Transitions>
        <ShaderEffect effectTemplateID="HeartTransitionTemplate" duration="1.5">
          <BoundProperties />
        </ShaderEffect>
      </Transitions>
      <BoundProperties>
        <BoundPropertyInt Name="rotateStepNinety" Value="0" />
      </BoundProperties>
    </ImageClip>
    <ImageClip extentID="1975" gapBefore="0" mediaItemID="979" duration="1">
      <Effects />
      <Transitions>
        <ShaderEffect effectTemplateID="HeartTransitionTemplate" duration="1.5">
          <BoundProperties />
        </ShaderEffect>
      </Transitions>
      <BoundProperties>
        <BoundPropertyInt Name="rotateStepNinety" Value="0" />
      </BoundProperties>
    </ImageClip>
    <ImageClip extentID="944" gapBefore="0" mediaItemID="524" duration="1">
      <Effects />
      <Transitions>
        <ShaderEffect effectTemplateID="HeartTransitionTemplate" duration="1.5">
          <BoundProperties />
        </ShaderEffect>
      </Transitions>
      <BoundProperties>
        <BoundPropertyInt Name="rotateStepNinety" Value="0" />
      </BoundProperties>
    </ImageClip>
    <ImageClip extentID="1976" gapBefore="0" mediaItemID="980" duration="1">
      <Effects />
      <Transitions>
        <ShaderEffect effectTemplateID="HeartTransitionTemplate" duration="1.5">
          <BoundProperties />
        </ShaderEffect>
      </Transitions>
      <BoundProperties>
        <BoundPropertyInt Name="rotateStepNinety" Value="0" />
      </BoundProperties>
    </ImageClip>
    <ImageClip extentID="945" gapBefore="0" mediaItemID="525" duration="1">
      <Effects />
      <Transitions>
        <ShaderEffect effectTemplateID="HeartTransitionTemplate" duration="1.5">
          <BoundProperties />
        </ShaderEffect>
      </Transitions>
      <BoundProperties>
        <BoundPropertyInt Name="rotateStepNinety" Value="1" />
      </BoundProperties>
    </ImageClip>
    <ImageClip extentID="1977" gapBefore="0" mediaItemID="981" duration="1">
      <Effects />
      <Transitions>
        <ShaderEffect effectTemplateID="HeartTransitionTemplate" duration="1.5">
          <BoundProperties />
        </ShaderEffect>
      </Transitions>
      <BoundProperties>
        <BoundPropertyInt Name="rotateStepNinety" Value="0" />
      </BoundProperties>
    </ImageClip>
    <ImageClip extentID="946" gapBefore="0" mediaItemID="526" duration="1">
      <Effects />
      <Transitions>
        <ShaderEffect effectTemplateID="HeartTransitionTemplate" duration="1.5">
          <BoundProperties />
        </ShaderEffect>
      </Transitions>
      <BoundProperties>
        <BoundPropertyInt Name="rotateStepNinety" Value="1" />
      </BoundProperties>
    </ImageClip>
    <ImageClip extentID="1978" gapBefore="0" mediaItemID="982" duration="1">
      <Effects />
      <Transitions>
        <ShaderEffect effectTemplateID="HeartTransitionTemplate" duration="1.5">
          <BoundProperties />
        </ShaderEffect>
      </Transitions>
      <BoundProperties>
        <BoundPropertyInt Name="rotateStepNinety" Value="0" />
      </BoundProperties>
    </ImageClip>
    <ImageClip extentID="947" gapBefore="0" mediaItemID="527" duration="1">
      <Effects />
      <Transitions>
        <ShaderEffect effectTemplateID="HeartTransitionTemplate" duration="1.5">
          <BoundProperties />
        </ShaderEffect>
      </Transitions>
      <BoundProperties>
        <BoundPropertyInt Name="rotateStepNinety" Value="0" />
      </BoundProperties>
    </ImageClip>
    <ImageClip extentID="1979" gapBefore="0" mediaItemID="983" duration="1">
      <Effects />
      <Transitions>
        <ShaderEffect effectTemplateID="HeartTransitionTemplate" duration="1.5">
          <BoundProperties />
        </ShaderEffect>
      </Transitions>
      <BoundProperties>
        <BoundPropertyInt Name="rotateStepNinety" Value="0" />
      </BoundProperties>
    </ImageClip>
    <ImageClip extentID="948" gapBefore="0" mediaItemID="528" duration="1">
      <Effects />
      <Transitions>
        <ShaderEffect effectTemplateID="HeartTransitionTemplate" duration="1.5">
          <BoundProperties />
        </ShaderEffect>
      </Transitions>
      <BoundProperties>
        <BoundPropertyInt Name="rotateStepNinety" Value="0" />
      </BoundProperties>
    </ImageClip>
    <ImageClip extentID="1980" gapBefore="0" mediaItemID="984" duration="1">
      <Effects />
      <Transitions>
        <ShaderEffect effectTemplateID="HeartTransitionTemplate" duration="1.5">
          <BoundProperties />
        </ShaderEffect>
      </Transitions>
      <BoundProperties>
        <BoundPropertyInt Name="rotateStepNinety" Value="0" />
      </BoundProperties>
    </ImageClip>
    <ImageClip extentID="949" gapBefore="0" mediaItemID="529" duration="1">
      <Effects />
      <Transitions>
        <ShaderEffect effectTemplateID="HeartTransitionTemplate" duration="1.5">
          <BoundProperties />
        </ShaderEffect>
      </Transitions>
      <BoundProperties>
        <BoundPropertyInt Name="rotateStepNinety" Value="2" />
      </BoundProperties>
    </ImageClip>
    <ImageClip extentID="1981" gapBefore="0" mediaItemID="985" duration="1">
      <Effects />
      <Transitions>
        <ShaderEffect effectTemplateID="HeartTransitionTemplate" duration="1.5">
          <BoundProperties />
        </ShaderEffect>
      </Transitions>
      <BoundProperties>
        <BoundPropertyInt Name="rotateStepNinety" Value="0" />
      </BoundProperties>
    </ImageClip>
    <ImageClip extentID="950" gapBefore="0" mediaItemID="530" duration="1">
      <Effects />
      <Transitions>
        <ShaderEffect effectTemplateID="HeartTransitionTemplate" duration="1.5">
          <BoundProperties />
        </ShaderEffect>
      </Transitions>
      <BoundProperties>
        <BoundPropertyInt Name="rotateStepNinety" Value="0" />
      </BoundProperties>
    </ImageClip>
    <ImageClip extentID="951" gapBefore="0" mediaItemID="531" duration="1">
      <Effects />
      <Transitions>
        <ShaderEffect effectTemplateID="HeartTransitionTemplate" duration="1.5">
          <BoundProperties />
        </ShaderEffect>
      </Transitions>
      <BoundProperties>
        <BoundPropertyInt Name="rotateStepNinety" Value="2" />
      </BoundProperties>
    </ImageClip>
    <ImageClip extentID="1983" gapBefore="0" mediaItemID="987" duration="1">
      <Effects />
      <Transitions>
        <ShaderEffect effectTemplateID="HeartTransitionTemplate" duration="1.5">
          <BoundProperties />
        </ShaderEffect>
      </Transitions>
      <BoundProperties>
        <BoundPropertyInt Name="rotateStepNinety" Value="0" />
      </BoundProperties>
    </ImageClip>
    <ImageClip extentID="952" gapBefore="0" mediaItemID="532" duration="1">
      <Effects />
      <Transitions>
        <ShaderEffect effectTemplateID="HeartTransitionTemplate" duration="1.5">
          <BoundProperties />
        </ShaderEffect>
      </Transitions>
      <BoundProperties>
        <BoundPropertyInt Name="rotateStepNinety" Value="0" />
      </BoundProperties>
    </ImageClip>
    <ImageClip extentID="1984" gapBefore="0" mediaItemID="988" duration="1">
      <Effects />
      <Transitions>
        <ShaderEffect effectTemplateID="HeartTransitionTemplate" duration="1.5">
          <BoundProperties />
        </ShaderEffect>
      </Transitions>
      <BoundProperties>
        <BoundPropertyInt Name="rotateStepNinety" Value="0" />
      </BoundProperties>
    </ImageClip>
    <ImageClip extentID="953" gapBefore="0" mediaItemID="533" duration="1">
      <Effects />
      <Transitions>
        <ShaderEffect effectTemplateID="HeartTransitionTemplate" duration="1.5">
          <BoundProperties />
        </ShaderEffect>
      </Transitions>
      <BoundProperties>
        <BoundPropertyInt Name="rotateStepNinety" Value="2" />
      </BoundProperties>
    </ImageClip>
    <ImageClip extentID="1985" gapBefore="0" mediaItemID="989" duration="1">
      <Effects />
      <Transitions>
        <ShaderEffect effectTemplateID="HeartTransitionTemplate" duration="1.5">
          <BoundProperties />
        </ShaderEffect>
      </Transitions>
      <BoundProperties>
        <BoundPropertyInt Name="rotateStepNinety" Value="0" />
      </BoundProperties>
    </ImageClip>
    <ImageClip extentID="954" gapBefore="0" mediaItemID="534" duration="1">
      <Effects />
      <Transitions>
        <ShaderEffect effectTemplateID="HeartTransitionTemplate" duration="1.5">
          <BoundProperties />
        </ShaderEffect>
      </Transitions>
      <BoundProperties>
        <BoundPropertyInt Name="rotateStepNinety" Value="0" />
      </BoundProperties>
    </ImageClip>
    <ImageClip extentID="1986" gapBefore="0" mediaItemID="990" duration="1">
      <Effects />
      <Transitions>
        <ShaderEffect effectTemplateID="HeartTransitionTemplate" duration="1.5">
          <BoundProperties />
        </ShaderEffect>
      </Transitions>
      <BoundProperties>
        <BoundPropertyInt Name="rotateStepNinety" Value="0" />
      </BoundProperties>
    </ImageClip>
    <ImageClip extentID="955" gapBefore="0" mediaItemID="535" duration="1">
      <Effects />
      <Transitions>
        <ShaderEffect effectTemplateID="HeartTransitionTemplate" duration="1.5">
          <BoundProperties />
        </ShaderEffect>
      </Transitions>
      <BoundProperties>
        <BoundPropertyInt Name="rotateStepNinety" Value="0" />
      </BoundProperties>
    </ImageClip>
    <ImageClip extentID="1987" gapBefore="0" mediaItemID="991" duration="1">
      <Effects />
      <Transitions>
        <ShaderEffect effectTemplateID="HeartTransitionTemplate" duration="1.5">
          <BoundProperties />
        </ShaderEffect>
      </Transitions>
      <BoundProperties>
        <BoundPropertyInt Name="rotateStepNinety" Value="0" />
      </BoundProperties>
    </ImageClip>
    <ImageClip extentID="956" gapBefore="0" mediaItemID="536" duration="1">
      <Effects />
      <Transitions>
        <ShaderEffect effectTemplateID="HeartTransitionTemplate" duration="1.5">
          <BoundProperties />
        </ShaderEffect>
      </Transitions>
      <BoundProperties>
        <BoundPropertyInt Name="rotateStepNinety" Value="0" />
      </BoundProperties>
    </ImageClip>
    <ImageClip extentID="1988" gapBefore="0" mediaItemID="992" duration="1">
      <Effects />
      <Transitions>
        <ShaderEffect effectTemplateID="HeartTransitionTemplate" duration="1.5">
          <BoundProperties />
        </ShaderEffect>
      </Transitions>
      <BoundProperties>
        <BoundPropertyInt Name="rotateStepNinety" Value="0" />
      </BoundProperties>
    </ImageClip>
    <ImageClip extentID="957" gapBefore="0" mediaItemID="537" duration="1">
      <Effects />
      <Transitions>
        <ShaderEffect effectTemplateID="HeartTransitionTemplate" duration="1.5">
          <BoundProperties />
        </ShaderEffect>
      </Transitions>
      <BoundProperties>
        <BoundPropertyInt Name="rotateStepNinety" Value="0" />
      </BoundProperties>
    </ImageClip>
    <ImageClip extentID="1989" gapBefore="0" mediaItemID="993" duration="1">
      <Effects />
      <Transitions>
        <ShaderEffect effectTemplateID="HeartTransitionTemplate" duration="1.5">
          <BoundProperties />
        </ShaderEffect>
      </Transitions>
      <BoundProperties>
        <BoundPropertyInt Name="rotateStepNinety" Value="0" />
      </BoundProperties>
    </ImageClip>
    <ImageClip extentID="958" gapBefore="0" mediaItemID="538" duration="1">
      <Effects />
      <Transitions>
        <ShaderEffect effectTemplateID="HeartTransitionTemplate" duration="1.5">
          <BoundProperties />
        </ShaderEffect>
      </Transitions>
      <BoundProperties>
        <BoundPropertyInt Name="rotateStepNinety" Value="2" />
      </BoundProperties>
    </ImageClip>
    <ImageClip extentID="1990" gapBefore="0" mediaItemID="994" duration="1">
      <Effects />
      <Transitions>
        <ShaderEffect effectTemplateID="HeartTransitionTemplate" duration="1.5">
          <BoundProperties />
        </ShaderEffect>
      </Transitions>
      <BoundProperties>
        <BoundPropertyInt Name="rotateStepNinety" Value="0" />
      </BoundProperties>
    </ImageClip>
    <ImageClip extentID="959" gapBefore="0" mediaItemID="539" duration="1">
      <Effects />
      <Transitions>
        <ShaderEffect effectTemplateID="HeartTransitionTemplate" duration="1.5">
          <BoundProperties />
        </ShaderEffect>
      </Transitions>
      <BoundProperties>
        <BoundPropertyInt Name="rotateStepNinety" Value="2" />
      </BoundProperties>
    </ImageClip>
    <ImageClip extentID="960" gapBefore="0" mediaItemID="540" duration="1">
      <Effects />
      <Transitions>
        <ShaderEffect effectTemplateID="HeartTransitionTemplate" duration="1.5">
          <BoundProperties />
        </ShaderEffect>
      </Transitions>
      <BoundProperties>
        <BoundPropertyInt Name="rotateStepNinety" Value="1" />
      </BoundProperties>
    </ImageClip>
    <ImageClip extentID="1992" gapBefore="0" mediaItemID="996" duration="1">
      <Effects />
      <Transitions>
        <ShaderEffect effectTemplateID="HeartTransitionTemplate" duration="1.5">
          <BoundProperties />
        </ShaderEffect>
      </Transitions>
      <BoundProperties>
        <BoundPropertyInt Name="rotateStepNinety" Value="0" />
      </BoundProperties>
    </ImageClip>
    <ImageClip extentID="961" gapBefore="0" mediaItemID="541" duration="1">
      <Effects />
      <Transitions>
        <ShaderEffect effectTemplateID="HeartTransitionTemplate" duration="1.5">
          <BoundProperties />
        </ShaderEffect>
      </Transitions>
      <BoundProperties>
        <BoundPropertyInt Name="rotateStepNinety" Value="0" />
      </BoundProperties>
    </ImageClip>
    <ImageClip extentID="1993" gapBefore="0" mediaItemID="997" duration="1">
      <Effects />
      <Transitions>
        <ShaderEffect effectTemplateID="HeartTransitionTemplate" duration="1.5">
          <BoundProperties />
        </ShaderEffect>
      </Transitions>
      <BoundProperties>
        <BoundPropertyInt Name="rotateStepNinety" Value="0" />
      </BoundProperties>
    </ImageClip>
    <ImageClip extentID="962" gapBefore="0" mediaItemID="542" duration="1">
      <Effects />
      <Transitions>
        <ShaderEffect effectTemplateID="HeartTransitionTemplate" duration="1.5">
          <BoundProperties />
        </ShaderEffect>
      </Transitions>
      <BoundProperties>
        <BoundPropertyInt Name="rotateStepNinety" Value="0" />
      </BoundProperties>
    </ImageClip>
    <ImageClip extentID="1994" gapBefore="0" mediaItemID="998" duration="1">
      <Effects />
      <Transitions>
        <ShaderEffect effectTemplateID="HeartTransitionTemplate" duration="1.5">
          <BoundProperties />
        </ShaderEffect>
      </Transitions>
      <BoundProperties>
        <BoundPropertyInt Name="rotateStepNinety" Value="0" />
      </BoundProperties>
    </ImageClip>
    <ImageClip extentID="963" gapBefore="0" mediaItemID="543" duration="1">
      <Effects />
      <Transitions>
        <ShaderEffect effectTemplateID="HeartTransitionTemplate" duration="1.5">
          <BoundProperties />
        </ShaderEffect>
      </Transitions>
      <BoundProperties>
        <BoundPropertyInt Name="rotateStepNinety" Value="0" />
      </BoundProperties>
    </ImageClip>
    <ImageClip extentID="1995" gapBefore="0" mediaItemID="999" duration="1">
      <Effects />
      <Transitions>
        <ShaderEffect effectTemplateID="HeartTransitionTemplate" duration="1.5">
          <BoundProperties />
        </ShaderEffect>
      </Transitions>
      <BoundProperties>
        <BoundPropertyInt Name="rotateStepNinety" Value="0" />
      </BoundProperties>
    </ImageClip>
    <ImageClip extentID="964" gapBefore="0" mediaItemID="544" duration="1">
      <Effects />
      <Transitions>
        <ShaderEffect effectTemplateID="HeartTransitionTemplate" duration="1.5">
          <BoundProperties />
        </ShaderEffect>
      </Transitions>
      <BoundProperties>
        <BoundPropertyInt Name="rotateStepNinety" Value="0" />
      </BoundProperties>
    </ImageClip>
    <ImageClip extentID="965" gapBefore="0" mediaItemID="545" duration="1">
      <Effects />
      <Transitions>
        <ShaderEffect effectTemplateID="HeartTransitionTemplate" duration="1.5">
          <BoundProperties />
        </ShaderEffect>
      </Transitions>
      <BoundProperties>
        <BoundPropertyInt Name="rotateStepNinety" Value="0" />
      </BoundProperties>
    </ImageClip>
    <ImageClip extentID="1997" gapBefore="0" mediaItemID="1001" duration="1">
      <Effects />
      <Transitions>
        <ShaderEffect effectTemplateID="HeartTransitionTemplate" duration="1.5">
          <BoundProperties />
        </ShaderEffect>
      </Transitions>
      <BoundProperties>
        <BoundPropertyInt Name="rotateStepNinety" Value="0" />
      </BoundProperties>
    </ImageClip>
    <ImageClip extentID="966" gapBefore="0" mediaItemID="546" duration="1">
      <Effects />
      <Transitions>
        <ShaderEffect effectTemplateID="HeartTransitionTemplate" duration="1.5">
          <BoundProperties />
        </ShaderEffect>
      </Transitions>
      <BoundProperties>
        <BoundPropertyInt Name="rotateStepNinety" Value="0" />
      </BoundProperties>
    </ImageClip>
    <ImageClip extentID="1998" gapBefore="0" mediaItemID="1002" duration="1">
      <Effects />
      <Transitions>
        <ShaderEffect effectTemplateID="HeartTransitionTemplate" duration="1.5">
          <BoundProperties />
        </ShaderEffect>
      </Transitions>
      <BoundProperties>
        <BoundPropertyInt Name="rotateStepNinety" Value="0" />
      </BoundProperties>
    </ImageClip>
    <ImageClip extentID="967" gapBefore="0" mediaItemID="547" duration="1">
      <Effects />
      <Transitions>
        <ShaderEffect effectTemplateID="HeartTransitionTemplate" duration="1.5">
          <BoundProperties />
        </ShaderEffect>
      </Transitions>
      <BoundProperties>
        <BoundPropertyInt Name="rotateStepNinety" Value="0" />
      </BoundProperties>
    </ImageClip>
    <ImageClip extentID="1999" gapBefore="0" mediaItemID="1003" duration="1">
      <Effects />
      <Transitions>
        <ShaderEffect effectTemplateID="HeartTransitionTemplate" duration="1.5">
          <BoundProperties />
        </ShaderEffect>
      </Transitions>
      <BoundProperties>
        <BoundPropertyInt Name="rotateStepNinety" Value="0" />
      </BoundProperties>
    </ImageClip>
    <ImageClip extentID="968" gapBefore="0" mediaItemID="548" duration="1">
      <Effects />
      <Transitions>
        <ShaderEffect effectTemplateID="HeartTransitionTemplate" duration="1.5">
          <BoundProperties />
        </ShaderEffect>
      </Transitions>
      <BoundProperties>
        <BoundPropertyInt Name="rotateStepNinety" Value="0" />
      </BoundProperties>
    </ImageClip>
    <ImageClip extentID="2000" gapBefore="0" mediaItemID="1004" duration="1">
      <Effects />
      <Transitions>
        <ShaderEffect effectTemplateID="HeartTransitionTemplate" duration="1.5">
          <BoundProperties />
        </ShaderEffect>
      </Transitions>
      <BoundProperties>
        <BoundPropertyInt Name="rotateStepNinety" Value="0" />
      </BoundProperties>
    </ImageClip>
    <ImageClip extentID="969" gapBefore="0" mediaItemID="549" duration="1">
      <Effects />
      <Transitions>
        <ShaderEffect effectTemplateID="HeartTransitionTemplate" duration="1.5">
          <BoundProperties />
        </ShaderEffect>
      </Transitions>
      <BoundProperties>
        <BoundPropertyInt Name="rotateStepNinety" Value="0" />
      </BoundProperties>
    </ImageClip>
    <ImageClip extentID="2001" gapBefore="0" mediaItemID="1005" duration="1">
      <Effects />
      <Transitions>
        <ShaderEffect effectTemplateID="HeartTransitionTemplate" duration="1.5">
          <BoundProperties />
        </ShaderEffect>
      </Transitions>
      <BoundProperties>
        <BoundPropertyInt Name="rotateStepNinety" Value="0" />
      </BoundProperties>
    </ImageClip>
    <ImageClip extentID="970" gapBefore="0" mediaItemID="550" duration="1">
      <Effects />
      <Transitions>
        <ShaderEffect effectTemplateID="HeartTransitionTemplate" duration="1.5">
          <BoundProperties />
        </ShaderEffect>
      </Transitions>
      <BoundProperties>
        <BoundPropertyInt Name="rotateStepNinety" Value="0" />
      </BoundProperties>
    </ImageClip>
    <ImageClip extentID="2002" gapBefore="0" mediaItemID="1006" duration="1">
      <Effects />
      <Transitions>
        <ShaderEffect effectTemplateID="HeartTransitionTemplate" duration="1.5">
          <BoundProperties />
        </ShaderEffect>
      </Transitions>
      <BoundProperties>
        <BoundPropertyInt Name="rotateStepNinety" Value="0" />
      </BoundProperties>
    </ImageClip>
    <ImageClip extentID="971" gapBefore="0" mediaItemID="551" duration="1">
      <Effects />
      <Transitions>
        <ShaderEffect effectTemplateID="HeartTransitionTemplate" duration="1.5">
          <BoundProperties />
        </ShaderEffect>
      </Transitions>
      <BoundProperties>
        <BoundPropertyInt Name="rotateStepNinety" Value="0" />
      </BoundProperties>
    </ImageClip>
    <ImageClip extentID="2003" gapBefore="0" mediaItemID="1007" duration="1">
      <Effects />
      <Transitions>
        <ShaderEffect effectTemplateID="HeartTransitionTemplate" duration="1.5">
          <BoundProperties />
        </ShaderEffect>
      </Transitions>
      <BoundProperties>
        <BoundPropertyInt Name="rotateStepNinety" Value="0" />
      </BoundProperties>
    </ImageClip>
    <ImageClip extentID="972" gapBefore="0" mediaItemID="552" duration="1">
      <Effects />
      <Transitions>
        <ShaderEffect effectTemplateID="HeartTransitionTemplate" duration="1.5">
          <BoundProperties />
        </ShaderEffect>
      </Transitions>
      <BoundProperties>
        <BoundPropertyInt Name="rotateStepNinety" Value="0" />
      </BoundProperties>
    </ImageClip>
    <ImageClip extentID="2004" gapBefore="0" mediaItemID="1008" duration="1">
      <Effects />
      <Transitions>
        <ShaderEffect effectTemplateID="HeartTransitionTemplate" duration="1.5">
          <BoundProperties />
        </ShaderEffect>
      </Transitions>
      <BoundProperties>
        <BoundPropertyInt Name="rotateStepNinety" Value="0" />
      </BoundProperties>
    </ImageClip>
    <ImageClip extentID="973" gapBefore="0" mediaItemID="553" duration="1">
      <Effects />
      <Transitions>
        <ShaderEffect effectTemplateID="HeartTransitionTemplate" duration="1.5">
          <BoundProperties />
        </ShaderEffect>
      </Transitions>
      <BoundProperties>
        <BoundPropertyInt Name="rotateStepNinety" Value="0" />
      </BoundProperties>
    </ImageClip>
    <ImageClip extentID="2005" gapBefore="0" mediaItemID="1009" duration="1">
      <Effects />
      <Transitions>
        <ShaderEffect effectTemplateID="HeartTransitionTemplate" duration="1.5">
          <BoundProperties />
        </ShaderEffect>
      </Transitions>
      <BoundProperties>
        <BoundPropertyInt Name="rotateStepNinety" Value="0" />
      </BoundProperties>
    </ImageClip>
    <ImageClip extentID="974" gapBefore="0" mediaItemID="554" duration="1">
      <Effects />
      <Transitions>
        <ShaderEffect effectTemplateID="HeartTransitionTemplate" duration="1.5">
          <BoundProperties />
        </ShaderEffect>
      </Transitions>
      <BoundProperties>
        <BoundPropertyInt Name="rotateStepNinety" Value="0" />
      </BoundProperties>
    </ImageClip>
    <ImageClip extentID="2006" gapBefore="0" mediaItemID="1010" duration="1">
      <Effects />
      <Transitions>
        <ShaderEffect effectTemplateID="HeartTransitionTemplate" duration="1.5">
          <BoundProperties />
        </ShaderEffect>
      </Transitions>
      <BoundProperties>
        <BoundPropertyInt Name="rotateStepNinety" Value="0" />
      </BoundProperties>
    </ImageClip>
    <ImageClip extentID="975" gapBefore="0" mediaItemID="555" duration="1">
      <Effects />
      <Transitions>
        <ShaderEffect effectTemplateID="HeartTransitionTemplate" duration="1.5">
          <BoundProperties />
        </ShaderEffect>
      </Transitions>
      <BoundProperties>
        <BoundPropertyInt Name="rotateStepNinety" Value="0" />
      </BoundProperties>
    </ImageClip>
    <ImageClip extentID="2007" gapBefore="0" mediaItemID="1011" duration="1">
      <Effects />
      <Transitions>
        <ShaderEffect effectTemplateID="HeartTransitionTemplate" duration="1.5">
          <BoundProperties />
        </ShaderEffect>
      </Transitions>
      <BoundProperties>
        <BoundPropertyInt Name="rotateStepNinety" Value="0" />
      </BoundProperties>
    </ImageClip>
    <ImageClip extentID="976" gapBefore="0" mediaItemID="556" duration="1">
      <Effects />
      <Transitions>
        <ShaderEffect effectTemplateID="HeartTransitionTemplate" duration="1.5">
          <BoundProperties />
        </ShaderEffect>
      </Transitions>
      <BoundProperties>
        <BoundPropertyInt Name="rotateStepNinety" Value="0" />
      </BoundProperties>
    </ImageClip>
    <ImageClip extentID="977" gapBefore="0" mediaItemID="557" duration="1">
      <Effects />
      <Transitions>
        <ShaderEffect effectTemplateID="HeartTransitionTemplate" duration="1.5">
          <BoundProperties />
        </ShaderEffect>
      </Transitions>
      <BoundProperties>
        <BoundPropertyInt Name="rotateStepNinety" Value="0" />
      </BoundProperties>
    </ImageClip>
    <ImageClip extentID="2009" gapBefore="0" mediaItemID="1013" duration="1">
      <Effects />
      <Transitions>
        <ShaderEffect effectTemplateID="HeartTransitionTemplate" duration="1.5">
          <BoundProperties />
        </ShaderEffect>
      </Transitions>
      <BoundProperties>
        <BoundPropertyInt Name="rotateStepNinety" Value="0" />
      </BoundProperties>
    </ImageClip>
    <ImageClip extentID="978" gapBefore="0" mediaItemID="558" duration="1">
      <Effects />
      <Transitions>
        <ShaderEffect effectTemplateID="HeartTransitionTemplate" duration="1.5">
          <BoundProperties />
        </ShaderEffect>
      </Transitions>
      <BoundProperties>
        <BoundPropertyInt Name="rotateStepNinety" Value="0" />
      </BoundProperties>
    </ImageClip>
    <ImageClip extentID="2010" gapBefore="0" mediaItemID="1014" duration="1">
      <Effects />
      <Transitions>
        <ShaderEffect effectTemplateID="HeartTransitionTemplate" duration="1.5">
          <BoundProperties />
        </ShaderEffect>
      </Transitions>
      <BoundProperties>
        <BoundPropertyInt Name="rotateStepNinety" Value="0" />
      </BoundProperties>
    </ImageClip>
    <ImageClip extentID="979" gapBefore="0" mediaItemID="559" duration="1">
      <Effects />
      <Transitions>
        <ShaderEffect effectTemplateID="HeartTransitionTemplate" duration="1.5">
          <BoundProperties />
        </ShaderEffect>
      </Transitions>
      <BoundProperties>
        <BoundPropertyInt Name="rotateStepNinety" Value="0" />
      </BoundProperties>
    </ImageClip>
    <ImageClip extentID="2011" gapBefore="0" mediaItemID="1015" duration="1">
      <Effects />
      <Transitions>
        <ShaderEffect effectTemplateID="HeartTransitionTemplate" duration="1.5">
          <BoundProperties />
        </ShaderEffect>
      </Transitions>
      <BoundProperties>
        <BoundPropertyInt Name="rotateStepNinety" Value="0" />
      </BoundProperties>
    </ImageClip>
    <ImageClip extentID="980" gapBefore="0" mediaItemID="560" duration="1">
      <Effects />
      <Transitions>
        <ShaderEffect effectTemplateID="HeartTransitionTemplate" duration="1.5">
          <BoundProperties />
        </ShaderEffect>
      </Transitions>
      <BoundProperties>
        <BoundPropertyInt Name="rotateStepNinety" Value="0" />
      </BoundProperties>
    </ImageClip>
    <ImageClip extentID="2012" gapBefore="0" mediaItemID="1016" duration="1">
      <Effects />
      <Transitions>
        <ShaderEffect effectTemplateID="HeartTransitionTemplate" duration="1.5">
          <BoundProperties />
        </ShaderEffect>
      </Transitions>
      <BoundProperties>
        <BoundPropertyInt Name="rotateStepNinety" Value="0" />
      </BoundProperties>
    </ImageClip>
    <ImageClip extentID="981" gapBefore="0" mediaItemID="561" duration="1">
      <Effects />
      <Transitions>
        <ShaderEffect effectTemplateID="HeartTransitionTemplate" duration="1.5">
          <BoundProperties />
        </ShaderEffect>
      </Transitions>
      <BoundProperties>
        <BoundPropertyInt Name="rotateStepNinety" Value="0" />
      </BoundProperties>
    </ImageClip>
    <ImageClip extentID="2013" gapBefore="0" mediaItemID="1017" duration="1">
      <Effects />
      <Transitions>
        <ShaderEffect effectTemplateID="HeartTransitionTemplate" duration="1.5">
          <BoundProperties />
        </ShaderEffect>
      </Transitions>
      <BoundProperties>
        <BoundPropertyInt Name="rotateStepNinety" Value="0" />
      </BoundProperties>
    </ImageClip>
    <ImageClip extentID="982" gapBefore="0" mediaItemID="562" duration="1">
      <Effects />
      <Transitions>
        <ShaderEffect effectTemplateID="HeartTransitionTemplate" duration="1.5">
          <BoundProperties />
        </ShaderEffect>
      </Transitions>
      <BoundProperties>
        <BoundPropertyInt Name="rotateStepNinety" Value="0" />
      </BoundProperties>
    </ImageClip>
    <ImageClip extentID="2014" gapBefore="0" mediaItemID="1018" duration="1">
      <Effects />
      <Transitions>
        <ShaderEffect effectTemplateID="HeartTransitionTemplate" duration="1.5">
          <BoundProperties />
        </ShaderEffect>
      </Transitions>
      <BoundProperties>
        <BoundPropertyInt Name="rotateStepNinety" Value="0" />
      </BoundProperties>
    </ImageClip>
    <ImageClip extentID="983" gapBefore="0" mediaItemID="563" duration="1">
      <Effects />
      <Transitions>
        <ShaderEffect effectTemplateID="HeartTransitionTemplate" duration="1.5">
          <BoundProperties />
        </ShaderEffect>
      </Transitions>
      <BoundProperties>
        <BoundPropertyInt Name="rotateStepNinety" Value="0" />
      </BoundProperties>
    </ImageClip>
    <ImageClip extentID="984" gapBefore="0" mediaItemID="564" duration="1">
      <Effects />
      <Transitions>
        <ShaderEffect effectTemplateID="HeartTransitionTemplate" duration="1.5">
          <BoundProperties />
        </ShaderEffect>
      </Transitions>
      <BoundProperties>
        <BoundPropertyInt Name="rotateStepNinety" Value="0" />
      </BoundProperties>
    </ImageClip>
    <ImageClip extentID="2016" gapBefore="0" mediaItemID="1020" duration="1">
      <Effects />
      <Transitions>
        <ShaderEffect effectTemplateID="HeartTransitionTemplate" duration="1.5">
          <BoundProperties />
        </ShaderEffect>
      </Transitions>
      <BoundProperties>
        <BoundPropertyInt Name="rotateStepNinety" Value="0" />
      </BoundProperties>
    </ImageClip>
    <ImageClip extentID="985" gapBefore="0" mediaItemID="565" duration="1">
      <Effects />
      <Transitions>
        <ShaderEffect effectTemplateID="HeartTransitionTemplate" duration="1.5">
          <BoundProperties />
        </ShaderEffect>
      </Transitions>
      <BoundProperties>
        <BoundPropertyInt Name="rotateStepNinety" Value="0" />
      </BoundProperties>
    </ImageClip>
    <ImageClip extentID="986" gapBefore="0" mediaItemID="566" duration="1">
      <Effects />
      <Transitions>
        <ShaderEffect effectTemplateID="HeartTransitionTemplate" duration="1.5">
          <BoundProperties />
        </ShaderEffect>
      </Transitions>
      <BoundProperties>
        <BoundPropertyInt Name="rotateStepNinety" Value="0" />
      </BoundProperties>
    </ImageClip>
    <ImageClip extentID="2018" gapBefore="0" mediaItemID="1022" duration="1">
      <Effects />
      <Transitions>
        <ShaderEffect effectTemplateID="HeartTransitionTemplate" duration="1.5">
          <BoundProperties />
        </ShaderEffect>
      </Transitions>
      <BoundProperties>
        <BoundPropertyInt Name="rotateStepNinety" Value="0" />
      </BoundProperties>
    </ImageClip>
    <ImageClip extentID="987" gapBefore="0" mediaItemID="567" duration="1">
      <Effects />
      <Transitions>
        <ShaderEffect effectTemplateID="HeartTransitionTemplate" duration="1.5">
          <BoundProperties />
        </ShaderEffect>
      </Transitions>
      <BoundProperties>
        <BoundPropertyInt Name="rotateStepNinety" Value="0" />
      </BoundProperties>
    </ImageClip>
    <ImageClip extentID="2019" gapBefore="0" mediaItemID="1023" duration="1">
      <Effects />
      <Transitions>
        <ShaderEffect effectTemplateID="HeartTransitionTemplate" duration="1.5">
          <BoundProperties />
        </ShaderEffect>
      </Transitions>
      <BoundProperties>
        <BoundPropertyInt Name="rotateStepNinety" Value="0" />
      </BoundProperties>
    </ImageClip>
    <ImageClip extentID="988" gapBefore="0" mediaItemID="568" duration="1">
      <Effects />
      <Transitions>
        <ShaderEffect effectTemplateID="HeartTransitionTemplate" duration="1.5">
          <BoundProperties />
        </ShaderEffect>
      </Transitions>
      <BoundProperties>
        <BoundPropertyInt Name="rotateStepNinety" Value="0" />
      </BoundProperties>
    </ImageClip>
    <ImageClip extentID="2020" gapBefore="0" mediaItemID="1024" duration="1">
      <Effects />
      <Transitions>
        <ShaderEffect effectTemplateID="HeartTransitionTemplate" duration="1.5">
          <BoundProperties />
        </ShaderEffect>
      </Transitions>
      <BoundProperties>
        <BoundPropertyInt Name="rotateStepNinety" Value="0" />
      </BoundProperties>
    </ImageClip>
    <ImageClip extentID="989" gapBefore="0" mediaItemID="569" duration="1">
      <Effects />
      <Transitions>
        <ShaderEffect effectTemplateID="HeartTransitionTemplate" duration="1.5">
          <BoundProperties />
        </ShaderEffect>
      </Transitions>
      <BoundProperties>
        <BoundPropertyInt Name="rotateStepNinety" Value="0" />
      </BoundProperties>
    </ImageClip>
    <ImageClip extentID="990" gapBefore="0" mediaItemID="570" duration="1">
      <Effects />
      <Transitions>
        <ShaderEffect effectTemplateID="HeartTransitionTemplate" duration="1.5">
          <BoundProperties />
        </ShaderEffect>
      </Transitions>
      <BoundProperties>
        <BoundPropertyInt Name="rotateStepNinety" Value="0" />
      </BoundProperties>
    </ImageClip>
    <ImageClip extentID="2022" gapBefore="0" mediaItemID="1026" duration="1">
      <Effects />
      <Transitions>
        <ShaderEffect effectTemplateID="HeartTransitionTemplate" duration="1.5">
          <BoundProperties />
        </ShaderEffect>
      </Transitions>
      <BoundProperties>
        <BoundPropertyInt Name="rotateStepNinety" Value="0" />
      </BoundProperties>
    </ImageClip>
    <ImageClip extentID="2023" gapBefore="0" mediaItemID="1027" duration="1">
      <Effects />
      <Transitions>
        <ShaderEffect effectTemplateID="HeartTransitionTemplate" duration="1.5">
          <BoundProperties />
        </ShaderEffect>
      </Transitions>
      <BoundProperties>
        <BoundPropertyInt Name="rotateStepNinety" Value="0" />
      </BoundProperties>
    </ImageClip>
    <ImageClip extentID="992" gapBefore="0" mediaItemID="572" duration="1">
      <Effects />
      <Transitions>
        <ShaderEffect effectTemplateID="HeartTransitionTemplate" duration="1.5">
          <BoundProperties />
        </ShaderEffect>
      </Transitions>
      <BoundProperties>
        <BoundPropertyInt Name="rotateStepNinety" Value="0" />
      </BoundProperties>
    </ImageClip>
    <ImageClip extentID="993" gapBefore="0" mediaItemID="573" duration="1">
      <Effects />
      <Transitions>
        <ShaderEffect effectTemplateID="HeartTransitionTemplate" duration="1.5">
          <BoundProperties />
        </ShaderEffect>
      </Transitions>
      <BoundProperties>
        <BoundPropertyInt Name="rotateStepNinety" Value="0" />
      </BoundProperties>
    </ImageClip>
    <ImageClip extentID="994" gapBefore="0" mediaItemID="574" duration="1">
      <Effects />
      <Transitions>
        <ShaderEffect effectTemplateID="HeartTransitionTemplate" duration="1.5">
          <BoundProperties />
        </ShaderEffect>
      </Transitions>
      <BoundProperties>
        <BoundPropertyInt Name="rotateStepNinety" Value="0" />
      </BoundProperties>
    </ImageClip>
    <ImageClip extentID="2026" gapBefore="0" mediaItemID="1030" duration="1">
      <Effects />
      <Transitions>
        <ShaderEffect effectTemplateID="HeartTransitionTemplate" duration="1.5">
          <BoundProperties />
        </ShaderEffect>
      </Transitions>
      <BoundProperties>
        <BoundPropertyInt Name="rotateStepNinety" Value="0" />
      </BoundProperties>
    </ImageClip>
    <ImageClip extentID="995" gapBefore="0" mediaItemID="575" duration="1">
      <Effects />
      <Transitions>
        <ShaderEffect effectTemplateID="HeartTransitionTemplate" duration="1.5">
          <BoundProperties />
        </ShaderEffect>
      </Transitions>
      <BoundProperties>
        <BoundPropertyInt Name="rotateStepNinety" Value="0" />
      </BoundProperties>
    </ImageClip>
    <ImageClip extentID="2027" gapBefore="0" mediaItemID="1031" duration="1">
      <Effects />
      <Transitions>
        <ShaderEffect effectTemplateID="HeartTransitionTemplate" duration="1.5">
          <BoundProperties />
        </ShaderEffect>
      </Transitions>
      <BoundProperties>
        <BoundPropertyInt Name="rotateStepNinety" Value="0" />
      </BoundProperties>
    </ImageClip>
    <ImageClip extentID="996" gapBefore="0" mediaItemID="576" duration="1">
      <Effects />
      <Transitions>
        <ShaderEffect effectTemplateID="HeartTransitionTemplate" duration="1.5">
          <BoundProperties />
        </ShaderEffect>
      </Transitions>
      <BoundProperties>
        <BoundPropertyInt Name="rotateStepNinety" Value="0" />
      </BoundProperties>
    </ImageClip>
    <ImageClip extentID="2028" gapBefore="0" mediaItemID="1032" duration="1">
      <Effects />
      <Transitions>
        <ShaderEffect effectTemplateID="HeartTransitionTemplate" duration="1.5">
          <BoundProperties />
        </ShaderEffect>
      </Transitions>
      <BoundProperties>
        <BoundPropertyInt Name="rotateStepNinety" Value="0" />
      </BoundProperties>
    </ImageClip>
    <ImageClip extentID="997" gapBefore="0" mediaItemID="577" duration="1">
      <Effects />
      <Transitions>
        <ShaderEffect effectTemplateID="HeartTransitionTemplate" duration="1.5">
          <BoundProperties />
        </ShaderEffect>
      </Transitions>
      <BoundProperties>
        <BoundPropertyInt Name="rotateStepNinety" Value="0" />
      </BoundProperties>
    </ImageClip>
    <ImageClip extentID="2029" gapBefore="0" mediaItemID="1033" duration="1">
      <Effects />
      <Transitions>
        <ShaderEffect effectTemplateID="HeartTransitionTemplate" duration="1.5">
          <BoundProperties />
        </ShaderEffect>
      </Transitions>
      <BoundProperties>
        <BoundPropertyInt Name="rotateStepNinety" Value="0" />
      </BoundProperties>
    </ImageClip>
    <ImageClip extentID="998" gapBefore="0" mediaItemID="578" duration="1">
      <Effects />
      <Transitions>
        <ShaderEffect effectTemplateID="HeartTransitionTemplate" duration="1.5">
          <BoundProperties />
        </ShaderEffect>
      </Transitions>
      <BoundProperties>
        <BoundPropertyInt Name="rotateStepNinety" Value="0" />
      </BoundProperties>
    </ImageClip>
    <ImageClip extentID="2030" gapBefore="0" mediaItemID="1034" duration="1">
      <Effects />
      <Transitions>
        <ShaderEffect effectTemplateID="HeartTransitionTemplate" duration="1.5">
          <BoundProperties />
        </ShaderEffect>
      </Transitions>
      <BoundProperties>
        <BoundPropertyInt Name="rotateStepNinety" Value="0" />
      </BoundProperties>
    </ImageClip>
    <ImageClip extentID="999" gapBefore="0" mediaItemID="579" duration="1">
      <Effects />
      <Transitions>
        <ShaderEffect effectTemplateID="HeartTransitionTemplate" duration="1.5">
          <BoundProperties />
        </ShaderEffect>
      </Transitions>
      <BoundProperties>
        <BoundPropertyInt Name="rotateStepNinety" Value="0" />
      </BoundProperties>
    </ImageClip>
    <ImageClip extentID="2031" gapBefore="0" mediaItemID="1035" duration="1">
      <Effects />
      <Transitions>
        <ShaderEffect effectTemplateID="HeartTransitionTemplate" duration="1.5">
          <BoundProperties />
        </ShaderEffect>
      </Transitions>
      <BoundProperties>
        <BoundPropertyInt Name="rotateStepNinety" Value="0" />
      </BoundProperties>
    </ImageClip>
    <ImageClip extentID="1000" gapBefore="0" mediaItemID="580" duration="1">
      <Effects />
      <Transitions>
        <ShaderEffect effectTemplateID="HeartTransitionTemplate" duration="1.5">
          <BoundProperties />
        </ShaderEffect>
      </Transitions>
      <BoundProperties>
        <BoundPropertyInt Name="rotateStepNinety" Value="0" />
      </BoundProperties>
    </ImageClip>
    <ImageClip extentID="2032" gapBefore="0" mediaItemID="1036" duration="1">
      <Effects />
      <Transitions>
        <ShaderEffect effectTemplateID="HeartTransitionTemplate" duration="1.5">
          <BoundProperties />
        </ShaderEffect>
      </Transitions>
      <BoundProperties>
        <BoundPropertyInt Name="rotateStepNinety" Value="0" />
      </BoundProperties>
    </ImageClip>
    <ImageClip extentID="1001" gapBefore="0" mediaItemID="581" duration="1">
      <Effects />
      <Transitions>
        <ShaderEffect effectTemplateID="HeartTransitionTemplate" duration="1.5">
          <BoundProperties />
        </ShaderEffect>
      </Transitions>
      <BoundProperties>
        <BoundPropertyInt Name="rotateStepNinety" Value="0" />
      </BoundProperties>
    </ImageClip>
    <ImageClip extentID="2033" gapBefore="0" mediaItemID="1037" duration="1">
      <Effects />
      <Transitions>
        <ShaderEffect effectTemplateID="HeartTransitionTemplate" duration="1.5">
          <BoundProperties />
        </ShaderEffect>
      </Transitions>
      <BoundProperties>
        <BoundPropertyInt Name="rotateStepNinety" Value="0" />
      </BoundProperties>
    </ImageClip>
    <ImageClip extentID="1002" gapBefore="0" mediaItemID="582" duration="1">
      <Effects />
      <Transitions>
        <ShaderEffect effectTemplateID="HeartTransitionTemplate" duration="1.5">
          <BoundProperties />
        </ShaderEffect>
      </Transitions>
      <BoundProperties>
        <BoundPropertyInt Name="rotateStepNinety" Value="0" />
      </BoundProperties>
    </ImageClip>
    <ImageClip extentID="1003" gapBefore="0" mediaItemID="583" duration="1">
      <Effects />
      <Transitions>
        <ShaderEffect effectTemplateID="HeartTransitionTemplate" duration="1.5">
          <BoundProperties />
        </ShaderEffect>
      </Transitions>
      <BoundProperties>
        <BoundPropertyInt Name="rotateStepNinety" Value="0" />
      </BoundProperties>
    </ImageClip>
    <ImageClip extentID="1004" gapBefore="0" mediaItemID="584" duration="1">
      <Effects />
      <Transitions>
        <ShaderEffect effectTemplateID="HeartTransitionTemplate" duration="1.5">
          <BoundProperties />
        </ShaderEffect>
      </Transitions>
      <BoundProperties>
        <BoundPropertyInt Name="rotateStepNinety" Value="0" />
      </BoundProperties>
    </ImageClip>
    <ImageClip extentID="2036" gapBefore="0" mediaItemID="1040" duration="1">
      <Effects />
      <Transitions>
        <ShaderEffect effectTemplateID="HeartTransitionTemplate" duration="1.5">
          <BoundProperties />
        </ShaderEffect>
      </Transitions>
      <BoundProperties>
        <BoundPropertyInt Name="rotateStepNinety" Value="0" />
      </BoundProperties>
    </ImageClip>
    <ImageClip extentID="2037" gapBefore="0" mediaItemID="1041" duration="1">
      <Effects />
      <Transitions>
        <ShaderEffect effectTemplateID="HeartTransitionTemplate" duration="1.5">
          <BoundProperties />
        </ShaderEffect>
      </Transitions>
      <BoundProperties>
        <BoundPropertyInt Name="rotateStepNinety" Value="0" />
      </BoundProperties>
    </ImageClip>
    <ImageClip extentID="2038" gapBefore="0" mediaItemID="1042" duration="1">
      <Effects />
      <Transitions>
        <ShaderEffect effectTemplateID="HeartTransitionTemplate" duration="1.5">
          <BoundProperties />
        </ShaderEffect>
      </Transitions>
      <BoundProperties>
        <BoundPropertyInt Name="rotateStepNinety" Value="0" />
      </BoundProperties>
    </ImageClip>
    <ImageClip extentID="1007" gapBefore="0" mediaItemID="587" duration="1">
      <Effects />
      <Transitions>
        <ShaderEffect effectTemplateID="HeartTransitionTemplate" duration="1.5">
          <BoundProperties />
        </ShaderEffect>
      </Transitions>
      <BoundProperties>
        <BoundPropertyInt Name="rotateStepNinety" Value="0" />
      </BoundProperties>
    </ImageClip>
    <ImageClip extentID="1008" gapBefore="0" mediaItemID="588" duration="1">
      <Effects />
      <Transitions>
        <ShaderEffect effectTemplateID="HeartTransitionTemplate" duration="1.5">
          <BoundProperties />
        </ShaderEffect>
      </Transitions>
      <BoundProperties>
        <BoundPropertyInt Name="rotateStepNinety" Value="0" />
      </BoundProperties>
    </ImageClip>
    <ImageClip extentID="2040" gapBefore="0" mediaItemID="1044" duration="1">
      <Effects />
      <Transitions>
        <ShaderEffect effectTemplateID="HeartTransitionTemplate" duration="1.5">
          <BoundProperties />
        </ShaderEffect>
      </Transitions>
      <BoundProperties>
        <BoundPropertyInt Name="rotateStepNinety" Value="0" />
      </BoundProperties>
    </ImageClip>
    <ImageClip extentID="1009" gapBefore="0" mediaItemID="589" duration="1">
      <Effects />
      <Transitions>
        <ShaderEffect effectTemplateID="HeartTransitionTemplate" duration="1.5">
          <BoundProperties />
        </ShaderEffect>
      </Transitions>
      <BoundProperties>
        <BoundPropertyInt Name="rotateStepNinety" Value="0" />
      </BoundProperties>
    </ImageClip>
    <ImageClip extentID="2041" gapBefore="0" mediaItemID="1045" duration="1">
      <Effects />
      <Transitions>
        <ShaderEffect effectTemplateID="HeartTransitionTemplate" duration="1.5">
          <BoundProperties />
        </ShaderEffect>
      </Transitions>
      <BoundProperties>
        <BoundPropertyInt Name="rotateStepNinety" Value="0" />
      </BoundProperties>
    </ImageClip>
    <ImageClip extentID="1010" gapBefore="0" mediaItemID="590" duration="1">
      <Effects />
      <Transitions>
        <ShaderEffect effectTemplateID="HeartTransitionTemplate" duration="1.5">
          <BoundProperties />
        </ShaderEffect>
      </Transitions>
      <BoundProperties>
        <BoundPropertyInt Name="rotateStepNinety" Value="0" />
      </BoundProperties>
    </ImageClip>
    <ImageClip extentID="2042" gapBefore="0" mediaItemID="1046" duration="1">
      <Effects />
      <Transitions>
        <ShaderEffect effectTemplateID="HeartTransitionTemplate" duration="1.5">
          <BoundProperties />
        </ShaderEffect>
      </Transitions>
      <BoundProperties>
        <BoundPropertyInt Name="rotateStepNinety" Value="0" />
      </BoundProperties>
    </ImageClip>
    <ImageClip extentID="1011" gapBefore="0" mediaItemID="591" duration="1">
      <Effects />
      <Transitions>
        <ShaderEffect effectTemplateID="HeartTransitionTemplate" duration="1.5">
          <BoundProperties />
        </ShaderEffect>
      </Transitions>
      <BoundProperties>
        <BoundPropertyInt Name="rotateStepNinety" Value="0" />
      </BoundProperties>
    </ImageClip>
    <ImageClip extentID="2043" gapBefore="0" mediaItemID="1047" duration="1">
      <Effects />
      <Transitions>
        <ShaderEffect effectTemplateID="HeartTransitionTemplate" duration="1.5">
          <BoundProperties />
        </ShaderEffect>
      </Transitions>
      <BoundProperties>
        <BoundPropertyInt Name="rotateStepNinety" Value="0" />
      </BoundProperties>
    </ImageClip>
    <ImageClip extentID="1012" gapBefore="0" mediaItemID="592" duration="1">
      <Effects />
      <Transitions>
        <ShaderEffect effectTemplateID="HeartTransitionTemplate" duration="1.5">
          <BoundProperties />
        </ShaderEffect>
      </Transitions>
      <BoundProperties>
        <BoundPropertyInt Name="rotateStepNinety" Value="0" />
      </BoundProperties>
    </ImageClip>
    <ImageClip extentID="1013" gapBefore="0" mediaItemID="593" duration="1">
      <Effects />
      <Transitions>
        <ShaderEffect effectTemplateID="HeartTransitionTemplate" duration="1.5">
          <BoundProperties />
        </ShaderEffect>
      </Transitions>
      <BoundProperties>
        <BoundPropertyInt Name="rotateStepNinety" Value="0" />
      </BoundProperties>
    </ImageClip>
    <ImageClip extentID="2045" gapBefore="0" mediaItemID="1049" duration="1">
      <Effects />
      <Transitions>
        <ShaderEffect effectTemplateID="HeartTransitionTemplate" duration="1.5">
          <BoundProperties />
        </ShaderEffect>
      </Transitions>
      <BoundProperties>
        <BoundPropertyInt Name="rotateStepNinety" Value="0" />
      </BoundProperties>
    </ImageClip>
    <ImageClip extentID="1014" gapBefore="0" mediaItemID="594" duration="1">
      <Effects />
      <Transitions>
        <ShaderEffect effectTemplateID="HeartTransitionTemplate" duration="1.5">
          <BoundProperties />
        </ShaderEffect>
      </Transitions>
      <BoundProperties>
        <BoundPropertyInt Name="rotateStepNinety" Value="0" />
      </BoundProperties>
    </ImageClip>
    <ImageClip extentID="2046" gapBefore="0" mediaItemID="1050" duration="1">
      <Effects />
      <Transitions>
        <ShaderEffect effectTemplateID="HeartTransitionTemplate" duration="1.5">
          <BoundProperties />
        </ShaderEffect>
      </Transitions>
      <BoundProperties>
        <BoundPropertyInt Name="rotateStepNinety" Value="0" />
      </BoundProperties>
    </ImageClip>
    <ImageClip extentID="1015" gapBefore="0" mediaItemID="595" duration="1">
      <Effects />
      <Transitions>
        <ShaderEffect effectTemplateID="HeartTransitionTemplate" duration="1.5">
          <BoundProperties />
        </ShaderEffect>
      </Transitions>
      <BoundProperties>
        <BoundPropertyInt Name="rotateStepNinety" Value="0" />
      </BoundProperties>
    </ImageClip>
    <ImageClip extentID="2047" gapBefore="0" mediaItemID="1051" duration="1">
      <Effects />
      <Transitions>
        <ShaderEffect effectTemplateID="HeartTransitionTemplate" duration="1.5">
          <BoundProperties />
        </ShaderEffect>
      </Transitions>
      <BoundProperties>
        <BoundPropertyInt Name="rotateStepNinety" Value="0" />
      </BoundProperties>
    </ImageClip>
    <ImageClip extentID="1016" gapBefore="0" mediaItemID="596" duration="1">
      <Effects />
      <Transitions>
        <ShaderEffect effectTemplateID="HeartTransitionTemplate" duration="1.5">
          <BoundProperties />
        </ShaderEffect>
      </Transitions>
      <BoundProperties>
        <BoundPropertyInt Name="rotateStepNinety" Value="0" />
      </BoundProperties>
    </ImageClip>
    <ImageClip extentID="1017" gapBefore="0" mediaItemID="597" duration="1">
      <Effects />
      <Transitions>
        <ShaderEffect effectTemplateID="HeartTransitionTemplate" duration="1.5">
          <BoundProperties />
        </ShaderEffect>
      </Transitions>
      <BoundProperties>
        <BoundPropertyInt Name="rotateStepNinety" Value="0" />
      </BoundProperties>
    </ImageClip>
    <ImageClip extentID="2049" gapBefore="0" mediaItemID="1053" duration="1">
      <Effects />
      <Transitions>
        <ShaderEffect effectTemplateID="HeartTransitionTemplate" duration="1.5">
          <BoundProperties />
        </ShaderEffect>
      </Transitions>
      <BoundProperties>
        <BoundPropertyInt Name="rotateStepNinety" Value="0" />
      </BoundProperties>
    </ImageClip>
    <ImageClip extentID="1018" gapBefore="0" mediaItemID="598" duration="1">
      <Effects />
      <Transitions>
        <ShaderEffect effectTemplateID="HeartTransitionTemplate" duration="1.5">
          <BoundProperties />
        </ShaderEffect>
      </Transitions>
      <BoundProperties>
        <BoundPropertyInt Name="rotateStepNinety" Value="0" />
      </BoundProperties>
    </ImageClip>
    <ImageClip extentID="2050" gapBefore="0" mediaItemID="1054" duration="1">
      <Effects />
      <Transitions>
        <ShaderEffect effectTemplateID="HeartTransitionTemplate" duration="1.5">
          <BoundProperties />
        </ShaderEffect>
      </Transitions>
      <BoundProperties>
        <BoundPropertyInt Name="rotateStepNinety" Value="0" />
      </BoundProperties>
    </ImageClip>
    <ImageClip extentID="1019" gapBefore="0" mediaItemID="599" duration="1">
      <Effects />
      <Transitions>
        <ShaderEffect effectTemplateID="HeartTransitionTemplate" duration="1.5">
          <BoundProperties />
        </ShaderEffect>
      </Transitions>
      <BoundProperties>
        <BoundPropertyInt Name="rotateStepNinety" Value="0" />
      </BoundProperties>
    </ImageClip>
    <ImageClip extentID="2051" gapBefore="0" mediaItemID="1055" duration="1">
      <Effects />
      <Transitions>
        <ShaderEffect effectTemplateID="HeartTransitionTemplate" duration="1.5">
          <BoundProperties />
        </ShaderEffect>
      </Transitions>
      <BoundProperties>
        <BoundPropertyInt Name="rotateStepNinety" Value="0" />
      </BoundProperties>
    </ImageClip>
    <ImageClip extentID="1020" gapBefore="0" mediaItemID="600" duration="1">
      <Effects />
      <Transitions>
        <ShaderEffect effectTemplateID="HeartTransitionTemplate" duration="1.5">
          <BoundProperties />
        </ShaderEffect>
      </Transitions>
      <BoundProperties>
        <BoundPropertyInt Name="rotateStepNinety" Value="0" />
      </BoundProperties>
    </ImageClip>
    <ImageClip extentID="2052" gapBefore="0" mediaItemID="1056" duration="1">
      <Effects />
      <Transitions>
        <ShaderEffect effectTemplateID="HeartTransitionTemplate" duration="1.5">
          <BoundProperties />
        </ShaderEffect>
      </Transitions>
      <BoundProperties>
        <BoundPropertyInt Name="rotateStepNinety" Value="0" />
      </BoundProperties>
    </ImageClip>
    <ImageClip extentID="1021" gapBefore="0" mediaItemID="601" duration="1">
      <Effects />
      <Transitions>
        <ShaderEffect effectTemplateID="HeartTransitionTemplate" duration="1.5">
          <BoundProperties />
        </ShaderEffect>
      </Transitions>
      <BoundProperties>
        <BoundPropertyInt Name="rotateStepNinety" Value="0" />
      </BoundProperties>
    </ImageClip>
    <ImageClip extentID="2053" gapBefore="0" mediaItemID="1057" duration="1">
      <Effects />
      <Transitions>
        <ShaderEffect effectTemplateID="HeartTransitionTemplate" duration="1.5">
          <BoundProperties />
        </ShaderEffect>
      </Transitions>
      <BoundProperties>
        <BoundPropertyInt Name="rotateStepNinety" Value="0" />
      </BoundProperties>
    </ImageClip>
    <ImageClip extentID="1022" gapBefore="0" mediaItemID="602" duration="1">
      <Effects />
      <Transitions>
        <ShaderEffect effectTemplateID="HeartTransitionTemplate" duration="1.5">
          <BoundProperties />
        </ShaderEffect>
      </Transitions>
      <BoundProperties>
        <BoundPropertyInt Name="rotateStepNinety" Value="0" />
      </BoundProperties>
    </ImageClip>
    <ImageClip extentID="2054" gapBefore="0" mediaItemID="1058" duration="1">
      <Effects />
      <Transitions>
        <ShaderEffect effectTemplateID="HeartTransitionTemplate" duration="1.5">
          <BoundProperties />
        </ShaderEffect>
      </Transitions>
      <BoundProperties>
        <BoundPropertyInt Name="rotateStepNinety" Value="0" />
      </BoundProperties>
    </ImageClip>
    <ImageClip extentID="1023" gapBefore="0" mediaItemID="603" duration="1">
      <Effects />
      <Transitions>
        <ShaderEffect effectTemplateID="HeartTransitionTemplate" duration="1.5">
          <BoundProperties />
        </ShaderEffect>
      </Transitions>
      <BoundProperties>
        <BoundPropertyInt Name="rotateStepNinety" Value="0" />
      </BoundProperties>
    </ImageClip>
    <ImageClip extentID="2055" gapBefore="0" mediaItemID="1059" duration="1">
      <Effects />
      <Transitions>
        <ShaderEffect effectTemplateID="HeartTransitionTemplate" duration="1.5">
          <BoundProperties />
        </ShaderEffect>
      </Transitions>
      <BoundProperties>
        <BoundPropertyInt Name="rotateStepNinety" Value="0" />
      </BoundProperties>
    </ImageClip>
    <ImageClip extentID="1024" gapBefore="0" mediaItemID="604" duration="1">
      <Effects />
      <Transitions>
        <ShaderEffect effectTemplateID="HeartTransitionTemplate" duration="1.5">
          <BoundProperties />
        </ShaderEffect>
      </Transitions>
      <BoundProperties>
        <BoundPropertyInt Name="rotateStepNinety" Value="0" />
      </BoundProperties>
    </ImageClip>
    <ImageClip extentID="1025" gapBefore="0" mediaItemID="605" duration="1">
      <Effects />
      <Transitions>
        <ShaderEffect effectTemplateID="HeartTransitionTemplate" duration="1.5">
          <BoundProperties />
        </ShaderEffect>
      </Transitions>
      <BoundProperties>
        <BoundPropertyInt Name="rotateStepNinety" Value="0" />
      </BoundProperties>
    </ImageClip>
    <ImageClip extentID="2057" gapBefore="0" mediaItemID="1061" duration="1">
      <Effects />
      <Transitions>
        <ShaderEffect effectTemplateID="HeartTransitionTemplate" duration="1.5">
          <BoundProperties />
        </ShaderEffect>
      </Transitions>
      <BoundProperties>
        <BoundPropertyInt Name="rotateStepNinety" Value="0" />
      </BoundProperties>
    </ImageClip>
    <ImageClip extentID="1026" gapBefore="0" mediaItemID="606" duration="1">
      <Effects />
      <Transitions>
        <ShaderEffect effectTemplateID="HeartTransitionTemplate" duration="1.5">
          <BoundProperties />
        </ShaderEffect>
      </Transitions>
      <BoundProperties>
        <BoundPropertyInt Name="rotateStepNinety" Value="0" />
      </BoundProperties>
    </ImageClip>
    <ImageClip extentID="2058" gapBefore="0" mediaItemID="1062" duration="1">
      <Effects />
      <Transitions>
        <ShaderEffect effectTemplateID="HeartTransitionTemplate" duration="1.5">
          <BoundProperties />
        </ShaderEffect>
      </Transitions>
      <BoundProperties>
        <BoundPropertyInt Name="rotateStepNinety" Value="0" />
      </BoundProperties>
    </ImageClip>
    <ImageClip extentID="1027" gapBefore="0" mediaItemID="607" duration="1">
      <Effects />
      <Transitions>
        <ShaderEffect effectTemplateID="HeartTransitionTemplate" duration="1.5">
          <BoundProperties />
        </ShaderEffect>
      </Transitions>
      <BoundProperties>
        <BoundPropertyInt Name="rotateStepNinety" Value="0" />
      </BoundProperties>
    </ImageClip>
    <ImageClip extentID="2059" gapBefore="0" mediaItemID="1063" duration="1">
      <Effects />
      <Transitions>
        <ShaderEffect effectTemplateID="HeartTransitionTemplate" duration="1.5">
          <BoundProperties />
        </ShaderEffect>
      </Transitions>
      <BoundProperties>
        <BoundPropertyInt Name="rotateStepNinety" Value="0" />
      </BoundProperties>
    </ImageClip>
    <ImageClip extentID="1028" gapBefore="0" mediaItemID="608" duration="1">
      <Effects />
      <Transitions>
        <ShaderEffect effectTemplateID="HeartTransitionTemplate" duration="1.5">
          <BoundProperties />
        </ShaderEffect>
      </Transitions>
      <BoundProperties>
        <BoundPropertyInt Name="rotateStepNinety" Value="0" />
      </BoundProperties>
    </ImageClip>
    <ImageClip extentID="2060" gapBefore="0" mediaItemID="1064" duration="1">
      <Effects />
      <Transitions>
        <ShaderEffect effectTemplateID="HeartTransitionTemplate" duration="1.5">
          <BoundProperties />
        </ShaderEffect>
      </Transitions>
      <BoundProperties>
        <BoundPropertyInt Name="rotateStepNinety" Value="0" />
      </BoundProperties>
    </ImageClip>
    <ImageClip extentID="1029" gapBefore="0" mediaItemID="609" duration="1">
      <Effects />
      <Transitions>
        <ShaderEffect effectTemplateID="HeartTransitionTemplate" duration="1.5">
          <BoundProperties />
        </ShaderEffect>
      </Transitions>
      <BoundProperties>
        <BoundPropertyInt Name="rotateStepNinety" Value="0" />
      </BoundProperties>
    </ImageClip>
    <ImageClip extentID="2061" gapBefore="0" mediaItemID="1065" duration="1">
      <Effects />
      <Transitions>
        <ShaderEffect effectTemplateID="HeartTransitionTemplate" duration="1.5">
          <BoundProperties />
        </ShaderEffect>
      </Transitions>
      <BoundProperties>
        <BoundPropertyInt Name="rotateStepNinety" Value="0" />
      </BoundProperties>
    </ImageClip>
    <ImageClip extentID="1030" gapBefore="0" mediaItemID="610" duration="1">
      <Effects />
      <Transitions>
        <ShaderEffect effectTemplateID="HeartTransitionTemplate" duration="1.5">
          <BoundProperties />
        </ShaderEffect>
      </Transitions>
      <BoundProperties>
        <BoundPropertyInt Name="rotateStepNinety" Value="0" />
      </BoundProperties>
    </ImageClip>
    <ExtentSelector extentID="1" gapBefore="0" primaryTrack="true">
      <Effects />
      <Transitions />
      <BoundProperties />
      <ExtentRefs>
        <ExtentRef id="1241" />
        <ExtentRef id="1242" />
        <ExtentRef id="444" />
        <ExtentRef id="445" />
        <ExtentRef id="446" />
        <ExtentRef id="447" />
        <ExtentRef id="450" />
        <ExtentRef id="451" />
        <ExtentRef id="452" />
        <ExtentRef id="453" />
        <ExtentRef id="455" />
        <ExtentRef id="463" />
        <ExtentRef id="464" />
        <ExtentRef id="465" />
        <ExtentRef id="466" />
        <ExtentRef id="467" />
        <ExtentRef id="468" />
        <ExtentRef id="469" />
        <ExtentRef id="470" />
        <ExtentRef id="471" />
        <ExtentRef id="472" />
        <ExtentRef id="473" />
        <ExtentRef id="474" />
        <ExtentRef id="475" />
        <ExtentRef id="476" />
        <ExtentRef id="477" />
        <ExtentRef id="478" />
        <ExtentRef id="479" />
        <ExtentRef id="481" />
        <ExtentRef id="482" />
        <ExtentRef id="483" />
        <ExtentRef id="484" />
        <ExtentRef id="485" />
        <ExtentRef id="488" />
        <ExtentRef id="489" />
        <ExtentRef id="490" />
        <ExtentRef id="505" />
        <ExtentRef id="507" />
        <ExtentRef id="509" />
        <ExtentRef id="510" />
        <ExtentRef id="511" />
        <ExtentRef id="512" />
        <ExtentRef id="513" />
        <ExtentRef id="514" />
        <ExtentRef id="515" />
        <ExtentRef id="516" />
        <ExtentRef id="517" />
        <ExtentRef id="518" />
        <ExtentRef id="519" />
        <ExtentRef id="520" />
        <ExtentRef id="521" />
        <ExtentRef id="522" />
        <ExtentRef id="523" />
        <ExtentRef id="524" />
        <ExtentRef id="525" />
        <ExtentRef id="526" />
        <ExtentRef id="527" />
        <ExtentRef id="528" />
        <ExtentRef id="529" />
        <ExtentRef id="531" />
        <ExtentRef id="532" />
        <ExtentRef id="533" />
        <ExtentRef id="534" />
        <ExtentRef id="535" />
        <ExtentRef id="536" />
        <ExtentRef id="537" />
        <ExtentRef id="538" />
        <ExtentRef id="539" />
        <ExtentRef id="540" />
        <ExtentRef id="541" />
        <ExtentRef id="542" />
        <ExtentRef id="543" />
        <ExtentRef id="544" />
        <ExtentRef id="545" />
        <ExtentRef id="546" />
        <ExtentRef id="547" />
        <ExtentRef id="548" />
        <ExtentRef id="549" />
        <ExtentRef id="550" />
        <ExtentRef id="551" />
        <ExtentRef id="552" />
        <ExtentRef id="553" />
        <ExtentRef id="554" />
        <ExtentRef id="555" />
        <ExtentRef id="556" />
        <ExtentRef id="557" />
        <ExtentRef id="558" />
        <ExtentRef id="559" />
        <ExtentRef id="560" />
        <ExtentRef id="561" />
        <ExtentRef id="562" />
        <ExtentRef id="563" />
        <ExtentRef id="564" />
        <ExtentRef id="565" />
        <ExtentRef id="567" />
        <ExtentRef id="856" />
        <ExtentRef id="570" />
        <ExtentRef id="571" />
        <ExtentRef id="572" />
        <ExtentRef id="573" />
        <ExtentRef id="574" />
        <ExtentRef id="575" />
        <ExtentRef id="576" />
        <ExtentRef id="577" />
        <ExtentRef id="578" />
        <ExtentRef id="579" />
        <ExtentRef id="580" />
        <ExtentRef id="581" />
        <ExtentRef id="582" />
        <ExtentRef id="584" />
        <ExtentRef id="585" />
        <ExtentRef id="586" />
        <ExtentRef id="587" />
        <ExtentRef id="588" />
        <ExtentRef id="589" />
        <ExtentRef id="591" />
        <ExtentRef id="592" />
        <ExtentRef id="593" />
        <ExtentRef id="594" />
        <ExtentRef id="595" />
        <ExtentRef id="596" />
        <ExtentRef id="597" />
        <ExtentRef id="598" />
        <ExtentRef id="599" />
        <ExtentRef id="600" />
        <ExtentRef id="601" />
        <ExtentRef id="602" />
        <ExtentRef id="603" />
        <ExtentRef id="604" />
        <ExtentRef id="605" />
        <ExtentRef id="606" />
        <ExtentRef id="607" />
        <ExtentRef id="608" />
        <ExtentRef id="609" />
        <ExtentRef id="610" />
        <ExtentRef id="611" />
        <ExtentRef id="612" />
        <ExtentRef id="613" />
        <ExtentRef id="614" />
        <ExtentRef id="615" />
        <ExtentRef id="616" />
        <ExtentRef id="617" />
        <ExtentRef id="618" />
        <ExtentRef id="619" />
        <ExtentRef id="620" />
        <ExtentRef id="621" />
        <ExtentRef id="622" />
        <ExtentRef id="624" />
        <ExtentRef id="626" />
        <ExtentRef id="627" />
        <ExtentRef id="628" />
        <ExtentRef id="631" />
        <ExtentRef id="632" />
        <ExtentRef id="633" />
        <ExtentRef id="637" />
        <ExtentRef id="639" />
        <ExtentRef id="640" />
        <ExtentRef id="641" />
        <ExtentRef id="643" />
        <ExtentRef id="644" />
        <ExtentRef id="645" />
        <ExtentRef id="646" />
        <ExtentRef id="647" />
        <ExtentRef id="649" />
        <ExtentRef id="650" />
        <ExtentRef id="651" />
        <ExtentRef id="652" />
        <ExtentRef id="653" />
        <ExtentRef id="655" />
        <ExtentRef id="656" />
        <ExtentRef id="657" />
        <ExtentRef id="658" />
        <ExtentRef id="659" />
        <ExtentRef id="660" />
        <ExtentRef id="661" />
        <ExtentRef id="662" />
        <ExtentRef id="663" />
        <ExtentRef id="664" />
        <ExtentRef id="665" />
        <ExtentRef id="666" />
        <ExtentRef id="667" />
        <ExtentRef id="668" />
        <ExtentRef id="669" />
        <ExtentRef id="670" />
        <ExtentRef id="671" />
        <ExtentRef id="672" />
        <ExtentRef id="673" />
        <ExtentRef id="674" />
        <ExtentRef id="675" />
        <ExtentRef id="676" />
        <ExtentRef id="677" />
        <ExtentRef id="678" />
        <ExtentRef id="679" />
        <ExtentRef id="680" />
        <ExtentRef id="681" />
        <ExtentRef id="682" />
        <ExtentRef id="683" />
        <ExtentRef id="684" />
        <ExtentRef id="685" />
        <ExtentRef id="686" />
        <ExtentRef id="687" />
        <ExtentRef id="689" />
        <ExtentRef id="690" />
        <ExtentRef id="691" />
        <ExtentRef id="692" />
        <ExtentRef id="693" />
        <ExtentRef id="694" />
        <ExtentRef id="695" />
        <ExtentRef id="696" />
        <ExtentRef id="697" />
        <ExtentRef id="699" />
        <ExtentRef id="700" />
        <ExtentRef id="701" />
        <ExtentRef id="702" />
        <ExtentRef id="703" />
        <ExtentRef id="704" />
        <ExtentRef id="705" />
        <ExtentRef id="706" />
        <ExtentRef id="707" />
        <ExtentRef id="708" />
        <ExtentRef id="709" />
        <ExtentRef id="710" />
        <ExtentRef id="711" />
        <ExtentRef id="712" />
        <ExtentRef id="713" />
        <ExtentRef id="714" />
        <ExtentRef id="715" />
        <ExtentRef id="716" />
        <ExtentRef id="717" />
        <ExtentRef id="718" />
        <ExtentRef id="719" />
        <ExtentRef id="720" />
        <ExtentRef id="721" />
        <ExtentRef id="722" />
        <ExtentRef id="723" />
        <ExtentRef id="724" />
        <ExtentRef id="1229" />
        <ExtentRef id="727" />
        <ExtentRef id="728" />
        <ExtentRef id="729" />
        <ExtentRef id="730" />
        <ExtentRef id="731" />
        <ExtentRef id="732" />
        <ExtentRef id="733" />
        <ExtentRef id="734" />
        <ExtentRef id="735" />
        <ExtentRef id="736" />
        <ExtentRef id="737" />
        <ExtentRef id="738" />
        <ExtentRef id="739" />
        <ExtentRef id="741" />
        <ExtentRef id="742" />
        <ExtentRef id="743" />
        <ExtentRef id="744" />
        <ExtentRef id="745" />
        <ExtentRef id="746" />
        <ExtentRef id="747" />
        <ExtentRef id="748" />
        <ExtentRef id="749" />
        <ExtentRef id="750" />
        <ExtentRef id="751" />
        <ExtentRef id="752" />
        <ExtentRef id="753" />
        <ExtentRef id="754" />
        <ExtentRef id="755" />
        <ExtentRef id="756" />
        <ExtentRef id="757" />
        <ExtentRef id="758" />
        <ExtentRef id="759" />
        <ExtentRef id="760" />
        <ExtentRef id="761" />
        <ExtentRef id="762" />
        <ExtentRef id="763" />
        <ExtentRef id="764" />
        <ExtentRef id="765" />
        <ExtentRef id="766" />
        <ExtentRef id="767" />
        <ExtentRef id="768" />
        <ExtentRef id="770" />
        <ExtentRef id="771" />
        <ExtentRef id="772" />
        <ExtentRef id="773" />
        <ExtentRef id="774" />
        <ExtentRef id="775" />
        <ExtentRef id="776" />
        <ExtentRef id="777" />
        <ExtentRef id="778" />
        <ExtentRef id="779" />
        <ExtentRef id="780" />
        <ExtentRef id="781" />
        <ExtentRef id="782" />
        <ExtentRef id="784" />
        <ExtentRef id="785" />
        <ExtentRef id="786" />
        <ExtentRef id="787" />
        <ExtentRef id="788" />
        <ExtentRef id="789" />
        <ExtentRef id="790" />
        <ExtentRef id="791" />
        <ExtentRef id="792" />
        <ExtentRef id="793" />
        <ExtentRef id="794" />
        <ExtentRef id="795" />
        <ExtentRef id="796" />
        <ExtentRef id="797" />
        <ExtentRef id="798" />
        <ExtentRef id="1230" />
        <ExtentRef id="800" />
        <ExtentRef id="801" />
        <ExtentRef id="802" />
        <ExtentRef id="803" />
        <ExtentRef id="804" />
        <ExtentRef id="805" />
        <ExtentRef id="806" />
        <ExtentRef id="807" />
        <ExtentRef id="808" />
        <ExtentRef id="809" />
        <ExtentRef id="810" />
        <ExtentRef id="811" />
        <ExtentRef id="812" />
        <ExtentRef id="813" />
        <ExtentRef id="814" />
        <ExtentRef id="815" />
        <ExtentRef id="816" />
        <ExtentRef id="817" />
        <ExtentRef id="818" />
        <ExtentRef id="819" />
        <ExtentRef id="820" />
        <ExtentRef id="821" />
        <ExtentRef id="822" />
        <ExtentRef id="823" />
        <ExtentRef id="824" />
        <ExtentRef id="825" />
        <ExtentRef id="826" />
        <ExtentRef id="827" />
        <ExtentRef id="828" />
        <ExtentRef id="829" />
        <ExtentRef id="830" />
        <ExtentRef id="831" />
        <ExtentRef id="832" />
        <ExtentRef id="833" />
        <ExtentRef id="834" />
        <ExtentRef id="835" />
        <ExtentRef id="836" />
        <ExtentRef id="837" />
        <ExtentRef id="838" />
        <ExtentRef id="839" />
        <ExtentRef id="840" />
        <ExtentRef id="841" />
        <ExtentRef id="842" />
        <ExtentRef id="843" />
        <ExtentRef id="844" />
        <ExtentRef id="845" />
        <ExtentRef id="846" />
        <ExtentRef id="847" />
        <ExtentRef id="848" />
        <ExtentRef id="849" />
        <ExtentRef id="850" />
        <ExtentRef id="851" />
        <ExtentRef id="852" />
        <ExtentRef id="853" />
        <ExtentRef id="854" />
        <ExtentRef id="855" />
        <ExtentRef id="698" />
        <ExtentRef id="857" />
        <ExtentRef id="858" />
        <ExtentRef id="859" />
        <ExtentRef id="860" />
        <ExtentRef id="861" />
        <ExtentRef id="862" />
        <ExtentRef id="863" />
        <ExtentRef id="864" />
        <ExtentRef id="865" />
        <ExtentRef id="866" />
        <ExtentRef id="867" />
        <ExtentRef id="868" />
        <ExtentRef id="869" />
        <ExtentRef id="870" />
        <ExtentRef id="871" />
        <ExtentRef id="872" />
        <ExtentRef id="873" />
        <ExtentRef id="874" />
        <ExtentRef id="875" />
        <ExtentRef id="878" />
        <ExtentRef id="879" />
        <ExtentRef id="880" />
        <ExtentRef id="884" />
        <ExtentRef id="885" />
        <ExtentRef id="886" />
        <ExtentRef id="887" />
        <ExtentRef id="888" />
        <ExtentRef id="889" />
        <ExtentRef id="890" />
        <ExtentRef id="891" />
        <ExtentRef id="892" />
        <ExtentRef id="893" />
        <ExtentRef id="894" />
        <ExtentRef id="895" />
        <ExtentRef id="1231" />
        <ExtentRef id="898" />
        <ExtentRef id="899" />
        <ExtentRef id="900" />
        <ExtentRef id="901" />
        <ExtentRef id="902" />
        <ExtentRef id="903" />
        <ExtentRef id="904" />
        <ExtentRef id="905" />
        <ExtentRef id="906" />
        <ExtentRef id="907" />
        <ExtentRef id="908" />
        <ExtentRef id="909" />
        <ExtentRef id="910" />
        <ExtentRef id="911" />
        <ExtentRef id="912" />
        <ExtentRef id="913" />
        <ExtentRef id="914" />
        <ExtentRef id="915" />
        <ExtentRef id="916" />
        <ExtentRef id="917" />
        <ExtentRef id="918" />
        <ExtentRef id="919" />
        <ExtentRef id="920" />
        <ExtentRef id="921" />
        <ExtentRef id="924" />
        <ExtentRef id="925" />
        <ExtentRef id="926" />
        <ExtentRef id="927" />
        <ExtentRef id="928" />
        <ExtentRef id="929" />
        <ExtentRef id="930" />
        <ExtentRef id="931" />
        <ExtentRef id="932" />
        <ExtentRef id="933" />
        <ExtentRef id="934" />
        <ExtentRef id="935" />
        <ExtentRef id="936" />
        <ExtentRef id="937" />
        <ExtentRef id="938" />
        <ExtentRef id="940" />
        <ExtentRef id="942" />
        <ExtentRef id="943" />
        <ExtentRef id="944" />
        <ExtentRef id="945" />
        <ExtentRef id="946" />
        <ExtentRef id="947" />
        <ExtentRef id="948" />
        <ExtentRef id="949" />
        <ExtentRef id="950" />
        <ExtentRef id="951" />
        <ExtentRef id="952" />
        <ExtentRef id="953" />
        <ExtentRef id="954" />
        <ExtentRef id="955" />
        <ExtentRef id="956" />
        <ExtentRef id="957" />
        <ExtentRef id="958" />
        <ExtentRef id="959" />
        <ExtentRef id="960" />
        <ExtentRef id="961" />
        <ExtentRef id="962" />
        <ExtentRef id="963" />
        <ExtentRef id="964" />
        <ExtentRef id="965" />
        <ExtentRef id="966" />
        <ExtentRef id="967" />
        <ExtentRef id="968" />
        <ExtentRef id="969" />
        <ExtentRef id="970" />
        <ExtentRef id="971" />
        <ExtentRef id="972" />
        <ExtentRef id="973" />
        <ExtentRef id="974" />
        <ExtentRef id="975" />
        <ExtentRef id="976" />
        <ExtentRef id="977" />
        <ExtentRef id="978" />
        <ExtentRef id="979" />
        <ExtentRef id="980" />
        <ExtentRef id="981" />
        <ExtentRef id="982" />
        <ExtentRef id="983" />
        <ExtentRef id="984" />
        <ExtentRef id="985" />
        <ExtentRef id="986" />
        <ExtentRef id="987" />
        <ExtentRef id="988" />
        <ExtentRef id="989" />
        <ExtentRef id="990" />
        <ExtentRef id="992" />
        <ExtentRef id="993" />
        <ExtentRef id="994" />
        <ExtentRef id="995" />
        <ExtentRef id="996" />
        <ExtentRef id="997" />
        <ExtentRef id="998" />
        <ExtentRef id="999" />
        <ExtentRef id="1000" />
        <ExtentRef id="1001" />
        <ExtentRef id="1002" />
        <ExtentRef id="1003" />
        <ExtentRef id="1004" />
        <ExtentRef id="1007" />
        <ExtentRef id="1008" />
        <ExtentRef id="1009" />
        <ExtentRef id="1010" />
        <ExtentRef id="1011" />
        <ExtentRef id="1012" />
        <ExtentRef id="1013" />
        <ExtentRef id="1014" />
        <ExtentRef id="1015" />
        <ExtentRef id="1016" />
        <ExtentRef id="1017" />
        <ExtentRef id="1018" />
        <ExtentRef id="1019" />
        <ExtentRef id="1020" />
        <ExtentRef id="1021" />
        <ExtentRef id="1022" />
        <ExtentRef id="1023" />
        <ExtentRef id="1024" />
        <ExtentRef id="1025" />
        <ExtentRef id="1026" />
        <ExtentRef id="1027" />
        <ExtentRef id="1028" />
        <ExtentRef id="1029" />
        <ExtentRef id="1030" />
        <ExtentRef id="1031" />
        <ExtentRef id="1032" />
        <ExtentRef id="1033" />
        <ExtentRef id="1034" />
        <ExtentRef id="1035" />
        <ExtentRef id="1036" />
        <ExtentRef id="1037" />
        <ExtentRef id="1038" />
        <ExtentRef id="1039" />
        <ExtentRef id="1040" />
        <ExtentRef id="1041" />
        <ExtentRef id="1042" />
        <ExtentRef id="1043" />
        <ExtentRef id="1044" />
        <ExtentRef id="1045" />
        <ExtentRef id="1046" />
        <ExtentRef id="1047" />
        <ExtentRef id="1048" />
        <ExtentRef id="1049" />
        <ExtentRef id="1050" />
        <ExtentRef id="1051" />
        <ExtentRef id="1052" />
        <ExtentRef id="1053" />
        <ExtentRef id="1055" />
        <ExtentRef id="1056" />
        <ExtentRef id="1057" />
        <ExtentRef id="1060" />
        <ExtentRef id="1061" />
        <ExtentRef id="1062" />
        <ExtentRef id="1063" />
        <ExtentRef id="1064" />
        <ExtentRef id="1066" />
        <ExtentRef id="1067" />
        <ExtentRef id="1068" />
        <ExtentRef id="1069" />
        <ExtentRef id="1070" />
        <ExtentRef id="1071" />
        <ExtentRef id="1072" />
        <ExtentRef id="1073" />
        <ExtentRef id="1074" />
        <ExtentRef id="1075" />
        <ExtentRef id="1076" />
        <ExtentRef id="1077" />
        <ExtentRef id="1080" />
        <ExtentRef id="1232" />
        <ExtentRef id="1084" />
        <ExtentRef id="1085" />
        <ExtentRef id="1086" />
        <ExtentRef id="1088" />
        <ExtentRef id="1089" />
        <ExtentRef id="1091" />
        <ExtentRef id="1095" />
        <ExtentRef id="1096" />
        <ExtentRef id="1102" />
        <ExtentRef id="1103" />
        <ExtentRef id="1104" />
        <ExtentRef id="1105" />
        <ExtentRef id="1112" />
        <ExtentRef id="1114" />
        <ExtentRef id="1115" />
        <ExtentRef id="1116" />
        <ExtentRef id="1117" />
        <ExtentRef id="1118" />
        <ExtentRef id="1119" />
        <ExtentRef id="1120" />
        <ExtentRef id="1121" />
        <ExtentRef id="1122" />
        <ExtentRef id="1123" />
        <ExtentRef id="1124" />
        <ExtentRef id="1125" />
        <ExtentRef id="1126" />
        <ExtentRef id="1127" />
        <ExtentRef id="1128" />
        <ExtentRef id="1129" />
        <ExtentRef id="1130" />
        <ExtentRef id="1131" />
        <ExtentRef id="1132" />
        <ExtentRef id="1133" />
        <ExtentRef id="1134" />
        <ExtentRef id="1135" />
        <ExtentRef id="1136" />
        <ExtentRef id="1137" />
        <ExtentRef id="1138" />
        <ExtentRef id="1139" />
        <ExtentRef id="1140" />
        <ExtentRef id="1141" />
        <ExtentRef id="1142" />
        <ExtentRef id="1143" />
        <ExtentRef id="1144" />
        <ExtentRef id="1145" />
        <ExtentRef id="1146" />
        <ExtentRef id="1147" />
        <ExtentRef id="1148" />
        <ExtentRef id="1149" />
        <ExtentRef id="1150" />
        <ExtentRef id="1151" />
        <ExtentRef id="1152" />
        <ExtentRef id="1153" />
        <ExtentRef id="1154" />
        <ExtentRef id="1155" />
        <ExtentRef id="1156" />
        <ExtentRef id="1157" />
        <ExtentRef id="1158" />
        <ExtentRef id="1159" />
        <ExtentRef id="1160" />
        <ExtentRef id="1161" />
        <ExtentRef id="1162" />
        <ExtentRef id="1163" />
        <ExtentRef id="1164" />
        <ExtentRef id="1165" />
        <ExtentRef id="1166" />
        <ExtentRef id="1167" />
        <ExtentRef id="1168" />
        <ExtentRef id="1169" />
        <ExtentRef id="1170" />
        <ExtentRef id="1171" />
        <ExtentRef id="1172" />
        <ExtentRef id="1173" />
        <ExtentRef id="1174" />
        <ExtentRef id="1175" />
        <ExtentRef id="1176" />
        <ExtentRef id="1178" />
        <ExtentRef id="1179" />
        <ExtentRef id="1180" />
        <ExtentRef id="1181" />
        <ExtentRef id="1182" />
        <ExtentRef id="1184" />
        <ExtentRef id="1185" />
        <ExtentRef id="1186" />
        <ExtentRef id="1187" />
        <ExtentRef id="1189" />
        <ExtentRef id="1190" />
        <ExtentRef id="1191" />
        <ExtentRef id="1192" />
        <ExtentRef id="1193" />
        <ExtentRef id="1194" />
        <ExtentRef id="1195" />
        <ExtentRef id="1198" />
        <ExtentRef id="1199" />
        <ExtentRef id="1200" />
        <ExtentRef id="1201" />
        <ExtentRef id="1202" />
        <ExtentRef id="1203" />
        <ExtentRef id="1204" />
        <ExtentRef id="1205" />
        <ExtentRef id="1206" />
        <ExtentRef id="1207" />
        <ExtentRef id="1208" />
        <ExtentRef id="1209" />
        <ExtentRef id="1210" />
        <ExtentRef id="1211" />
        <ExtentRef id="1213" />
        <ExtentRef id="1215" />
        <ExtentRef id="1216" />
        <ExtentRef id="1217" />
        <ExtentRef id="1218" />
        <ExtentRef id="1219" />
        <ExtentRef id="1220" />
        <ExtentRef id="1221" />
        <ExtentRef id="1222" />
        <ExtentRef id="1227" />
        <ExtentRef id="1805" />
        <ExtentRef id="1806" />
        <ExtentRef id="1807" />
        <ExtentRef id="1808" />
        <ExtentRef id="1809" />
        <ExtentRef id="1811" />
        <ExtentRef id="1812" />
        <ExtentRef id="1813" />
        <ExtentRef id="1814" />
        <ExtentRef id="1815" />
        <ExtentRef id="1817" />
        <ExtentRef id="1818" />
        <ExtentRef id="1819" />
        <ExtentRef id="1820" />
        <ExtentRef id="1821" />
        <ExtentRef id="1822" />
        <ExtentRef id="1824" />
        <ExtentRef id="1826" />
        <ExtentRef id="1831" />
        <ExtentRef id="1833" />
        <ExtentRef id="1834" />
        <ExtentRef id="1835" />
        <ExtentRef id="1836" />
        <ExtentRef id="1837" />
        <ExtentRef id="1838" />
        <ExtentRef id="1841" />
        <ExtentRef id="1842" />
        <ExtentRef id="1847" />
        <ExtentRef id="1848" />
        <ExtentRef id="1851" />
        <ExtentRef id="1852" />
        <ExtentRef id="1853" />
        <ExtentRef id="1854" />
        <ExtentRef id="1855" />
        <ExtentRef id="1857" />
        <ExtentRef id="1858" />
        <ExtentRef id="1859" />
        <ExtentRef id="1860" />
        <ExtentRef id="1861" />
        <ExtentRef id="1862" />
        <ExtentRef id="1864" />
        <ExtentRef id="1865" />
        <ExtentRef id="1866" />
        <ExtentRef id="1867" />
        <ExtentRef id="1868" />
        <ExtentRef id="1869" />
        <ExtentRef id="1870" />
        <ExtentRef id="1871" />
        <ExtentRef id="1872" />
        <ExtentRef id="1873" />
        <ExtentRef id="1874" />
        <ExtentRef id="1876" />
        <ExtentRef id="1877" />
        <ExtentRef id="1878" />
        <ExtentRef id="1879" />
        <ExtentRef id="1880" />
        <ExtentRef id="1881" />
        <ExtentRef id="1882" />
        <ExtentRef id="1883" />
        <ExtentRef id="1884" />
        <ExtentRef id="1886" />
        <ExtentRef id="1887" />
        <ExtentRef id="1888" />
        <ExtentRef id="1889" />
        <ExtentRef id="1890" />
        <ExtentRef id="1891" />
        <ExtentRef id="1894" />
        <ExtentRef id="1896" />
        <ExtentRef id="1897" />
        <ExtentRef id="1898" />
        <ExtentRef id="1899" />
        <ExtentRef id="1900" />
        <ExtentRef id="1901" />
        <ExtentRef id="1902" />
        <ExtentRef id="1906" />
        <ExtentRef id="1907" />
        <ExtentRef id="1909" />
        <ExtentRef id="1910" />
        <ExtentRef id="1911" />
        <ExtentRef id="1912" />
        <ExtentRef id="1913" />
        <ExtentRef id="1914" />
        <ExtentRef id="1915" />
        <ExtentRef id="1917" />
        <ExtentRef id="1918" />
        <ExtentRef id="1919" />
        <ExtentRef id="1921" />
        <ExtentRef id="1923" />
        <ExtentRef id="1924" />
        <ExtentRef id="1925" />
        <ExtentRef id="1926" />
        <ExtentRef id="1927" />
        <ExtentRef id="1929" />
        <ExtentRef id="1930" />
        <ExtentRef id="1931" />
        <ExtentRef id="1932" />
        <ExtentRef id="1933" />
        <ExtentRef id="1934" />
        <ExtentRef id="1935" />
        <ExtentRef id="1936" />
        <ExtentRef id="1937" />
        <ExtentRef id="1938" />
        <ExtentRef id="1939" />
        <ExtentRef id="1940" />
        <ExtentRef id="1941" />
        <ExtentRef id="1943" />
        <ExtentRef id="1946" />
        <ExtentRef id="1947" />
        <ExtentRef id="1948" />
        <ExtentRef id="1949" />
        <ExtentRef id="1951" />
        <ExtentRef id="1953" />
        <ExtentRef id="1955" />
        <ExtentRef id="1956" />
        <ExtentRef id="1957" />
        <ExtentRef id="1958" />
        <ExtentRef id="1959" />
        <ExtentRef id="1961" />
        <ExtentRef id="1962" />
        <ExtentRef id="1963" />
        <ExtentRef id="1967" />
        <ExtentRef id="1968" />
        <ExtentRef id="1969" />
        <ExtentRef id="1970" />
        <ExtentRef id="1971" />
        <ExtentRef id="1974" />
        <ExtentRef id="1975" />
        <ExtentRef id="1976" />
        <ExtentRef id="1977" />
        <ExtentRef id="1978" />
        <ExtentRef id="1979" />
        <ExtentRef id="1980" />
        <ExtentRef id="1981" />
        <ExtentRef id="1983" />
        <ExtentRef id="1984" />
        <ExtentRef id="1985" />
        <ExtentRef id="1986" />
        <ExtentRef id="1987" />
        <ExtentRef id="1988" />
        <ExtentRef id="1989" />
        <ExtentRef id="1990" />
        <ExtentRef id="1992" />
        <ExtentRef id="1993" />
        <ExtentRef id="1994" />
        <ExtentRef id="1995" />
        <ExtentRef id="1997" />
        <ExtentRef id="1998" />
        <ExtentRef id="1999" />
        <ExtentRef id="2000" />
        <ExtentRef id="2001" />
        <ExtentRef id="2002" />
        <ExtentRef id="2003" />
        <ExtentRef id="2004" />
        <ExtentRef id="2005" />
        <ExtentRef id="2006" />
        <ExtentRef id="2007" />
        <ExtentRef id="2009" />
        <ExtentRef id="2010" />
        <ExtentRef id="2011" />
        <ExtentRef id="2012" />
        <ExtentRef id="2013" />
        <ExtentRef id="2014" />
        <ExtentRef id="2016" />
        <ExtentRef id="2018" />
        <ExtentRef id="2019" />
        <ExtentRef id="2020" />
        <ExtentRef id="2022" />
        <ExtentRef id="2023" />
        <ExtentRef id="2026" />
        <ExtentRef id="2027" />
        <ExtentRef id="2028" />
        <ExtentRef id="2029" />
        <ExtentRef id="2030" />
        <ExtentRef id="2031" />
        <ExtentRef id="2032" />
        <ExtentRef id="2033" />
        <ExtentRef id="2036" />
        <ExtentRef id="2037" />
        <ExtentRef id="2038" />
        <ExtentRef id="2040" />
        <ExtentRef id="2041" />
        <ExtentRef id="2042" />
        <ExtentRef id="2043" />
        <ExtentRef id="2135" />
        <ExtentRef id="2045" />
        <ExtentRef id="2046" />
        <ExtentRef id="2047" />
        <ExtentRef id="2136" />
        <ExtentRef id="2049" />
        <ExtentRef id="2050" />
        <ExtentRef id="2051" />
        <ExtentRef id="2052" />
        <ExtentRef id="2053" />
        <ExtentRef id="2054" />
        <ExtentRef id="2055" />
        <ExtentRef id="2057" />
        <ExtentRef id="2058" />
        <ExtentRef id="2059" />
        <ExtentRef id="2060" />
        <ExtentRef id="2061" />
        <ExtentRef id="2062" />
        <ExtentRef id="2066" />
        <ExtentRef id="2068" />
        <ExtentRef id="2069" />
        <ExtentRef id="2070" />
        <ExtentRef id="2080" />
        <ExtentRef id="2083" />
        <ExtentRef id="2084" />
        <ExtentRef id="2085" />
        <ExtentRef id="2137" />
        <ExtentRef id="2091" />
        <ExtentRef id="2093" />
        <ExtentRef id="2138" />
        <ExtentRef id="2095" />
        <ExtentRef id="2097" />
        <ExtentRef id="2098" />
        <ExtentRef id="2099" />
        <ExtentRef id="2100" />
        <ExtentRef id="2104" />
        <ExtentRef id="2106" />
        <ExtentRef id="2108" />
        <ExtentRef id="2109" />
        <ExtentRef id="2110" />
        <ExtentRef id="2111" />
        <ExtentRef id="2112" />
        <ExtentRef id="2113" />
        <ExtentRef id="2114" />
        <ExtentRef id="2115" />
        <ExtentRef id="2118" />
        <ExtentRef id="2120" />
        <ExtentRef id="2121" />
        <ExtentRef id="2123" />
        <ExtentRef id="2124" />
        <ExtentRef id="1685" />
        <ExtentRef id="1686" />
        <ExtentRef id="1687" />
        <ExtentRef id="1688" />
        <ExtentRef id="1690" />
        <ExtentRef id="1692" />
        <ExtentRef id="1693" />
        <ExtentRef id="1694" />
        <ExtentRef id="1696" />
        <ExtentRef id="1697" />
        <ExtentRef id="1698" />
        <ExtentRef id="1699" />
        <ExtentRef id="1700" />
        <ExtentRef id="1701" />
        <ExtentRef id="1702" />
        <ExtentRef id="1703" />
        <ExtentRef id="1704" />
        <ExtentRef id="1705" />
        <ExtentRef id="1707" />
        <ExtentRef id="1708" />
        <ExtentRef id="1710" />
        <ExtentRef id="1711" />
        <ExtentRef id="1712" />
        <ExtentRef id="1713" />
        <ExtentRef id="1714" />
        <ExtentRef id="1716" />
        <ExtentRef id="1718" />
        <ExtentRef id="1720" />
        <ExtentRef id="1723" />
        <ExtentRef id="1726" />
        <ExtentRef id="1727" />
        <ExtentRef id="1728" />
        <ExtentRef id="1729" />
        <ExtentRef id="1730" />
        <ExtentRef id="1731" />
        <ExtentRef id="1732" />
        <ExtentRef id="1733" />
        <ExtentRef id="1734" />
        <ExtentRef id="1735" />
        <ExtentRef id="1739" />
        <ExtentRef id="1740" />
        <ExtentRef id="1741" />
        <ExtentRef id="1742" />
        <ExtentRef id="1743" />
        <ExtentRef id="1746" />
        <ExtentRef id="1749" />
        <ExtentRef id="1750" />
        <ExtentRef id="1751" />
        <ExtentRef id="1752" />
        <ExtentRef id="1753" />
        <ExtentRef id="1754" />
        <ExtentRef id="1755" />
        <ExtentRef id="1756" />
        <ExtentRef id="1757" />
        <ExtentRef id="1758" />
        <ExtentRef id="1759" />
        <ExtentRef id="1760" />
        <ExtentRef id="1761" />
        <ExtentRef id="1762" />
        <ExtentRef id="1763" />
        <ExtentRef id="1764" />
        <ExtentRef id="1765" />
        <ExtentRef id="1766" />
        <ExtentRef id="1767" />
        <ExtentRef id="1768" />
        <ExtentRef id="1769" />
        <ExtentRef id="1777" />
        <ExtentRef id="1779" />
        <ExtentRef id="1780" />
        <ExtentRef id="1783" />
        <ExtentRef id="1784" />
        <ExtentRef id="1785" />
        <ExtentRef id="1787" />
        <ExtentRef id="1788" />
        <ExtentRef id="1789" />
        <ExtentRef id="1791" />
        <ExtentRef id="1792" />
        <ExtentRef id="1793" />
        <ExtentRef id="1794" />
        <ExtentRef id="1796" />
        <ExtentRef id="1797" />
        <ExtentRef id="1801" />
        <ExtentRef id="1802" />
        <ExtentRef id="1803" />
        <ExtentRef id="1804" />
      </ExtentRefs>
    </ExtentSelector>
    <ExtentSelector extentID="2" gapBefore="0" primaryTrack="false">
      <Effects />
      <Transitions />
      <BoundProperties />
      <ExtentRefs />
    </ExtentSelector>
    <ExtentSelector extentID="3" gapBefore="0" primaryTrack="false">
      <Effects />
      <Transitions />
      <BoundProperties />
      <ExtentRefs />
    </ExtentSelector>
    <ExtentSelector extentID="4" gapBefore="0" primaryTrack="false">
      <Effects />
      <Transitions />
      <BoundProperties />
      <ExtentRefs />
    </ExtentSelector>
  </Extents>
  <BoundPlaceholders>
    <BoundPlaceholder placeholderID="SingleExtentView" extentID="0" />
    <BoundPlaceholder placeholderID="Main" extentID="1" />
    <BoundPlaceholder placeholderID="SoundTrack" extentID="2" />
    <BoundPlaceholder placeholderID="Text" extentID="4" />
    <BoundPlaceholder placeholderID="Narration" extentID="3" />
  </BoundPlaceholders>
  <BoundProperties>
    <BoundPropertyFloatSet Name="AspectRatio">
      <BoundPropertyFloatElement Value="1.3333332538604736" />
    </BoundPropertyFloatSet>
    <BoundPropertyFloat Name="SoundTrackMix" Value="0" />
  </BoundProperties>
  <ThemeOperationLog themeID="0">
    <MonolithicThemeOperations />
  </ThemeOperationLog>
</Project>